<svg width="30" height="31" viewBox="0 0 30 31" fill="none" xmlns="http://www.w3.org/2000/svg">
<path d="M29 15.9355C29 23.6675 22.732 29.9355 15 29.9355C7.268 29.9355 1 23.6675 1 15.9355C1 8.20355 7.268 1.93555 15 1.93555C22.732 1.93555 29 8.20355 29 15.9355Z" fill="#EFF3FF" stroke="#5B84FE" stroke-width="2"/>
<path d="M24.2863 24.5071V23.4835C24.2863 23.1964 24.1176 22.9385 23.8628 22.8371C20.8731 21.6393 17.5541 20.1528 17.2751 19.2264V18.2543C17.8953 17.5971 18.3845 16.68 18.6741 15.6064C19.3696 15.1007 19.5426 14.0571 18.9668 13.3228V11.1478C18.9668 8.9014 17.76 7.36426 15.0009 7.36426C12.313 7.36426 11.0336 8.9014 11.0336 11.1478V13.3235C10.4591 14.0564 10.6316 15.0993 11.3263 15.6064C11.6158 16.68 12.1053 17.5971 12.7259 18.2543V19.2264C12.4478 20.1514 9.12799 21.6385 6.13827 22.8364C5.88349 22.9393 5.71484 23.1957 5.71484 23.4828V24.5071" stroke="#5B84FE" stroke-width="2"/>
</svg>
