<svg width="30" height="30" viewBox="0 0 30 30" fill="none" xmlns="http://www.w3.org/2000/svg">
<circle cx="15" cy="15" r="15" fill="#5B84FE"/>
<path fill-rule="evenodd" clip-rule="evenodd" d="M20.8 7.3H19.9V6.4C19.9 5.905 19.495 5.5 19 5.5C18.505 5.5 18.1 5.905 18.1 6.4V7.3H10.9V6.4C10.9 5.905 10.495 5.5 10 5.5C9.50502 5.5 9.10002 5.905 9.10002 6.4V7.3H8.20002C7.20102 7.3 6.40902 8.11 6.40902 9.1L6.40002 21.7C6.40002 22.69 7.20102 23.5 8.20002 23.5H20.8C21.79 23.5 22.6 22.69 22.6 21.7V9.1C22.6 8.11 21.79 7.3 20.8 7.3ZM20.8 20.8C20.8 21.295 20.395 21.7 19.9 21.7H9.10002C8.60502 21.7 8.20002 21.295 8.20002 20.8V11.8H20.8V20.8ZM10 13.6H11.8V15.4H10V13.6ZM13.6 13.6H15.4V15.4H13.6V13.6ZM17.2 13.6H19V15.4H17.2V13.6Z" fill="white"/>
</svg>
