<svg width="30" height="30" viewBox="0 0 30 30" fill="none" xmlns="http://www.w3.org/2000/svg">
<circle cx="15" cy="15" r="15" fill="#5B84FE"/>
<path d="M24.7671 9.66018C24.1537 7.5806 22.4192 5.84602 20.3396 5.23268C18.7583 4.77268 17.6658 4.81102 16.9087 5.37643C15.9983 6.05685 15.8929 7.28352 15.8929 8.1556V10.5418C15.8929 12.8993 16.9662 14.0973 19.0746 14.0973H21.825C22.6875 14.0973 23.9237 13.9918 24.6042 13.0814C25.1887 12.3339 25.2367 11.2414 24.7671 9.66018Z" fill="white"/>
<path d="M22.1221 15.8031C21.8729 15.5156 21.5087 15.3527 21.135 15.3527H17.7042C16.0175 15.3527 14.6471 13.9823 14.6471 12.2956V8.86478C14.6471 8.49103 14.4842 8.12686 14.1967 7.87769C13.9187 7.62853 13.5354 7.51353 13.1712 7.56144C10.9192 7.84894 8.84916 9.08519 7.49791 10.9444C6.13708 12.8131 5.63874 15.0939 6.06999 17.3748C6.69291 20.6714 9.32833 23.3069 12.6346 23.9298C13.1617 24.0352 13.6887 24.0831 14.2158 24.0831C15.9504 24.0831 17.6275 23.5464 19.0554 22.5019C20.9146 21.1506 22.1508 19.0806 22.4383 16.8285C22.4862 16.4548 22.3712 16.081 22.1221 15.8031Z" fill="white"/>
</svg>
