<svg width="30" height="30" viewBox="0 0 30 30" fill="none" xmlns="http://www.w3.org/2000/svg">
<circle cx="15" cy="15" r="15" fill="#5B84FE"/>
<g clip-path="url(#clip0_1170_13448)">
<path d="M14.5 4.0835C15.4333 4.0835 16.3375 4.20641 17.1979 4.43662L14.9833 6.65016C14.8153 6.81884 14.6671 7.00617 14.5416 7.2085H14.5C13.0578 7.2085 11.6481 7.63614 10.4489 8.43736C9.24984 9.23858 8.31525 10.3774 7.76336 11.7098C7.21147 13.0421 7.06707 14.5083 7.34842 15.9227C7.62977 17.3371 8.32423 18.6364 9.34399 19.6561C10.3638 20.6759 11.663 21.3704 13.0774 21.6517C14.4919 21.9331 15.958 21.7887 17.2904 21.2368C18.6228 20.6849 19.7616 19.7503 20.5628 18.5512C21.364 17.3521 21.7916 15.9423 21.7916 14.5002V14.4585C21.9916 14.3335 22.1791 14.1866 22.3489 14.0158L24.5635 11.8022C24.7937 12.6627 24.9166 13.5668 24.9166 14.5002C24.9166 20.2533 20.2531 24.9168 14.5 24.9168C8.74685 24.9168 4.08331 20.2533 4.08331 14.5002C4.08331 8.74704 8.74685 4.0835 14.5 4.0835ZM14.0687 9.30954C14.0687 10.196 14.025 11.095 14.0729 11.9804L13.5104 12.5429C13.3169 12.7364 13.1634 12.9661 13.0587 13.2189C12.954 13.4717 12.9001 13.7427 12.9001 14.0163C12.9001 14.29 12.954 14.5609 13.0587 14.8137C13.1634 15.0665 13.3169 15.2963 13.5104 15.4897C13.7039 15.6832 13.9336 15.8367 14.1864 15.9414C14.4392 16.0462 14.7102 16.1001 14.9838 16.1001C15.2575 16.1001 15.5284 16.0462 15.7813 15.9414C16.0341 15.8367 16.2638 15.6832 16.4573 15.4897L17.0198 14.9272C17.9052 14.9752 18.8031 14.9314 19.6906 14.9314C19.6083 15.9214 19.2447 16.8671 18.6425 17.6572C18.0404 18.4472 17.2248 19.0486 16.2921 19.3903C15.3594 19.7321 14.3484 19.8 13.3784 19.5861C12.4084 19.3721 11.5197 18.8852 10.8173 18.1828C10.1149 17.4804 9.62803 16.5918 9.41408 15.6217C9.20013 14.6517 9.26804 13.6407 9.60981 12.708C9.95158 11.7753 10.5529 10.9598 11.343 10.3576C12.133 9.75549 13.0788 9.39182 14.0687 9.30954ZM21.275 4.21579C21.4651 4.29462 21.6276 4.42801 21.742 4.59913C21.8564 4.77025 21.9175 4.97142 21.9177 5.17725V7.0835H23.8229C24.0289 7.08354 24.2302 7.14466 24.4015 7.25912C24.5728 7.37358 24.7062 7.53625 24.7851 7.72656C24.8639 7.91688 24.8845 8.12629 24.8443 8.32832C24.8042 8.53035 24.705 8.71594 24.5594 8.86162L20.875 12.5418C20.6797 12.7372 20.4148 12.847 20.1385 12.847H17.625L15.7198 14.7522C15.5243 14.9476 15.2593 15.0572 14.9829 15.0571C14.7066 15.057 14.4417 14.9472 14.2463 14.7517C14.051 14.5563 13.9413 14.2912 13.9414 14.0149C13.9415 13.7386 14.0514 13.4736 14.2469 13.2783L16.1521 11.3752V8.86058C16.152 8.72362 16.1789 8.58799 16.2312 8.46144C16.2836 8.33489 16.3604 8.21991 16.4573 8.12308L20.1396 4.44079C20.2852 4.29502 20.4709 4.19574 20.673 4.15551C20.8751 4.11527 21.0846 4.13589 21.275 4.21475V4.21579Z" fill="white"/>
</g>
<defs>
<clipPath id="clip0_1170_13448">
<rect width="25" height="25" fill="white" transform="translate(2 2)"/>
</clipPath>
</defs>
</svg>
