<svg width="30" height="30" viewBox="0 0 30 30" fill="none" xmlns="http://www.w3.org/2000/svg">
<circle cx="15" cy="15" r="15" fill="#5B84FE"/>
<path d="M7.31249 5.9165C5.98999 5.9165 4.91666 6.98984 4.91666 8.31234V10.5395C4.91717 11.0519 5.05461 11.5549 5.31476 11.9963C5.57491 12.4378 5.94832 12.8017 6.39632 13.0503L11.9087 16.1151C10.7541 16.698 9.82969 17.6531 9.28492 18.8262C8.74014 19.9993 8.60678 21.3217 8.90637 22.58C9.20596 23.8382 9.92102 24.9586 10.936 25.7603C11.951 26.562 13.2066 26.9981 14.5 26.9981C15.7934 26.9981 17.049 26.562 18.064 25.7603C19.079 24.9586 19.794 23.8382 20.0936 22.58C20.3932 21.3217 20.2598 19.9993 19.7151 18.8262C19.1703 17.6531 18.2459 16.698 17.0913 16.1151L22.6056 13.0523C23.0535 12.8032 23.4267 12.4389 23.6865 11.9971C23.9464 11.5553 24.0833 11.052 24.0833 10.5395V8.31234C24.0833 6.98984 23.01 5.9165 21.6875 5.9165H7.31249ZM12.5833 14.2962V7.83317H16.4167V14.2962L14.5 15.3618L12.5833 14.2962ZM18.3333 21.2498C18.3333 22.2665 17.9295 23.2415 17.2106 23.9604C16.4917 24.6793 15.5167 25.0832 14.5 25.0832C13.4833 25.0832 12.5083 24.6793 11.7894 23.9604C11.0705 23.2415 10.6667 22.2665 10.6667 21.2498C10.6667 20.2332 11.0705 19.2582 11.7894 18.5393C12.5083 17.8204 13.4833 17.4165 14.5 17.4165C15.5167 17.4165 16.4917 17.8204 17.2106 18.5393C17.9295 19.2582 18.3333 20.2332 18.3333 21.2498Z" fill="#FFF8F8"/>
</svg>
