<svg width="23" height="23" viewBox="0 0 23 23" fill="none" xmlns="http://www.w3.org/2000/svg">
<circle cx="11.3497" cy="11.0171" r="11.0171" fill="#32498C"/>
<path fill-rule="evenodd" clip-rule="evenodd" d="M14.0917 10.3323C15.2297 10.3323 16.1414 9.41372 16.1414 8.27577C16.1414 7.13782 15.2297 6.21924 14.0917 6.21924C12.9538 6.21924 12.0352 7.13782 12.0352 8.27577C12.0352 9.41372 12.9538 10.3323 14.0917 10.3323ZM8.60763 10.3323C9.74558 10.3323 10.6573 9.41372 10.6573 8.27577C10.6573 7.13782 9.74558 6.21924 8.60763 6.21924C7.46968 6.21924 6.5511 7.13782 6.5511 8.27577C6.5511 9.41372 7.46968 10.3323 8.60763 10.3323ZM8.60763 11.7034C7.01039 11.7034 3.80905 12.5055 3.80905 14.1027V15.131C3.80905 15.508 4.11753 15.8165 4.49456 15.8165H12.7207C13.0977 15.8165 13.4062 15.508 13.4062 15.131V14.1027C13.4062 12.5055 10.2049 11.7034 8.60763 11.7034ZM14.0917 11.7034C13.8929 11.7034 13.6667 11.7171 13.4268 11.7377C13.4405 11.7445 13.4473 11.7583 13.4542 11.7651C14.2357 12.3341 14.7772 13.095 14.7772 14.1027V15.131C14.7772 15.3709 14.7292 15.604 14.6538 15.8165H18.2048C18.5818 15.8165 18.8903 15.508 18.8903 15.131V14.1027C18.8903 12.5055 15.6889 11.7034 14.0917 11.7034Z" fill="white"/>
</svg>
