<svg width="35" height="34" viewBox="0 0 35 34" fill="none" xmlns="http://www.w3.org/2000/svg">
<path d="M22.9893 18.6611L16.0166 25.6338C15.8311 25.8186 15.611 25.9651 15.3689 26.0648C15.1267 26.1645 14.8673 26.2155 14.6055 26.2148C14.0773 26.2126 13.571 26.0041 13.1943 25.6338C13.0086 25.4487 12.8612 25.2288 12.7607 24.9866C12.6601 24.7445 12.6084 24.4849 12.6084 24.2227C12.6084 23.9605 12.6601 23.7008 12.7607 23.4587C12.8612 23.2165 13.0086 22.9966 13.1943 22.8115L16.7637 19.2422H2.98438C2.45601 19.2422 1.94929 19.0323 1.57569 18.6587C1.20208 18.2851 0.992188 17.7784 0.992188 17.25C0.992188 16.7216 1.20208 16.2149 1.57569 15.8413C1.94929 15.4677 2.45601 15.2578 2.98438 15.2578H16.7637L13.1943 11.6885C12.8201 11.3142 12.6098 10.8066 12.6098 10.2773C12.6098 9.74807 12.8201 9.24047 13.1943 8.86621C13.5686 8.49196 14.0762 8.2817 14.6055 8.2817C15.1347 8.2817 15.6423 8.49196 16.0166 8.86621L22.9893 15.8389C23.175 16.0239 23.3223 16.2439 23.4229 16.486C23.5234 16.7282 23.5752 16.9878 23.5752 17.25C23.5752 17.5122 23.5234 17.7718 23.4229 18.014C23.3223 18.2561 23.175 18.4761 22.9893 18.6611ZM30.875 0.648438H21.5781C21.0498 0.648438 20.543 0.858328 20.1694 1.23194C19.7958 1.60554 19.5859 2.11226 19.5859 2.64062C19.5859 3.16899 19.7958 3.67571 20.1694 4.04931C20.543 4.42292 21.0498 4.63281 21.5781 4.63281H30.2109V29.8672H21.5781C21.0498 29.8672 20.543 30.0771 20.1694 30.4507C19.7958 30.8243 19.5859 31.331 19.5859 31.8594C19.5859 32.3877 19.7958 32.8945 20.1694 33.2681C20.543 33.6417 21.0498 33.8516 21.5781 33.8516H30.875C31.7543 33.8472 32.5963 33.496 33.218 32.8742C33.8397 32.2525 34.1909 31.4105 34.1953 30.5312V3.96875C34.1909 3.08949 33.8397 2.24749 33.218 1.62576C32.5963 1.00402 31.7543 0.652801 30.875 0.648438Z" fill="#5B84FE"/>
</svg>
