<svg width="34" height="24" viewBox="0 0 34 24" fill="none" xmlns="http://www.w3.org/2000/svg">
<path d="M22.833 11.1668C22.833 14.5001 18.6664 17.0001 18.6664 19.5001H15.333C15.333 17.0001 11.1664 14.5001 11.1664 11.1668C11.1664 7.95013 13.783 5.33346 16.9997 5.33346C20.2164 5.33346 22.833 7.95013 22.833 11.1668ZM18.6664 21.1668H15.333V23.6668H18.6664V21.1668ZM33.6664 12.0001C33.6664 7.40013 31.7997 3.23346 28.783 0.216797L27.0164 1.98346C28.3333 3.29778 29.3778 4.85917 30.09 6.57807C30.8021 8.29696 31.1679 10.1395 31.1664 12.0001C31.1664 15.9001 29.583 19.4501 27.0164 22.0168L28.783 23.7835C30.3331 22.2379 31.5624 20.4012 32.4005 18.3791C33.2385 16.3569 33.6687 14.1891 33.6664 12.0001V12.0001ZM2.83302 12.0001C2.83302 8.10013 4.41635 4.55013 6.98302 1.98346L5.21635 0.216797C3.66631 1.76238 2.43695 3.59902 1.59891 5.62119C0.760868 7.64336 0.330665 9.81119 0.333017 12.0001C0.333017 16.6001 2.19968 20.7668 5.21635 23.7835L6.98302 22.0168C5.66608 20.7025 4.62157 19.1411 3.90942 17.4222C3.19726 15.7033 2.83147 13.8607 2.83302 12.0001V12.0001ZM26.1664 12.0001C26.1664 14.5335 25.133 16.8168 23.483 18.4835L25.2497 20.2501C26.3348 19.168 27.1953 17.8821 27.7816 16.4662C28.368 15.0504 28.6686 13.5326 28.6664 12.0001C28.6664 8.78346 27.3664 5.8668 25.2497 3.75013L23.483 5.5168C25.133 7.18346 26.1664 9.4668 26.1664 12.0001ZM8.74968 20.2501L10.5164 18.4835C8.84968 16.8168 7.83302 14.5335 7.83302 12.0001C7.83302 9.4668 8.86635 7.18346 10.5164 5.5168L8.74968 3.75013C7.66459 4.83225 6.80412 6.11821 6.21776 7.53405C5.6314 8.94989 5.33072 10.4677 5.33302 12.0001C5.33302 15.2168 6.63302 18.1335 8.74968 20.2501Z" fill="#111827"/>
</svg>
