<svg width="41" height="38" viewBox="0 0 41 38" fill="none" xmlns="http://www.w3.org/2000/svg">
<path d="M38.8621 5.20909H31.4621V0.5H28.7712V5.20909H12.6257V0.5H9.93478V5.20909H2.53478C1.99972 5.20971 1.48675 5.42254 1.1084 5.80089C0.730054 6.17924 0.517225 6.69221 0.516602 7.22727V35.4818C0.517225 36.0169 0.730054 36.5299 1.1084 36.9082C1.48675 37.2865 1.99972 37.4994 2.53478 37.5H38.8621C39.3971 37.4994 39.9101 37.2865 40.2884 36.9082C40.6668 36.5299 40.8796 36.0169 40.8802 35.4818V7.22727C40.8796 6.69221 40.6668 6.17924 40.2884 5.80089C39.9101 5.42254 39.3971 5.20971 38.8621 5.20909ZM38.1893 34.8091H3.20751V7.9H9.93478V11.2636H12.6257V7.9H28.7712V11.2636H31.4621V7.9H38.1893V34.8091Z" fill="#5F88F7"/>
<path d="M11.2803 15.9727H8.58936V18.6636H11.2803V15.9727Z" fill="#5F88F7"/>
<path d="M18.6802 15.9727H15.9893V18.6636H18.6802V15.9727Z" fill="#5F88F7"/>
<path d="M25.4077 15.9727H22.7168V18.6636H25.4077V15.9727Z" fill="#5F88F7"/>
<path d="M32.8076 15.9727H30.1167V18.6636H32.8076V15.9727Z" fill="#5F88F7"/>
<path d="M11.2803 22.0273H8.58936V24.7183H11.2803V22.0273Z" fill="#5F88F7"/>
<path d="M18.6802 22.0273H15.9893V24.7183H18.6802V22.0273Z" fill="#5F88F7"/>
<path d="M25.4077 22.0273H22.7168V24.7183H25.4077V22.0273Z" fill="#5F88F7"/>
<path d="M32.8076 22.0273H30.1167V24.7183H32.8076V22.0273Z" fill="#5F88F7"/>
<path d="M11.2803 28.0815H8.58936V30.7725H11.2803V28.0815Z" fill="#5F88F7"/>
<path d="M18.6802 28.0815H15.9893V30.7725H18.6802V28.0815Z" fill="#5F88F7"/>
<path d="M25.4077 28.0815H22.7168V30.7725H25.4077V28.0815Z" fill="#5F88F7"/>
<path d="M32.8076 28.0815H30.1167V30.7725H32.8076V28.0815Z" fill="#5F88F7"/>
</svg>
