<svg width="28" height="36" viewBox="0 0 28 36" fill="none" xmlns="http://www.w3.org/2000/svg">
<path d="M11.2428 14.5208C10.9941 14.4196 10.6501 14.3011 10.2772 14.2144C10.2829 14.1855 10.2829 14.1566 10.28 14.1277C10.3465 14.1074 10.3899 14.0554 10.4101 13.9976C10.5027 14.0004 10.5807 14.0149 10.6356 14.0496C10.6906 14.0843 10.7715 14.0236 10.7339 13.9629C10.653 13.8328 10.5287 13.7663 10.3812 13.7374C10.3639 13.7085 10.3408 13.6824 10.3118 13.6622C10.2511 13.6217 10.1904 13.5928 10.1297 13.561C10.2656 13.5321 10.3986 13.5032 10.5171 13.4714C10.5981 13.4483 10.5923 13.3095 10.5027 13.3182C10.1644 13.35 9.80881 13.3615 9.4561 13.3847C9.4561 13.295 9.39539 13.2112 9.31444 13.1707C9.78857 13.1158 10.2627 13.1505 10.7282 12.9655C10.7686 12.9481 10.76 12.8903 10.7224 12.8758C9.4908 12.3988 8.07708 12.8383 7.19821 13.7374C6.11986 14.8388 5.59947 16.8365 5.31037 18.3139C4.94321 20.1844 4.35055 21.9363 3.87353 23.7721C3.63647 24.6886 3.39072 25.6629 3.05247 26.5446C2.92527 26.8771 2.7547 27.2067 2.61882 27.542C2.22564 27.5883 1.82957 27.8514 1.45663 27.9207C1.05767 27.9959 0.456333 28.019 0.253962 28.4585C0.0718268 28.8517 0.248179 29.3374 0.375384 29.719C0.592211 30.3781 0.884207 31.1096 1.30341 31.6704C1.40459 31.8063 1.60986 31.8468 1.76019 31.7745C2.34707 31.497 2.3355 30.8147 1.96834 30.3723C1.65322 29.9936 1.55782 29.6265 1.43928 29.161C1.41905 29.0801 1.52601 29.002 1.68213 28.9326C1.68213 28.9355 1.68213 28.9384 1.68213 28.9413C1.76597 29.32 2.03773 29.6756 2.23721 30.0023C2.38754 30.2509 2.47427 30.5747 2.65929 30.7915C2.78072 30.9361 3.00911 30.9881 3.16522 30.858C3.44276 30.621 3.63646 29.9821 3.41675 29.6756C3.24329 29.4328 3.01778 29.1523 2.92816 28.869C2.86745 28.6811 2.99466 28.658 3.13343 28.5423C3.14788 28.5308 3.15655 28.5192 3.16812 28.5076C3.27798 28.6493 3.41675 28.7765 3.5295 28.8777C3.75211 29.0772 3.91111 29.4732 4.2378 29.5253C4.61652 29.5831 4.76975 29.2477 4.92586 28.976C5.09933 28.6695 4.78131 28.4267 4.57894 28.2677C4.13372 27.915 3.90822 27.6403 3.89955 27.039C3.89955 26.9407 3.91111 26.8453 3.93135 26.7499C4.05277 26.481 4.17998 26.2122 4.32742 25.952C5.11089 24.5729 5.42601 22.9655 5.9782 21.4969C6.54484 19.9878 6.88309 18.3832 7.45551 16.8799C7.65789 16.348 8.25633 14.6394 8.96752 14.6018C9.38383 14.5787 9.8117 14.6394 10.2309 14.6365C10.5431 14.6336 10.9334 14.544 11.2312 14.5873C11.2688 14.596 11.2803 14.5382 11.2428 14.5208Z" fill="#437E39"/>
<path d="M4.85344 22.6738C4.50363 22.6738 4.50941 22.1331 4.85923 22.1331C5.20615 22.1331 5.20326 22.6738 4.85344 22.6738ZM5.50103 21.1415C5.25819 21.1415 5.20615 21.5231 5.45189 21.5231C5.69763 21.5231 5.74966 21.1415 5.50103 21.1415ZM5.06738 21.3005C4.96041 21.3005 4.95463 21.4682 5.06449 21.4682C5.17145 21.4682 5.17435 21.3005 5.06738 21.3005ZM5.36805 20.2164C5.19169 20.2164 5.20904 20.4881 5.3825 20.4881C5.55596 20.4853 5.54151 20.2164 5.36805 20.2164ZM5.95203 20.2048C5.90867 20.1875 5.8682 20.1788 5.82194 20.1846C5.63691 20.2048 5.61957 20.4968 5.81327 20.5199C5.85952 20.5257 5.8971 20.5228 5.94047 20.5055C6.06478 20.4534 6.08791 20.2598 5.95203 20.2048ZM5.79592 18.4933C5.46634 18.4933 5.44899 19.0022 5.77857 19.0022C6.10815 19.005 6.12549 18.4933 5.79592 18.4933ZM5.46923 19.2277C5.30734 19.2277 5.17724 19.3751 5.18013 19.5341C5.18591 19.6989 5.32468 19.8232 5.48658 19.8232C5.64848 19.8232 5.77857 19.6758 5.77568 19.5168C5.7699 19.3491 5.63113 19.2277 5.46923 19.2277ZM6.13128 19.2016C6.03876 19.2016 5.97227 19.3028 5.98094 19.3867C5.99251 19.485 6.07346 19.537 6.16597 19.537C6.25848 19.537 6.32498 19.4358 6.3163 19.352C6.30763 19.2537 6.22379 19.2016 6.13128 19.2016ZM6.35678 18.45C6.23535 18.45 6.23535 18.6379 6.35389 18.6379C6.47531 18.635 6.4782 18.45 6.35678 18.45ZM5.83639 17.9585C5.68317 17.9585 5.68895 18.1984 5.84507 18.1984C5.99829 18.1956 5.98961 17.9585 5.83639 17.9585ZM5.78146 17.3774C5.40852 17.3774 5.42009 17.9527 5.79014 17.9527C6.16308 17.9527 6.15441 17.3774 5.78146 17.3774ZM5.96938 16.2643C5.86241 16.3944 5.98094 16.5303 6.11682 16.539C6.22668 16.5477 6.27005 16.4465 6.26716 16.354C6.26137 16.2036 6.05611 16.1574 5.96938 16.2643ZM6.44929 17.2589C6.25848 17.2589 6.28161 17.5537 6.47242 17.5537C6.66034 17.5537 6.63721 17.2589 6.44929 17.2589ZM4.3851 22.9079C4.21742 22.9079 4.22898 23.171 4.39666 23.171C4.56723 23.1681 4.55567 22.9079 4.3851 22.9079ZM0.965011 29.6787C1.0662 29.6643 1.11535 29.5833 1.11535 29.5053C1.11824 29.4937 1.12402 29.4821 1.12691 29.4706C1.13847 29.3752 1.06331 29.2508 0.956338 29.2508C0.84937 29.2508 0.751072 29.3058 0.736617 29.4214C0.733726 29.4359 0.736617 29.4503 0.736617 29.4619C0.725053 29.5226 0.739511 29.592 0.794441 29.6325C0.846479 29.6729 0.895626 29.6874 0.965011 29.6787ZM1.52587 28.7102C1.77739 28.7102 1.82654 28.3199 1.57502 28.3199C1.3235 28.3199 1.27435 28.7102 1.52587 28.7102ZM0.667235 28.7044C0.511119 28.7044 0.519792 28.9473 0.675908 28.9473C0.834914 28.9473 0.826242 28.7044 0.667235 28.7044ZM2.30645 28.7016C2.20815 28.7016 2.13877 28.8143 2.15033 28.9039C2.16478 29.0109 2.25441 29.06 2.35271 29.06C2.451 29.06 2.52038 28.9473 2.50882 28.8577C2.49436 28.7507 2.40474 28.7016 2.30645 28.7016ZM0.641217 28.4645C0.644108 28.4645 0.644108 28.4645 0.641217 28.4645C0.681691 28.4356 0.7106 28.3922 0.716382 28.3286C0.719273 28.2939 0.713489 28.2563 0.696143 28.2216L0.699036 28.2245C0.68169 28.1696 0.646996 28.1407 0.606521 28.1233C0.493771 28.1783 0.395479 28.2506 0.320312 28.3517C0.346332 28.4645 0.456187 28.5136 0.551591 28.4963L0.542919 28.505C0.583393 28.5021 0.615198 28.4876 0.641217 28.4645ZM2.33247 28.5483C2.51171 28.5483 2.49436 28.2737 2.31512 28.2737C2.13877 28.2737 2.15611 28.5483 2.33247 28.5483ZM1.10089 28.7305C1.31193 28.7305 1.27724 28.4038 1.06909 28.4038C0.858043 28.4038 0.892735 28.7305 1.10089 28.7305ZM1.72246 28.1638C1.91616 28.1638 1.9046 27.895 1.7427 27.8429C1.68488 27.8632 1.62705 27.8834 1.56923 27.8978C1.51141 27.9961 1.56923 28.1638 1.72246 28.1638ZM0.762639 29.9447C0.748184 29.9476 0.748184 29.9678 0.762639 29.9736L0.774202 29.9765C0.79733 29.9823 0.79733 29.9389 0.774202 29.9447C0.76842 29.9418 0.76553 29.9418 0.762639 29.9447ZM3.22579 27.2676C2.90778 27.2676 2.88465 27.7649 3.20556 27.7649C3.52357 27.7649 3.5467 27.2676 3.22579 27.2676ZM2.89044 28.2939C2.78925 28.2939 2.78347 28.4529 2.88465 28.4529C2.98873 28.4529 2.99451 28.2939 2.89044 28.2939ZM3.17954 26.8975C3.34433 26.9265 3.34433 26.672 3.17954 26.701C3.17665 26.701 3.17376 26.701 3.17087 26.7039C3.07257 26.7212 3.07257 26.8802 3.17087 26.8975C3.17087 26.8947 3.17376 26.8975 3.17954 26.8975ZM3.71149 27.9875C3.82713 27.9875 3.83002 27.8082 3.71438 27.8082C3.59874 27.8082 3.59585 27.9875 3.71149 27.9875ZM1.13269 30.1182C1.31483 30.1182 1.29459 29.8377 1.11535 29.8377C0.93321 29.8377 0.950556 30.1182 1.13269 30.1182ZM1.2281 28.8981C1.01994 28.8981 1.05174 29.219 1.2599 29.219C1.46805 29.219 1.43625 28.8981 1.2281 28.8981ZM3.27783 27.9007C3.14485 27.9007 3.14485 28.106 3.27783 28.106C3.41082 28.106 3.41082 27.9007 3.27783 27.9007ZM1.27146 29.459C1.10378 29.459 1.11534 29.7192 1.28302 29.7192C1.4507 29.7163 1.43625 29.459 1.27146 29.459ZM2.50304 27.5683C2.45389 27.5798 2.40185 27.5914 2.35271 27.6087C2.15033 27.7359 2.19948 28.1205 2.49726 28.1205C2.84996 28.1205 2.85285 27.5741 2.50304 27.5683Z" fill="#FF3A5C"/>
<path d="M14.4396 14.5203C14.7287 14.4192 15.1277 14.3006 15.5585 14.2139C15.5527 14.185 15.5498 14.1561 15.5556 14.1272C15.4775 14.1069 15.4284 14.0549 15.4024 13.9971C15.2954 14 15.2058 14.0144 15.1422 14.0491C15.0786 14.0838 14.9861 14.0231 15.0294 13.9624C15.1219 13.8323 15.2665 13.7658 15.437 13.7369C15.4573 13.708 15.4833 13.6819 15.518 13.6617C15.5903 13.6212 15.6597 13.5923 15.729 13.5605C15.57 13.5316 15.4197 13.5027 15.2809 13.4709C15.1884 13.4478 15.1942 13.309 15.2983 13.3177C15.6886 13.3495 16.102 13.361 16.5096 13.3842C16.5067 13.2945 16.5819 13.2107 16.6744 13.1702C16.1251 13.1153 15.5758 13.15 15.0352 12.965C14.986 12.9476 14.9976 12.8898 15.041 12.8753C16.4663 12.3983 18.1055 12.8378 19.126 13.7369C20.3749 14.8384 20.9791 16.8361 21.3145 18.3134C21.7395 20.1839 22.4276 21.9358 22.9797 23.7716C23.2573 24.6881 23.5377 25.6624 23.9309 26.5441C24.0783 26.8766 24.2778 27.2062 24.4339 27.5415C24.8878 27.5878 25.3475 27.8509 25.7811 27.9203C26.2408 27.9954 26.9376 28.0186 27.1746 28.458C27.3857 28.8512 27.1804 29.3369 27.0359 29.7185C26.7872 30.3776 26.4461 31.1091 25.9633 31.6699C25.8476 31.8058 25.6077 31.8463 25.4342 31.774C24.7548 31.4965 24.7693 30.8142 25.1943 30.3719C25.5614 29.9931 25.6713 29.626 25.8072 29.1605C25.8303 29.0796 25.706 29.0015 25.5267 28.9321C25.5267 28.935 25.5267 28.9379 25.5238 28.9408C25.4284 29.3195 25.1133 29.6751 24.882 30.0018C24.7057 30.2504 24.6074 30.5742 24.3935 30.791C24.2518 30.9356 23.9858 30.9876 23.8066 30.8575C23.4828 30.6205 23.2631 29.9816 23.5146 29.6751C23.7141 29.4323 23.9743 29.1518 24.0812 28.8685C24.1506 28.6806 24.0032 28.6575 23.8442 28.5418C23.8297 28.5303 23.8181 28.5187 23.8037 28.5071C23.6765 28.6488 23.5175 28.776 23.3845 28.8772C23.1272 29.0767 22.9422 29.4727 22.5634 29.5248C22.1269 29.5826 21.9476 29.2472 21.7684 28.9755C21.566 28.669 21.9361 28.4262 22.1703 28.2672C22.6877 27.9145 22.9479 27.6398 22.9566 27.0385C22.9566 26.9402 22.9422 26.8448 22.919 26.7494C22.7774 26.4805 22.6328 26.2117 22.4622 25.9515C21.5545 24.5724 21.1902 22.965 20.5484 21.4964C19.8892 19.9873 19.5018 18.3828 18.8369 16.8794C18.6027 16.3475 17.9089 14.6389 17.0849 14.6013C16.6021 14.5782 16.1078 14.6389 15.6221 14.636C15.2607 14.6331 14.8097 14.5435 14.4628 14.5868C14.4107 14.5955 14.3963 14.5377 14.4396 14.5203Z" fill="#437E39"/>
<path d="M21.8429 22.6733C22.2476 22.6733 22.2418 22.1326 21.8371 22.1326C21.4324 22.1326 21.4381 22.6733 21.8429 22.6733ZM21.0912 21.141C21.3745 21.141 21.4352 21.5226 21.149 21.5226C20.8657 21.5226 20.805 21.141 21.0912 21.141ZM21.5971 21.3C21.7215 21.3 21.7272 21.4677 21.6 21.4677C21.4757 21.4677 21.4699 21.3 21.5971 21.3ZM21.2473 20.2159C21.4497 20.2159 21.4324 20.4877 21.23 20.4877C21.0276 20.4877 21.045 20.2159 21.2473 20.2159ZM20.5679 20.2043C20.6171 20.187 20.6662 20.1783 20.7183 20.1841C20.9351 20.2043 20.9524 20.4963 20.7298 20.5195C20.6778 20.5252 20.6315 20.5223 20.5824 20.505C20.4407 20.453 20.4118 20.2593 20.5679 20.2043ZM20.7501 18.4928C21.1317 18.4928 21.1519 19.0017 20.7703 19.0017C20.3887 19.0046 20.3685 18.4928 20.7501 18.4928ZM21.1288 19.2272C21.3167 19.2272 21.467 19.3746 21.4613 19.5336C21.4555 19.6984 21.2936 19.8227 21.1057 19.8227C20.9178 19.8227 20.7674 19.6753 20.7732 19.5163C20.7819 19.3486 20.9409 19.2272 21.1288 19.2272ZM20.3598 19.2011C20.4667 19.2011 20.5448 19.3023 20.5332 19.3862C20.5217 19.4845 20.4234 19.5365 20.3193 19.5365C20.2123 19.5365 20.1343 19.4353 20.1458 19.3515C20.1574 19.2532 20.2557 19.2011 20.3598 19.2011ZM20.0996 18.4495C20.2384 18.4495 20.2412 18.6374 20.1025 18.6374C19.9637 18.6345 19.9608 18.4495 20.0996 18.4495ZM20.7038 17.958C20.8831 17.958 20.8744 18.198 20.6951 18.198C20.5188 18.1951 20.5275 17.958 20.7038 17.958ZM20.7645 17.3769C21.1953 17.3769 21.1837 17.9522 20.753 17.9522C20.3222 17.9522 20.3367 17.3769 20.7645 17.3769ZM20.5506 16.2639C20.6749 16.394 20.539 16.5298 20.38 16.5385C20.2499 16.5472 20.2037 16.446 20.2066 16.3535C20.2123 16.2032 20.4494 16.1569 20.5506 16.2639ZM19.9926 17.2584C20.2123 17.2584 20.1863 17.5533 19.9666 17.5533C19.7498 17.5533 19.7758 17.2584 19.9926 17.2584ZM22.3835 22.9074C22.5801 22.9074 22.5627 23.1705 22.369 23.1705C22.1725 23.1676 22.1869 22.9074 22.3835 22.9074ZM26.35 29.6782C26.2315 29.6638 26.1736 29.5828 26.1765 29.5048C26.1707 29.4932 26.165 29.4816 26.1621 29.4701C26.1476 29.3747 26.2372 29.2504 26.3616 29.2504C26.4859 29.2504 26.5986 29.3053 26.616 29.4209C26.6189 29.4354 26.616 29.4498 26.616 29.4614C26.6304 29.5221 26.6131 29.5915 26.5495 29.632C26.4859 29.6724 26.428 29.6869 26.35 29.6782ZM25.6966 28.7097C25.4075 28.7097 25.3468 28.3194 25.6417 28.3194C25.9308 28.3194 25.9886 28.7097 25.6966 28.7097ZM26.6911 28.704C26.8733 28.704 26.8646 28.9468 26.6825 28.9468C26.5003 28.9468 26.509 28.704 26.6911 28.704ZM24.7946 28.7011C24.9074 28.7011 24.9883 28.8138 24.9768 28.9034C24.9623 29.0104 24.8582 29.0596 24.7455 29.0596C24.6327 29.0596 24.5518 28.9468 24.5633 28.8572C24.5778 28.7502 24.6819 28.7011 24.7946 28.7011ZM26.7229 28.464C26.72 28.464 26.72 28.464 26.7229 28.464C26.6767 28.4351 26.642 28.3917 26.6362 28.3281C26.6304 28.2934 26.6391 28.2558 26.6564 28.2212L26.6536 28.224C26.6738 28.1691 26.7143 28.1402 26.7605 28.1229C26.8906 28.1778 27.0063 28.2501 27.093 28.3512C27.0612 28.464 26.9369 28.5131 26.8241 28.4958L26.8328 28.5045C26.7894 28.5016 26.7547 28.4871 26.7229 28.464ZM24.7628 28.5478C24.5576 28.5478 24.5749 28.2732 24.7802 28.2732C24.9883 28.2732 24.9681 28.5478 24.7628 28.5478ZM26.1881 28.73C25.9424 28.73 25.9828 28.4033 26.2257 28.4033C26.4714 28.4033 26.4338 28.73 26.1881 28.73ZM25.4711 28.1633C25.2456 28.1633 25.2601 27.8945 25.448 27.8424C25.5174 27.8627 25.5839 27.8829 25.6504 27.8974C25.714 27.9957 25.6475 28.1633 25.4711 28.1633ZM26.5842 29.9442C26.6015 29.9471 26.6015 29.9673 26.5842 29.9731L26.5726 29.976C26.5466 29.9818 26.5466 29.9384 26.5726 29.9442C26.5755 29.9413 26.5784 29.9413 26.5842 29.9442ZM23.7278 27.2671C24.0979 27.2671 24.1239 27.7644 23.7538 27.7644C23.3838 27.7644 23.3578 27.2671 23.7278 27.2671ZM24.1181 28.2934C24.2366 28.2934 24.2424 28.4524 24.1239 28.4524C24.0054 28.4524 23.9967 28.2934 24.1181 28.2934ZM23.7828 26.8971C23.5919 26.926 23.5919 26.6716 23.7828 26.7005C23.7856 26.7005 23.7914 26.7005 23.7943 26.7034C23.9071 26.7207 23.9071 26.8797 23.7943 26.8971C23.7914 26.8942 23.7885 26.8971 23.7828 26.8971ZM23.167 27.987C23.034 27.987 23.0311 27.8077 23.1641 27.8077C23.2971 27.8077 23.3 27.987 23.167 27.987ZM26.1534 30.1177C25.9424 30.1177 25.9655 29.8372 26.1736 29.8372C26.3847 29.8372 26.3644 30.1177 26.1534 30.1177ZM26.0406 28.8977C26.2806 28.8977 26.2459 29.2186 26.006 29.2186C25.766 29.2186 25.8007 28.8977 26.0406 28.8977ZM23.6671 27.9002C23.8203 27.9002 23.8203 28.1055 23.6671 28.1055C23.511 28.1055 23.5139 27.9002 23.6671 27.9002ZM25.9944 29.4585C26.1881 29.4585 26.1736 29.7187 25.9799 29.7187C25.7862 29.7158 25.8007 29.4585 25.9944 29.4585ZM24.5662 27.5678C24.624 27.5793 24.6819 27.5909 24.7397 27.6083C24.9739 27.7355 24.9189 28.12 24.572 28.12C24.1615 28.12 24.1586 27.5736 24.5662 27.5678Z" fill="#FF3A5C"/>
<path d="M17.8115 23.4598C17.4213 20.722 16.8662 18.0536 16.8546 15.284C16.843 12.4884 16.9529 9.58002 16.8112 6.80174C16.6869 4.39351 14.828 3.0463 12.8014 3.02317C10.9425 3.00293 9.19628 4.39351 9.08353 6.80174C8.95344 9.58002 9.05173 12.4884 9.04306 15.284C9.03149 18.0536 8.52556 20.722 8.16997 23.4598C7.90399 25.498 5.94677 28.8545 6.93839 30.7626C7.94736 32.6996 10.5319 32.7776 12.7696 32.7661C15.2183 32.7545 18.0573 32.6996 19.1617 30.7626C20.2487 28.8545 18.1035 25.498 17.8115 23.4598Z" fill="#5057B8"/>
<path d="M12.6867 9.8978C11.2441 9.8978 10.0703 8.72404 10.0703 7.28142C10.0703 7.15421 10.0848 7.02123 10.1108 6.86511C10.3103 5.59306 11.3944 4.66504 12.6838 4.66504C14.1264 4.66504 15.3002 5.8388 15.3002 7.28142C15.3031 8.72404 14.1293 9.8978 12.6867 9.8978Z" fill="#F0D907"/>
<path d="M12.6867 9.8978C11.2441 9.8978 10.0703 8.72404 10.0703 7.28142C10.0703 7.15421 10.0848 7.02123 10.1108 6.86511C10.3103 5.59306 11.3944 4.66504 12.6838 4.66504C14.1264 4.66504 15.3002 5.8388 15.3002 7.28142C15.3031 8.72404 14.1293 9.8978 12.6867 9.8978Z" fill="#F0D907"/>
<path d="M10.5234 7.28216C10.5234 8.47615 11.4919 9.44176 12.683 9.44176C13.877 9.44176 14.8426 8.47326 14.8426 7.28216C14.8426 6.08816 13.877 5.12256 12.683 5.12256C11.4919 5.12256 10.5234 6.08816 10.5234 7.28216Z" fill="white"/>
<path d="M10.6056 6.72998C10.675 7.86037 11.603 8.75948 12.7536 8.75948C13.7539 8.75948 14.5894 8.07431 14.8352 7.15207C14.8381 7.19544 14.8467 7.2388 14.8467 7.28217C14.8467 8.47616 13.8811 9.44177 12.6871 9.44177C11.4931 9.44177 10.5275 8.47327 10.5275 7.28217C10.5246 7.09136 10.5564 6.90633 10.6056 6.72998Z" fill="#E8E8E8"/>
<path d="M12.377 7.83619C12.8829 8.15131 13.545 7.99519 13.8601 7.48926C14.1723 6.98333 14.0191 6.3184 13.5132 6.00617C13.0073 5.69104 12.3423 5.84716 12.0301 6.35309C11.715 6.85902 11.8711 7.52396 12.377 7.83619Z" fill="black"/>
<path d="M12.7025 6.77287C12.9048 6.89719 13.1679 6.83648 13.2951 6.6341C13.4195 6.43173 13.3587 6.16576 13.1564 6.04144C12.954 5.91713 12.688 5.97784 12.5637 6.18021C12.4394 6.38258 12.503 6.64856 12.7025 6.77287Z" fill="white"/>
<path d="M9.26562 21.5605C11.749 22.5898 14.1052 22.6447 16.5626 21.8034C15.3455 23.3935 15.8369 27.2674 12.4891 26.9812C9.81781 26.7528 10.1821 23.5669 9.38994 21.7976L9.26562 21.5605Z" fill="#64BD55"/>
<path d="M12.8697 25.287C12.7743 24.7522 12.5575 24.4023 12.5575 24.4023C12.5575 24.4023 12.3002 24.8071 12.2366 25.4952C12.1932 25.9722 12.1441 26.5446 12.1094 26.9262C12.2279 26.9522 12.3551 26.9725 12.4881 26.984C12.7309 27.0043 12.9536 27.0014 13.1588 26.9811C13.0345 26.2526 12.9218 25.5877 12.8697 25.287Z" fill="white"/>
<path d="M14.3971 24.4926C14.3971 24.4926 14.6718 24.0734 14.8365 23.3506C14.8886 23.128 14.9406 22.6337 14.9695 22.2231C14.5995 22.2925 14.2294 22.3417 13.8594 22.3648C14.0733 23.738 14.3971 24.4926 14.3971 24.4926Z" fill="white"/>
<path d="M11.7761 22.2747C11.406 22.2169 11.0331 22.1417 10.6602 22.0405C10.6775 22.2602 10.7064 22.4973 10.744 22.7488C11.01 24.4834 11.1227 24.4921 11.1227 24.4921C11.1227 24.4921 11.5679 23.4167 11.6113 23.1507C11.646 22.9512 11.7154 22.8269 11.7761 22.2747Z" fill="white"/>
<path d="M12.4512 26.5154C11.3122 26.4171 10.6733 25.8331 10.2656 25.0409C10.6097 26.0528 11.1908 26.871 12.4946 26.9808C14.3738 27.1427 15.0445 25.9921 15.4839 24.6709C14.9838 25.8071 14.1801 26.6628 12.4512 26.5154Z" fill="#A2A7E8"/>
<path d="M7.17807 32.8993C6.86584 32.6073 6.53337 32.5986 6.12863 32.5495C6.09972 32.5466 6.09105 32.587 6.11707 32.5986C6.41773 32.7461 6.69527 32.9166 6.90053 33.1855C7.0711 33.4081 7.1694 33.6799 7.36021 33.8822C7.4267 33.9545 7.55391 33.9082 7.57414 33.8157C7.64642 33.4833 7.41225 33.1161 7.17807 32.8993Z" fill="#437E39"/>
<path d="M12.1118 34.0904C12.1118 34.0673 12.0829 34.0673 12.0713 34.0789C11.8834 34.2986 11.655 34.42 11.4064 34.5588C11.311 34.6108 11.337 34.7785 11.4469 34.793C11.6464 34.8219 11.8082 34.7438 11.9499 34.6051C12.0337 34.527 12.0684 34.4576 12.1089 34.3506C12.1465 34.2639 12.1147 34.1859 12.1118 34.0904Z" fill="#437E39"/>
<path d="M11.6978 31.9019C11.692 31.8961 11.6804 31.8961 11.6718 31.8961C11.3509 31.9828 11.1716 32.2748 11.0733 32.5466C10.9808 32.2893 10.8449 32.0522 10.5963 31.8296C10.5761 31.8123 10.5385 31.818 10.5269 31.8383C10.3737 32.1534 10.55 32.5119 10.6079 32.8328C10.6946 33.3214 10.6773 33.7955 10.6223 34.2841C10.5934 34.2957 10.5645 34.3014 10.5356 34.313C10.1569 34.4662 10.5558 34.8912 10.9346 34.7206C10.9346 34.7091 10.9374 34.7033 10.9403 34.6975C10.949 34.6831 10.9692 34.6859 10.9982 34.7062C11.3248 34.7958 11.5677 34.5645 11.4116 34.3448C11.241 34.1077 11.4376 33.3474 11.4925 32.986C11.5359 32.7287 11.903 32.1476 11.6978 31.9019Z" fill="#3C37A1"/>
<path d="M11.42 34.1829C11.3969 34.1482 11.3738 34.1135 11.342 34.0759C11.1772 33.8677 10.9517 33.9024 10.8129 34.0412C9.98607 34.0238 9.1043 34.1337 8.27747 34.0267C8.18496 33.833 8.05486 33.7174 7.86694 33.6567C7.87273 33.5989 7.87273 33.541 7.86405 33.4948C7.82069 33.2144 7.56628 32.9657 7.26272 33.0582C7.14419 33.0958 7.05457 33.1623 6.99675 33.2722C6.92447 33.4081 6.9476 33.6046 7.06902 33.7058C7.0748 33.7116 7.08058 33.7145 7.08926 33.7174C7.09504 33.7232 7.09793 33.7319 7.10082 33.7376C7.08637 33.7463 7.07191 33.7521 7.06613 33.7579C6.95049 33.8446 6.91002 33.9776 6.90134 34.1192C6.88689 34.3766 6.92447 34.5934 7.05746 34.816C7.17888 35.0184 7.37258 35.1831 7.61253 35.2265C7.63566 35.2294 7.6559 35.2323 7.67903 35.2352C8.10979 35.3161 8.75738 35.1485 9.07829 35.1542C9.31824 35.1571 9.82128 35.1658 10.3128 35.1138C10.677 35.1716 11.0471 35.1947 11.3911 35.1513C11.5761 35.1282 11.6773 34.9721 11.712 34.8044C11.7698 34.5413 11.5761 34.3766 11.42 34.1829Z" fill="#3C37A1"/>
<path d="M18.7447 32.8993C19.0541 32.6073 19.3836 32.5986 19.7797 32.5495C19.8086 32.5466 19.8173 32.587 19.7913 32.5986C19.4935 32.7461 19.2217 32.9166 19.0165 33.1855C18.8488 33.4081 18.7534 33.6799 18.5626 33.8822C18.4961 33.9545 18.3718 33.9082 18.3515 33.8157C18.2851 33.4833 18.5134 33.1161 18.7447 32.8993Z" fill="#437E39"/>
<path d="M13.8727 34.0904C13.8727 34.0673 13.9016 34.0673 13.9132 34.0789C14.0982 34.2986 14.3237 34.42 14.5694 34.5588C14.6648 34.6108 14.6388 34.7785 14.529 34.793C14.3324 34.8219 14.1734 34.7438 14.0317 34.6051C13.9507 34.527 13.9161 34.4576 13.8756 34.3506C13.8409 34.2639 13.8727 34.1859 13.8727 34.0904Z" fill="#437E39"/>
<path d="M14.2888 31.9019C14.2946 31.8961 14.3062 31.8961 14.3148 31.8961C14.63 31.9828 14.8092 32.2748 14.9075 32.5466C14.9971 32.2893 15.133 32.0522 15.3787 31.8296C15.3961 31.8123 15.4366 31.818 15.4452 31.8383C15.5985 32.1534 15.4221 32.5119 15.3672 32.8328C15.2805 33.3214 15.3007 33.7955 15.3527 34.2841C15.3816 34.2957 15.4105 34.3014 15.4395 34.313C15.8153 34.4662 15.4192 34.8912 15.0434 34.7206C15.0434 34.7091 15.0405 34.7033 15.0376 34.6975C15.0289 34.6831 15.0116 34.6859 14.9798 34.7062C14.656 34.7958 14.416 34.5645 14.5722 34.3448C14.7398 34.1077 14.5461 33.3474 14.4912 32.986C14.4478 32.7287 14.0836 32.1476 14.2888 31.9019Z" fill="#3C37A1"/>
<path d="M14.5546 34.1829C14.5778 34.1482 14.6009 34.1135 14.6298 34.0759C14.7946 33.8677 15.0172 33.9024 15.1502 34.0412C15.9655 34.0238 16.8386 34.1337 17.6538 34.0267C17.7434 33.833 17.8735 33.7174 18.0586 33.6567C18.0528 33.5989 18.0528 33.541 18.0615 33.4948C18.1048 33.2144 18.3563 32.9657 18.6541 33.0582C18.7698 33.0958 18.8594 33.1623 18.9143 33.2722C18.9866 33.4081 18.9606 33.6046 18.842 33.7058C18.8363 33.7116 18.8305 33.7145 18.8247 33.7174C18.8189 33.7232 18.816 33.7319 18.8131 33.7376C18.8276 33.7463 18.842 33.7521 18.8478 33.7579C18.9635 33.8446 19.0039 33.9776 19.0126 34.1192C19.0271 34.3766 18.9924 34.5934 18.8565 34.816C18.7351 35.0184 18.5443 35.1831 18.3072 35.2265C18.2841 35.2294 18.2638 35.2323 18.2436 35.2352C17.8186 35.3161 17.1797 35.1485 16.8617 35.1542C16.6246 35.1571 16.1274 35.1658 15.6446 35.1138C15.2832 35.1716 14.9189 35.1947 14.5807 35.1513C14.3985 35.1282 14.2973 34.9721 14.2627 34.8044C14.2106 34.5413 14.4014 34.3766 14.5546 34.1829Z" fill="#3C37A1"/>
<path d="M10.6161 13.3933C10.5958 13.4253 10.5667 13.4137 10.555 13.4602C10.5521 13.469 10.5696 13.4719 10.5696 13.4632L10.6161 13.4078C10.6394 13.4282 10.6336 13.37 10.6161 13.3933Z" fill="#437E39"/>
<path d="M11.298 12.1406C11.1592 12.1406 11.1621 12.3575 11.3008 12.3575C11.4396 12.3546 11.4367 12.1406 11.298 12.1406Z" fill="#FF3A5C"/>
<path d="M13.2457 11.9185C13.0895 11.9185 13.0982 12.1613 13.2543 12.1613C13.4104 12.1613 13.4018 11.9185 13.2457 11.9185Z" fill="#FF3A5C"/>
<path d="M13.9938 12.9043C13.8174 12.9043 13.6844 13.0806 13.696 13.2454C13.7076 13.4276 13.8637 13.5432 14.0372 13.5432C14.2106 13.5432 14.3465 13.3669 14.3349 13.2021C14.3234 13.0199 14.1673 12.9043 13.9938 12.9043Z" fill="#FF3A5C"/>
<path d="M12.3919 13.6768C12.2185 13.6768 12.0855 13.8473 12.0942 14.0121C12.1057 14.1914 12.256 14.3099 12.4295 14.3099C12.603 14.3099 12.736 14.1393 12.7273 13.9745C12.7157 13.7924 12.5654 13.6768 12.3919 13.6768Z" fill="#FF3A5C"/>
<path d="M13.398 15.3965C13.3807 15.2664 13.3142 15.1565 13.1783 15.1218C13.0366 15.0871 12.8458 15.1739 12.8256 15.3329C12.8227 15.3502 12.8198 15.3676 12.8198 15.3849C12.7996 15.5439 12.869 15.7029 13.0395 15.7434C13.213 15.7868 13.4327 15.6393 13.4067 15.4456C13.4038 15.4283 13.4009 15.4138 13.398 15.3965Z" fill="#FF3A5C"/>
<path d="M13.5169 13.9165C13.329 13.9165 13.3521 14.2056 13.5372 14.2056C13.7251 14.2056 13.702 13.9165 13.5169 13.9165Z" fill="#FF3A5C"/>
<path d="M12.7176 11.9185C12.4747 11.9185 12.4227 12.3001 12.6684 12.3001C12.9113 12.3001 12.9633 11.9185 12.7176 11.9185Z" fill="#FF3A5C"/>
<path d="M14.6907 13.8989C14.3409 13.8989 14.3351 14.4424 14.6878 14.4424C15.0347 14.4424 15.0405 13.8989 14.6907 13.8989Z" fill="#FF3A5C"/>
<path d="M14.3171 14.7666C13.9731 14.7666 13.9644 15.3014 14.3084 15.3014C14.6524 15.3014 14.6611 14.7666 14.3171 14.7666Z" fill="#FF3A5C"/>
<path d="M14.3765 16.1162C13.9919 16.1162 14.0122 16.7118 14.3938 16.7118C14.7783 16.7118 14.7581 16.1162 14.3765 16.1162Z" fill="#FF3A5C"/>
<path d="M14.3293 16.3794C14.3322 16.3823 14.3351 16.3852 14.338 16.3852C14.3293 16.3881 14.3206 16.391 14.312 16.3968C14.2484 16.4228 14.2715 16.5066 14.3235 16.5269C14.3264 16.5298 14.3293 16.5298 14.3351 16.5327C14.3785 16.55 14.4334 16.5095 14.4334 16.4633C14.4334 16.4517 14.4421 16.4286 14.4421 16.417C14.445 16.3621 14.3582 16.3245 14.3293 16.3794Z" fill="#FF3A5C"/>
<path d="M12.0255 15.8641C12.0226 15.8641 12.0168 15.8612 12.0139 15.8612C11.8867 15.815 11.8318 16.0202 11.959 16.0636C11.9821 16.0723 12.0023 16.0723 12.0255 16.0752C12.1642 16.0781 12.1613 15.867 12.0255 15.8641Z" fill="#FF3A5C"/>
<path d="M11.8562 17.0996C11.8504 17.0996 11.8446 17.0996 11.8359 17.1025C11.9082 17.088 11.8244 17.4523 11.9487 17.3164C11.9718 17.2904 11.9834 17.2557 11.9834 17.2239C11.9834 17.1516 11.9256 17.1025 11.8562 17.0996Z" fill="#FF3A5C"/>
<path d="M13.2885 17.2873C13.2654 17.2844 13.2422 17.2815 13.2162 17.2786C13.1121 17.2642 13.0196 17.3393 13.0023 17.4434C13.0023 17.4463 13.0023 17.4492 13.0023 17.4492C12.982 17.5735 13.1006 17.6805 13.2191 17.6631C13.2364 17.6603 13.2509 17.6545 13.2682 17.6487C13.274 17.6487 13.2798 17.6458 13.2856 17.6458C13.4851 17.6285 13.4909 17.3018 13.2885 17.2873Z" fill="#FF3A5C"/>
<path d="M13.4595 18.8657C13.263 18.6691 13.0606 18.5853 12.9016 18.7529V18.7501C12.8958 18.7558 12.89 18.7616 12.8842 18.7703C12.8756 18.7819 12.8698 18.7934 12.8611 18.805C12.8582 18.8079 12.8582 18.8108 12.8553 18.8137C12.8495 18.8223 12.8438 18.8339 12.838 18.8455C12.8351 18.8512 12.8351 18.8541 12.8322 18.8599C12.812 18.9091 12.8004 18.964 12.8062 19.0189C12.8148 19.1085 12.8524 19.1779 12.9103 19.2271C12.9565 19.2733 13.0143 19.3051 13.0837 19.3196C13.1126 19.3254 13.1444 19.3254 13.1733 19.3225C13.2601 19.3138 13.3439 19.2704 13.4017 19.2039C13.4393 19.1577 13.4624 19.1056 13.474 19.0478C13.4856 18.9813 13.4798 18.9235 13.4595 18.8657Z" fill="#FF3A5C"/>
<path d="M11.8391 16.9922C11.735 16.9922 11.6367 17.0442 11.6223 17.1599C11.6107 17.2553 11.6859 17.3767 11.7899 17.3767C11.894 17.3767 11.9923 17.3247 12.0068 17.209C12.0183 17.1136 11.9461 16.9922 11.8391 16.9922Z" fill="#FF3A5C"/>
<path d="M12.8149 16.48C12.6616 16.48 12.6674 16.7199 12.8235 16.7199C12.9768 16.7199 12.9681 16.48 12.8149 16.48Z" fill="#FF3A5C"/>
<path d="M13.9483 12.4282C13.9512 12.4311 13.9512 12.434 13.9541 12.434C13.9745 12.4602 14.0094 12.4544 14.0298 12.4311C14.0327 12.4282 14.0327 12.4253 14.0356 12.4224C14.1142 12.3234 13.8609 12.3176 13.9483 12.4282Z" fill="#FF3A5C"/>
<path d="M15.0914 12.21C14.9526 12.21 14.8341 12.3111 14.8283 12.4528C14.8226 12.5858 14.9353 12.7159 15.0712 12.7159C15.21 12.7159 15.3285 12.6147 15.3343 12.473C15.34 12.3372 15.2302 12.21 15.0914 12.21Z" fill="#FF3A5C"/>
<path d="M14.0678 12.1499C13.8741 12.1499 13.8972 12.4477 14.0909 12.4477C14.2818 12.4506 14.2586 12.1499 14.0678 12.1499Z" fill="#FF3A5C"/>
<path d="M14.6361 10.9609C14.5176 10.9609 14.4106 11.0332 14.399 11.1575C14.3904 11.2674 14.4771 11.3946 14.5956 11.3946C14.7142 11.3946 14.8211 11.3223 14.8327 11.198C14.8443 11.0853 14.7546 10.9609 14.6361 10.9609Z" fill="#FF3A5C"/>
<path d="M13.405 10.9849C13.1853 10.9849 13.2229 11.326 13.4426 11.326C13.6623 11.326 13.6218 10.9849 13.405 10.9849Z" fill="#FF3A5C"/>
<path d="M11.9004 10.5542C11.727 10.5542 11.7414 10.8202 11.9149 10.8202C12.0884 10.8202 12.0739 10.5542 11.9004 10.5542Z" fill="#FF3A5C"/>
<path d="M11.5943 12.8433C11.2994 12.8433 11.2647 13.3 11.5625 13.3C11.8574 13.3 11.8921 12.8433 11.5943 12.8433Z" fill="#FF3A5C"/>
<path d="M11.1382 13.8292C11.1296 13.8234 11.1238 13.8205 11.1151 13.8176C10.9185 13.7251 10.6786 13.8494 10.641 14.0633C10.6005 14.2946 10.8549 14.5577 11.092 14.4392C11.1209 14.4247 11.1527 14.4074 11.1816 14.3929C11.41 14.2657 11.3291 13.939 11.1382 13.8292Z" fill="#FF3A5C"/>
<path d="M11.8405 14.7861C11.7422 14.7861 11.6757 14.896 11.6844 14.9827C11.6959 15.0868 11.7855 15.1388 11.8838 15.1388C11.9821 15.1388 12.0486 15.029 12.0399 14.9394C12.0284 14.8382 11.9388 14.7861 11.8405 14.7861Z" fill="#FF3A5C"/>
<path d="M11.1531 15.5059C11.0664 15.5059 10.9999 15.5984 11.0086 15.6793C11.0172 15.7718 11.0953 15.8239 11.182 15.8239C11.2688 15.8239 11.3353 15.7314 11.3266 15.6504C11.3179 15.5579 11.2399 15.5059 11.1531 15.5059Z" fill="#FF3A5C"/>
<path d="M14.1045 17.8248C14.1016 17.8277 14.0987 17.8277 14.0959 17.8306C14.0265 17.8769 13.9976 17.9925 14.038 18.0677C14.0409 18.0706 14.0409 18.0763 14.0438 18.0792C14.1045 18.1978 14.2867 18.2498 14.3734 18.1226C14.3792 18.1168 14.3821 18.1081 14.3878 18.1024C14.5151 17.9087 14.2924 17.6976 14.1045 17.8248Z" fill="#FF3A5C"/>
<path d="M13.942 17.1973C13.8692 17.1973 13.8605 17.3108 13.9332 17.3108C14.0089 17.3108 14.0176 17.1973 13.942 17.1973Z" fill="#FF3A5C"/>
<path d="M14.6327 15.136C14.6298 15.136 14.624 15.136 14.6211 15.1331C14.4419 15.1071 14.4448 15.3817 14.5951 15.3586C14.598 15.3586 14.6038 15.3586 14.6067 15.3557C14.7223 15.3412 14.7715 15.1562 14.6327 15.136Z" fill="#FF3A5C"/>
<path d="M14.9771 15.6392C14.9597 15.6247 14.9395 15.6074 14.9164 15.6016C14.7978 15.5611 14.6562 15.6507 14.7053 15.7895C14.714 15.8126 14.7256 15.8329 14.74 15.8531C14.8904 16.0439 15.1563 15.7692 14.9771 15.6392Z" fill="#FF3A5C"/>
<path d="M15.233 14.7538C15.2215 14.6237 15.0451 14.6237 15.0307 14.7538C15.0307 14.7625 15.0307 14.7683 15.0278 14.7769C15.0162 14.9099 15.2475 14.9099 15.233 14.7769C15.2359 14.7683 15.2359 14.7596 15.233 14.7538Z" fill="#FF3A5C"/>
<path d="M15.6123 13.3383C15.6065 13.3238 15.5979 13.3094 15.5863 13.2949C15.5863 13.2949 15.5863 13.2949 15.5834 13.292C15.5429 13.2458 15.462 13.2515 15.4215 13.2949C15.381 13.3354 15.3781 13.3787 15.3868 13.4337C15.407 13.5522 15.5979 13.5406 15.6181 13.4279C15.6268 13.3932 15.6239 13.3643 15.6123 13.3383Z" fill="#FF3A5C"/>
<path d="M15.0914 17.0938C14.9526 17.0938 14.8341 17.1978 14.8283 17.3395C14.8226 17.4754 14.9353 17.6026 15.0741 17.6026C15.2128 17.6026 15.3343 17.4985 15.3372 17.3568C15.3429 17.221 15.2302 17.0938 15.0914 17.0938Z" fill="#FF3A5C"/>
<path d="M14.4782 19.1572C14.3047 19.1572 14.1688 19.3307 14.1804 19.4955C14.1919 19.6776 14.3452 19.7933 14.5186 19.7933C14.6921 19.7933 14.828 19.6198 14.8164 19.455C14.8048 19.2729 14.6516 19.1572 14.4782 19.1572Z" fill="#FF3A5C"/>
<path d="M14.7594 10.126C14.638 10.126 14.638 10.3139 14.7565 10.3139C14.8808 10.3139 14.8808 10.126 14.7594 10.126Z" fill="#FF3A5C"/>
<path d="M15.3546 11.2737C15.3488 11.2708 15.3402 11.2679 15.3344 11.2621C15.239 11.213 15.1233 11.2911 15.1291 11.3951C15.1378 11.5079 15.2563 11.5512 15.3459 11.505C15.3517 11.5021 15.3575 11.4992 15.3604 11.4963C15.4529 11.4529 15.4356 11.3171 15.3546 11.2737Z" fill="#FF3A5C"/>
<path d="M15.7428 10.4902C15.6445 10.4902 15.578 10.6001 15.5867 10.6897C15.5983 10.7938 15.6879 10.8458 15.7833 10.8458C15.8816 10.8458 15.9481 10.736 15.9394 10.6463C15.9307 10.5394 15.8411 10.4902 15.7428 10.4902Z" fill="#FF3A5C"/>
<path d="M10.9543 10.8551C10.9514 10.8551 10.9485 10.8551 10.9456 10.8522C10.908 10.832 10.8675 10.8204 10.8184 10.8291C10.6941 10.8493 10.6392 10.9563 10.6449 11.0719C10.697 11.1355 10.749 11.1991 10.8011 11.2656C11.0641 11.3871 11.226 10.9216 10.9543 10.8551Z" fill="#FF3A5C"/>
<path d="M10.4624 12.0166C10.4595 12.0166 10.4567 12.0166 10.4567 12.0166C10.4017 12.0195 10.3555 12.0629 10.3555 12.1178V12.1351C10.3555 12.2681 10.5434 12.2623 10.5578 12.1351C10.5578 12.1294 10.5607 12.1207 10.5607 12.1149C10.5607 12.0629 10.5145 12.0166 10.4624 12.0166Z" fill="#FF3A5C"/>
<path d="M10.1779 9.60547C10.071 9.60547 9.97266 9.6604 9.9582 9.77604C9.94664 9.87144 10.0218 9.99576 10.1288 9.99576C10.2357 9.99576 10.334 9.94083 10.3485 9.82519C10.3601 9.72689 10.2849 9.60547 10.1779 9.60547Z" fill="#FF3A5C"/>
<path d="M15.5225 8.91992C15.3548 8.91992 15.3664 9.18301 15.534 9.18301C15.7017 9.18301 15.6901 8.91992 15.5225 8.91992Z" fill="#FF3A5C"/>
<path d="M13.6027 19.8546C13.6027 19.8575 13.6056 19.8604 13.6056 19.8662C13.6461 19.9934 13.8167 19.9731 13.8542 19.8546C13.8542 19.8517 13.8571 19.8459 13.8571 19.843C13.9207 19.6407 13.5304 19.632 13.6027 19.8546Z" fill="#FF3A5C"/>
<path d="M12.3084 18.3735C12.2187 18.3735 12.1522 18.4718 12.1609 18.5557C12.1696 18.654 12.2534 18.7031 12.343 18.7031C12.4327 18.7031 12.4992 18.6048 12.4905 18.521C12.4789 18.4256 12.398 18.3735 12.3084 18.3735Z" fill="#FF3A5C"/>
<path d="M12.5094 19.9238C12.3706 19.9238 12.2521 20.0279 12.2463 20.1696C12.2405 20.3054 12.3533 20.4326 12.492 20.4326C12.6308 20.4326 12.7493 20.3286 12.7551 20.1869C12.758 20.051 12.6482 19.9238 12.5094 19.9238Z" fill="#FF3A5C"/>
<path d="M13.27 20.7158C13.0619 20.7158 13.0937 21.0367 13.3018 21.0367C13.5071 21.0367 13.4753 20.7158 13.27 20.7158Z" fill="#FF3A5C"/>
<path d="M13.8882 20.6085C13.8853 20.6115 13.8824 20.6144 13.8824 20.6173C13.8708 20.6347 13.8737 20.6551 13.8853 20.6726C13.8882 20.6784 13.8911 20.6813 13.897 20.6871C13.9319 20.7337 14.0047 20.7017 14.0076 20.6493C14.0076 20.5824 13.9261 20.5591 13.8882 20.6085Z" fill="#FF3A5C"/>
<path d="M13.2293 21.4673C12.9373 21.4673 12.9026 21.9212 13.1946 21.9212C13.4866 21.9212 13.5242 21.4673 13.2293 21.4673Z" fill="#FF3A5C"/>
<path d="M13.7433 21.6987C13.564 21.6987 13.5814 21.9734 13.7606 21.9734C13.937 21.9734 13.9196 21.6987 13.7433 21.6987Z" fill="#FF3A5C"/>
<path d="M11.6577 1.00779C11.1691 0.796744 10.0301 0.762052 9.66003 1.25642C9.87975 1.21883 10.2585 1.25353 10.2527 1.55708C9.54438 1.5831 8.61926 2.09771 8.43712 2.83203C8.61636 2.70482 9.06737 2.54003 9.23505 2.73662C9.09917 2.85805 8.90258 2.90141 8.7667 3.03729C8.5412 3.2599 8.42556 3.63284 8.33594 3.93351C8.41689 3.84967 8.53252 3.79474 8.65395 3.81498C8.68286 4.26887 8.44579 4.69096 8.53253 5.1622C8.6048 5.55248 8.81296 5.804 9.00955 6.12491C8.99798 5.50912 9.35069 5.01764 9.82771 4.63603C9.84795 4.77191 9.90287 4.9338 10.0272 4.98006C10.0301 4.66494 10.5216 4.38162 10.7499 4.21105C10.8685 4.8384 11.6288 4.18503 11.8167 3.9682C12.1116 3.63284 12.2648 3.20497 12.2909 2.76264C12.4499 2.85516 12.4528 3.08355 12.4846 3.25123C13.1003 2.42439 12.5048 1.37206 11.6577 1.00779Z" fill="#FF3A5C"/>
<path d="M12.4353 3.46178C12.4353 3.46178 12.4845 3.44444 12.5683 3.42709C12.6232 3.42131 12.6955 3.41553 12.7765 3.41553C12.8458 3.42131 12.9268 3.4242 13.0106 3.44155C13.1783 3.47335 13.3633 3.53984 13.5513 3.62368C13.6438 3.66994 13.7392 3.71041 13.8317 3.76534C13.9242 3.81738 14.0167 3.8752 14.1063 3.93591C14.196 3.99662 14.2798 4.06601 14.3579 4.1325C14.4359 4.20478 14.5111 4.27416 14.5776 4.35222C14.647 4.4245 14.7048 4.50255 14.7597 4.57483C14.8175 4.64421 14.8551 4.72516 14.8956 4.79166C14.9361 4.85815 14.9592 4.92754 14.9881 4.98536C15.0141 5.04318 15.0315 5.09521 15.043 5.13858C15.0691 5.22531 15.0806 5.27446 15.0806 5.27446C15.0864 5.2918 15.0748 5.31204 15.0575 5.31782C15.043 5.32071 15.0286 5.31782 15.0199 5.30626L15.017 5.30337C15.017 5.30337 14.9881 5.26289 14.9361 5.19351C14.91 5.15882 14.884 5.11545 14.8407 5.07498C14.8002 5.03161 14.7626 4.97957 14.7077 4.93332C14.6527 4.88706 14.6007 4.83213 14.5342 4.78587C14.4706 4.73673 14.4041 4.68469 14.3289 4.64132C14.2596 4.59218 14.1757 4.5517 14.0977 4.51123C14.0138 4.47364 13.9329 4.43317 13.849 4.39848C13.7652 4.36378 13.6785 4.33198 13.5946 4.30885C13.5108 4.27994 13.4241 4.2626 13.3431 4.24236C13.1783 4.21056 13.0251 4.1961 12.9008 4.18165C12.8372 4.17298 12.7822 4.17298 12.7331 4.16141C12.6926 4.15852 12.6608 4.15274 12.629 4.14696C12.5423 4.14407 12.4903 4.13539 12.4903 4.13539H12.4874C12.2966 4.09781 12.1722 3.91568 12.2098 3.72487C12.2387 3.60055 12.3255 3.50226 12.4353 3.46178Z" fill="black"/>
</svg>
