<svg width="35" height="32" viewBox="0 0 35 32" fill="none" xmlns="http://www.w3.org/2000/svg">
<path fill-rule="evenodd" clip-rule="evenodd" d="M17 2C17 1.46957 17.2107 0.960859 17.5858 0.585786C17.9609 0.210714 18.4696 0 19 0C22.1645 0 25.2579 0.938383 27.8891 2.69649C30.5203 4.45459 32.5711 6.95345 33.7821 9.87706C34.9931 12.8007 35.3099 16.0177 34.6926 19.1214C34.0752 22.2251 32.5513 25.0761 30.3137 27.3137C28.0761 29.5513 25.2251 31.0752 22.1214 31.6926C19.0177 32.3099 15.8007 31.9931 12.8771 30.7821C9.95345 29.5711 7.45459 27.5203 5.69649 24.8891C3.93838 22.2579 3 19.1645 3 16C3 15.4696 3.21071 14.9609 3.58579 14.5858C3.96086 14.2107 4.46957 14 5 14C5.53043 14 6.03914 14.2107 6.41421 14.5858C6.78929 14.9609 7 15.4696 7 16C7 18.3734 7.70379 20.6935 9.02236 22.6668C10.3409 24.6402 12.2151 26.1783 14.4078 27.0866C16.6005 27.9948 19.0133 28.2324 21.3411 27.7694C23.6689 27.3064 25.8071 26.1635 27.4853 24.4853C29.1635 22.8071 30.3064 20.6689 30.7694 18.3411C31.2324 16.0133 30.9948 13.6005 30.0866 11.4078C29.1783 9.21509 27.6402 7.34094 25.6668 6.02236C23.6935 4.70379 21.3734 4 19 4C18.4696 4 17.9609 3.78929 17.5858 3.41421C17.2107 3.03914 17 2.53043 17 2Z" fill="#00BA73"/>
<path fill-rule="evenodd" clip-rule="evenodd" d="M10.7863 18.8941C11.0232 18.4199 11.062 17.871 10.8944 17.3681C10.7268 16.8652 10.3663 16.4494 9.89232 16.2121L5.89232 14.2121C5.65713 14.0923 5.40055 14.0202 5.13737 14C4.87418 13.9798 4.60961 14.0119 4.35889 14.0945C4.10818 14.177 3.87628 14.3084 3.67658 14.481C3.47688 14.6536 3.31331 14.864 3.19532 15.1001C3.07733 15.3362 3.00724 15.5934 2.9891 15.8567C2.97096 16.12 3.00513 16.3843 3.08963 16.6344C3.17413 16.8845 3.3073 17.1153 3.48145 17.3137C3.6556 17.512 3.86729 17.674 4.10432 17.7901L8.10432 19.7901C8.57881 20.0268 9.12789 20.0654 9.63082 19.8974C10.1338 19.7293 10.5494 19.3685 10.7863 18.8941V18.8941Z" fill="#00BA73"/>
<path d="M15 3C15 3.53043 14.7893 4.03914 14.4142 4.41421C14.0391 4.78929 13.5304 5 13 5C12.4696 5 11.9609 4.78929 11.5858 4.41421C11.2107 4.03914 11 3.53043 11 3C11 2.46957 11.2107 1.96086 11.5858 1.58579C11.9609 1.21071 12.4696 1 13 1C13.5304 1 14.0391 1.21071 14.4142 1.58579C14.7893 1.96086 15 2.46957 15 3V3ZM10 6C10 6.53043 9.78929 7.03914 9.41421 7.41421C9.03914 7.78929 8.53043 8 8 8C7.46957 8 6.96086 7.78929 6.58579 7.41421C6.21071 7.03914 6 6.53043 6 6C6 5.46957 6.21071 4.96086 6.58579 4.58579C6.96086 4.21071 7.46957 4 8 4C8.53043 4 9.03914 4.21071 9.41421 4.58579C9.78929 4.96086 10 5.46957 10 6V6ZM7 11C7 11.5304 6.78929 12.0391 6.41421 12.4142C6.03914 12.7893 5.53043 13 5 13C4.46957 13 3.96086 12.7893 3.58579 12.4142C3.21071 12.0391 3 11.5304 3 11C3 10.4696 3.21071 9.96086 3.58579 9.58579C3.96086 9.21071 4.46957 9 5 9C5.53043 9 6.03914 9.21071 6.41421 9.58579C6.78929 9.96086 7 10.4696 7 11V11Z" fill="#00BA73"/>
<path fill-rule="evenodd" clip-rule="evenodd" d="M6.41286 14.586C6.7878 14.9611 6.99843 15.4697 6.99843 16C6.99843 16.5303 6.7878 17.0389 6.41286 17.414L3.41286 20.414C3.03566 20.7783 2.53045 20.9799 2.00606 20.9753C1.48166 20.9708 0.98004 20.7605 0.609224 20.3896C0.238408 20.0188 0.0280699 19.5172 0.0235131 18.9928C0.0189563 18.4684 0.220545 17.9632 0.584861 17.586L3.58486 14.586C3.95992 14.2111 4.46853 14.0004 4.99886 14.0004C5.52919 14.0004 6.03781 14.2111 6.41286 14.586ZM18.9989 8C19.5293 8 20.038 8.21071 20.4131 8.58579C20.7881 8.96086 20.9989 9.46957 20.9989 10V16C20.9989 16.5304 20.7881 17.0391 20.4131 17.4142C20.038 17.7893 19.5293 18 18.9989 18C18.4684 18 17.9597 17.7893 17.5846 17.4142C17.2096 17.0391 16.9989 16.5304 16.9989 16V10C16.9989 9.46957 17.2096 8.96086 17.5846 8.58579C17.9597 8.21071 18.4684 8 18.9989 8V8Z" fill="#00BA73"/>
<path fill-rule="evenodd" clip-rule="evenodd" d="M27 16C27 16.5304 26.7893 17.0391 26.4142 17.4142C26.0391 17.7893 25.5304 18 25 18H19C18.4696 18 17.9609 17.7893 17.5858 17.4142C17.2107 17.0391 17 16.5304 17 16C17 15.4696 17.2107 14.9609 17.5858 14.5858C17.9609 14.2107 18.4696 14 19 14H25C25.5304 14 26.0391 14.2107 26.4142 14.5858C26.7893 14.9609 27 15.4696 27 16Z" fill="#00BA73"/>
</svg>
