<svg width="32" height="32" viewBox="0 0 32 32" fill="none" xmlns="http://www.w3.org/2000/svg">
<path fill-rule="evenodd" clip-rule="evenodd" d="M16 31C24.2843 31 31 24.2843 31 16C31 7.71571 24.2843 1 16 1C7.71571 1 1 7.71571 1 16C1 24.2843 7.71571 31 16 31Z" fill="#EFF3FF" stroke="#5B84FE" stroke-width="2"/>
<path d="M25.2853 24.5716V23.548C25.2853 23.2609 25.1167 23.003 24.8619 22.9016C21.8721 21.7037 18.5531 20.2173 18.2742 19.2908V18.3187C18.8944 17.6616 19.3835 16.7444 19.6731 15.6709C20.3687 15.1651 20.5416 14.1216 19.9658 13.3873V11.2123C19.9658 8.96585 18.759 7.42871 15.9999 7.42871C13.312 7.42871 12.0326 8.96585 12.0326 11.2123V13.388C11.4581 14.1209 11.6307 15.1637 12.3253 15.6709C12.6148 16.7444 13.1044 17.6616 13.7249 18.3187V19.2908C13.4468 20.2158 10.127 21.703 7.1373 22.9008C6.88251 23.0037 6.71387 23.2601 6.71387 23.5473V24.5716" fill="#EFF3FF"/>
<path d="M25.2853 24.5716V23.548C25.2853 23.2609 25.1167 23.003 24.8619 22.9016C21.8721 21.7037 18.5531 20.2173 18.2742 19.2908V18.3187C18.8944 17.6616 19.3835 16.7444 19.6731 15.6709C20.3687 15.1651 20.5416 14.1216 19.9658 13.3873V11.2123C19.9658 8.96585 18.759 7.42871 15.9999 7.42871C13.312 7.42871 12.0326 8.96585 12.0326 11.2123V13.388C11.4581 14.1209 11.6307 15.1637 12.3253 15.6709C12.6148 16.7444 13.1044 17.6616 13.7249 18.3187V19.2908C13.4468 20.2158 10.127 21.703 7.1373 22.9008C6.88251 23.0037 6.71387 23.2601 6.71387 23.5473V24.5716" stroke="#5B84FE" stroke-width="2"/>
</svg>
