<svg width="28" height="28" viewBox="0 0 28 28" fill="none" xmlns="http://www.w3.org/2000/svg">
<path fill-rule="evenodd" clip-rule="evenodd" d="M13.986 0.666504C6.62601 0.666504 0.666016 6.63984 0.666016 13.9998C0.666016 21.3598 6.62601 27.3332 13.986 27.3332C21.3593 27.3332 27.3327 21.3598 27.3327 13.9998C27.3327 6.63984 21.3593 0.666504 13.986 0.666504ZM13.9993 24.6665C8.10602 24.6665 3.33268 19.8932 3.33268 13.9998C3.33268 8.1065 8.10602 3.33317 13.9993 3.33317C19.8927 3.33317 24.666 8.1065 24.666 13.9998C24.666 19.8932 19.8927 24.6665 13.9993 24.6665ZM13.706 7.33317H13.626C13.0927 7.33317 12.666 7.75984 12.666 8.29317V14.5865C12.666 15.0532 12.906 15.4932 13.3193 15.7332L18.8527 19.0532C19.306 19.3198 19.8927 19.1865 20.1593 18.7332C20.4393 18.2798 20.2927 17.6798 19.826 17.4132L14.666 14.3465V8.29317C14.666 7.75984 14.2393 7.33317 13.706 7.33317V7.33317Z" fill="#5B84FE"/>
</svg>
