<svg width="35" height="30" viewBox="0 0 35 30" fill="none" xmlns="http://www.w3.org/2000/svg">
<path d="M6.9 0.5V3.68333H1.25V6.8C1.25 12.0167 2.8 14.925 6.525 16.7333C7.90983 17.4779 9.188 18.4057 10.325 19.4917C11.2389 20.4664 12.3534 21.2313 13.5917 21.7333L15 22.1667V25.9417H12.85C10.25 25.9417 9.375 26.5333 9.375 28.2917V29.475H25.625V28.4167C25.625 26.6917 24.5583 25.9167 22.0917 25.9167H20V22.1667L21.4333 21.7417C22.6734 21.2391 23.7884 20.4711 24.7 19.4917C25.8862 18.3611 27.2139 17.3891 28.65 16.6C29.7651 16.0634 30.7609 15.3081 31.5784 14.379C32.3958 13.4499 33.0181 12.366 33.4083 11.1917C33.6736 9.73764 33.7964 8.26121 33.775 6.78333V3.69167H28.1V0.5H6.9ZM17.5 5.80833L19.2083 9.34167H23.325L20.1 12.3167L21.025 16.1167L17.5 14.225L13.975 16.1417L14.9 12.3417L11.6667 9.36667H15.7917L17.5 5.80833ZM4.21667 6.86667H6.85V13.4333C6.575 13.6 5.71667 12.6 5.09167 11.4583C4.73683 10.5843 4.50951 9.66375 4.41667 8.725L4.21667 6.86667ZM28.15 6.86667H31.0167L30.775 8.7C30.7182 10.2262 30.1046 11.6787 29.05 12.7833C28.8019 13.1214 28.4871 13.4051 28.125 13.6167L28.15 6.86667Z" fill="#9CA3AF" stroke="#1F2937" stroke-width="0.625" stroke-linecap="round" stroke-linejoin="round"/>
</svg>
