<svg width="51" height="46" viewBox="0 0 51 46" fill="none" xmlns="http://www.w3.org/2000/svg">
<path d="M9.56737 1.0835V5.90504H1.00977V10.6256C1.00977 18.5269 3.35743 22.9319 8.99939 25.6708C11.0969 26.7986 13.0328 28.2038 14.7549 29.8487C16.1391 31.3251 17.8272 32.4835 19.7027 33.2439L21.8358 33.9003V39.6179H18.5794C14.6413 39.6179 13.3161 40.5141 13.3161 43.1773V44.9696H37.9286V43.3666C37.9286 40.7539 36.313 39.5801 32.577 39.5801H29.4089V33.9003L31.5798 33.2565C33.458 32.4953 35.1468 31.3321 36.5276 29.8487C38.3242 28.1363 40.3352 26.6641 42.5104 25.4689C44.1993 24.6561 45.7076 23.5121 46.9457 22.1049C48.1838 20.6977 49.1263 19.056 49.7174 17.2773C50.1192 15.075 50.3052 12.8388 50.2728 10.6004V5.91766H41.6773V1.0835H9.56737ZM25.6223 9.1236L28.2098 14.4753H34.445L29.5604 18.9813L30.9614 24.7368L25.6223 21.8717L20.2833 24.7747L21.6843 19.0191L16.7871 14.5131H23.0349L25.6223 9.1236ZM5.50314 10.7266H9.49164V20.6726C9.07512 20.925 7.77507 19.4104 6.82843 17.6812C6.29099 16.3573 5.94668 14.9631 5.80606 13.5412L5.50314 10.7266ZM41.753 10.7266H46.095L45.7289 13.5034C45.6429 15.8149 44.7135 18.015 43.1162 19.6881C42.7404 20.2002 42.2636 20.6298 41.7152 20.9503L41.753 10.7266Z" fill="#5B84FE" stroke="#EFF3FF" stroke-width="0.946637" stroke-linecap="round" stroke-linejoin="round"/>
</svg>
