<svg width="51" height="46" viewBox="0 0 51 46" fill="none" xmlns="http://www.w3.org/2000/svg">
<path d="M9.32127 1.0835V5.90504H0.763672V10.6256C0.763672 18.5269 3.11133 22.9319 8.75329 25.6708C10.8508 26.7986 12.7867 28.2038 14.5088 29.8487C15.893 31.3251 17.5811 32.4835 19.4566 33.2439L21.5897 33.9003V39.6179H18.3333C14.3953 39.6179 13.07 40.5141 13.07 43.1773V44.9696H37.6825V43.3666C37.6825 40.7539 36.0669 39.5801 32.3309 39.5801H29.1628V33.9003L31.3337 33.2565C33.212 32.4953 34.9007 31.3321 36.2815 29.8487C38.0781 28.1363 40.0891 26.6641 42.2643 25.4689C43.9532 24.6561 45.4615 23.5121 46.6996 22.1049C47.9377 20.6977 48.8803 19.056 49.4713 17.2773C49.8731 15.075 50.0591 12.8388 50.0267 10.6004V5.91766H41.4312V1.0835H9.32127ZM25.3762 9.1236L27.9637 14.4753H34.1989L29.3143 18.9813L30.7153 24.7368L25.3762 21.8717L20.0372 24.7747L21.4382 19.0191L16.541 14.5131H22.7888L25.3762 9.1236ZM5.25704 10.7266H9.24554V20.6726C8.82902 20.925 7.52897 19.4104 6.58234 17.6812C6.0449 16.3573 5.70059 14.9631 5.55997 13.5412L5.25704 10.7266ZM41.5069 10.7266H45.8489L45.4828 13.5034C45.3968 15.8149 44.4674 18.015 42.8701 19.6881C42.4943 20.2002 42.0175 20.6298 41.4691 20.9503L41.5069 10.7266Z" stroke="#5B84FE" stroke-width="1.51462" stroke-linecap="round" stroke-linejoin="round"/>
</svg>
