<svg width="24" height="28" viewBox="0 0 24 28" fill="none" xmlns="http://www.w3.org/2000/svg">
<path fill-rule="evenodd" clip-rule="evenodd" d="M17.3333 15.3332H13.3333C12.6 15.3332 12 15.9332 12 16.6665V20.6665C12 21.3998 12.6 21.9998 13.3333 21.9998H17.3333C18.0667 21.9998 18.6667 21.3998 18.6667 20.6665V16.6665C18.6667 15.9332 18.0667 15.3332 17.3333 15.3332ZM17.3333 1.99984V3.33317H6.66667V1.99984C6.66667 1.2665 6.06667 0.666504 5.33333 0.666504C4.6 0.666504 4 1.2665 4 1.99984V3.33317H2.66667C1.18667 3.33317 0.0133333 4.53317 0.0133333 5.99984L0 24.6665C0 26.1332 1.18667 27.3332 2.66667 27.3332H21.3333C22.8 27.3332 24 26.1332 24 24.6665V5.99984C24 4.53317 22.8 3.33317 21.3333 3.33317H20V1.99984C20 1.2665 19.4 0.666504 18.6667 0.666504C17.9333 0.666504 17.3333 1.2665 17.3333 1.99984ZM20 24.6665H4C3.26667 24.6665 2.66667 24.0665 2.66667 23.3332V9.99984H21.3333V23.3332C21.3333 24.0665 20.7333 24.6665 20 24.6665Z" fill="#111827"/>
</svg>
