<svg width="40" height="37" viewBox="0 0 40 37" fill="none" xmlns="http://www.w3.org/2000/svg">
<path d="M30.1022 19.6367C28.6088 19.6367 27.2617 20.4631 26.3389 21.6378C24.9006 23.473 23.095 24.9876 21.0377 26.0849C19.6981 26.7964 18.5363 27.8563 17.9748 29.2626C17.5805 30.2479 17.378 31.2995 17.3782 32.3607V33.5336C17.3782 33.9022 17.2318 34.2557 16.9712 34.5163C16.7105 34.7769 16.3571 34.9233 15.9885 34.9233C14.8828 34.9233 13.8224 34.4841 13.0405 33.7022C12.2586 32.9204 11.8194 31.86 11.8194 30.7543C11.8194 28.6197 12.3012 26.5981 13.1591 24.7915C13.6519 23.7576 12.9608 22.4161 11.8157 22.4161H6.02344C4.12234 22.4161 2.4195 21.1301 2.21753 19.2383C2.13415 18.4564 2.09153 17.6633 2.09153 16.8573C2.08387 11.787 3.81652 6.86774 6.99994 2.92143C7.71887 2.02831 8.82878 1.57064 9.97389 1.57064H17.4152C18.3113 1.57106 19.2014 1.71493 20.052 1.99681L25.822 3.92386C26.6723 4.20665 27.5626 4.35055 28.4587 4.35003L31.453 4.35003M15.9885 22.4161H11.8194M31.453 4.35003C31.2992 3.97018 31.1325 3.5996 30.9527 3.23457C30.5877 2.4934 31.0973 1.57064 31.9218 1.57064H33.6043C35.2515 1.57064 36.7783 2.53046 37.2583 4.10545C37.9 6.21177 38.2254 8.40174 38.2236 10.6037C38.2236 13.4813 37.677 16.2292 36.6838 18.7528C36.1168 20.187 34.6716 21.0264 33.1281 21.0264H31.1769C30.3024 21.0264 29.7965 19.9962 30.2505 19.2476C31.8331 16.6424 32.6678 13.6518 32.663 10.6037C32.666 8.46049 32.2545 6.33695 31.4512 4.35003H31.453Z" stroke="#5B84FE" stroke-width="2.22351" stroke-linecap="round" stroke-linejoin="round"/>
</svg>
