<svg width="50" height="50" viewBox="0 0 50 50" fill="none" xmlns="http://www.w3.org/2000/svg">
<path d="M34.3209 11.2668L38.7334 15.6772M37.1584 7.38138L25.2271 19.3126C24.6106 19.9282 24.1902 20.7126 24.0188 21.5668L22.9167 27.0835L28.4334 25.9793C29.2875 25.8085 30.0709 25.3897 30.6875 24.773L42.6188 12.8418C42.9773 12.4833 43.2617 12.0576 43.4558 11.5892C43.6498 11.1207 43.7497 10.6186 43.7497 10.1116C43.7497 9.60454 43.6498 9.10246 43.4558 8.63401C43.2617 8.16556 42.9773 7.73991 42.6188 7.38138C42.2602 7.02284 41.8346 6.73844 41.3661 6.5444C40.8977 6.35036 40.3956 6.25049 39.8886 6.25049C39.3815 6.25049 38.8794 6.35036 38.411 6.5444C37.9425 6.73844 37.5169 7.02284 37.1584 7.38138V7.38138Z" stroke="#4B5563" stroke-width="2.5" stroke-linecap="round" stroke-linejoin="round"/>
<path d="M39.5833 31.2503V37.5003C39.5833 38.6054 39.1444 39.6652 38.363 40.4466C37.5816 41.228 36.5217 41.667 35.4167 41.667H12.5C11.3949 41.667 10.3351 41.228 9.55373 40.4466C8.77233 39.6652 8.33334 38.6054 8.33334 37.5003V14.5837C8.33334 13.4786 8.77233 12.4188 9.55373 11.6374C10.3351 10.856 11.3949 10.417 12.5 10.417H18.75" stroke="#4B5563" stroke-width="2.5" stroke-linecap="round" stroke-linejoin="round"/>
</svg>
