<svg width="28" height="28" viewBox="0 0 28 28" fill="none" xmlns="http://www.w3.org/2000/svg">
<path d="M20.022 5.38837L23.1107 8.47566M22.0082 2.66858L13.6564 11.0205C13.2248 11.4514 12.9305 12.0004 12.8105 12.5984L12.0391 16.46L15.9007 15.6871C16.4986 15.5675 17.047 15.2744 17.4786 14.8427L25.8305 6.49087C26.0815 6.23989 26.2806 5.94194 26.4164 5.61403C26.5522 5.28611 26.6221 4.93465 26.6221 4.57972C26.6221 4.22479 26.5522 3.87333 26.4164 3.54542C26.2806 3.2175 26.0815 2.91955 25.8305 2.66858C25.5795 2.4176 25.2816 2.21852 24.9537 2.08269C24.6258 1.94686 24.2743 1.87695 23.9194 1.87695C23.5644 1.87695 23.213 1.94686 22.8851 2.08269C22.5572 2.21852 22.2592 2.4176 22.0082 2.66858V2.66858Z" stroke="white" stroke-width="2.22853" stroke-linecap="round" stroke-linejoin="round"/>
<path d="M23.707 19.3763V23.7513C23.707 24.5249 23.3997 25.2667 22.8528 25.8137C22.3058 26.3607 21.5639 26.668 20.7904 26.668H4.7487C3.97515 26.668 3.23328 26.3607 2.6863 25.8137C2.13932 25.2667 1.83203 24.5249 1.83203 23.7513V7.70964C1.83203 6.93609 2.13932 6.19422 2.6863 5.64724C3.23328 5.10026 3.97515 4.79297 4.7487 4.79297H9.1237" stroke="white" stroke-width="2.22853" stroke-linecap="round" stroke-linejoin="round"/>
</svg>
