<svg width="25" height="25" viewBox="0 0 25 25" fill="none" xmlns="http://www.w3.org/2000/svg">
<path d="M17.5925 4.75978L20.24 7.40603L17.5925 4.75978ZM19.295 2.42853L12.1363 9.58728C11.7664 9.95666 11.5141 10.4273 11.4113 10.9398L10.75 14.2498L14.06 13.5873C14.5725 13.4848 15.0425 13.2335 15.4125 12.8635L22.5713 5.70478C22.7864 5.48966 22.957 5.23428 23.0734 4.95321C23.1899 4.67214 23.2498 4.37089 23.2498 4.06666C23.2498 3.76243 23.1899 3.46118 23.0734 3.18011C22.957 2.89904 22.7864 2.64366 22.5713 2.42853C22.3561 2.21341 22.1007 2.04277 21.8197 1.92635C21.5386 1.80992 21.2374 1.75 20.9331 1.75C20.6289 1.75 20.3276 1.80992 20.0466 1.92635C19.7655 2.04277 19.5101 2.21341 19.295 2.42853Z" fill="white"/>
<path d="M17.5925 4.75978L20.24 7.40603M19.295 2.42853L12.1363 9.58728C11.7664 9.95666 11.5141 10.4273 11.4113 10.9398L10.75 14.2498L14.06 13.5873C14.5725 13.4848 15.0425 13.2335 15.4125 12.8635L22.5713 5.70478C22.7864 5.48966 22.957 5.23428 23.0734 4.95321C23.1899 4.67214 23.2498 4.37089 23.2498 4.06666C23.2498 3.76243 23.1899 3.46118 23.0734 3.18011C22.957 2.89904 22.7864 2.64366 22.5713 2.42853C22.3561 2.21341 22.1007 2.04277 21.8197 1.92635C21.5386 1.80992 21.2374 1.75 20.9331 1.75C20.6289 1.75 20.3276 1.80992 20.0466 1.92635C19.7655 2.04277 19.5101 2.21341 19.295 2.42853V2.42853Z" stroke="#D2D5DA" stroke-width="2.5" stroke-linecap="round" stroke-linejoin="round"/>
<path d="M20.75 16.75V20.5C20.75 21.163 20.4866 21.7989 20.0178 22.2678C19.5489 22.7366 18.913 23 18.25 23H4.5C3.83696 23 3.20107 22.7366 2.73223 22.2678C2.26339 21.7989 2 21.163 2 20.5V6.75C2 6.08696 2.26339 5.45107 2.73223 4.98223C3.20107 4.51339 3.83696 4.25 4.5 4.25H8.25" stroke="#D2D5DA" stroke-width="2.5" stroke-linecap="round" stroke-linejoin="round"/>
</svg>
