<svg width="59" height="59" viewBox="0 0 59 59" fill="none" xmlns="http://www.w3.org/2000/svg">
<path d="M29.001 0C12.9847 0 0 12.9847 0 29.001C0 45.0173 12.9847 58.002 29.001 58.002C45.0173 58.002 58.002 45.0173 58.002 29.001C58.002 12.9847 45.0173 0 29.001 0ZM29.001 55.5853C14.342 55.5853 2.41675 43.66 2.41675 29.001C2.41675 14.342 14.342 2.41675 29.001 2.41675C43.6591 2.41675 55.5853 14.342 55.5853 29.001C55.5853 43.66 43.6591 55.5853 29.001 55.5853Z" fill="#5378E7"/>
<path d="M17.8843 28.606C20.5537 28.606 22.7178 26.4419 22.7178 23.7725C22.7178 21.103 20.5537 18.939 17.8843 18.939C15.2148 18.939 13.0508 21.103 13.0508 23.7725C13.0508 26.4419 15.2148 28.606 17.8843 28.606Z" fill="#5378E7"/>
<path d="M40.1226 28.606C42.792 28.606 44.9561 26.4419 44.9561 23.7725C44.9561 21.103 42.792 18.939 40.1226 18.939C37.4531 18.939 35.2891 21.103 35.2891 23.7725C35.2891 26.4419 37.4531 28.606 40.1226 28.606Z" fill="#5378E7"/>
<path d="M41.1634 37.0038C33.3234 42.4715 24.627 42.4396 16.8335 37.0038C15.8958 36.3494 15.0499 37.4823 15.686 38.5293C18.0621 42.4415 22.856 45.9245 28.9984 45.9245C35.1408 45.9245 39.9347 42.4405 42.3108 38.5293C42.9469 37.4823 42.1011 36.3503 41.1634 37.0038Z" fill="#5378E7"/>
</svg>
