<svg width="32" height="31" viewBox="0 0 32 31" fill="none" xmlns="http://www.w3.org/2000/svg">
<path d="M6.61383 19.1239C3.4563 19.1239 0.894531 16.5621 0.894531 13.4046C0.894531 10.8726 2.53883 8.72193 4.82059 7.97127C4.7491 7.57211 4.7074 7.15508 4.7074 6.73209C4.7074 3.04433 7.69216 0.0595703 11.3799 0.0595703C13.9476 0.0595703 16.1758 1.50727 17.2899 3.63413C18.1656 2.61538 19.4644 1.966 20.9121 1.966C23.5453 1.966 25.6782 4.09883 25.6782 6.73209C25.6782 7.05975 25.6424 7.37551 25.5828 7.6853H25.6782C28.8357 7.6853 31.3975 10.2471 31.3975 13.4046C31.3975 16.5621 28.8357 19.1239 25.6782 19.1239H6.61383ZM23.1819 26.0705L25.273 22.2219C25.3505 22.0729 25.5054 21.9836 25.6782 21.9836C25.8509 21.9836 25.9999 22.0729 26.0833 22.2219L28.1744 26.0705C28.4187 26.5173 28.5438 27.0118 28.5438 27.5182V27.6969C28.5438 29.2757 27.2629 30.5565 25.6841 30.5565C24.1054 30.5565 22.8245 29.2757 22.8245 27.6969V27.5182C22.8245 27.0118 22.9496 26.5113 23.1938 26.0705H23.1819Z" fill="#5F88F7"/>
</svg>
