<svg width="31" height="31" viewBox="0 0 31 31" fill="none" xmlns="http://www.w3.org/2000/svg">
<g clip-path="url(#clip0_909_13599)">
<path d="M0.189453 13.4046C0.189453 16.5621 2.75122 19.1239 5.90875 19.1239H8.72074L17.4665 12.1237C18.515 11.2837 20.0044 11.2896 21.053 12.1356C22.1015 12.9816 22.4113 14.4353 21.8155 15.6387L20.07 19.1239H24.9731C28.1306 19.1239 30.6924 16.5621 30.6924 13.4046C30.6924 10.2471 28.1306 7.6853 24.9731 7.6853H24.8778C24.9433 7.37551 24.9731 7.05975 24.9731 6.73208C24.9731 4.09882 22.8403 1.966 20.207 1.966C18.7593 1.966 17.4605 2.61538 16.5848 3.63413C15.4707 1.50727 13.2426 0.0595703 10.6748 0.0595703C6.98708 0.0595703 4.00232 3.04433 4.00232 6.73208C4.00232 7.15507 4.04402 7.57211 4.11551 7.97127C1.83375 8.72192 0.189453 10.8726 0.189453 13.4046ZM19.8555 13.6191C19.51 13.3391 19.0095 13.3391 18.658 13.6131L9.12586 21.2388C8.8101 21.4891 8.68499 21.918 8.82202 22.2993C8.95904 22.6806 9.3165 22.9368 9.72162 22.9368H13.8979L10.7761 29.1803C10.5736 29.5795 10.6808 30.068 11.0323 30.348C11.3838 30.628 11.8783 30.628 12.2298 30.354L21.7619 22.7282C22.0777 22.478 22.2028 22.0491 22.0658 21.6678C21.9287 21.2865 21.5713 21.0303 21.1662 21.0303H16.9839L20.1057 14.7868C20.3083 14.3876 20.201 13.8991 19.8555 13.6191Z" fill="#807FA4"/>
</g>
<defs>
<clipPath id="clip0_909_13599">
<rect width="30.5029" height="30.5029" fill="white" transform="translate(0.189453 0.0595703)"/>
</clipPath>
</defs>
</svg>
