<svg width="31" height="31" viewBox="0 0 31 31" fill="none" xmlns="http://www.w3.org/2000/svg">
<g clip-path="url(#clip0_909_13613)">
<path d="M15.562 22.9368C17.5845 22.9368 19.5241 22.1333 20.9542 20.7032C22.3843 19.2731 23.1877 17.3335 23.1877 15.311C23.1877 13.2886 22.3843 11.3489 20.9542 9.91883C19.5241 8.48872 17.5845 7.6853 15.562 7.6853C13.5395 7.6853 11.5999 8.48872 10.1698 9.91883C8.7397 11.3489 7.93628 13.2886 7.93628 15.311C7.93628 17.3335 8.7397 19.2731 10.1698 20.7032C11.5999 22.1333 13.5395 22.9368 15.562 22.9368ZM15.562 0.0595703C15.8148 0.0595703 16.0573 0.159998 16.236 0.338761C16.4148 0.517524 16.5152 0.759978 16.5152 1.01279V4.82565C16.5152 5.07846 16.4148 5.32091 16.236 5.49968C16.0573 5.67844 15.8148 5.77887 15.562 5.77887C15.3092 5.77887 15.0667 5.67844 14.888 5.49968C14.7092 5.32091 14.6088 5.07846 14.6088 4.82565V1.01279C14.6088 0.759978 14.7092 0.517524 14.888 0.338761C15.0667 0.159998 15.3092 0.0595703 15.562 0.0595703ZM15.562 24.8432C15.8148 24.8432 16.0573 24.9436 16.236 25.1224C16.4148 25.3011 16.5152 25.5436 16.5152 25.7964V29.6093C16.5152 29.8621 16.4148 30.1045 16.236 30.2833C16.0573 30.4621 15.8148 30.5625 15.562 30.5625C15.3092 30.5625 15.0667 30.4621 14.888 30.2833C14.7092 30.1045 14.6088 29.8621 14.6088 29.6093V25.7964C14.6088 25.5436 14.7092 25.3011 14.888 25.1224C15.0667 24.9436 15.3092 24.8432 15.562 24.8432ZM30.8135 15.311C30.8135 15.5638 30.713 15.8063 30.5343 15.9851C30.3555 16.1638 30.1131 16.2642 29.8603 16.2642H26.0474C25.7946 16.2642 25.5521 16.1638 25.3734 15.9851C25.1946 15.8063 25.0942 15.5638 25.0942 15.311C25.0942 15.0582 25.1946 14.8158 25.3734 14.637C25.5521 14.4582 25.7946 14.3578 26.0474 14.3578H29.8603C30.1131 14.3578 30.3555 14.4582 30.5343 14.637C30.713 14.8158 30.8135 15.0582 30.8135 15.311ZM6.02985 15.311C6.02985 15.5638 5.92942 15.8063 5.75065 15.9851C5.57189 16.1638 5.32944 16.2642 5.07663 16.2642H1.26376C1.01095 16.2642 0.7685 16.1638 0.589738 15.9851C0.410975 15.8063 0.310547 15.5638 0.310547 15.311C0.310547 15.0582 0.410975 14.8158 0.589738 14.637C0.7685 14.4582 1.01095 14.3578 1.26376 14.3578H5.07663C5.32944 14.3578 5.57189 14.4582 5.75065 14.637C5.92942 14.8158 6.02985 15.0582 6.02985 15.311ZM26.3467 4.52634C26.5254 4.7051 26.6258 4.94751 26.6258 5.20027C26.6258 5.45302 26.5254 5.69544 26.3467 5.87419L23.651 8.57179C23.5624 8.66029 23.4572 8.73047 23.3414 8.77832C23.2257 8.82617 23.1017 8.85075 22.9764 8.85066C22.7235 8.85048 22.4809 8.74983 22.3022 8.57084C22.2137 8.48221 22.1435 8.37702 22.0957 8.26128C22.0478 8.14553 22.0232 8.02149 22.0233 7.89624C22.0235 7.64329 22.1242 7.40077 22.3032 7.22204L24.9988 4.52634C25.1776 4.34764 25.42 4.24725 25.6728 4.24725C25.9255 4.24725 26.1679 4.34764 26.3467 4.52634ZM8.82086 22.0522C8.99956 22.2309 9.09995 22.4733 9.09995 22.7261C9.09995 22.9789 8.99956 23.2213 8.82086 23.4L6.12517 26.0957C5.94539 26.2694 5.7046 26.3654 5.45467 26.3633C5.20474 26.3611 4.96566 26.2608 4.78893 26.0841C4.6122 25.9074 4.51195 25.6683 4.50978 25.4184C4.5076 25.1684 4.60368 24.9277 4.77732 24.7479L7.47301 22.0522C7.65177 21.8735 7.89418 21.7731 8.14694 21.7731C8.3997 21.7731 8.64211 21.8735 8.82086 22.0522ZM26.3467 26.0957C26.1679 26.2744 25.9255 26.3748 25.6728 26.3748C25.42 26.3748 25.1776 26.2744 24.9988 26.0957L22.3032 23.4C22.1295 23.2202 22.0334 22.9795 22.0356 22.7295C22.0378 22.4796 22.138 22.2405 22.3148 22.0638C22.4915 21.8871 22.7306 21.7868 22.9805 21.7846C23.2304 21.7825 23.4712 21.8785 23.651 22.0522L26.3467 24.7479C26.5254 24.9266 26.6258 25.169 26.6258 25.4218C26.6258 25.6746 26.5254 25.917 26.3467 26.0957ZM8.82086 8.57179C8.64211 8.75049 8.3997 8.85088 8.14694 8.85088C7.89418 8.85088 7.65177 8.75049 7.47301 8.57179L4.77732 5.87419C4.68628 5.78626 4.61366 5.68108 4.5637 5.56478C4.51374 5.44848 4.48745 5.3234 4.48635 5.19684C4.48525 5.07027 4.50937 4.94475 4.5573 4.8276C4.60522 4.71046 4.676 4.60403 4.7655 4.51453C4.855 4.42503 4.96143 4.35425 5.07858 4.30632C5.19573 4.25839 5.32124 4.23427 5.44781 4.23537C5.57438 4.23647 5.69946 4.26277 5.81576 4.31273C5.93205 4.36268 6.03724 4.4353 6.12517 4.52634L8.82086 7.22204C8.90963 7.31058 8.98006 7.41577 9.02812 7.53158C9.07617 7.64739 9.10091 7.77153 9.10091 7.89692C9.10091 8.0223 9.07617 8.14645 9.02812 8.26225C8.98006 8.37806 8.90963 8.48325 8.82086 8.57179Z" fill="#EFC42F"/>
</g>
<defs>
<clipPath id="clip0_909_13613">
<rect width="30.5029" height="30.5029" fill="white" transform="translate(0.310547 0.0595703)"/>
</clipPath>
</defs>
</svg>
