<svg width="32" height="31" viewBox="0 0 32 31" fill="none" xmlns="http://www.w3.org/2000/svg">
<g clip-path="url(#clip0_909_13607)">
<path d="M22.4794 21.0307C22.2649 19.0979 21.4 17.2952 20.0267 15.9184C18.6533 14.5415 16.8528 13.6721 14.9205 13.4527C12.9882 13.2333 11.0387 13.677 9.39162 14.7109C7.74453 15.7449 6.4976 17.3078 5.85527 19.1433C4.38339 19.2638 3.01517 19.949 2.037 21.0554C1.05883 22.1618 0.546555 23.6037 0.6074 25.0792C0.668245 26.5548 1.29749 27.9496 2.36343 28.9717C3.42937 29.9938 4.84936 30.564 6.32616 30.5629H22.5308C23.7949 30.5629 25.0072 30.0607 25.901 29.1669C26.7948 28.2731 27.2969 27.0608 27.2969 25.7968C27.2969 24.5328 26.7948 23.3205 25.901 22.4267C25.0072 21.5329 23.7949 21.0307 22.5308 21.0307H22.4794Z" fill="#37BB8E"/>
<path d="M20.6242 2.91953C20.6242 2.66672 20.5238 2.42426 20.3451 2.2455C20.1663 2.06674 19.9238 1.96631 19.671 1.96631C19.4182 1.96631 19.1758 2.06674 18.997 2.2455C18.8182 2.42426 18.7178 2.66672 18.7178 2.91953V4.82596C18.7178 5.07877 18.8182 5.32122 18.997 5.49998C19.1758 5.67875 19.4182 5.77917 19.671 5.77917C19.9238 5.77917 20.1663 5.67875 20.3451 5.49998C20.5238 5.32122 20.6242 5.07877 20.6242 4.82596V2.91953ZM27.76 6.66376C27.8511 6.57583 27.9237 6.47065 27.9736 6.35435C28.0236 6.23805 28.0499 6.11297 28.051 5.9864C28.0521 5.85984 28.028 5.73432 27.98 5.61717C27.9321 5.50002 27.8613 5.3936 27.7718 5.3041C27.6823 5.2146 27.5759 5.14382 27.4588 5.09589C27.3416 5.04796 27.2161 5.02384 27.0895 5.02494C26.963 5.02604 26.8379 5.05234 26.7216 5.10229C26.6053 5.15225 26.5001 5.22487 26.4122 5.31591L25.0624 6.66376C24.8834 6.84275 24.7829 7.08551 24.7829 7.33864C24.7829 7.59176 24.8834 7.83453 25.0624 8.01351C25.2414 8.1925 25.4842 8.29306 25.7373 8.29306C25.9904 8.29306 26.2332 8.1925 26.4122 8.01351L27.76 6.66376ZM12.9299 5.31591C12.7501 5.14227 12.5093 5.0462 12.2594 5.04837C12.0095 5.05054 11.7704 5.15079 11.5936 5.32752C11.4169 5.50426 11.3167 5.74334 11.3145 5.99327C11.3123 6.2432 11.4084 6.48398 11.582 6.66376L12.9299 8.01351C13.0185 8.10214 13.1237 8.17244 13.2395 8.22041C13.3553 8.26837 13.4794 8.29306 13.6048 8.29306C13.7301 8.29306 13.8542 8.26837 13.97 8.22041C14.0858 8.17244 14.191 8.10214 14.2796 8.01351C14.3683 7.92489 14.4386 7.81967 14.4865 7.70388C14.5345 7.58808 14.5592 7.46397 14.5592 7.33864C14.5592 7.2133 14.5345 7.08919 14.4865 6.9734C14.4386 6.8576 14.3683 6.75239 14.2796 6.66376L12.9299 5.31591ZM16.2356 11.7482C16.4726 11.2572 16.8121 10.8227 17.2312 10.474C17.6503 10.1254 18.1394 9.87064 18.6653 9.72705C19.1913 9.58345 19.7419 9.55431 20.2801 9.64161C20.8183 9.7289 21.3314 9.93059 21.785 10.2331C22.2386 10.5356 22.6221 10.9318 22.9095 11.3951C23.197 11.8584 23.3817 12.3779 23.4513 12.9186C23.5209 13.4594 23.4737 14.0088 23.3129 14.5297C23.1521 15.0507 22.8815 15.5311 22.5192 15.9386C22.8986 16.4743 23.2284 17.0481 23.503 17.6505C24.149 17.0668 24.6533 16.3432 24.9773 15.535C25.3013 14.7268 25.4365 13.8553 25.3725 12.9869C25.3086 12.1185 25.0472 11.2762 24.6083 10.5241C24.1695 9.77209 23.5647 9.13019 22.84 8.64736C22.1154 8.16454 21.2901 7.85354 20.4271 7.73807C19.564 7.62261 18.686 7.70573 17.86 7.98109C17.0339 8.25646 16.2817 8.7168 15.6605 9.32703C15.0394 9.93725 14.5658 10.6812 14.2758 11.5023C14.9469 11.5233 15.6027 11.6071 16.2356 11.7482ZM24.7841 19.515C25.9279 19.9249 26.9288 20.6398 27.6857 21.5587C27.7895 21.4747 27.8744 21.3697 27.9351 21.2508C27.9957 21.1318 28.0307 21.0013 28.0377 20.868C28.0447 20.7346 28.0236 20.6013 27.9758 20.4766C27.9279 20.3519 27.8544 20.2386 27.76 20.1441L26.4122 18.7963C26.2763 18.6596 26.1021 18.5673 25.9127 18.5316C25.7233 18.4959 25.5275 18.5185 25.3512 18.5963C25.1749 18.6741 25.0263 18.8036 24.925 18.9676C24.8238 19.1316 24.7746 19.3225 24.7841 19.515ZM28.25 12.4517C27.9972 12.4517 27.7547 12.5521 27.5759 12.7309C27.3972 12.9096 27.2968 13.1521 27.2968 13.4049C27.2968 13.6577 27.3972 13.9002 27.5759 14.0789C27.7547 14.2577 27.9972 14.3581 28.25 14.3581H30.1564C30.4092 14.3581 30.6517 14.2577 30.8304 14.0789C31.0092 13.9002 31.1096 13.6577 31.1096 13.4049C31.1096 13.1521 31.0092 12.9096 30.8304 12.7309C30.6517 12.5521 30.4092 12.4517 30.1564 12.4517H28.25Z" fill="#37BB8E"/>
</g>
<defs>
<clipPath id="clip0_909_13607">
<rect width="30.5029" height="30.5029" fill="white" transform="translate(0.603516 0.0595703)"/>
</clipPath>
</defs>
</svg>
