<svg width="87" height="17" viewBox="0 0 87 17" fill="none" xmlns="http://www.w3.org/2000/svg">
<rect width="11.273" height="58.3781" transform="matrix(0.00384771 -0.999993 -0.999999 -0.00128719 58.771 14.582)" fill="#B0B0B0"/>
<path d="M62.9216 12.3139L62.9216 1.63903L58.7947 3.21176L58.7809 14.5282L62.9216 12.3139Z" fill="#8A8A8A"/>
<path d="M58.7998 3.21293L62.9217 1.64645L6.55649 1.64645L0.0437428 3.14373L58.7998 3.21293Z" fill="#545454"/>
<path d="M5.73148 7.58992C5.70646 7.50294 5.67132 7.42609 5.62604 7.35937C5.58077 7.29146 5.52537 7.23427 5.45984 7.18781C5.3955 7.14015 5.32163 7.10381 5.23823 7.07879C5.15602 7.05377 5.06488 7.04126 4.9648 7.04126C4.77775 7.04126 4.61333 7.08773 4.47155 7.18066C4.33096 7.27359 4.22135 7.40882 4.14271 7.58634C4.06408 7.76267 4.02476 7.97832 4.02476 8.23329C4.02476 8.48825 4.06348 8.70509 4.14093 8.88381C4.21837 9.06252 4.32798 9.19894 4.46976 9.29306C4.61154 9.38599 4.77894 9.43246 4.97195 9.43246C5.14709 9.43246 5.29661 9.40148 5.42052 9.33953C5.54562 9.27638 5.64094 9.18762 5.70646 9.07324C5.77318 8.95887 5.80654 8.82364 5.80654 8.66756L5.96381 8.69079L5.0202 8.69079L5.0202 8.10819L6.55178 8.10819L6.55178 8.56927C6.55178 8.89095 6.48387 9.16737 6.34805 9.3985C6.21222 9.62845 6.02517 9.80597 5.78688 9.93107C5.5486 10.055 5.27576 10.1169 4.96837 10.1169C4.62524 10.1169 4.32381 10.0413 4.06408 9.88997C3.80435 9.73746 3.60181 9.52122 3.45645 9.24123C3.31229 8.96006 3.24021 8.62646 3.24021 8.24043C3.24021 7.94377 3.2831 7.67927 3.36888 7.44694C3.45586 7.21342 3.57738 7.01565 3.73346 6.85361C3.88954 6.69158 4.07123 6.56827 4.27854 6.48367C4.48585 6.39908 4.71043 6.35679 4.95229 6.35679C5.1596 6.35679 5.35261 6.38717 5.53132 6.44793C5.71004 6.5075 5.8685 6.59209 6.0067 6.70171C6.1461 6.81132 6.25988 6.94178 6.34805 7.09309C6.43621 7.24321 6.49281 7.40882 6.51783 7.58992L5.73148 7.58992ZM8.35903 10.1205C8.08143 10.1205 7.84135 10.0615 7.63881 9.94358C7.43746 9.82444 7.28198 9.65883 7.17237 9.44676C7.06276 9.23349 7.00795 8.98627 7.00795 8.70509C7.00795 8.42153 7.06276 8.17371 7.17237 7.96164C7.28198 7.74838 7.43746 7.58277 7.63881 7.46482C7.84135 7.34567 8.08143 7.2861 8.35903 7.2861C8.63663 7.2861 8.87611 7.34567 9.07746 7.46482C9.28 7.58277 9.43608 7.74838 9.54569 7.96164C9.6553 8.17371 9.71011 8.42153 9.71011 8.70509C9.71011 8.98627 9.6553 9.23349 9.54569 9.44676C9.43608 9.65883 9.28 9.82444 9.07746 9.94358C8.87611 10.0615 8.63663 10.1205 8.35903 10.1205ZM8.3626 9.53075C8.48889 9.53075 8.59434 9.49501 8.67893 9.42352C8.76352 9.35085 8.82726 9.25196 8.87015 9.12686C8.91423 9.00176 8.93628 8.85938 8.93628 8.69973C8.93628 8.54008 8.91423 8.3977 8.87015 8.2726C8.82726 8.1475 8.76352 8.04862 8.67893 7.97594C8.59434 7.90326 8.48889 7.86692 8.3626 7.86692C8.23512 7.86692 8.12789 7.90326 8.04092 7.97594C7.95514 8.04862 7.8902 8.1475 7.84612 8.2726C7.80323 8.3977 7.78178 8.54008 7.78178 8.69973C7.78178 8.85938 7.80323 9.00176 7.84612 9.12686C7.8902 9.25196 7.95514 9.35085 8.04092 9.42352C8.12789 9.49501 8.23512 9.53075 8.3626 9.53075ZM10.9879 10.1187C10.8128 10.1187 10.6567 10.0883 10.5197 10.0276C10.3827 9.96562 10.2742 9.87448 10.1944 9.75414C10.1158 9.63262 10.0765 9.48131 10.0765 9.30021C10.0765 9.14771 10.1045 9.01963 10.1605 8.91597C10.2165 8.81232 10.2927 8.72892 10.3892 8.66577C10.4857 8.60263 10.5953 8.55497 10.7181 8.5228C10.842 8.49063 10.9718 8.468 11.1077 8.45489C11.2673 8.43821 11.396 8.42272 11.4937 8.40843C11.5914 8.39294 11.6623 8.3703 11.7063 8.34051C11.7504 8.31073 11.7725 8.26665 11.7725 8.20827L11.7725 8.19754C11.7725 8.08436 11.7367 7.99679 11.6652 7.93483C11.5949 7.87288 11.4949 7.8419 11.365 7.8419C11.228 7.8419 11.119 7.87228 11.038 7.93305C10.9569 7.99262 10.9033 8.06768 10.8771 8.15823L10.173 8.10104C10.2087 7.93424 10.279 7.79008 10.3839 7.66855C10.4887 7.54583 10.6239 7.45171 10.7895 7.38618C10.9563 7.31946 11.1494 7.2861 11.3686 7.2861C11.5211 7.2861 11.667 7.30397 11.8064 7.33972C11.947 7.37546 12.0715 7.43086 12.1799 7.50592C12.2896 7.58098 12.3759 7.67749 12.4391 7.79544C12.5022 7.9122 12.5338 8.05219 12.5338 8.21541L12.5338 10.0669L11.8118 10.0669L11.8118 9.68623L11.7903 9.68623C11.7463 9.77202 11.6873 9.84767 11.6134 9.9132C11.5395 9.97754 11.4508 10.0282 11.3471 10.0651C11.2435 10.1008 11.1237 10.1187 10.9879 10.1187ZM11.2059 9.5933C11.3179 9.5933 11.4168 9.57126 11.5026 9.52718C11.5884 9.4819 11.6557 9.42114 11.7046 9.34489C11.7534 9.26864 11.7778 9.18226 11.7778 9.08575L11.7778 8.79445C11.754 8.80994 11.7212 8.82423 11.6795 8.83734C11.639 8.84925 11.5932 8.86057 11.5419 8.8713C11.4907 8.88083 11.4395 8.88976 11.3882 8.8981C11.337 8.90525 11.2905 8.9118 11.2488 8.91776C11.1595 8.93087 11.0814 8.95172 11.0147 8.98031C10.948 9.00891 10.8962 9.04763 10.8592 9.09648C10.8223 9.14413 10.8038 9.2037 10.8038 9.27519C10.8038 9.37884 10.8414 9.45807 10.9164 9.51288C10.9927 9.56649 11.0892 9.5933 11.2059 9.5933ZM13.8858 6.40683L13.8858 10.0669L13.1244 10.0669L13.1244 6.40683L13.8858 6.40683ZM17.0061 10.1169C16.7392 10.1169 16.5015 10.0711 16.293 9.97932C16.0857 9.88639 15.9219 9.75891 15.8016 9.59688C15.6824 9.43365 15.6211 9.2454 15.6175 9.03214L16.3967 9.03214C16.4015 9.1215 16.4307 9.20013 16.4843 9.26804C16.5391 9.33476 16.6118 9.38659 16.7023 9.42352C16.7929 9.46046 16.8947 9.47892 17.0079 9.47892C17.1259 9.47892 17.2301 9.45807 17.3207 9.41637C17.4112 9.37467 17.4821 9.31689 17.5333 9.24302C17.5846 9.16915 17.6102 9.08397 17.6102 8.98746C17.6102 8.88976 17.5828 8.80338 17.528 8.72832C17.4743 8.65207 17.3969 8.5925 17.2956 8.54961C17.1956 8.50672 17.0764 8.48527 16.9382 8.48527L16.5969 8.48527L16.5969 7.91696L16.9382 7.91696C17.055 7.91696 17.158 7.89671 17.2474 7.8562C17.3379 7.81569 17.4082 7.75969 17.4583 7.68821C17.5083 7.61553 17.5333 7.53094 17.5333 7.43443C17.5333 7.34269 17.5113 7.26227 17.4672 7.19317C17.4243 7.12288 17.3635 7.06807 17.2849 7.02875C17.2075 6.98944 17.1169 6.96978 17.0133 6.96978C16.9084 6.96978 16.8125 6.98884 16.7255 7.02697C16.6386 7.0639 16.5689 7.11692 16.5164 7.18602C16.464 7.25512 16.436 7.33614 16.4324 7.42907L15.6908 7.42907C15.6944 7.21819 15.7545 7.03233 15.8713 6.87148C15.988 6.71064 16.1453 6.58495 16.3431 6.4944C16.5421 6.40266 16.7666 6.35679 17.0168 6.35679C17.2694 6.35679 17.4904 6.40266 17.6799 6.4944C17.8693 6.58614 18.0164 6.71005 18.1213 6.86612C18.2273 7.02101 18.2798 7.19496 18.2786 7.38797C18.2798 7.59289 18.216 7.76386 18.0873 7.90088C17.9599 8.03789 17.7937 8.12487 17.5887 8.1618L17.5887 8.19039C17.858 8.22495 18.0629 8.31847 18.2035 8.47098C18.3453 8.62229 18.4156 8.81172 18.4144 9.03929C18.4156 9.24779 18.3554 9.43305 18.2339 9.59509C18.1135 9.75712 17.9473 9.88461 17.7353 9.97754C17.5232 10.0705 17.2801 10.1169 17.0061 10.1169Z" fill="black"/>
<g filter="url(#filter0_d_1214_9342)">
<path d="M71.4142 8.61589V8.19412L72.6566 6.23113H73.0083V6.83161H72.7939L71.9575 8.15695V8.17983H73.6917V8.61589H71.4142ZM72.811 9.15918V8.48721L72.8168 8.29849V6.23113H73.3172V9.15918H72.811ZM75.6705 7.87244V9.15918H75.1529V6.23113H75.659V7.33629H75.6848C75.7362 7.21239 75.8158 7.11469 75.9235 7.0432C76.0322 6.97076 76.1704 6.93455 76.3381 6.93455C76.4906 6.93455 76.6236 6.96648 76.737 7.03034C76.8505 7.0942 76.9381 7.1876 77.0001 7.31056C77.063 7.43352 77.0945 7.58364 77.0945 7.76092V9.15918H76.5769V7.84098C76.5769 7.69325 76.5388 7.57839 76.4625 7.49642C76.3872 7.4135 76.2814 7.37204 76.1451 7.37204C76.0536 7.37204 75.9717 7.39205 75.8992 7.43209C75.8277 7.47116 75.7715 7.52788 75.7305 7.60222C75.6905 7.67657 75.6705 7.76664 75.6705 7.87244ZM78.5799 9.20207C78.3655 9.20207 78.1796 9.15489 78.0223 9.06053C77.8651 8.96617 77.7431 8.83416 77.6563 8.6645C77.5706 8.49484 77.5277 8.29659 77.5277 8.06974C77.5277 7.84289 77.5706 7.64416 77.6563 7.47355C77.7431 7.30293 77.8651 7.17045 78.0223 7.07609C78.1796 6.98173 78.3655 6.93455 78.5799 6.93455C78.7944 6.93455 78.9803 6.98173 79.1375 7.07609C79.2948 7.17045 79.4163 7.30293 79.5021 7.47355C79.5888 7.64416 79.6322 7.84289 79.6322 8.06974C79.6322 8.29659 79.5888 8.49484 79.5021 8.6645C79.4163 8.83416 79.2948 8.96617 79.1375 9.06053C78.9803 9.15489 78.7944 9.20207 78.5799 9.20207ZM78.5828 8.78745C78.6991 8.78745 78.7963 8.75552 78.8745 8.69166C78.9526 8.62685 79.0108 8.54011 79.0489 8.43146C79.088 8.3228 79.1075 8.20175 79.1075 8.06831C79.1075 7.93391 79.088 7.81239 79.0489 7.70373C79.0108 7.59412 78.9526 7.50691 78.8745 7.44209C78.7963 7.37728 78.6991 7.34487 78.5828 7.34487C78.4637 7.34487 78.3645 7.37728 78.2854 7.44209C78.2073 7.50691 78.1486 7.59412 78.1096 7.70373C78.0714 7.81239 78.0524 7.93391 78.0524 8.06831C78.0524 8.20175 78.0714 8.3228 78.1096 8.43146C78.1486 8.54011 78.2073 8.62685 78.2854 8.69166C78.3645 8.75552 78.4637 8.78745 78.5828 8.78745ZM81.4712 8.23558V6.96314H81.9887V9.15918H81.4869V8.76887H81.464C81.4145 8.89182 81.333 8.99238 81.2195 9.07054C81.1071 9.1487 80.9684 9.18777 80.8035 9.18777C80.6596 9.18777 80.5323 9.15584 80.4218 9.09198C80.3122 9.02717 80.2264 8.93328 80.1644 8.81033C80.1025 8.68642 80.0715 8.53678 80.0715 8.3614V6.96314H80.589V8.28134C80.589 8.42049 80.6272 8.53106 80.7034 8.61303C80.7797 8.695 80.8797 8.73598 81.0037 8.73598C81.0799 8.73598 81.1538 8.7174 81.2253 8.68023C81.2967 8.64305 81.3554 8.58777 81.4011 8.51438C81.4478 8.44003 81.4712 8.3471 81.4712 8.23558ZM82.5209 9.15918V6.96314H83.0228V7.32915H83.0456C83.0857 7.20238 83.1543 7.10468 83.2515 7.03605C83.3497 6.96648 83.4617 6.93169 83.5875 6.93169C83.6161 6.93169 83.648 6.93312 83.6833 6.93597C83.7195 6.93788 83.7495 6.94122 83.7734 6.94598V7.42208C83.7514 7.41445 83.7167 7.40778 83.669 7.40206C83.6223 7.39539 83.577 7.39205 83.5332 7.39205C83.4388 7.39205 83.354 7.41255 83.2787 7.45353C83.2043 7.49356 83.1457 7.54932 83.1028 7.62081C83.0599 7.69229 83.0385 7.77474 83.0385 7.86815V9.15918H82.5209ZM85.8529 7.5436L85.3811 7.59507C85.3677 7.54742 85.3444 7.50262 85.311 7.46068C85.2786 7.41874 85.2348 7.3849 85.1795 7.35917C85.1242 7.33344 85.0565 7.32057 84.9765 7.32057C84.8688 7.32057 84.7782 7.34392 84.7048 7.39062C84.6324 7.43733 84.5966 7.49785 84.5976 7.5722C84.5966 7.63606 84.62 7.688 84.6677 7.72804C84.7163 7.76807 84.7963 7.80095 84.9078 7.82669L85.2824 7.90675C85.4902 7.95155 85.6446 8.02256 85.7457 8.11978C85.8476 8.217 85.8991 8.34424 85.9001 8.50151C85.8991 8.63972 85.8586 8.76172 85.7785 8.86752C85.6994 8.97236 85.5893 9.05433 85.4483 9.11343C85.3072 9.17252 85.1452 9.20207 84.9622 9.20207C84.6934 9.20207 84.477 9.14584 84.3131 9.03336C84.1491 8.91994 84.0514 8.7622 84.02 8.56013L84.5247 8.51152C84.5476 8.61065 84.5962 8.68547 84.6705 8.73598C84.7449 8.7865 84.8416 8.81176 84.9607 8.81176C85.0837 8.81176 85.1824 8.7865 85.2567 8.73598C85.332 8.68547 85.3696 8.62304 85.3696 8.54869C85.3696 8.48578 85.3453 8.43384 85.2967 8.39285C85.2491 8.35187 85.1747 8.32041 85.0737 8.29849L84.6991 8.21986C84.4885 8.17601 84.3326 8.10214 84.2316 7.99825C84.1306 7.89341 84.0805 7.76092 84.0815 7.60079C84.0805 7.46545 84.1172 7.34821 84.1916 7.24908C84.2669 7.149 84.3712 7.0718 84.5047 7.01747C84.6391 6.96219 84.7939 6.93455 84.9693 6.93455C85.2267 6.93455 85.4292 6.98935 85.577 7.09896C85.7256 7.20857 85.8176 7.35679 85.8529 7.5436Z" fill="#333333"/>
</g>
<defs>
<filter id="filter0_d_1214_9342" x="70.609" y="6.23096" width="16.0963" height="4.58162" filterUnits="userSpaceOnUse" color-interpolation-filters="sRGB">
<feFlood flood-opacity="0" result="BackgroundImageFix"/>
<feColorMatrix in="SourceAlpha" type="matrix" values="0 0 0 0 0 0 0 0 0 0 0 0 0 0 0 0 0 0 127 0" result="hardAlpha"/>
<feOffset dy="0.805215"/>
<feGaussianBlur stdDeviation="0.402607"/>
<feComposite in2="hardAlpha" operator="out"/>
<feColorMatrix type="matrix" values="0 0 0 0 0 0 0 0 0 0 0 0 0 0 0 0 0 0 0.25 0"/>
<feBlend mode="normal" in2="BackgroundImageFix" result="effect1_dropShadow_1214_9342"/>
<feBlend mode="normal" in="SourceGraphic" in2="effect1_dropShadow_1214_9342" result="shape"/>
</filter>
</defs>
</svg>
