<svg width="223" height="17" viewBox="0 0 223 17" fill="none" xmlns="http://www.w3.org/2000/svg">
<rect width="11.1729" height="194.731" transform="matrix(0.00384771 -0.999993 -0.999999 -0.00128719 194.754 14.5117)" fill="#B0EAD4"/>
<path d="M198.888 12.6121L198.888 1.79423L194.761 3.36696L194.761 14.5244L198.888 12.6121Z" fill="#8ADFBF"/>
<path d="M194.772 3.40189L198.899 1.84192L20.5089 1.62188L0.0429461 3.10274L194.772 3.40189Z" fill="#54D1A1"/>
<path d="M6.20657 7.48542C6.18155 7.39845 6.1464 7.3216 6.10113 7.25488C6.05586 7.18697 6.00045 7.12978 5.93492 7.08332C5.87059 7.03566 5.79672 6.99932 5.71332 6.9743C5.63111 6.94928 5.53997 6.93677 5.43989 6.93677C5.25283 6.93677 5.08842 6.98324 4.94664 7.07617C4.80605 7.1691 4.69644 7.30433 4.6178 7.48185C4.53917 7.65818 4.49985 7.87383 4.49985 8.12879C4.49985 8.38376 4.53857 8.6006 4.61601 8.77931C4.69346 8.95803 4.80307 9.09445 4.94485 9.18857C5.08663 9.2815 5.25402 9.32797 5.44704 9.32797C5.62218 9.32797 5.7717 9.29699 5.89561 9.23504C6.02071 9.17189 6.11602 9.08313 6.18155 8.96875C6.24827 8.85437 6.28163 8.71915 6.28163 8.56307L6.4389 8.5863L5.49529 8.5863L5.49529 8.00369L7.02687 8.00369L7.02687 8.46478C7.02687 8.78646 6.95896 9.06287 6.82313 9.29401C6.68731 9.52396 6.50026 9.70148 6.26197 9.82658C6.02369 9.95049 5.75085 10.0124 5.44346 10.0124C5.10033 10.0124 4.7989 9.93679 4.53917 9.78547C4.27944 9.63297 4.07689 9.41673 3.93154 9.13674C3.78738 8.85557 3.71529 8.52197 3.71529 8.13594C3.71529 7.83928 3.75819 7.57478 3.84397 7.34245C3.93094 7.10893 4.05247 6.91115 4.20855 6.74912C4.36462 6.58709 4.54632 6.46377 4.75362 6.37918C4.96093 6.29459 5.18552 6.25229 5.42738 6.25229C5.63469 6.25229 5.8277 6.28268 6.00641 6.34344C6.18512 6.40301 6.34358 6.4876 6.48179 6.59721C6.62119 6.70682 6.73497 6.83729 6.82313 6.9886C6.9113 7.13872 6.96789 7.30433 6.99291 7.48542L6.20657 7.48542ZM8.83412 10.016C8.55651 10.016 8.31644 9.95704 8.1139 9.83909C7.91255 9.71995 7.75707 9.55434 7.64745 9.34226C7.53784 9.129 7.48304 8.88178 7.48304 8.6006C7.48304 8.31704 7.53784 8.06922 7.64745 7.85715C7.75707 7.64388 7.91255 7.47827 8.1139 7.36032C8.31644 7.24118 8.55651 7.18161 8.83412 7.18161C9.11172 7.18161 9.3512 7.24118 9.55255 7.36032C9.75509 7.47827 9.91117 7.64388 10.0208 7.85715C10.1304 8.06922 10.1852 8.31704 10.1852 8.6006C10.1852 8.88178 10.1304 9.129 10.0208 9.34226C9.91117 9.55434 9.75509 9.71995 9.55255 9.83909C9.3512 9.95704 9.11172 10.016 8.83412 10.016ZM8.83769 9.42626C8.96398 9.42626 9.06942 9.39052 9.15402 9.31903C9.23861 9.24635 9.30235 9.14747 9.34524 9.02237C9.38932 8.89727 9.41136 8.75489 9.41136 8.59524C9.41136 8.43559 9.38932 8.29321 9.34524 8.16811C9.30235 8.04301 9.23861 7.94412 9.15402 7.87145C9.06942 7.79877 8.96398 7.76243 8.83769 7.76243C8.71021 7.76243 8.60298 7.79877 8.51601 7.87145C8.43022 7.94412 8.36529 8.04301 8.32121 8.16811C8.27832 8.29321 8.25687 8.43559 8.25687 8.59524C8.25687 8.75489 8.27832 8.89727 8.32121 9.02237C8.36529 9.14747 8.43022 9.24635 8.51601 9.31903C8.60298 9.39052 8.71021 9.42626 8.83769 9.42626ZM11.463 10.0142C11.2879 10.0142 11.1318 9.98385 10.9948 9.92308C10.8578 9.86113 10.7493 9.76999 10.6695 9.64965C10.5909 9.52813 10.5516 9.37682 10.5516 9.19572C10.5516 9.04322 10.5796 8.91514 10.6356 8.81148C10.6916 8.70783 10.7678 8.62443 10.8643 8.56128C10.9608 8.49814 11.0704 8.45048 11.1931 8.41831C11.3171 8.38614 11.4469 8.36351 11.5827 8.3504C11.7424 8.33372 11.8711 8.31823 11.9688 8.30393C12.0665 8.28845 12.1374 8.26581 12.1814 8.23602C12.2255 8.20624 12.2476 8.16215 12.2476 8.10377L12.2476 8.09305C12.2476 7.97987 12.2118 7.8923 12.1403 7.83034C12.07 7.76839 11.97 7.73741 11.8401 7.73741C11.7031 7.73741 11.5941 7.76779 11.513 7.82855C11.432 7.88813 11.3784 7.96319 11.3522 8.05373L10.6481 7.99655C10.6838 7.82975 10.7541 7.68558 10.8589 7.56406C10.9638 7.44134 11.099 7.34722 11.2646 7.28169C11.4314 7.21497 11.6244 7.18161 11.8437 7.18161C11.9962 7.18161 12.1421 7.19948 12.2815 7.23522C12.4221 7.27097 12.5466 7.32637 12.655 7.40143C12.7646 7.47649 12.851 7.57299 12.9142 7.69094C12.9773 7.8077 13.0089 7.9477 13.0089 8.11092L13.0089 9.9624L12.2869 9.9624L12.2869 9.58174L12.2654 9.58174C12.2213 9.66752 12.1624 9.74318 12.0885 9.80871C12.0146 9.87304 11.9259 9.92368 11.8222 9.96061C11.7186 9.99636 11.5988 10.0142 11.463 10.0142ZM11.681 9.48881C11.793 9.48881 11.8919 9.46677 11.9777 9.42269C12.0635 9.37741 12.1308 9.31665 12.1796 9.2404C12.2285 9.16415 12.2529 9.07777 12.2529 8.98126L12.2529 8.68996C12.2291 8.70545 12.1963 8.71974 12.1546 8.73285C12.1141 8.74476 12.0682 8.75608 12.017 8.7668C11.9658 8.77634 11.9146 8.78527 11.8633 8.79361C11.8121 8.80076 11.7656 8.80731 11.7239 8.81327C11.6346 8.82638 11.5565 8.84723 11.4898 8.87582C11.4231 8.90441 11.3713 8.94314 11.3343 8.99198C11.2974 9.03964 11.2789 9.09921 11.2789 9.1707C11.2789 9.27435 11.3165 9.35358 11.3915 9.40839C11.4678 9.462 11.5643 9.48881 11.681 9.48881ZM14.3609 6.30233L14.3609 9.9624L13.5995 9.9624L13.5995 6.30233L14.3609 6.30233ZM16.1283 9.9624L16.1283 9.40481L17.4312 8.19849C17.542 8.09126 17.6349 7.99476 17.71 7.90898C17.7862 7.82319 17.844 7.7392 17.8833 7.65699C17.9226 7.57359 17.9423 7.48364 17.9423 7.38713C17.9423 7.2799 17.9179 7.18757 17.869 7.11012C17.8202 7.03149 17.7534 6.97132 17.6689 6.92962C17.5843 6.88673 17.4884 6.86528 17.3811 6.86528C17.2691 6.86528 17.1714 6.88792 17.088 6.9332C17.0046 6.97847 16.9403 7.0434 16.895 7.12799C16.8497 7.21259 16.8271 7.31326 16.8271 7.43002L16.0926 7.43002C16.0926 7.19054 16.1468 6.98264 16.2552 6.80631C16.3636 6.62998 16.5156 6.49356 16.7109 6.39705C16.9063 6.30055 17.1315 6.25229 17.3865 6.25229C17.6486 6.25229 17.8768 6.29876 18.071 6.39169C18.2664 6.48343 18.4183 6.61091 18.5267 6.77414C18.6351 6.93737 18.6893 7.12442 18.6893 7.3353C18.6893 7.47351 18.6619 7.60993 18.6071 7.74456C18.5535 7.87919 18.4576 8.02871 18.3194 8.19313C18.1812 8.35636 17.9864 8.55235 17.735 8.7811L17.2006 9.30473L17.2006 9.32975L18.7376 9.32975L18.7376 9.9624L16.1283 9.9624Z" fill="#00BA73"/>
<g filter="url(#filter0_d_1214_9335)">
<path d="M208.408 9.16015C208.218 9.16015 208.047 9.12441 207.896 9.05292C207.746 8.98048 207.626 8.88135 207.538 8.75554C207.45 8.62973 207.403 8.4858 207.397 8.32377H207.912C207.922 8.44386 207.974 8.54204 208.068 8.61829C208.162 8.69359 208.276 8.73124 208.408 8.73124C208.512 8.73124 208.605 8.70741 208.686 8.65975C208.767 8.61209 208.83 8.54585 208.877 8.46102C208.924 8.37619 208.947 8.27945 208.946 8.17079C208.947 8.06022 208.923 7.96205 208.876 7.87627C208.828 7.79048 208.763 7.72329 208.68 7.67468C208.597 7.62511 208.502 7.60033 208.394 7.60033C208.306 7.59938 208.22 7.61558 208.135 7.64894C208.05 7.6823 207.983 7.72615 207.934 7.78048L207.455 7.70184L207.608 6.19206H209.306V6.63527H208.047L207.962 7.41161H207.979C208.034 7.34775 208.11 7.29485 208.209 7.25291C208.309 7.21002 208.417 7.18857 208.535 7.18857C208.713 7.18857 208.871 7.23051 209.01 7.31439C209.149 7.39731 209.259 7.51169 209.339 7.65752C209.419 7.80335 209.459 7.97015 209.459 8.15792C209.459 8.35141 209.414 8.52393 209.325 8.67548C209.236 8.82607 209.113 8.94474 208.954 9.03147C208.797 9.11726 208.615 9.16015 208.408 9.16015ZM211.46 7.83337V9.12012H210.942V6.19206H211.449V7.29723H211.474C211.526 7.17332 211.605 7.07563 211.713 7.00414C211.822 6.9317 211.96 6.89548 212.128 6.89548C212.28 6.89548 212.413 6.92741 212.527 6.99127C212.64 7.05513 212.728 7.14854 212.79 7.2715C212.852 7.39445 212.884 7.54457 212.884 7.72186V9.12012H212.366V7.80192C212.366 7.65418 212.328 7.53933 212.252 7.45736C212.177 7.37444 212.071 7.33297 211.935 7.33297C211.843 7.33297 211.761 7.35299 211.689 7.39302C211.617 7.4321 211.561 7.48881 211.52 7.56316C211.48 7.6375 211.46 7.72758 211.46 7.83337ZM214.369 9.16301C214.155 9.16301 213.969 9.11583 213.812 9.02147C213.655 8.92711 213.533 8.7951 213.446 8.62544C213.36 8.45578 213.317 8.25752 213.317 8.03068C213.317 7.80383 213.36 7.6051 213.446 7.43448C213.533 7.26387 213.655 7.13139 213.812 7.03702C213.969 6.94266 214.155 6.89548 214.369 6.89548C214.584 6.89548 214.77 6.94266 214.927 7.03702C215.084 7.13139 215.206 7.26387 215.292 7.43448C215.378 7.6051 215.422 7.80383 215.422 8.03068C215.422 8.25752 215.378 8.45578 215.292 8.62544C215.206 8.7951 215.084 8.92711 214.927 9.02147C214.77 9.11583 214.584 9.16301 214.369 9.16301ZM214.372 8.74839C214.489 8.74839 214.586 8.71646 214.664 8.6526C214.742 8.58779 214.8 8.50105 214.838 8.39239C214.877 8.28373 214.897 8.16269 214.897 8.02925C214.897 7.89485 214.877 7.77333 214.838 7.66467C214.8 7.55506 214.742 7.46784 214.664 7.40303C214.586 7.33822 214.489 7.30581 214.372 7.30581C214.253 7.30581 214.154 7.33822 214.075 7.40303C213.997 7.46784 213.938 7.55506 213.899 7.66467C213.861 7.77333 213.842 7.89485 213.842 8.02925C213.842 8.16269 213.861 8.28373 213.899 8.39239C213.938 8.50105 213.997 8.58779 214.075 8.6526C214.154 8.71646 214.253 8.74839 214.372 8.74839ZM217.261 8.19652V6.92408H217.778V9.12012H217.276V8.72981H217.254C217.204 8.85276 217.122 8.95332 217.009 9.03147C216.897 9.10963 216.758 9.14871 216.593 9.14871C216.449 9.14871 216.322 9.11678 216.211 9.05292C216.102 8.98811 216.016 8.89422 215.954 8.77127C215.892 8.64736 215.861 8.49772 215.861 8.32234V6.92408H216.379V8.24227C216.379 8.38143 216.417 8.492 216.493 8.57397C216.569 8.65594 216.669 8.69692 216.793 8.69692C216.869 8.69692 216.943 8.67834 217.015 8.64116C217.086 8.60399 217.145 8.54871 217.191 8.47532C217.237 8.40097 217.261 8.30804 217.261 8.19652ZM218.31 9.12012V6.92408H218.812V7.29008H218.835C218.875 7.16332 218.944 7.06562 219.041 6.99699C219.139 6.92741 219.251 6.89262 219.377 6.89262C219.406 6.89262 219.438 6.89405 219.473 6.89691C219.509 6.89882 219.539 6.90215 219.563 6.90692V7.38301C219.541 7.37539 219.506 7.36872 219.458 7.363C219.412 7.35633 219.367 7.35299 219.323 7.35299C219.228 7.35299 219.143 7.37348 219.068 7.41447C218.994 7.4545 218.935 7.51026 218.892 7.58175C218.849 7.65323 218.828 7.73568 218.828 7.82909V9.12012H218.31ZM221.642 7.50454L221.171 7.55601C221.157 7.50835 221.134 7.46356 221.101 7.42162C221.068 7.37968 221.024 7.34584 220.969 7.32011C220.914 7.29437 220.846 7.28151 220.766 7.28151C220.658 7.28151 220.568 7.30486 220.494 7.35156C220.422 7.39827 220.386 7.45879 220.387 7.53313C220.386 7.597 220.409 7.64894 220.457 7.68897C220.506 7.72901 220.586 7.76189 220.697 7.78762L221.072 7.86769C221.28 7.91249 221.434 7.98349 221.535 8.08072C221.637 8.17794 221.689 8.30518 221.69 8.46245C221.689 8.60065 221.648 8.72266 221.568 8.82846C221.489 8.9333 221.379 9.01527 221.238 9.07437C221.097 9.13346 220.935 9.16301 220.752 9.16301C220.483 9.16301 220.267 9.10677 220.103 8.9943C219.939 8.88088 219.841 8.72313 219.809 8.52107L220.314 8.47246C220.337 8.57158 220.386 8.64641 220.46 8.69692C220.534 8.74744 220.631 8.7727 220.75 8.7727C220.873 8.7727 220.972 8.74744 221.046 8.69692C221.121 8.64641 221.159 8.58397 221.159 8.50963C221.159 8.44672 221.135 8.39478 221.086 8.35379C221.039 8.31281 220.964 8.28135 220.863 8.25943L220.489 8.1808C220.278 8.13695 220.122 8.06308 220.021 7.95919C219.92 7.85434 219.87 7.72186 219.871 7.56173C219.87 7.42638 219.907 7.30915 219.981 7.21002C220.056 7.10994 220.161 7.03274 220.294 6.97841C220.429 6.92312 220.583 6.89548 220.759 6.89548C221.016 6.89548 221.219 6.95029 221.366 7.0599C221.515 7.16951 221.607 7.31772 221.642 7.50454Z" fill="#33C88F"/>
</g>
<defs>
<filter id="filter0_d_1214_9335" x="206.592" y="6.19189" width="15.9026" height="4.58162" filterUnits="userSpaceOnUse" color-interpolation-filters="sRGB">
<feFlood flood-opacity="0" result="BackgroundImageFix"/>
<feColorMatrix in="SourceAlpha" type="matrix" values="0 0 0 0 0 0 0 0 0 0 0 0 0 0 0 0 0 0 127 0" result="hardAlpha"/>
<feOffset dy="0.805215"/>
<feGaussianBlur stdDeviation="0.402607"/>
<feComposite in2="hardAlpha" operator="out"/>
<feColorMatrix type="matrix" values="0 0 0 0 0 0 0 0 0 0 0 0 0 0 0 0 0 0 0.25 0"/>
<feBlend mode="normal" in2="BackgroundImageFix" result="effect1_dropShadow_1214_9335"/>
<feBlend mode="normal" in="SourceGraphic" in2="effect1_dropShadow_1214_9335" result="shape"/>
</filter>
</defs>
</svg>
