<svg width="131" height="16" viewBox="0 0 131 16" fill="none" xmlns="http://www.w3.org/2000/svg">
<rect width="11.1548" height="102.738" transform="matrix(0.00384771 -0.999993 -0.999999 -0.00128719 102.762 14.4243)" fill="#CCD9FF"/>
<path d="M106.892 12.5311L106.892 1.69767L102.765 3.2704L102.765 14.3428L106.892 12.5311Z" fill="#B4C6FF"/>
<path d="M102.776 3.27106L106.88 1.71396L10.8794 1.64202L0.0429418 3.13421L102.776 3.27106Z" fill="#91ADFE"/>
<path d="M4.34174 7.46882C4.31672 7.38185 4.28157 7.305 4.23629 7.23828C4.19102 7.17037 4.13562 7.11318 4.07009 7.06671C4.00575 7.01906 3.93188 6.98272 3.84848 6.9577C3.76628 6.93268 3.67513 6.92017 3.57505 6.92017C3.388 6.92017 3.22358 6.96663 3.0818 7.05957C2.94121 7.1525 2.8316 7.28772 2.75297 7.46525C2.67433 7.64158 2.63502 7.85723 2.63502 8.11219C2.63502 8.36716 2.67374 8.584 2.75118 8.76271C2.82862 8.94143 2.93823 9.07785 3.08001 9.17197C3.22179 9.2649 3.38919 9.31136 3.5822 9.31136C3.75734 9.31136 3.90686 9.28039 4.03077 9.21843C4.15587 9.15529 4.25119 9.06653 4.31672 8.95215C4.38344 8.83777 4.4168 8.70255 4.4168 8.54647L4.57406 8.5697L3.63045 8.5697L3.63045 7.98709L5.16203 7.98709L5.16203 8.44818C5.16203 8.76986 5.09412 9.04627 4.9583 9.27741C4.82248 9.50735 4.63542 9.68488 4.39714 9.80998C4.15885 9.93389 3.88601 9.99584 3.57863 9.99584C3.23549 9.99584 2.93406 9.92018 2.67433 9.76887C2.4146 9.61637 2.21206 9.40013 2.0667 9.12014C1.92254 8.83896 1.85046 8.50536 1.85046 8.11934C1.85046 7.82268 1.89335 7.55818 1.97913 7.32585C2.06611 7.09233 2.18763 6.89455 2.34371 6.73252C2.49979 6.57048 2.68148 6.44717 2.88879 6.36258C3.0961 6.27799 3.32068 6.23569 3.56254 6.23569C3.76985 6.23569 3.96286 6.26607 4.14158 6.32684C4.32029 6.38641 4.47875 6.471 4.61696 6.58061C4.75635 6.69022 4.87013 6.82068 4.9583 6.972C5.04647 7.12212 5.10306 7.28772 5.12808 7.46882L4.34174 7.46882ZM6.96928 9.99941C6.69168 9.99941 6.45161 9.94044 6.24906 9.82249C6.04771 9.70334 5.89223 9.53774 5.78262 9.32566C5.67301 9.1124 5.6182 8.86518 5.6182 8.584C5.6182 8.30044 5.67301 8.05262 5.78262 7.84055C5.89223 7.62728 6.04771 7.46167 6.24906 7.34372C6.45161 7.22458 6.69168 7.16501 6.96928 7.16501C7.24688 7.16501 7.48636 7.22458 7.68771 7.34372C7.89026 7.46167 8.04633 7.62728 8.15594 7.84055C8.26556 8.05262 8.32036 8.30044 8.32036 8.584C8.32036 8.86518 8.26556 9.1124 8.15594 9.32566C8.04633 9.53774 7.89026 9.70334 7.68771 9.82249C7.48636 9.94044 7.24688 9.99941 6.96928 9.99941ZM6.97286 9.40966C7.09915 9.40966 7.20459 9.37391 7.28918 9.30243C7.37377 9.22975 7.43751 9.13086 7.4804 9.00576C7.52449 8.88066 7.54653 8.73829 7.54653 8.57864C7.54653 8.41899 7.52449 8.27661 7.4804 8.15151C7.43751 8.02641 7.37377 7.92752 7.28918 7.85484C7.20459 7.78217 7.09915 7.74583 6.97286 7.74583C6.84537 7.74583 6.73814 7.78217 6.65117 7.85484C6.56539 7.92752 6.50045 8.02641 6.45637 8.15151C6.41348 8.27661 6.39203 8.41899 6.39203 8.57864C6.39203 8.73829 6.41348 8.88066 6.45637 9.00576C6.50045 9.13086 6.56539 9.22975 6.65117 9.30243C6.73814 9.37391 6.84537 9.40966 6.97286 9.40966ZM9.59817 9.99763C9.42303 9.99763 9.26695 9.96725 9.12994 9.90648C8.99292 9.84453 8.8845 9.75338 8.80468 9.63305C8.72604 9.51152 8.68673 9.36021 8.68673 9.17912C8.68673 9.02661 8.71472 8.89854 8.77072 8.79488C8.82672 8.69123 8.90297 8.60783 8.99948 8.54468C9.09598 8.48154 9.20559 8.43388 9.32831 8.40171C9.45222 8.36954 9.58208 8.3469 9.71791 8.3338C9.87756 8.31712 10.0062 8.30163 10.1039 8.28733C10.2016 8.27184 10.2725 8.24921 10.3166 8.21942C10.3607 8.18964 10.3827 8.14555 10.3827 8.08717L10.3827 8.07645C10.3827 7.96326 10.347 7.87569 10.2755 7.81374C10.2052 7.75179 10.1051 7.72081 9.97525 7.72081C9.83824 7.72081 9.72922 7.75119 9.64821 7.81195C9.56719 7.87152 9.51358 7.94658 9.48736 8.03713L8.78323 7.97994C8.81897 7.81314 8.88927 7.66898 8.99411 7.54746C9.09896 7.42474 9.23419 7.33062 9.39979 7.26509C9.56659 7.19837 9.75961 7.16501 9.97883 7.16501C10.1313 7.16501 10.2773 7.18288 10.4167 7.21862C10.5573 7.25436 10.6818 7.30977 10.7902 7.38483C10.8998 7.45989 10.9862 7.55639 11.0493 7.67434C11.1125 7.7911 11.144 7.9311 11.144 8.09432L11.144 9.9458L10.422 9.9458L10.422 9.56514L10.4006 9.56514C10.3565 9.65092 10.2975 9.72658 10.2237 9.79211C10.1498 9.85644 10.061 9.90708 9.95738 9.94401C9.85373 9.97976 9.73399 9.99763 9.59817 9.99763ZM9.8162 9.47221C9.92819 9.47221 10.0271 9.45017 10.1129 9.40608C10.1986 9.36081 10.266 9.30005 10.3148 9.2238C10.3637 9.14754 10.3881 9.06117 10.3881 8.96466L10.3881 8.67336C10.3643 8.68884 10.3315 8.70314 10.2898 8.71625C10.2493 8.72816 10.2034 8.73948 10.1522 8.7502C10.101 8.75973 10.0497 8.76867 9.99849 8.77701C9.94726 8.78416 9.90079 8.79071 9.85909 8.79667C9.76973 8.80977 9.69169 8.83062 9.62497 8.85922C9.55825 8.88781 9.50643 8.92653 9.46949 8.97538C9.43256 9.02304 9.41409 9.08261 9.41409 9.1541C9.41409 9.25775 9.45162 9.33698 9.52668 9.39179C9.60293 9.4454 9.69944 9.47221 9.8162 9.47221ZM12.496 6.28573L12.496 9.9458L11.7347 9.9458L11.7347 6.28573L12.496 6.28573ZM15.8558 6.28573L15.8558 9.9458L15.082 9.9458L15.082 7.02025L15.0606 7.02025L14.2224 7.54567L14.2224 6.85941L15.1285 6.28573L15.8558 6.28573Z" fill="#5B84FE"/>
<g filter="url(#filter0_d_1214_9328)">
<path d="M116.348 9.12109C116.142 9.12109 115.959 9.08582 115.799 9.01529C115.639 8.94476 115.514 8.84658 115.421 8.72077C115.329 8.59495 115.28 8.4496 115.274 8.2847H115.811C115.816 8.36381 115.842 8.43292 115.89 8.49201C115.938 8.55015 116.001 8.59543 116.08 8.62784C116.159 8.66024 116.248 8.67645 116.346 8.67645C116.451 8.67645 116.544 8.65834 116.625 8.62212C116.706 8.58494 116.769 8.53347 116.815 8.46771C116.861 8.40194 116.883 8.32617 116.882 8.24038C116.883 8.15174 116.86 8.07358 116.814 8.00591C116.767 7.93824 116.699 7.88534 116.611 7.84721C116.523 7.80909 116.417 7.79002 116.293 7.79002H116.034V7.38112H116.293C116.395 7.38112 116.484 7.36349 116.561 7.32823C116.638 7.29296 116.698 7.2434 116.742 7.17954C116.786 7.11472 116.807 7.0399 116.807 6.95507C116.807 6.87215 116.789 6.80018 116.751 6.73918C116.714 6.67723 116.661 6.6291 116.592 6.59478C116.524 6.56047 116.445 6.54331 116.353 6.54331C116.264 6.54331 116.181 6.55952 116.105 6.59192C116.028 6.62433 115.967 6.67056 115.92 6.73061C115.873 6.7897 115.849 6.86023 115.846 6.9422H115.335C115.339 6.77826 115.386 6.63434 115.477 6.51043C115.568 6.38557 115.69 6.28835 115.843 6.21877C115.995 6.14824 116.167 6.11297 116.356 6.11297C116.552 6.11297 116.721 6.14966 116.865 6.22306C117.01 6.2955 117.122 6.39319 117.201 6.51615C117.28 6.6391 117.32 6.77493 117.32 6.92362C117.321 7.08851 117.272 7.22672 117.174 7.33823C117.077 7.44975 116.949 7.52267 116.791 7.55698V7.57986C116.997 7.60845 117.154 7.6847 117.264 7.80861C117.375 7.93156 117.429 8.08454 117.428 8.26755C117.428 8.43149 117.382 8.57827 117.288 8.7079C117.196 8.83657 117.068 8.93761 116.905 9.011C116.743 9.08439 116.557 9.12109 116.348 9.12109ZM119.441 7.79431V9.08105H118.924V6.153H119.43V7.25817H119.455C119.507 7.13426 119.587 7.03656 119.694 6.96508C119.803 6.89264 119.941 6.85642 120.109 6.85642C120.261 6.85642 120.394 6.88835 120.508 6.95221C120.621 7.01607 120.709 7.10948 120.771 7.23243C120.834 7.35539 120.865 7.50551 120.865 7.68279V9.08105H120.348V7.76286C120.348 7.61512 120.309 7.50027 120.233 7.4183C120.158 7.33537 120.052 7.29391 119.916 7.29391C119.824 7.29391 119.742 7.31393 119.67 7.35396C119.598 7.39304 119.542 7.44975 119.501 7.5241C119.461 7.59844 119.441 7.68851 119.441 7.79431ZM122.351 9.12395C122.136 9.12395 121.95 9.07677 121.793 8.9824C121.636 8.88804 121.514 8.75603 121.427 8.58637C121.341 8.41671 121.298 8.21846 121.298 7.99161C121.298 7.76476 121.341 7.56603 121.427 7.39542C121.514 7.22481 121.636 7.09232 121.793 6.99796C121.95 6.9036 122.136 6.85642 122.351 6.85642C122.565 6.85642 122.751 6.9036 122.908 6.99796C123.065 7.09232 123.187 7.22481 123.273 7.39542C123.36 7.56603 123.403 7.76476 123.403 7.99161C123.403 8.21846 123.36 8.41671 123.273 8.58637C123.187 8.75603 123.065 8.88804 122.908 8.9824C122.751 9.07677 122.565 9.12395 122.351 9.12395ZM122.353 8.70933C122.47 8.70933 122.567 8.6774 122.645 8.61354C122.723 8.54872 122.781 8.46199 122.82 8.35333C122.859 8.24467 122.878 8.12362 122.878 7.99018C122.878 7.85579 122.859 7.73426 122.82 7.62561C122.781 7.51599 122.723 7.42878 122.645 7.36397C122.567 7.29915 122.47 7.26675 122.353 7.26675C122.234 7.26675 122.135 7.29915 122.056 7.36397C121.978 7.42878 121.919 7.51599 121.88 7.62561C121.842 7.73426 121.823 7.85579 121.823 7.99018C121.823 8.12362 121.842 8.24467 121.88 8.35333C121.919 8.46199 121.978 8.54872 122.056 8.61354C122.135 8.6774 122.234 8.70933 122.353 8.70933ZM125.242 8.15746V6.88501H125.759V9.08105H125.258V8.69074H125.235C125.185 8.8137 125.104 8.91425 124.99 8.99241C124.878 9.07057 124.739 9.10965 124.574 9.10965C124.43 9.10965 124.303 9.07772 124.192 9.01386C124.083 8.94904 123.997 8.85516 123.935 8.7322C123.873 8.6083 123.842 8.45865 123.842 8.28327V6.88501H124.36V8.20321C124.36 8.34237 124.398 8.45293 124.474 8.5349C124.55 8.61687 124.65 8.65786 124.774 8.65786C124.851 8.65786 124.924 8.63927 124.996 8.6021C125.067 8.56493 125.126 8.50965 125.172 8.43625C125.219 8.36191 125.242 8.26898 125.242 8.15746ZM126.292 9.08105V6.88501H126.793V7.25102H126.816C126.856 7.12425 126.925 7.02656 127.022 6.95793C127.12 6.88835 127.232 6.85356 127.358 6.85356C127.387 6.85356 127.419 6.85499 127.454 6.85785C127.49 6.85976 127.52 6.86309 127.544 6.86786V7.34395C127.522 7.33633 127.487 7.32966 127.44 7.32394C127.393 7.31726 127.348 7.31393 127.304 7.31393C127.209 7.31393 127.125 7.33442 127.049 7.37541C126.975 7.41544 126.916 7.4712 126.874 7.54268C126.831 7.61417 126.809 7.69662 126.809 7.79002V9.08105H126.292ZM129.624 7.46548L129.152 7.51695C129.138 7.46929 129.115 7.42449 129.082 7.38255C129.049 7.34062 129.005 7.30678 128.95 7.28104C128.895 7.25531 128.827 7.24244 128.747 7.24244C128.639 7.24244 128.549 7.26579 128.476 7.3125C128.403 7.3592 128.367 7.41973 128.368 7.49407C128.367 7.55793 128.391 7.60988 128.438 7.64991C128.487 7.68994 128.567 7.72283 128.679 7.74856L129.053 7.82863C129.261 7.87342 129.415 7.94443 129.516 8.04165C129.618 8.13887 129.67 8.26612 129.671 8.42339C129.67 8.56159 129.629 8.68359 129.549 8.78939C129.47 8.89424 129.36 8.97621 129.219 9.0353C129.078 9.0944 128.916 9.12395 128.733 9.12395C128.464 9.12395 128.248 9.06771 128.084 8.95524C127.92 8.84182 127.822 8.68407 127.791 8.482L128.295 8.43339C128.318 8.53252 128.367 8.60734 128.441 8.65786C128.516 8.70838 128.612 8.73363 128.731 8.73363C128.854 8.73363 128.953 8.70838 129.027 8.65786C129.103 8.60734 129.14 8.54491 129.14 8.47057C129.14 8.40766 129.116 8.35571 129.067 8.31473C129.02 8.27374 128.945 8.24229 128.844 8.22037L128.47 8.14173C128.259 8.09789 128.103 8.02402 128.002 7.92013C127.901 7.81528 127.851 7.68279 127.852 7.52267C127.851 7.38732 127.888 7.27008 127.962 7.17096C128.038 7.07088 128.142 6.99367 128.275 6.93934C128.41 6.88406 128.565 6.85642 128.74 6.85642C128.997 6.85642 129.2 6.91123 129.348 7.02084C129.496 7.13045 129.588 7.27866 129.624 7.46548Z" fill="#7C9DFE"/>
</g>
<defs>
<filter id="filter0_d_1214_9328" x="114.469" y="6.11279" width="16.0073" height="4.62166" filterUnits="userSpaceOnUse" color-interpolation-filters="sRGB">
<feFlood flood-opacity="0" result="BackgroundImageFix"/>
<feColorMatrix in="SourceAlpha" type="matrix" values="0 0 0 0 0 0 0 0 0 0 0 0 0 0 0 0 0 0 127 0" result="hardAlpha"/>
<feOffset dy="0.805215"/>
<feGaussianBlur stdDeviation="0.402607"/>
<feComposite in2="hardAlpha" operator="out"/>
<feColorMatrix type="matrix" values="0 0 0 0 0 0 0 0 0 0 0 0 0 0 0 0 0 0 0.25 0"/>
<feBlend mode="normal" in2="BackgroundImageFix" result="effect1_dropShadow_1214_9328"/>
<feBlend mode="normal" in="SourceGraphic" in2="effect1_dropShadow_1214_9328" result="shape"/>
</filter>
</defs>
</svg>
