<svg width="649" height="64" viewBox="0 0 649 64" fill="none" xmlns="http://www.w3.org/2000/svg">
<rect width="55.4129" height="510.363" transform="matrix(0.00384771 -0.999993 -0.999999 -0.00128719 510.482 63.9043)" fill="#CCD9FF"/>
<path d="M530.999 54.5L530.999 0.683762L510.498 8.49649L510.499 63.5002L530.999 54.5Z" fill="#B4C6FF"/>
<path d="M510.555 8.49948L530.941 0.764423L54.0455 0.407058L0.214209 7.81969L510.555 8.49948Z" fill="#91ADFE"/>
<path d="M26.7018 32.5146C26.5775 32.0826 26.4029 31.7008 26.178 31.3694C25.9531 31.032 25.6779 30.748 25.3524 30.5171C25.0328 30.2804 24.6658 30.0999 24.2515 29.9756C23.8431 29.8513 23.3904 29.7892 22.8932 29.7892C21.964 29.7892 21.1472 30.02 20.4429 30.4816C19.7445 30.9433 19.2 31.615 18.8094 32.4969C18.4188 33.3728 18.2235 34.4441 18.2235 35.7107C18.2235 36.9772 18.4158 38.0544 18.8005 38.9422C19.1852 39.83 19.7297 40.5077 20.434 40.9752C21.1383 41.4369 21.9699 41.6677 22.9287 41.6677C23.7987 41.6677 24.5415 41.5138 25.157 41.2061C25.7785 40.8924 26.252 40.4514 26.5775 39.8833C26.9089 39.3151 27.0747 38.6433 27.0747 37.868L27.8559 37.9834L23.1684 37.9834L23.1684 35.0892L30.7767 35.0892L30.7767 37.3797C30.7767 38.9777 30.4394 40.3508 29.7646 41.499C29.0899 42.6413 28.1607 43.5232 26.977 44.1446C25.7933 44.7601 24.4379 45.0679 22.911 45.0679C21.2064 45.0679 19.709 44.6921 18.4188 43.9404C17.1285 43.1829 16.1224 42.1086 15.4003 40.7178C14.6842 39.321 14.3261 37.6638 14.3261 35.7462C14.3261 34.2725 14.5392 32.9585 14.9653 31.8044C15.3973 30.6444 16.001 29.6619 16.7764 28.857C17.5517 28.0521 18.4543 27.4395 19.4841 27.0193C20.5139 26.599 21.6296 26.3889 22.8311 26.3889C23.8609 26.3889 24.8197 26.5399 25.7075 26.8417C26.5953 27.1376 27.3824 27.5579 28.069 28.1024C28.7615 28.6469 29.3267 29.2949 29.7646 30.0466C30.2026 30.7923 30.4838 31.615 30.608 32.5146L26.7018 32.5146ZM39.7544 45.0857C38.3754 45.0857 37.1828 44.7927 36.1767 44.2068C35.1764 43.6149 34.4041 42.7922 33.8596 41.7387C33.315 40.6793 33.0428 39.4512 33.0428 38.0544C33.0428 36.6458 33.315 35.4147 33.8596 34.3612C34.4041 33.3018 35.1764 32.4791 36.1767 31.8932C37.1828 31.3013 38.3754 31.0054 39.7544 31.0054C41.1335 31.0054 42.3231 31.3013 43.3233 31.8932C44.3295 32.4791 45.1048 33.3018 45.6493 34.3612C46.1938 35.4147 46.4661 36.6458 46.4661 38.0544C46.4661 39.4512 46.1938 40.6793 45.6493 41.7387C45.1048 42.7922 44.3295 43.6149 43.3233 44.2068C42.3231 44.7927 41.1335 45.0857 39.7544 45.0857ZM39.7722 42.156C40.3996 42.156 40.9234 41.9784 41.3436 41.6233C41.7638 41.2623 42.0804 40.771 42.2935 40.1496C42.5125 39.5281 42.622 38.8209 42.622 38.0278C42.622 37.2347 42.5125 36.5274 42.2935 35.906C42.0804 35.2845 41.7638 34.7933 41.3436 34.4323C40.9234 34.0712 40.3996 33.8907 39.7722 33.8907C39.1389 33.8907 38.6062 34.0712 38.1742 34.4323C37.748 34.7933 37.4255 35.2845 37.2065 35.906C36.9934 36.5274 36.8869 37.2347 36.8869 38.0278C36.8869 38.8209 36.9934 39.5281 37.2065 40.1496C37.4255 40.771 37.748 41.2623 38.1742 41.6233C38.6062 41.9784 39.1389 42.156 39.7722 42.156ZM52.8137 45.0768C51.9437 45.0768 51.1684 44.9259 50.4877 44.624C49.8071 44.3163 49.2685 43.8635 48.872 43.2657C48.4814 42.662 48.286 41.9104 48.286 41.0107C48.286 40.2532 48.4251 39.6169 48.7033 39.102C48.9815 38.5871 49.3603 38.1728 49.8397 37.8591C50.3191 37.5454 50.8636 37.3087 51.4732 37.1489C52.0887 36.9891 52.7338 36.8766 53.4086 36.8115C54.2016 36.7287 54.8408 36.6517 55.3262 36.5807C55.8115 36.5038 56.1636 36.3913 56.3826 36.2433C56.6016 36.0954 56.7111 35.8764 56.7111 35.5864L56.7111 35.5331C56.7111 34.9708 56.5336 34.5358 56.1784 34.2281C55.8292 33.9203 55.3321 33.7664 54.687 33.7664C54.0063 33.7664 53.4648 33.9173 53.0623 34.2192C52.6599 34.5151 52.3935 34.888 52.2633 35.3378L48.7654 35.0537C48.943 34.2251 49.2922 33.509 49.813 32.9053C50.3339 32.2957 51.0056 31.8281 51.8283 31.5026C52.6569 31.1711 53.6157 31.0054 54.7047 31.0054C55.4623 31.0054 56.1873 31.0942 56.8798 31.2717C57.5782 31.4493 58.1967 31.7245 58.7353 32.0974C59.2798 32.4703 59.7089 32.9497 60.0225 33.5356C60.3362 34.1156 60.4931 34.811 60.4931 35.6219L60.4931 44.8193L56.9064 44.8193L56.9064 42.9284L56.7999 42.9284C56.5809 43.3545 56.2879 43.7303 55.921 44.0558C55.554 44.3754 55.1131 44.627 54.5982 44.8105C54.0833 44.988 53.4885 45.0768 52.8137 45.0768ZM53.8968 42.4667C54.4532 42.4667 54.9444 42.3572 55.3706 42.1382C55.7967 41.9133 56.1311 41.6115 56.3738 41.2327C56.6164 40.8539 56.7377 40.4248 56.7377 39.9454L56.7377 38.4983C56.6194 38.5753 56.4566 38.6463 56.2495 38.7114C56.0482 38.7706 55.8204 38.8268 55.5659 38.8801C55.3114 38.9274 55.0569 38.9718 54.8024 39.0132C54.5479 39.0487 54.3171 39.0813 54.1099 39.1109C53.666 39.176 53.2784 39.2796 52.9469 39.4216C52.6155 39.5637 52.358 39.756 52.1745 39.9987C51.9911 40.2354 51.8993 40.5313 51.8993 40.8865C51.8993 41.4014 52.0858 41.7949 52.4586 42.0672C52.8374 42.3335 53.3168 42.4667 53.8968 42.4667ZM67.2092 26.6375L67.2092 44.8193L63.4272 44.8193L63.4272 26.6375L67.2092 26.6375ZM83.8995 26.6375L83.8995 44.8193L80.0554 44.8193L80.0554 30.2863L79.9489 30.2863L75.7852 32.8964L75.7852 29.4873L80.2862 26.6375L83.8995 26.6375Z" fill="#5B84FE"/>
<g filter="url(#filter0_d_989_26730)">
<path d="M577.97 39.6901C576.947 39.6901 576.038 39.5149 575.243 39.1645C574.452 38.8141 573.827 38.3264 573.368 37.7014C572.908 37.0764 572.664 36.3544 572.636 35.5352H575.306C575.33 35.9282 575.46 36.2715 575.697 36.5651C575.934 36.8539 576.249 37.0788 576.642 37.2398C577.035 37.4008 577.475 37.4813 577.963 37.4813C578.484 37.4813 578.945 37.3913 579.348 37.2114C579.75 37.0267 580.065 36.771 580.292 36.4443C580.52 36.1176 580.631 35.7412 580.626 35.3151C580.631 34.8747 580.517 34.4865 580.285 34.1503C580.053 33.8141 579.717 33.5513 579.277 33.3619C578.841 33.1726 578.315 33.0779 577.7 33.0779H576.414V31.0466H577.7C578.207 31.0466 578.649 30.959 579.028 30.7838C579.412 30.6086 579.712 30.3624 579.93 30.0452C580.148 29.7232 580.254 29.3515 580.25 28.9301C580.254 28.5182 580.162 28.1607 579.973 27.8577C579.788 27.5499 579.525 27.3108 579.184 27.1404C578.848 26.9699 578.453 26.8847 577.998 26.8847C577.553 26.8847 577.141 26.9652 576.762 27.1262C576.384 27.2871 576.078 27.5168 575.846 27.8151C575.614 28.1086 575.491 28.459 575.477 28.8662H572.941C572.96 28.0518 573.195 27.3369 573.645 26.7213C574.099 26.1011 574.705 25.6181 575.463 25.2725C576.22 24.9221 577.07 24.7469 578.012 24.7469C578.983 24.7469 579.826 24.9292 580.541 25.2938C581.261 25.6536 581.817 26.1389 582.21 26.7497C582.603 27.3605 582.799 28.0352 582.799 28.7739C582.804 29.593 582.563 30.2796 582.075 30.8335C581.592 31.3875 580.958 31.7497 580.172 31.9202V32.0338C581.194 32.1759 581.978 32.5547 582.522 33.1702C583.072 33.781 583.344 34.5409 583.339 35.45C583.339 36.2644 583.107 36.9936 582.643 37.6375C582.184 38.2767 581.549 38.7786 580.74 39.1432C579.935 39.5078 579.011 39.6901 577.97 39.6901ZM593.337 33.0992V39.4912H590.766V24.9458H593.281V30.4358H593.408C593.664 29.8203 594.059 29.335 594.594 28.9798C595.134 28.62 595.821 28.4401 596.654 28.4401C597.412 28.4401 598.072 28.5987 598.636 28.9159C599.199 29.2332 599.635 29.6972 599.942 30.308C600.255 30.9188 600.411 31.6645 600.411 32.5452V39.4912H597.84V32.9429C597.84 32.209 597.651 31.6385 597.272 31.2313C596.898 30.8193 596.372 30.6134 595.695 30.6134C595.241 30.6134 594.834 30.7128 594.474 30.9117C594.119 31.1058 593.839 31.3875 593.636 31.7568C593.437 32.1262 593.337 32.5736 593.337 33.0992ZM607.79 39.7043C606.725 39.7043 605.802 39.4699 605.021 39.0012C604.239 38.5324 603.633 37.8766 603.202 37.0338C602.776 36.191 602.563 35.2062 602.563 34.0793C602.563 32.9524 602.776 31.9652 603.202 31.1176C603.633 30.2701 604.239 29.6119 605.021 29.1432C605.802 28.6744 606.725 28.4401 607.79 28.4401C608.856 28.4401 609.779 28.6744 610.56 29.1432C611.342 29.6119 611.945 30.2701 612.371 31.1176C612.802 31.9652 613.018 32.9524 613.018 34.0793C613.018 35.2062 612.802 36.191 612.371 37.0338C611.945 37.8766 611.342 38.5324 610.56 39.0012C609.779 39.4699 608.856 39.7043 607.79 39.7043ZM607.805 37.6446C608.382 37.6446 608.865 37.486 609.254 37.1688C609.642 36.8468 609.931 36.4159 610.12 35.8762C610.314 35.3364 610.411 34.7351 610.411 34.0722C610.411 33.4046 610.314 32.8009 610.12 32.2611C609.931 31.7166 609.642 31.2834 609.254 30.9614C608.865 30.6394 608.382 30.4784 607.805 30.4784C607.213 30.4784 606.72 30.6394 606.327 30.9614C605.939 31.2834 605.648 31.7166 605.454 32.2611C605.264 32.8009 605.17 33.4046 605.17 34.0722C605.17 34.7351 605.264 35.3364 605.454 35.8762C605.648 36.4159 605.939 36.8468 606.327 37.1688C606.72 37.486 607.213 37.6446 607.805 37.6446ZM622.153 34.9031V28.5821H624.724V39.4912H622.231V37.5523H622.118C621.871 38.1631 621.467 38.6626 620.903 39.0509C620.344 39.4391 619.655 39.6333 618.836 39.6333C618.121 39.6333 617.489 39.4746 616.94 39.1574C616.395 38.8354 615.969 38.3691 615.662 37.7583C615.354 37.1427 615.2 36.3994 615.2 35.5281V28.5821H617.771V35.1304C617.771 35.8217 617.96 36.3709 618.339 36.7781C618.718 37.1853 619.215 37.3889 619.831 37.3889C620.209 37.3889 620.576 37.2966 620.931 37.1119C621.287 36.9273 621.578 36.6527 621.805 36.2881C622.037 35.9188 622.153 35.4571 622.153 34.9031ZM627.368 39.4912V28.5821H629.861V30.4003H629.974C630.173 29.7706 630.514 29.2852 630.997 28.9443C631.485 28.5987 632.041 28.4259 632.666 28.4259C632.808 28.4259 632.967 28.433 633.142 28.4472C633.322 28.4566 633.471 28.4732 633.589 28.4969V30.8619C633.481 30.8241 633.308 30.7909 633.071 30.7625C632.839 30.7294 632.614 30.7128 632.396 30.7128C631.928 30.7128 631.506 30.8146 631.132 31.0182C630.763 31.2171 630.472 31.4941 630.259 31.8492C630.045 32.2043 629.939 32.6138 629.939 33.0779V39.4912H627.368ZM643.92 31.4656L641.576 31.7213C641.51 31.4846 641.394 31.262 641.228 31.0537C641.067 30.8454 640.849 30.6773 640.575 30.5494C640.3 30.4216 639.964 30.3577 639.566 30.3577C639.031 30.3577 638.581 30.4737 638.217 30.7057C637.857 30.9377 637.679 31.2384 637.684 31.6077C637.679 31.9249 637.795 32.183 638.032 32.3818C638.273 32.5807 638.671 32.7441 639.225 32.8719L641.086 33.2696C642.118 33.4922 642.885 33.8449 643.387 34.3279C643.894 34.8108 644.149 35.4429 644.154 36.2242C644.149 36.9107 643.948 37.5168 643.55 38.0423C643.157 38.5632 642.611 38.9704 641.91 39.2639C641.209 39.5575 640.404 39.7043 639.495 39.7043C638.16 39.7043 637.085 39.4249 636.271 38.8662C635.456 38.3028 634.971 37.5191 634.815 36.5154L637.322 36.2739C637.435 36.7663 637.677 37.138 638.046 37.3889C638.415 37.6399 638.896 37.7654 639.488 37.7654C640.099 37.7654 640.589 37.6399 640.958 37.3889C641.332 37.138 641.519 36.8279 641.519 36.4585C641.519 36.146 641.398 35.888 641.157 35.6844C640.92 35.4808 640.551 35.3245 640.049 35.2156L638.188 34.825C637.142 34.6072 636.368 34.2403 635.866 33.7242C635.364 33.2033 635.115 32.5452 635.12 31.7497C635.115 31.0774 635.298 30.495 635.667 30.0026C636.041 29.5054 636.559 29.1219 637.222 28.852C637.89 28.5774 638.659 28.4401 639.531 28.4401C640.809 28.4401 641.815 28.7123 642.549 29.2568C643.288 29.8013 643.745 30.5376 643.92 31.4656Z" fill="#7C9DFE"/>
</g>
<defs>
<filter id="filter0_d_989_26730" x="568.637" y="24.7471" width="79.5176" height="22.957" filterUnits="userSpaceOnUse" color-interpolation-filters="sRGB">
<feFlood flood-opacity="0" result="BackgroundImageFix"/>
<feColorMatrix in="SourceAlpha" type="matrix" values="0 0 0 0 0 0 0 0 0 0 0 0 0 0 0 0 0 0 127 0" result="hardAlpha"/>
<feOffset dy="4"/>
<feGaussianBlur stdDeviation="2"/>
<feComposite in2="hardAlpha" operator="out"/>
<feColorMatrix type="matrix" values="0 0 0 0 0 0 0 0 0 0 0 0 0 0 0 0 0 0 0.25 0"/>
<feBlend mode="normal" in2="BackgroundImageFix" result="effect1_dropShadow_989_26730"/>
<feBlend mode="normal" in="SourceGraphic" in2="effect1_dropShadow_989_26730" result="shape"/>
</filter>
</defs>
</svg>
