<svg width="1106" height="66" viewBox="0 0 1106 66" fill="none" xmlns="http://www.w3.org/2000/svg">
<rect width="55.5027" height="967.35" transform="matrix(0.00384771 -0.999993 -0.999999 -0.00128719 967.465 65.4307)" fill="#B0EAD4"/>
<path d="M987.997 55.9922L987.997 2.25324L967.497 10.066L967.498 65.4917L987.997 55.9922Z" fill="#8ADFBF"/>
<path d="M967.553 10.2415L988.054 2.49219L101.881 1.39912L0.213421 8.75547L967.553 10.2415Z" fill="#54D1A1"/>
<path d="M30.0905 33.6875C29.9662 33.2554 29.7916 32.8737 29.5667 32.5423C29.3418 32.2049 29.0666 31.9208 28.741 31.69C28.4214 31.4532 28.0545 31.2727 27.6402 31.1484C27.2318 31.0241 26.779 30.962 26.2819 30.962C25.3527 30.962 24.5359 31.1928 23.8316 31.6545C23.1332 32.1161 22.5887 32.7879 22.1981 33.6697C21.8074 34.5457 21.6121 35.6169 21.6121 36.8835C21.6121 38.1501 21.8045 39.2273 22.1892 40.1151C22.5739 41.0028 23.1184 41.6805 23.8227 42.1481C24.527 42.6097 25.3586 42.8406 26.3174 42.8406C27.1874 42.8406 27.9302 42.6867 28.5457 42.3789C29.1672 42.0652 29.6407 41.6243 29.9662 41.0561C30.2976 40.4879 30.4633 39.8162 30.4633 39.0408L31.2446 39.1562L26.5571 39.1562L26.5571 36.2621L34.1654 36.2621L34.1654 38.5526C34.1654 40.1506 33.828 41.5237 33.1533 42.6719C32.4786 43.8142 31.5494 44.696 30.3657 45.3175C29.182 45.933 27.8266 46.2408 26.2996 46.2408C24.5951 46.2408 23.0977 45.8649 21.8074 45.1133C20.5172 44.3557 19.511 43.2815 18.789 41.8906C18.0728 40.4938 17.7148 38.8366 17.7148 36.919C17.7148 35.4453 17.9278 34.1314 18.354 32.9773C18.786 31.8172 19.3897 30.8348 20.165 30.0298C20.9404 29.2249 21.843 28.6123 22.8728 28.1921C23.9026 27.7719 25.0183 27.5618 26.2197 27.5618C27.2496 27.5618 28.2084 27.7127 29.0961 28.0146C29.9839 28.3105 30.7711 28.7307 31.4577 29.2752C32.1501 29.8197 32.7153 30.4678 33.1533 31.2195C33.5913 31.9652 33.8724 32.7879 33.9967 33.6875L30.0905 33.6875ZM43.1431 46.2585C41.7641 46.2585 40.5715 45.9656 39.5653 45.3796C38.5651 44.7878 37.7927 43.9651 37.2482 42.9116C36.7037 41.8522 36.4315 40.6241 36.4315 39.2273C36.4315 37.8187 36.7037 36.5876 37.2482 35.5341C37.7927 34.4747 38.5651 33.652 39.5653 33.066C40.5715 32.4742 41.7641 32.1783 43.1431 32.1783C44.5221 32.1783 45.7118 32.4742 46.712 33.066C47.7182 33.652 48.4935 34.4747 49.038 35.5341C49.5825 36.5876 49.8548 37.8187 49.8548 39.2273C49.8548 40.6241 49.5825 41.8522 49.038 42.9116C48.4935 43.9651 47.7182 44.7878 46.712 45.3796C45.7118 45.9656 44.5221 46.2585 43.1431 46.2585ZM43.1609 43.3288C43.7882 43.3288 44.312 43.1513 44.7322 42.7962C45.1525 42.4351 45.4691 41.9439 45.6822 41.3224C45.9012 40.701 46.0107 39.9937 46.0107 39.2006C46.0107 38.4076 45.9012 37.7003 45.6822 37.0788C45.4691 36.4574 45.1525 35.9661 44.7322 35.6051C44.312 35.2441 43.7882 35.0636 43.1609 35.0636C42.5276 35.0636 41.9949 35.2441 41.5629 35.6051C41.1367 35.9661 40.8142 36.4574 40.5952 37.0788C40.3821 37.7003 40.2756 38.4076 40.2756 39.2006C40.2756 39.9937 40.3821 40.701 40.5952 41.3224C40.8142 41.9439 41.1367 42.4351 41.5629 42.7962C41.9949 43.1513 42.5276 43.3288 43.1609 43.3288ZM56.2024 46.2496C55.3324 46.2496 54.5571 46.0987 53.8764 45.7969C53.1958 45.4891 52.6572 45.0363 52.2607 44.4386C51.87 43.8349 51.6747 43.0832 51.6747 42.1836C51.6747 41.426 51.8138 40.7898 52.092 40.2749C52.3701 39.7599 52.7489 39.3456 53.2283 39.032C53.7077 38.7183 54.2522 38.4815 54.8619 38.3217C55.4774 38.1619 56.1225 38.0495 56.7972 37.9844C57.5903 37.9015 58.2295 37.8246 58.7148 37.7535C59.2002 37.6766 59.5523 37.5642 59.7713 37.4162C59.9903 37.2682 60.0998 37.0492 60.0998 36.7592L60.0998 36.706C60.0998 36.1437 59.9222 35.7087 59.5671 35.4009C59.2179 35.0932 58.7208 34.9393 58.0756 34.9393C57.395 34.9393 56.8535 35.0902 56.451 35.392C56.0485 35.688 55.7822 36.0608 55.652 36.5107L52.1541 36.2266C52.3317 35.398 52.6809 34.6818 53.2017 34.0781C53.7225 33.4685 54.3943 33.0009 55.217 32.6754C56.0456 32.344 57.0044 32.1783 58.0934 32.1783C58.851 32.1783 59.576 32.267 60.2685 32.4446C60.9669 32.6222 61.5853 32.8974 62.1239 33.2702C62.6684 33.6431 63.0975 34.1225 63.4112 34.7085C63.7249 35.2885 63.8817 35.9839 63.8817 36.7947L63.8817 45.9922L60.2951 45.9922L60.2951 44.1012L60.1886 44.1012C59.9696 44.5273 59.6766 44.9032 59.3097 45.2287C58.9427 45.5483 58.5018 45.7998 57.9869 45.9833C57.4719 46.1609 56.8771 46.2496 56.2024 46.2496ZM57.2855 43.6396C57.8419 43.6396 58.3331 43.5301 58.7592 43.3111C59.1854 43.0862 59.5198 42.7843 59.7624 42.4055C60.0051 42.0268 60.1264 41.5977 60.1264 41.1183L60.1264 39.6712C60.008 39.7481 59.8453 39.8191 59.6381 39.8842C59.4369 39.9434 59.209 39.9996 58.9545 40.0529C58.7 40.1003 58.4455 40.1446 58.1911 40.1861C57.9366 40.2216 57.7057 40.2541 57.4986 40.2837C57.0547 40.3488 56.667 40.4524 56.3356 40.5945C56.0041 40.7365 55.7467 40.9289 55.5632 41.1715C55.3797 41.4083 55.288 41.7042 55.288 42.0593C55.288 42.5742 55.4744 42.9678 55.8473 43.2401C56.2261 43.5064 56.7055 43.6396 57.2855 43.6396ZM70.5978 27.8104L70.5978 45.9922L66.8159 45.9922L66.8159 27.8104L70.5978 27.8104ZM79.378 45.9922L79.378 43.2223L85.85 37.2298C86.4004 36.6971 86.862 36.2177 87.2349 35.7915C87.6137 35.3654 87.9007 34.9482 88.0961 34.5398C88.2914 34.1255 88.389 33.6786 88.389 33.1992C88.389 32.6665 88.2677 32.2079 88.025 31.8232C87.7824 31.4325 87.4509 31.1336 87.0307 30.9265C86.6105 30.7134 86.1341 30.6069 85.6014 30.6069C85.045 30.6069 84.5597 30.7193 84.1454 30.9442C83.7311 31.1692 83.4115 31.4917 83.1866 31.9119C82.9617 32.3321 82.8493 32.8323 82.8493 33.4123L79.2005 33.4123C79.2005 32.2227 79.4698 31.1899 80.0083 30.3139C80.5469 29.438 81.3016 28.7603 82.2722 28.2809C83.2428 27.8015 84.3614 27.5618 85.628 27.5618C86.9301 27.5618 88.0635 27.7926 89.0282 28.2543C89.9989 28.71 90.7535 29.3433 91.2921 30.1541C91.8307 30.965 92.1 31.8942 92.1 32.9418C92.1 33.6283 91.9638 34.306 91.6916 34.9748C91.4252 35.6436 90.9488 36.3864 90.2623 37.2031C89.5757 38.014 88.608 38.9876 87.3592 40.1239L84.7047 42.7251L84.7047 42.8494L92.3397 42.8494L92.3397 45.9922L79.378 45.9922Z" fill="#00BA73"/>
<g filter="url(#filter0_d_989_26731)">
<path d="M1035.29 40.9752C1034.35 40.9752 1033.5 40.7977 1032.75 40.4426C1032 40.0827 1031.41 39.5903 1030.97 38.9653C1030.53 38.3403 1030.3 37.6253 1030.27 36.8204H1032.83C1032.88 37.417 1033.13 37.9047 1033.6 38.2835C1034.07 38.6575 1034.63 38.8445 1035.29 38.8445C1035.81 38.8445 1036.27 38.7262 1036.67 38.4894C1037.07 38.2527 1037.39 37.9236 1037.62 37.5022C1037.85 37.0808 1037.97 36.6002 1037.96 36.0605C1037.97 35.5112 1037.85 35.0235 1037.62 34.5974C1037.38 34.1713 1037.05 33.8374 1036.64 33.596C1036.23 33.3498 1035.76 33.2267 1035.22 33.2267C1034.79 33.2219 1034.36 33.3024 1033.94 33.4681C1033.51 33.6338 1033.18 33.8517 1032.93 34.1215L1030.56 33.7309L1031.32 26.2309H1039.75V28.4326H1033.5L1033.08 32.2892H1033.16C1033.43 31.9719 1033.81 31.7091 1034.31 31.5008C1034.8 31.2877 1035.34 31.1812 1035.92 31.1812C1036.81 31.1812 1037.59 31.3895 1038.28 31.8062C1038.97 32.2181 1039.52 32.7863 1039.92 33.5107C1040.31 34.2352 1040.51 35.0638 1040.51 35.9965C1040.51 36.9577 1040.29 37.8147 1039.85 38.5676C1039.41 39.3157 1038.79 39.9052 1038.01 40.336C1037.22 40.7622 1036.32 40.9752 1035.29 40.9752ZM1050.45 34.3843V40.7764H1047.88V26.2309H1050.4V31.721H1050.52C1050.78 31.1054 1051.17 30.6201 1051.71 30.265C1052.25 29.9052 1052.94 29.7252 1053.77 29.7252C1054.53 29.7252 1055.19 29.8838 1055.75 30.2011C1056.31 30.5183 1056.75 30.9823 1057.06 31.5931C1057.37 32.2039 1057.53 32.9497 1057.53 33.8303V40.7764H1054.96V34.2281C1054.96 33.4942 1054.77 32.9236 1054.39 32.5164C1054.01 32.1045 1053.49 31.8985 1052.81 31.8985C1052.36 31.8985 1051.95 31.998 1051.59 32.1968C1051.23 32.391 1050.95 32.6727 1050.75 33.042C1050.55 33.4113 1050.45 33.8588 1050.45 34.3843ZM1064.91 40.9894C1063.84 40.9894 1062.92 40.7551 1062.14 40.2863C1061.35 39.8176 1060.75 39.1618 1060.32 38.319C1059.89 37.4762 1059.68 36.4913 1059.68 35.3644C1059.68 34.2375 1059.89 33.2503 1060.32 32.4028C1060.75 31.5552 1061.35 30.8971 1062.14 30.4284C1062.92 29.9596 1063.84 29.7252 1064.91 29.7252C1065.97 29.7252 1066.89 29.9596 1067.68 30.4284C1068.46 30.8971 1069.06 31.5552 1069.49 32.4028C1069.92 33.2503 1070.13 34.2375 1070.13 35.3644C1070.13 36.4913 1069.92 37.4762 1069.49 38.319C1069.06 39.1618 1068.46 39.8176 1067.68 40.2863C1066.89 40.7551 1065.97 40.9894 1064.91 40.9894ZM1064.92 38.9298C1065.5 38.9298 1065.98 38.7712 1066.37 38.4539C1066.76 38.132 1067.05 37.7011 1067.24 37.1613C1067.43 36.6215 1067.53 36.0202 1067.53 35.3573C1067.53 34.6897 1067.43 34.086 1067.24 33.5463C1067.05 33.0017 1066.76 32.5685 1066.37 32.2465C1065.98 31.9246 1065.5 31.7636 1064.92 31.7636C1064.33 31.7636 1063.84 31.9246 1063.44 32.2465C1063.05 32.5685 1062.76 33.0017 1062.57 33.5463C1062.38 34.086 1062.28 34.6897 1062.28 35.3573C1062.28 36.0202 1062.38 36.6215 1062.57 37.1613C1062.76 37.7011 1063.05 38.132 1063.44 38.4539C1063.84 38.7712 1064.33 38.9298 1064.92 38.9298ZM1079.27 36.1883V29.8673H1081.84V40.7764H1079.35V38.8374H1079.23C1078.99 39.4482 1078.58 39.9478 1078.02 40.336C1077.46 40.7243 1076.77 40.9184 1075.95 40.9184C1075.24 40.9184 1074.6 40.7598 1074.06 40.4426C1073.51 40.1206 1073.08 39.6542 1072.78 39.0434C1072.47 38.4279 1072.32 37.6845 1072.32 36.8133V29.8673H1074.89V36.4156C1074.89 37.1069 1075.08 37.6561 1075.45 38.0633C1075.83 38.4705 1076.33 38.6741 1076.95 38.6741C1077.32 38.6741 1077.69 38.5818 1078.05 38.3971C1078.4 38.2124 1078.69 37.9378 1078.92 37.5732C1079.15 37.2039 1079.27 36.7423 1079.27 36.1883ZM1084.48 40.7764V29.8673H1086.98V31.6855H1087.09C1087.29 31.0557 1087.63 30.5704 1088.11 30.2295C1088.6 29.8838 1089.16 29.711 1089.78 29.711C1089.92 29.711 1090.08 29.7181 1090.26 29.7323C1090.44 29.7418 1090.59 29.7584 1090.7 29.782V32.1471C1090.6 32.1092 1090.42 32.0761 1090.19 32.0477C1089.95 32.0145 1089.73 31.998 1089.51 31.998C1089.04 31.998 1088.62 32.0998 1088.25 32.3034C1087.88 32.5022 1087.59 32.7792 1087.37 33.1343C1087.16 33.4894 1087.05 33.899 1087.05 34.363V40.7764H1084.48ZM1101.03 32.7508L1098.69 33.0065C1098.62 32.7697 1098.51 32.5472 1098.34 32.3389C1098.18 32.1305 1097.96 31.9624 1097.69 31.8346C1097.42 31.7068 1097.08 31.6428 1096.68 31.6428C1096.15 31.6428 1095.7 31.7588 1095.33 31.9909C1094.97 32.2229 1094.79 32.5235 1094.8 32.8928C1094.79 33.2101 1094.91 33.4681 1095.15 33.667C1095.39 33.8659 1095.79 34.0292 1096.34 34.157L1098.2 34.5548C1099.23 34.7773 1100 35.1301 1100.5 35.613C1101.01 36.096 1101.26 36.7281 1101.27 37.5093C1101.26 38.1959 1101.06 38.8019 1100.67 39.3275C1100.27 39.8483 1099.73 40.2555 1099.03 40.5491C1098.32 40.8427 1097.52 40.9894 1096.61 40.9894C1095.28 40.9894 1094.2 40.7101 1093.39 40.1514C1092.57 39.5879 1092.09 38.8043 1091.93 37.8005L1094.44 37.559C1094.55 38.0515 1094.79 38.4231 1095.16 38.6741C1095.53 38.925 1096.01 39.0505 1096.6 39.0505C1097.21 39.0505 1097.7 38.925 1098.07 38.6741C1098.45 38.4231 1098.63 38.113 1098.63 37.7437C1098.63 37.4312 1098.51 37.1731 1098.27 36.9695C1098.04 36.766 1097.67 36.6097 1097.16 36.5008L1095.3 36.1102C1094.26 35.8924 1093.48 35.5254 1092.98 35.0093C1092.48 34.4885 1092.23 33.8303 1092.24 33.0349C1092.23 32.3625 1092.41 31.7802 1092.78 31.2877C1093.16 30.7906 1093.67 30.407 1094.34 30.1372C1095.01 29.8625 1095.77 29.7252 1096.65 29.7252C1097.92 29.7252 1098.93 29.9975 1099.66 30.542C1100.4 31.0865 1100.86 31.8228 1101.03 32.7508Z" fill="#33C88F"/>
</g>
<defs>
<filter id="filter0_d_989_26731" x="1026.27" y="26.2305" width="78.998" height="22.7588" filterUnits="userSpaceOnUse" color-interpolation-filters="sRGB">
<feFlood flood-opacity="0" result="BackgroundImageFix"/>
<feColorMatrix in="SourceAlpha" type="matrix" values="0 0 0 0 0 0 0 0 0 0 0 0 0 0 0 0 0 0 127 0" result="hardAlpha"/>
<feOffset dy="4"/>
<feGaussianBlur stdDeviation="2"/>
<feComposite in2="hardAlpha" operator="out"/>
<feColorMatrix type="matrix" values="0 0 0 0 0 0 0 0 0 0 0 0 0 0 0 0 0 0 0.25 0"/>
<feBlend mode="normal" in2="BackgroundImageFix" result="effect1_dropShadow_989_26731"/>
<feBlend mode="normal" in="SourceGraphic" in2="effect1_dropShadow_989_26731" result="shape"/>
</filter>
</defs>
</svg>
