<svg width="431" height="66" viewBox="0 0 431 66" fill="none" xmlns="http://www.w3.org/2000/svg">
<rect width="56" height="290" transform="matrix(0.00384771 -0.999993 -0.999999 -0.00128719 291.951 65.2695)" fill="#B0B0B0"/>
<path d="M312.569 54.001L312.569 0.972364L292.069 8.78509L292 65.0009L312.569 54.001Z" fill="#8A8A8A"/>
<path d="M292.094 8.79235L312.57 1.01066L32.5693 1.01065L0.216459 8.44857L292.094 8.79235Z" fill="#545454"/>
<path d="M27.7301 33.6963C27.6058 33.2642 27.4312 32.8825 27.2063 32.551C26.9814 32.2137 26.7062 31.9296 26.3807 31.6988C26.0611 31.462 25.6941 31.2815 25.2798 31.1572C24.8714 31.0329 24.4187 30.9708 23.9215 30.9708C22.9923 30.9708 22.1755 31.2016 21.4712 31.6633C20.7728 32.1249 20.2283 32.7967 19.8377 33.6785C19.4471 34.5545 19.2518 35.6257 19.2518 36.8923C19.2518 38.1589 19.4441 39.2361 19.8288 40.1238C20.2135 41.0116 20.758 41.6893 21.4624 42.1569C22.1667 42.6185 22.9982 42.8493 23.957 42.8493C24.8271 42.8493 25.5698 42.6955 26.1854 42.3877C26.8068 42.074 27.2803 41.6331 27.6058 41.0649C27.9373 40.4967 28.103 39.825 28.103 39.0496L28.8842 39.165L24.1967 39.165L24.1967 36.2709L31.805 36.2709L31.805 38.5613C31.805 40.1594 31.4677 41.5325 30.793 42.6807C30.1183 43.8229 29.189 44.7048 28.0053 45.3263C26.8216 45.9418 25.4663 46.2496 23.9393 46.2496C22.2347 46.2496 20.7373 45.8737 19.4471 45.1221C18.1568 44.3645 17.1507 43.2903 16.4286 41.8994C15.7125 40.5026 15.3544 38.8454 15.3544 36.9278C15.3544 35.4541 15.5675 34.1402 15.9936 32.9861C16.4257 31.826 17.0294 30.8435 17.8047 30.0386C18.58 29.2337 19.4826 28.6211 20.5124 28.2009C21.5423 27.7807 22.6579 27.5706 23.8594 27.5706C24.8892 27.5706 25.848 27.7215 26.7358 28.0233C27.6236 28.3193 28.4107 28.7395 29.0973 29.284C29.7898 29.8285 30.355 30.4766 30.793 31.2282C31.2309 31.974 31.5121 32.7967 31.6364 33.6963L27.7301 33.6963ZM40.7828 46.2673C39.4037 46.2673 38.2111 45.9743 37.205 45.3884C36.2048 44.7965 35.4324 43.9739 34.8879 42.9204C34.3434 41.8609 34.0711 40.6328 34.0711 39.2361C34.0711 37.8274 34.3434 36.5964 34.8879 35.5429C35.4324 34.4835 36.2048 33.6608 37.205 33.0748C38.2111 32.483 39.4037 32.1871 40.7828 32.1871C42.1618 32.1871 43.3514 32.483 44.3517 33.0748C45.3578 33.6608 46.1331 34.4835 46.6776 35.5429C47.2222 36.5964 47.4944 37.8274 47.4944 39.2361C47.4944 40.6328 47.2222 41.8609 46.6776 42.9204C46.1331 43.9739 45.3578 44.7965 44.3517 45.3884C43.3514 45.9743 42.1618 46.2673 40.7828 46.2673ZM40.8005 43.3376C41.4279 43.3376 41.9517 43.1601 42.3719 42.805C42.7921 42.4439 43.1088 41.9527 43.3218 41.3312C43.5408 40.7098 43.6503 40.0025 43.6503 39.2094C43.6503 38.4163 43.5408 37.7091 43.3218 37.0876C43.1088 36.4662 42.7921 35.9749 42.3719 35.6139C41.9517 35.2529 41.4279 35.0724 40.8005 35.0724C40.1672 35.0724 39.6346 35.2529 39.2025 35.6139C38.7764 35.9749 38.4538 36.4662 38.2348 37.0876C38.0218 37.7091 37.9152 38.4163 37.9152 39.2094C37.9152 40.0025 38.0218 40.7098 38.2348 41.3312C38.4538 41.9527 38.7764 42.4439 39.2025 42.805C39.6346 43.1601 40.1672 43.3376 40.8005 43.3376ZM53.8421 46.2584C52.972 46.2584 52.1967 46.1075 51.5161 45.8057C50.8354 45.4979 50.2968 45.0451 49.9003 44.4474C49.5097 43.8437 49.3144 43.092 49.3144 42.1924C49.3144 41.4348 49.4535 40.7986 49.7316 40.2836C50.0098 39.7687 50.3886 39.3544 50.868 39.0407C51.3474 38.7271 51.8919 38.4903 52.5015 38.3305C53.117 38.1707 53.7622 38.0583 54.4369 37.9932C55.23 37.9103 55.8692 37.8334 56.3545 37.7623C56.8398 37.6854 57.192 37.5729 57.411 37.425C57.6299 37.277 57.7394 37.058 57.7394 36.768L57.7394 36.7148C57.7394 36.1525 57.5619 35.7175 57.2068 35.4097C56.8576 35.1019 56.3604 34.9481 55.7153 34.9481C55.0347 34.9481 54.4931 35.099 54.0906 35.4008C53.6882 35.6968 53.4218 36.0696 53.2916 36.5194L49.7938 36.2354C49.9713 35.4068 50.3205 34.6906 50.8414 34.0869C51.3622 33.4773 52.0339 33.0097 52.8566 32.6842C53.6852 32.3528 54.644 32.1871 55.733 32.1871C56.4906 32.1871 57.2156 32.2758 57.9081 32.4534C58.6065 32.6309 59.225 32.9062 59.7636 33.279C60.3081 33.6519 60.7372 34.1313 61.0509 34.7172C61.3646 35.2973 61.5214 35.9927 61.5214 36.8035L61.5214 46.001L57.9347 46.001L57.9347 44.11L57.8282 44.11C57.6092 44.5361 57.3163 44.912 56.9493 45.2375C56.5824 45.5571 56.1414 45.8086 55.6265 45.9921C55.1116 46.1697 54.5168 46.2584 53.8421 46.2584ZM54.9252 43.6483C55.4815 43.6483 55.9727 43.5389 56.3989 43.3199C56.825 43.095 57.1594 42.7931 57.4021 42.4143C57.6447 42.0355 57.7661 41.6064 57.7661 41.127L57.7661 39.68C57.6477 39.7569 57.4849 39.8279 57.2778 39.893C57.0766 39.9522 56.8487 40.0084 56.5942 40.0617C56.3397 40.109 56.0852 40.1534 55.8307 40.1949C55.5762 40.2304 55.3454 40.2629 55.1382 40.2925C54.6943 40.3576 54.3067 40.4612 53.9752 40.6032C53.6438 40.7453 53.3863 40.9376 53.2029 41.1803C53.0194 41.417 52.9276 41.713 52.9276 42.0681C52.9276 42.583 53.1141 42.9766 53.4869 43.2488C53.8657 43.5152 54.3451 43.6483 54.9252 43.6483ZM68.2375 27.8192L68.2375 46.001L64.4555 46.001L64.4555 27.8192L68.2375 27.8192ZM83.7382 46.2496C82.4124 46.2496 81.2317 46.0217 80.1959 45.566C79.1661 45.1043 78.3523 44.471 77.7545 43.6661C77.1627 42.8553 76.8579 41.9201 76.8401 40.8607L80.7108 40.8607C80.7345 41.3046 80.8795 41.6952 81.1459 42.0326C81.4181 42.364 81.7791 42.6215 82.229 42.805C82.6788 42.9884 83.1848 43.0802 83.7471 43.0802C84.333 43.0802 84.8509 42.9766 85.3007 42.7694C85.7505 42.5623 86.1027 42.2752 86.3572 41.9083C86.6117 41.5413 86.7389 41.1182 86.7389 40.6388C86.7389 40.1534 86.6028 39.7243 86.3305 39.3515C86.0642 38.9727 85.6795 38.6768 85.1764 38.4637C84.6792 38.2506 84.0874 38.1441 83.4008 38.1441L81.7052 38.1441L81.7052 35.3209L83.4008 35.3209C83.9809 35.3209 84.4928 35.2203 84.9367 35.0191C85.3865 34.8179 85.7357 34.5397 85.9843 34.1846C86.2329 33.8235 86.3572 33.4033 86.3572 32.9239C86.3572 32.4682 86.2477 32.0687 86.0287 31.7254C85.8156 31.3762 85.5138 31.104 85.1231 30.9086C84.7384 30.7133 84.2886 30.6157 83.7737 30.6157C83.2529 30.6157 82.7764 30.7104 82.3444 30.8998C81.9123 31.0832 81.5661 31.3466 81.3057 31.6899C81.0452 32.0332 80.9062 32.4356 80.8884 32.8973L77.2041 32.8973C77.2219 31.8497 77.5207 30.9264 78.1008 30.1274C78.6808 29.3284 79.462 28.704 80.4445 28.2542C81.4329 27.7984 82.5486 27.5706 83.7915 27.5706C85.0462 27.5706 86.1441 27.7984 87.0851 28.2542C88.0262 28.7099 88.7571 29.3254 89.278 30.1008C89.8047 30.8702 90.0651 31.7343 90.0592 32.6931C90.0651 33.7111 89.7485 34.5604 89.1093 35.241C88.476 35.9217 87.6504 36.3537 86.6324 36.5372L86.6324 36.6792C87.97 36.8509 88.988 37.3155 89.6863 38.0731C90.3907 38.8247 90.7398 39.7658 90.7339 40.8962C90.7398 41.932 90.441 42.8523 89.8373 43.6572C89.2395 44.4621 88.4139 45.0954 87.3604 45.5571C86.3068 46.0187 85.0995 46.2496 83.7382 46.2496Z" fill="black"/>
<g filter="url(#filter0_d_989_26732)">
<path d="M354.758 37.7611V35.6659L360.93 25.9145H362.677V28.8975H361.612L357.457 35.4813V35.5949H366.072V37.7611H354.758ZM361.697 40.46V37.1219L361.726 36.1844V25.9145H364.211V40.46H361.697ZM375.902 34.0679V40.46H373.331V25.9145H375.845V31.4046H375.973C376.229 30.789 376.624 30.3037 377.159 29.9486C377.699 29.5887 378.385 29.4088 379.219 29.4088C379.976 29.4088 380.637 29.5674 381.2 29.8847C381.764 30.2019 382.199 30.6659 382.507 31.2767C382.819 31.8875 382.976 32.6333 382.976 33.5139V40.46H380.405V33.9117C380.405 33.1778 380.215 32.6072 379.836 32.2C379.462 31.7881 378.937 31.5821 378.26 31.5821C377.805 31.5821 377.398 31.6816 377.038 31.8804C376.683 32.0745 376.404 32.3563 376.2 32.7256C376.001 33.0949 375.902 33.5423 375.902 34.0679ZM390.355 40.673C389.29 40.673 388.366 40.4387 387.585 39.9699C386.804 39.5012 386.198 38.8454 385.767 38.0026C385.341 37.1598 385.128 36.1749 385.128 35.048C385.128 33.9211 385.341 32.9339 385.767 32.0864C386.198 31.2388 386.804 30.5807 387.585 30.1119C388.366 29.6432 389.29 29.4088 390.355 29.4088C391.42 29.4088 392.344 29.6432 393.125 30.1119C393.906 30.5807 394.51 31.2388 394.936 32.0864C395.367 32.9339 395.582 33.9211 395.582 35.048C395.582 36.1749 395.367 37.1598 394.936 38.0026C394.51 38.8454 393.906 39.5012 393.125 39.9699C392.344 40.4387 391.42 40.673 390.355 40.673ZM390.369 38.6134C390.947 38.6134 391.43 38.4548 391.818 38.1375C392.206 37.8155 392.495 37.3847 392.684 36.8449C392.879 36.3051 392.976 35.7038 392.976 35.0409C392.976 34.3733 392.879 33.7696 392.684 33.2298C392.495 32.6853 392.206 32.2521 391.818 31.9301C391.43 31.6082 390.947 31.4472 390.369 31.4472C389.777 31.4472 389.285 31.6082 388.892 31.9301C388.504 32.2521 388.212 32.6853 388.018 33.2298C387.829 33.7696 387.734 34.3733 387.734 35.0409C387.734 35.7038 387.829 36.3051 388.018 36.8449C388.212 37.3847 388.504 37.8155 388.892 38.1375C389.285 38.4548 389.777 38.6134 390.369 38.6134ZM404.718 35.8719V29.5509H407.289V40.46H404.796V38.521H404.682C404.436 39.1318 404.031 39.6314 403.468 40.0196C402.909 40.4079 402.22 40.602 401.401 40.602C400.686 40.602 400.054 40.4434 399.504 40.1262C398.96 39.8042 398.534 39.3378 398.226 38.727C397.918 38.1115 397.764 37.3681 397.764 36.4969V29.5509H400.335V36.0992C400.335 36.7905 400.525 37.3397 400.904 37.7469C401.282 38.1541 401.78 38.3577 402.395 38.3577C402.774 38.3577 403.141 38.2654 403.496 38.0807C403.851 37.896 404.142 37.6214 404.369 37.2568C404.602 36.8875 404.718 36.4259 404.718 35.8719ZM409.932 40.46V29.5509H412.425V31.3691H412.539C412.738 30.7393 413.079 30.254 413.562 29.9131C414.049 29.5674 414.606 29.3946 415.231 29.3946C415.373 29.3946 415.531 29.4017 415.706 29.4159C415.886 29.4254 416.036 29.442 416.154 29.4656V31.8307C416.045 31.7928 415.872 31.7597 415.635 31.7313C415.403 31.6981 415.179 31.6816 414.961 31.6816C414.492 31.6816 414.071 31.7834 413.697 31.9869C413.327 32.1858 413.036 32.4628 412.823 32.8179C412.61 33.173 412.503 33.5826 412.503 34.0466V40.46H409.932ZM426.484 32.4344L424.14 32.6901C424.074 32.4533 423.958 32.2308 423.792 32.0225C423.631 31.8141 423.414 31.646 423.139 31.5182C422.864 31.3904 422.528 31.3264 422.131 31.3264C421.595 31.3264 421.146 31.4424 420.781 31.6744C420.421 31.9065 420.244 32.2071 420.248 32.5764C420.244 32.8937 420.36 33.1517 420.596 33.3506C420.838 33.5494 421.236 33.7128 421.79 33.8406L423.65 34.2384C424.683 34.4609 425.45 34.8137 425.952 35.2966C426.458 35.7796 426.714 36.4117 426.719 37.1929C426.714 37.8795 426.513 38.4855 426.115 39.0111C425.722 39.5319 425.175 39.9391 424.474 40.2327C423.773 40.5262 422.969 40.673 422.059 40.673C420.724 40.673 419.649 40.3937 418.835 39.835C418.021 39.2715 417.535 38.4879 417.379 37.4841L419.886 37.2426C420 37.7351 420.241 38.1067 420.611 38.3577C420.98 38.6086 421.461 38.7341 422.052 38.7341C422.663 38.7341 423.153 38.6086 423.523 38.3577C423.897 38.1067 424.084 37.7966 424.084 37.4273C424.084 37.1148 423.963 36.8567 423.721 36.6531C423.485 36.4495 423.115 36.2933 422.613 36.1844L420.753 35.7938C419.706 35.576 418.932 35.209 418.43 34.6929C417.928 34.1721 417.68 33.5139 417.684 32.7185C417.68 32.0461 417.862 31.4637 418.231 30.9713C418.605 30.4742 419.124 30.0906 419.787 29.8208C420.454 29.5461 421.224 29.4088 422.095 29.4088C423.373 29.4088 424.38 29.6811 425.113 30.2256C425.852 30.7701 426.309 31.5064 426.484 32.4344Z" fill="#333333"/>
</g>
<defs>
<filter id="filter0_d_989_26732" x="350.758" y="25.9141" width="79.9609" height="22.7588" filterUnits="userSpaceOnUse" color-interpolation-filters="sRGB">
<feFlood flood-opacity="0" result="BackgroundImageFix"/>
<feColorMatrix in="SourceAlpha" type="matrix" values="0 0 0 0 0 0 0 0 0 0 0 0 0 0 0 0 0 0 127 0" result="hardAlpha"/>
<feOffset dy="4"/>
<feGaussianBlur stdDeviation="2"/>
<feComposite in2="hardAlpha" operator="out"/>
<feColorMatrix type="matrix" values="0 0 0 0 0 0 0 0 0 0 0 0 0 0 0 0 0 0 0.25 0"/>
<feBlend mode="normal" in2="BackgroundImageFix" result="effect1_dropShadow_989_26732"/>
<feBlend mode="normal" in="SourceGraphic" in2="effect1_dropShadow_989_26732" result="shape"/>
</filter>
</defs>
</svg>
