<svg width="40" height="41" viewBox="0 0 40 41" fill="none" xmlns="http://www.w3.org/2000/svg">
<g clip-path="url(#clip0_1230_9561)">
<path d="M20.0007 3.96094C21.494 3.96094 22.9407 4.1576 24.3173 4.52594L20.774 8.0676C20.5052 8.33749 20.2681 8.63721 20.0673 8.96094H20.0007C17.6932 8.96094 15.4376 9.64518 13.519 10.9271C11.6004 12.2091 10.1051 14.0312 9.22206 16.163C8.33903 18.2948 8.108 20.6405 8.55816 22.9037C9.00832 25.1668 10.1195 27.2456 11.7511 28.8772C13.3827 30.5088 15.4615 31.6199 17.7246 32.0701C19.9877 32.5203 22.3335 32.2892 24.4653 31.4062C26.5971 30.5232 28.4192 29.0278 29.7011 27.1093C30.9831 25.1907 31.6673 22.9351 31.6673 20.6276V20.5609C31.9873 20.3609 32.2873 20.1259 32.559 19.8526L36.1023 16.3109C36.4707 17.6876 36.6673 19.1343 36.6673 20.6276C36.6673 29.8326 29.2057 37.2943 20.0007 37.2943C10.7957 37.2943 3.33398 29.8326 3.33398 20.6276C3.33398 11.4226 10.7957 3.96094 20.0007 3.96094ZM19.3107 12.3226C19.3107 13.7409 19.2407 15.1793 19.3173 16.5959L18.4173 17.4959C18.1077 17.8055 17.8621 18.1731 17.6946 18.5776C17.527 18.9821 17.4408 19.4156 17.4408 19.8534C17.4408 20.2913 17.527 20.7248 17.6946 21.1293C17.8621 21.5338 18.1077 21.9013 18.4173 22.2109C18.7269 22.5205 19.0944 22.7661 19.4989 22.9337C19.9034 23.1012 20.337 23.1874 20.7748 23.1874C21.2126 23.1874 21.6462 23.1012 22.0507 22.9337C22.4552 22.7661 22.8227 22.5205 23.1323 22.2109L24.0323 21.3109C25.449 21.3876 26.8857 21.3176 28.3057 21.3176C28.174 22.9015 27.5921 24.4147 26.6287 25.6788C25.6653 26.9429 24.3604 27.905 22.8681 28.4519C21.3758 28.9987 19.7582 29.1074 18.2061 28.765C16.6541 28.4227 15.2323 27.6437 14.1084 26.5199C12.9846 25.396 12.2055 23.9742 11.8632 22.4221C11.5209 20.8701 11.6296 19.2525 12.1764 17.7602C12.7232 16.2678 13.6854 14.963 14.9495 13.9996C16.2135 13.0361 17.7268 12.4543 19.3107 12.3226V12.3226ZM30.8407 4.1726C31.1449 4.29874 31.4049 4.51217 31.5879 4.78595C31.7709 5.05974 31.8687 5.38161 31.869 5.71094V8.76094H34.9173C35.2469 8.76101 35.5691 8.85879 35.8431 9.04193C36.1171 9.22508 36.3307 9.48535 36.4568 9.78985C36.5829 10.0943 36.6159 10.4294 36.5516 10.7527C36.4873 11.0759 36.3287 11.3729 36.0957 11.6059L30.2007 17.4943C29.8882 17.8069 29.4643 17.9825 29.0223 17.9826H25.0007L21.9523 21.0309C21.6396 21.3435 21.2155 21.5189 20.7734 21.5188C20.3313 21.5186 19.9073 21.3428 19.5948 21.0301C19.2823 20.7174 19.1068 20.2933 19.107 19.8512C19.1071 19.4091 19.2829 18.9851 19.5957 18.6726L22.644 15.6276V11.6043C22.6438 11.3851 22.6869 11.1681 22.7706 10.9656C22.8544 10.7632 22.9773 10.5792 23.1323 10.4243L29.024 4.5326C29.2571 4.29938 29.5541 4.14053 29.8775 4.07616C30.2008 4.01178 30.536 4.04476 30.8407 4.17094V4.1726Z" fill="white"/>
</g>
<defs>
<clipPath id="clip0_1230_9561">
<rect width="40" height="40" fill="white" transform="translate(0 0.627441)"/>
</clipPath>
</defs>
</svg>
