<svg width="30" height="30" viewBox="0 0 30 30" fill="none" xmlns="http://www.w3.org/2000/svg">
<g clip-path="url(#clip0_35_7773)">
<path fill-rule="evenodd" clip-rule="evenodd" d="M15 0C6.715 0 0 6.71625 0 15C0 23.2837 6.715 30 15 30C23.2837 30 30 23.2837 30 15C30 6.71625 23.2837 0 15 0ZM15.175 23.7725C10.34 23.7725 6.425 19.8475 6.425 15C6.425 10.1525 10.34 6.2275 15.175 6.2275C17.5375 6.2275 19.5125 7.09875 21.0275 8.51375L18.56 10.9862V10.9812C17.6412 10.1037 16.4763 9.65375 15.175 9.65375C12.2875 9.65375 9.94125 12.0988 9.94125 14.995C9.94125 17.8888 12.2875 20.3413 15.175 20.3413C17.795 20.3413 19.5775 18.8387 19.945 16.7762H15.175V13.355H23.4063C23.5163 13.9425 23.575 14.555 23.575 15.1975C23.575 20.21 20.2288 23.7725 15.175 23.7725V23.7725Z" fill="#4B5563"/>
</g>
<defs>
<clipPath id="clip0_35_7773">
<rect width="30" height="30" fill="white"/>
</clipPath>
</defs>
</svg>
