<svg width="134" height="31" viewBox="0 0 134 31" fill="none" xmlns="http://www.w3.org/2000/svg">
<path d="M15.4615 0C6.92264 0 0 6.92264 0 15.4615C0 24.0004 6.92264 30.9231 15.4615 30.9231C24.0004 30.9231 30.9231 24.0004 30.9231 15.4615C30.9231 6.92264 24.0004 0 15.4615 0ZM15.4615 29.6346C7.64625 29.6346 1.28846 23.2768 1.28846 15.4615C1.28846 7.64625 7.64625 1.28846 15.4615 1.28846C23.2763 1.28846 29.6346 7.64625 29.6346 15.4615C29.6346 23.2768 23.2763 29.6346 15.4615 29.6346Z" fill="#415EB4"/>
<path d="M9.53469 15.251C10.9579 15.251 12.1116 14.0973 12.1116 12.6741C12.1116 11.2509 10.9579 10.0972 9.53469 10.0972C8.11149 10.0972 6.95776 11.2509 6.95776 12.6741C6.95776 14.0973 8.11149 15.251 9.53469 15.251Z" fill="#415EB4"/>
<path d="M21.3884 15.251C22.8116 15.251 23.9653 14.0973 23.9653 12.6741C23.9653 11.2509 22.8116 10.0972 21.3884 10.0972C19.9652 10.0972 18.8114 11.2509 18.8114 12.6741C18.8114 14.0973 19.9652 15.251 21.3884 15.251Z" fill="#415EB4"/>
<path d="M21.9471 19.7285C17.7673 22.6435 13.1309 22.6265 8.97587 19.7285C8.47595 19.3796 8.02499 19.9836 8.36411 20.5418C9.63093 22.6276 12.1867 24.4845 15.4615 24.4845C18.7362 24.4845 21.292 22.6271 22.5588 20.5418C22.898 19.9836 22.447 19.3801 21.9471 19.7285Z" fill="#415EB4"/>
<path d="M76.7173 28.8602L76.722 28.8616L76.718 28.8589L76.7146 28.8616L76.7173 28.8602Z" fill="#415EB4"/>
<path d="M61.846 15.9766C63.2692 15.9766 64.4229 14.5921 64.4229 12.8843C64.4229 11.1765 63.2692 9.79199 61.846 9.79199C60.4228 9.79199 59.2691 11.1765 59.2691 12.8843C59.2691 14.5921 60.4228 15.9766 61.846 15.9766Z" fill="#415EB4"/>
<path d="M81.6951 20.2711C82.1904 18.7574 82.4615 17.1417 82.4615 15.4615C82.4615 6.92264 75.5384 0 66.9995 0C58.4611 0 51.5385 6.92264 51.5385 15.4615C51.5385 24.0004 58.4611 30.9231 66.9995 30.9231C70.268 30.9231 73.297 29.9062 75.794 28.1761C76.3125 28.5667 76.6805 28.8316 76.717 28.8584C76.8428 28.7646 80.7675 25.8919 81.6957 24.504C82.6398 23.0908 82.6084 21.8508 82.1348 20.9071C82.0173 20.6726 81.8688 20.4587 81.6951 20.2711M66.9995 29.6346C59.1847 29.6346 52.8269 23.2768 52.8269 15.4615C52.8269 7.64625 59.1847 1.28846 66.9995 1.28846C74.8148 1.28846 81.1731 7.64625 81.1731 15.4615C81.1731 16.8886 80.9592 18.2657 80.5649 19.5655C80.2562 19.4697 79.9227 19.4223 79.5651 19.447C78.3632 19.5295 77.4432 20.1747 76.6861 21.2359C75.9213 20.183 74.9951 19.5429 73.7933 19.4712C72.6316 19.3996 71.6967 20.0191 71.2354 20.954C70.7705 21.9002 70.7494 23.1382 71.7044 24.5447C72.2023 25.2781 73.5423 26.4181 74.7137 27.3432C72.4914 28.7899 69.8434 29.6346 66.9995 29.6346" fill="#415EB4"/>
<path d="M70.1716 15.0957C71.1034 14.3123 72.2156 13.9995 73.3778 13.9995C74.54 13.9995 75.6522 14.3123 76.584 15.0957C76.8309 15.3039 77.3262 14.9215 77.2314 14.7092C76.2712 12.6023 74.8245 11.5483 73.3778 11.5483C71.9311 11.5483 70.485 12.6023 69.5243 14.7092C69.4295 14.9215 69.9248 15.3039 70.1716 15.0957" fill="#415EB4"/>
<path d="M70.8868 18.8783C69.9112 17.8676 67.7837 18.6314 66.4648 17.2656C66.4648 18.3737 67.3951 19.5849 69.1345 19.5849C69.1345 19.5849 67.9517 20.0611 67.9517 21.9041C67.9517 23.7461 69.1345 24.2233 69.1345 24.2233C67.3951 24.2233 66.4648 25.4334 66.4648 26.5425C67.7837 25.1757 69.9117 25.9406 70.8868 24.9289C71.7022 24.0852 69.9447 23.4008 69.9447 21.9041C69.9447 20.4064 71.7022 19.723 70.8868 18.8783Z" fill="#415EB4"/>
<path d="M118.538 0C109.999 0 103.077 6.92264 103.077 15.4615C103.077 24.0004 109.999 30.9231 118.538 30.9231C127.077 30.9231 134 24.0004 134 15.4615C134 6.92264 127.077 0 118.538 0ZM118.538 29.6346C110.723 29.6346 104.365 23.2768 104.365 15.4615C104.365 13.1073 104.946 10.887 105.966 8.9311C105.998 9.24858 106.702 9.72891 106.867 9.52224C108.265 7.84621 110.339 6.87884 112.521 6.88605C112.824 6.89224 112.894 5.76251 112.524 5.75685C110.042 5.74963 107.685 6.83761 106.073 8.72134C108.475 4.29831 113.162 1.28846 118.538 1.28846C126.353 1.28846 132.712 7.64625 132.712 15.4615C132.712 23.2768 126.353 29.6346 118.538 29.6346Z" fill="#415EB4"/>
<path d="M131.077 8.87783C129.462 6.94204 127.07 5.82778 124.552 5.835C124.183 5.84118 124.251 6.96936 124.554 6.9642C126.737 6.95699 128.811 7.92437 130.209 9.6004C130.399 9.83593 131.309 9.16335 131.077 8.87783Z" fill="#415EB4"/>
<path d="M118.538 26.7849C119.819 26.7849 120.857 25.7466 120.857 24.4657C120.857 23.1848 119.819 22.1465 118.538 22.1465C117.257 22.1465 116.219 23.1848 116.219 24.4657C116.219 25.7466 117.257 26.7849 118.538 26.7849Z" fill="#415EB4"/>
<path d="M112.612 8.96094C109.841 8.96094 107.587 11.2152 107.587 13.9859C107.587 16.7566 109.841 19.0109 112.612 19.0109C115.382 19.0109 117.637 16.7566 117.637 13.9859C117.637 11.2152 115.382 8.96094 112.612 8.96094ZM112.612 18.2379C110.267 18.2379 108.36 16.3304 108.36 13.9859C108.36 11.6415 110.267 9.73401 112.612 9.73401C114.956 9.73401 116.863 11.6415 116.863 13.9859C116.863 16.3304 114.956 18.2379 112.612 18.2379Z" fill="#415EB4"/>
<path d="M112.612 16.305C113.892 16.305 114.931 15.2666 114.931 13.9857C114.931 12.7049 113.892 11.6665 112.612 11.6665C111.331 11.6665 110.292 12.7049 110.292 13.9857C110.292 15.2666 111.331 16.305 112.612 16.305Z" fill="#415EB4"/>
<path d="M124.466 8.96094C121.695 8.96094 119.441 11.2152 119.441 13.9859C119.441 16.7566 121.695 19.0109 124.466 19.0109C127.236 19.0109 129.49 16.7566 129.49 13.9859C129.49 11.2152 127.236 8.96094 124.466 8.96094ZM124.466 18.2379C122.121 18.2379 120.214 16.3304 120.214 13.9859C120.214 11.6415 122.121 9.73401 124.466 9.73401C126.81 9.73401 128.717 11.6415 128.717 13.9859C128.717 16.3304 126.81 18.2379 124.466 18.2379Z" fill="#415EB4"/>
<path d="M124.466 16.305C125.747 16.305 126.785 15.2666 126.785 13.9857C126.785 12.7049 125.747 11.6665 124.466 11.6665C123.185 11.6665 122.147 12.7049 122.147 13.9857C122.147 15.2666 123.185 16.305 124.466 16.305Z" fill="#415EB4"/>
</svg>
