<svg width="28" height="29" viewBox="0 0 28 29" fill="none" xmlns="http://www.w3.org/2000/svg">
<path fill-rule="evenodd" clip-rule="evenodd" d="M13.999 0.250488C6.27102 0.250488 -0.000976562 6.52249 -0.000976562 14.2505C-0.000976562 21.9785 6.27102 28.2505 13.999 28.2505C21.727 28.2505 27.999 21.9785 27.999 14.2505C27.999 6.52249 21.727 0.250488 13.999 0.250488ZM15.399 24.0505H12.599V21.2505H15.399V24.0505ZM18.2973 13.2005L17.0373 14.4885C16.3373 15.2025 15.8333 15.8465 15.5813 16.8545C15.4693 17.3025 15.3993 17.8065 15.3993 18.4505H12.5993V17.7505C12.5993 17.1065 12.7113 16.4905 12.9073 15.9165C13.1873 15.1045 13.6493 14.3765 14.2373 13.7885L15.9733 12.0245C16.6173 11.4085 16.9253 10.4845 16.7433 9.5045C16.5613 8.4965 15.7773 7.6425 14.7973 7.3625C13.2433 6.9285 11.8013 7.8105 11.3393 9.1405C11.1713 9.6585 10.7373 10.0505 10.1913 10.0505H9.77131C8.95931 10.0505 8.39931 9.2665 8.62331 8.4825C9.22531 6.4245 10.9753 4.8565 13.1453 4.5205C15.2733 4.1845 17.3033 5.2905 18.5633 7.0405C20.2153 9.3225 19.7253 11.7725 18.2973 13.2005V13.2005Z" fill="#5B84FE"/>
</svg>
