<svg width="39" height="37" viewBox="0 0 39 37" fill="none" xmlns="http://www.w3.org/2000/svg">
<path d="M9.24639 17.0777C10.7398 17.0777 12.0869 16.2513 13.0097 15.0765C14.448 13.2414 16.2536 11.7268 18.3109 10.6295C19.6506 9.91796 20.8124 8.85808 21.3738 7.45171C21.7681 6.46642 21.9706 5.41488 21.9704 4.35361V3.18071C21.9704 2.81214 22.1169 2.45867 22.3775 2.19805C22.6381 1.93743 22.9916 1.79102 23.3601 1.79102C24.4659 1.79102 25.5263 2.23026 26.3081 3.01211C27.09 3.79397 27.5292 4.85439 27.5292 5.9601C27.5292 8.09468 27.0475 10.1162 26.1896 11.9228C25.6967 12.9568 26.3878 14.2983 27.5329 14.2983H33.3252C35.2263 14.2983 36.9291 15.5842 37.1311 17.476C37.2145 18.258 37.2571 19.051 37.2571 19.8571C37.2648 24.9273 35.5321 29.8466 32.3487 33.7929C31.6298 34.686 30.5199 35.1437 29.3747 35.1437H21.9334C21.0374 35.1433 20.1472 34.9994 19.2967 34.7175L13.5267 32.7905C12.6764 32.5077 11.786 32.3638 10.8899 32.3643H7.89561M23.3601 14.2983H27.5292M7.89561 32.3643C8.0494 32.7442 8.21616 33.1148 8.3959 33.4798C8.76092 34.221 8.25137 35.1437 7.42681 35.1437H5.74436C4.0971 35.1437 2.57029 34.1839 2.09038 32.6089C1.44861 30.5026 1.12327 28.3126 1.12501 26.1107C1.12501 23.2331 1.67162 20.4852 2.66479 17.9615C3.23179 16.5273 4.67707 15.688 6.22056 15.688H8.17169C9.04627 15.688 9.55212 16.7182 9.09816 17.4668C7.51555 20.0719 6.68087 23.0625 6.68564 26.1107C6.68261 28.2539 7.09411 30.3774 7.89746 32.3643H7.89561Z" stroke="#5B84FE" stroke-width="2.22351" stroke-linecap="round" stroke-linejoin="round"/>
</svg>
