<svg width="60" height="25" viewBox="0 0 60 25" fill="none" xmlns="http://www.w3.org/2000/svg">
<path d="M2.5 19.7443V5.19886H5.57528V17.2088H11.8111V19.7443H2.5Z" fill="#111827"/>
<path d="M26.6477 12.4716C26.6477 14.0578 26.3471 15.4072 25.7457 16.5199C25.1491 17.6326 24.3348 18.4825 23.3026 19.0696C22.2751 19.652 21.1198 19.9432 19.8366 19.9432C18.544 19.9432 17.384 19.6496 16.3565 19.0625C15.3291 18.4754 14.517 17.6255 13.9205 16.5128C13.3239 15.4001 13.0256 14.053 13.0256 12.4716C13.0256 10.8854 13.3239 9.53599 13.9205 8.4233C14.517 7.31061 15.3291 6.46307 16.3565 5.88068C17.384 5.29356 18.544 5 19.8366 5C21.1198 5 22.2751 5.29356 23.3026 5.88068C24.3348 6.46307 25.1491 7.31061 25.7457 8.4233C26.3471 9.53599 26.6477 10.8854 26.6477 12.4716ZM23.5298 12.4716C23.5298 11.4441 23.3759 10.5777 23.0682 9.87216C22.7652 9.16667 22.3366 8.63163 21.7827 8.26705C21.2287 7.90246 20.58 7.72017 19.8366 7.72017C19.0933 7.72017 18.4446 7.90246 17.8906 8.26705C17.3366 8.63163 16.9058 9.16667 16.598 9.87216C16.295 10.5777 16.1435 11.4441 16.1435 12.4716C16.1435 13.4991 16.295 14.3655 16.598 15.071C16.9058 15.7765 17.3366 16.3116 17.8906 16.6761C18.4446 17.0407 19.0933 17.223 19.8366 17.223C20.58 17.223 21.2287 17.0407 21.7827 16.6761C22.3366 16.3116 22.7652 15.7765 23.0682 15.071C23.3759 14.3655 23.5298 13.4991 23.5298 12.4716Z" fill="#111827"/>
<path d="M38.5707 9.90057C38.4712 9.55492 38.3316 9.24953 38.1516 8.98438C37.9717 8.71449 37.7515 8.48722 37.4911 8.30256C37.2354 8.11316 36.9419 7.96875 36.6104 7.86932C36.2837 7.76989 35.9215 7.72017 35.5238 7.72017C34.7804 7.72017 34.127 7.90483 33.5636 8.27415C33.0049 8.64347 32.5692 9.18087 32.2567 9.88636C31.9442 10.5871 31.788 11.4441 31.788 12.4574C31.788 13.4706 31.9419 14.3324 32.2496 15.0426C32.5574 15.7528 32.993 16.295 33.5565 16.669C34.1199 17.0384 34.7852 17.223 35.5522 17.223C36.2482 17.223 36.8424 17.0999 37.3349 16.8537C37.832 16.6027 38.2108 16.25 38.4712 15.7955C38.7364 15.3409 38.869 14.8035 38.869 14.1832L39.494 14.2756H35.744V11.9602H41.8306V13.7926C41.8306 15.071 41.5607 16.1695 41.021 17.0881C40.4812 18.0019 39.7378 18.7074 38.7908 19.2045C37.8439 19.697 36.7596 19.9432 35.538 19.9432C34.1744 19.9432 32.9764 19.6425 31.9442 19.0412C30.912 18.4351 30.1071 17.5758 29.5295 16.4631C28.9566 15.3456 28.6701 14.0199 28.6701 12.4858C28.6701 11.3068 28.8406 10.2557 29.1815 9.33239C29.5271 8.40436 30.0101 7.61837 30.6303 6.97443C31.2506 6.33049 31.9727 5.84044 32.7965 5.50426C33.6204 5.16809 34.5129 5 35.4741 5C36.2979 5 37.065 5.12074 37.7752 5.36222C38.4854 5.59896 39.1152 5.93513 39.6644 6.37074C40.2184 6.80634 40.6706 7.32481 41.021 7.92614C41.3713 8.52273 41.5962 9.18087 41.6957 9.90057H38.5707Z" fill="#111827"/>
<path d="M57.5071 12.4716C57.5071 14.0578 57.2064 15.4072 56.6051 16.5199C56.0085 17.6326 55.1941 18.4825 54.1619 19.0696C53.1345 19.652 51.9792 19.9432 50.696 19.9432C49.4034 19.9432 48.2434 19.6496 47.2159 19.0625C46.1884 18.4754 45.3764 17.6255 44.7798 16.5128C44.1832 15.4001 43.8849 14.053 43.8849 12.4716C43.8849 10.8854 44.1832 9.53599 44.7798 8.4233C45.3764 7.31061 46.1884 6.46307 47.2159 5.88068C48.2434 5.29356 49.4034 5 50.696 5C51.9792 5 53.1345 5.29356 54.1619 5.88068C55.1941 6.46307 56.0085 7.31061 56.6051 8.4233C57.2064 9.53599 57.5071 10.8854 57.5071 12.4716ZM54.3892 12.4716C54.3892 11.4441 54.2353 10.5777 53.9276 9.87216C53.6245 9.16667 53.196 8.63163 52.642 8.26705C52.0881 7.90246 51.4394 7.72017 50.696 7.72017C49.9527 7.72017 49.304 7.90246 48.75 8.26705C48.196 8.63163 47.7652 9.16667 47.4574 9.87216C47.1544 10.5777 47.0028 11.4441 47.0028 12.4716C47.0028 13.4991 47.1544 14.3655 47.4574 15.071C47.7652 15.7765 48.196 16.3116 48.75 16.6761C49.304 17.0407 49.9527 17.223 50.696 17.223C51.4394 17.223 52.0881 17.0407 52.642 16.6761C53.196 16.3116 53.6245 15.7765 53.9276 15.071C54.2353 14.3655 54.3892 13.4991 54.3892 12.4716Z" fill="#111827"/>
</svg>
