<svg width="215" height="169" viewBox="0 0 215 169" fill="none" xmlns="http://www.w3.org/2000/svg">
<path opacity="0.3" d="M111.606 169C168.031 169 213.774 165.01 213.774 160.088C213.774 155.166 168.031 151.176 111.606 151.176C55.1797 151.176 9.4375 155.166 9.4375 160.088C9.4375 165.01 55.1797 169 111.606 169Z" fill="#2F3133"/>
<path fill-rule="evenodd" clip-rule="evenodd" d="M124.852 108.803C124.419 109.252 125.21 108.325 125.264 108.268C126.402 106.978 127.68 105.784 128.926 104.571C130.54 102.995 138.753 94.4366 141.635 97.7033C142.902 99.1457 143.314 101.343 143.78 103.062C144.181 104.523 144.43 105.937 144.419 107.446C144.376 120.523 126.965 110.035 123.4 110.656" fill="#1F2633"/>
<path fill-rule="evenodd" clip-rule="evenodd" d="M126.716 110.474C126.662 110.589 127.756 110.866 127.843 110.895C129.078 111.267 130.291 111.726 131.472 112.222C134.051 113.311 147.908 117.438 143.347 121.478C134.993 128.89 123.379 123.685 124.939 113.588C125.134 112.337 126.033 106.396 127.572 105.765" fill="#1F2633"/>
<path d="M80.4127 109.901L144.422 120.513L213.448 131.957C214.12 132.195 214.13 132.205 214.65 132.654L214.943 133.246C214.954 133.81 215.051 134.001 214.672 134.497C214.542 134.679 214.325 134.803 214.163 134.956L213.491 135.214L212.754 135.223C168.409 127.868 124.064 120.523 79.7193 113.168L1.50598 100.196C0.834246 99.9577 0.823412 99.9481 0.303362 99.4992L0.0108344 98.9069L0 98.2574L0.270859 97.6556C0.780074 97.1972 0.790909 97.1876 1.46264 96.9392L2.19938 96.9297C28.2669 101.257 54.3452 105.574 80.4127 109.901Z" fill="#653313"/>
<path d="M144.418 120.514C145.09 120.753 145.1 120.762 145.62 121.211L145.913 121.803C145.924 122.443 145.913 122.453 145.642 123.055L145.133 123.513L144.461 123.771L143.724 123.78L60.8632 110.045L60.1806 109.806L59.6606 109.357L59.3681 108.765C59.3572 108.201 59.2705 108.01 59.6389 107.514C59.7689 107.332 59.9856 107.208 60.1481 107.055L60.8199 106.797L61.5566 106.788C89.1842 111.353 116.801 115.938 144.418 120.514Z" fill="#B51000"/>
<path fill-rule="evenodd" clip-rule="evenodd" d="M88.6375 96.6935C89.4826 92.6722 118.324 93.379 128.378 103.877C130.61 106.207 131.13 116.991 131.097 119.332C131.076 120.554 156.374 159.001 156.558 159.459C157.057 160.701 152.777 158.523 152.777 158.523C152.365 158.752 149.397 159.517 148.411 159.24C147.739 159.048 148.866 159.536 148.411 159.24C142.17 155.075 134.716 149.477 128.768 144.902C124.51 141.626 119.266 137.834 114.813 134.71C111.108 135.006 98.3451 134.462 97.1858 134.624C92.6896 135.226 81.4868 139.897 85.4739 143.011C88.7025 145.533 91.2378 148.694 94.7156 151.025C95.1056 151.388 97.2833 152.802 97.6084 153.212C98.1826 153.938 95.799 158.275 94.7698 158.246C93.5997 158.208 90.1327 157.129 89.0059 156.737C82.0611 154.282 74.9754 151.168 71.2159 145.685C70.4033 144.51 69.8074 143.211 69.504 141.865C69.2765 140.881 69.2657 140.413 69.2657 139.763C69.244 133.105 75.1487 126.859 81.2377 122.952C82.8303 121.93 84.4988 121.013 86.2431 120.191C85.4414 115.071 86.2323 108.137 88.6375 96.6935Z" fill="#2F3133"/>
<path fill-rule="evenodd" clip-rule="evenodd" d="M91.3482 157.538C91.3482 157.538 86.7003 155.895 85.541 155.437C88.5421 153.823 91.9766 151.377 91.5108 148.474C92.5183 149.381 93.5693 150.241 94.7286 151.024C97.0688 151.225 99.604 153.145 99.7882 153.431C100.124 153.947 99.1598 157.643 97.6863 160.519C97.3613 161.159 94.4252 164.33 90.1673 162.496C89.4197 162.41 89.3547 160.203 91.7924 159.888C91.7274 159.611 91.3699 157.997 91.3482 157.538Z" fill="#1F2633"/>
<path fill-rule="evenodd" clip-rule="evenodd" d="M146.394 157.881C144.812 156.792 143.165 155.637 141.508 154.443C144.715 154.175 148.832 151.224 149.049 147.88C151.41 151.529 153.491 154.71 154.856 156.811C155.647 157.27 157.759 158.579 157.965 158.731C159.092 159.524 160.078 161.578 159.103 162.132C158.583 162.418 157.77 162.562 156.806 162.59C153.144 162.705 147.283 161.291 146.86 160.709C146.73 160.518 146.351 159.228 146.394 157.881Z" fill="#1F2633"/>
<path fill-rule="evenodd" clip-rule="evenodd" d="M84.3735 121.116C84.3952 121.249 84.406 121.374 84.4277 121.507C82.6942 122.338 81.0149 123.255 79.4222 124.268C79.0647 124.497 78.7071 124.736 78.3496 124.984C79.2922 124.249 80.2565 123.561 81.2316 122.94C82.25 122.3 83.3009 121.689 84.3735 121.116ZM85.8253 139.513C84.5252 140.707 84.1243 141.948 85.4786 143.009C88.7073 145.53 91.2425 148.692 94.7203 151.023C95.1104 151.386 97.2881 152.799 97.6131 153.21C98.1873 153.936 95.8038 158.273 94.7745 158.244C94.677 158.244 94.5687 158.234 94.4495 158.215C95.3596 156.888 96.1721 154.996 95.8038 154.538C95.4787 154.137 93.301 152.713 92.911 152.35C89.4332 150.02 86.8979 146.858 83.6693 144.336C81.8058 142.875 83.2792 141.079 85.8253 139.513ZM88.6531 96.6436C89.7365 92.6796 118.372 93.4246 128.372 103.874C130.604 106.205 131.124 116.989 131.091 119.329C131.07 120.552 156.368 158.999 156.552 159.457C156.92 160.364 154.743 159.457 153.54 158.893C148.491 151.08 129.271 121.727 129.282 120.657C129.314 118.317 128.794 107.533 126.563 105.202C117.906 96.1565 95.2729 94.3798 88.6531 96.6436Z" fill="#454545"/>
<path fill-rule="evenodd" clip-rule="evenodd" d="M85.9344 121.919C85.6094 119.445 136.574 126.952 135.458 127.134C130.778 127.869 117.95 133.992 108.307 133.429C106.14 133.305 108.372 130.229 107.971 125.138C107.733 125.147 107.495 125.147 107.256 125.157C106.119 128.232 105.025 133.266 102.988 133.047C90.9399 131.767 76.411 126.427 78.7404 124.927C80.2572 123.963 84.0492 122.75 85.9344 121.919Z" fill="#2A2A2A"/>
<path fill-rule="evenodd" clip-rule="evenodd" d="M110.422 74.2319L110.726 74.3848L110.812 74.6809V74.6904L110.758 75.0629L110.704 75.445L110.65 75.8271L110.606 76.2092H110.596L110.552 76.5817L110.498 76.9638L110.444 77.3458L110.401 77.7184L110.346 78.1005L110.325 78.2819L110.292 78.473L110.249 78.8551L110.206 79.2371L110.151 79.6097L110.108 79.9917L110.065 80.3643L110.021 80.7463L110.011 80.7654L109.967 81.1189L109.924 81.5009L109.881 81.8735L109.837 82.2555L109.794 82.6281L109.751 83.0102L109.718 83.3827L109.707 83.4877L109.675 83.7552L109.631 84.1373L109.588 84.5098L109.556 84.8919L109.512 85.2644L109.48 85.6369L109.436 86.019L109.404 86.3915L109.371 86.7641L109.328 87.1366L109.296 87.5187L109.263 87.8912L109.231 88.2637L109.198 88.6362L109.166 89.0183L109.155 89.1234L109.122 89.3908L109.09 89.7633L109.057 90.1359L109.025 90.5084L108.992 90.8809L108.97 91.263L108.938 91.6355L108.905 92.008L108.873 92.3806L108.84 92.7531L108.819 93.1256L108.786 93.4981L108.765 93.8707L108.754 94.0044L108.732 94.2432L108.7 94.6157L108.678 94.9882L108.656 95.3608L108.624 95.7333L108.602 96.1058L108.57 96.4783L108.548 96.8509L108.526 97.2234L108.505 97.4909V97.5959L108.483 97.9685L108.461 98.3314L108.429 98.704L108.407 99.0765L108.385 99.449L108.364 99.8215L108.353 100.194L108.331 100.567L108.31 100.93L108.288 101.302L108.277 101.675L108.266 101.761L108.255 102.047L108.234 102.41L108.223 102.783L108.201 103.155L108.19 103.528L108.169 103.891L108.158 104.263L108.136 104.636L108.125 104.999L108.115 105.371L108.093 105.744L108.082 106.107L108.071 106.479L108.06 106.852L108.05 107.215L108.039 107.587L108.028 107.96L108.017 108.323L108.006 108.695L107.995 109.058L107.985 109.431L107.974 109.794V110.166L107.963 110.529L107.952 110.902V111.102V111.265L107.941 111.637L107.93 112V112.373L107.92 112.736V113.108L107.909 113.471V113.844V114.207L107.898 114.579V114.942V115.305V115.678V116.041L107.887 116.413V116.776V117.139V117.512V117.875V118.238L107.898 118.61V118.973V119.336V119.709V120.072L107.909 120.435V120.798V121.17L107.92 121.533V121.896L107.93 122.106V122.259L107.768 122.412L107.605 122.269L107.595 122.116V121.906L107.573 121.543L107.562 121.17L107.551 120.807L107.54 120.444L107.53 120.072L107.519 119.709L107.508 119.346L107.497 118.983V118.61L107.486 118.247L107.475 117.875L107.465 117.512L107.454 117.149V116.776L107.443 116.413L107.432 116.041V115.678L107.421 115.315V114.942L107.41 114.579V114.207V113.844L107.4 113.471V113.108V112.736V112.373L107.389 112V111.637V111.265V111.102V110.902V110.529V110.157V109.794V109.421L107.4 109.058V108.686V108.313V107.95L107.41 107.578V107.205V106.842L107.421 106.47V106.097L107.432 105.725L107.443 105.362V104.989L107.454 104.617L107.465 104.244V103.881L107.475 103.509L107.486 103.136L107.497 102.764L107.508 102.391L107.519 102.018L107.53 101.732V101.646L107.54 101.283L107.551 100.91L107.562 100.538L107.584 100.165L107.595 99.7929L107.605 99.4203L107.616 99.0478L107.638 98.6753L107.649 98.3028L107.67 97.9302L107.681 97.5577L107.692 97.4527L107.703 97.1852L107.725 96.8127L107.746 96.4402L107.757 96.0676L107.779 95.6951L107.8 95.3226L107.822 94.9501L107.844 94.568L107.865 94.1954L107.876 93.9566L107.887 93.8229L107.909 93.4504L107.941 93.0779L107.963 92.7053L107.985 92.3328L108.017 91.9507L108.039 91.5782L108.071 91.2057L108.093 90.8332L108.125 90.4511L108.158 90.0786L108.18 89.706L108.212 89.324L108.234 89.0661L108.245 88.9514L108.277 88.5789L108.31 88.1968L108.342 87.8243L108.375 87.4518L108.418 87.0697L108.45 86.6972L108.483 86.3247L108.526 85.9426L108.559 85.5701L108.602 85.188L108.635 84.8155L108.678 84.4334L108.71 84.0608L108.754 83.6788L108.797 83.3063L108.84 82.9242L108.884 82.5516L108.927 82.1696L108.97 81.797L109.014 81.415L109.057 81.0329L109.101 80.6604L109.144 80.2783L109.187 79.9058L109.241 79.5237L109.285 79.1416L109.339 78.7691L109.382 78.387L109.436 78.0049L109.48 77.6229L109.534 77.2503L109.588 76.8682L109.631 76.4862L109.686 76.1041L109.74 75.722L109.794 75.3495L109.848 74.9674L109.902 74.5854L110.076 74.3179L110.411 74.2319H110.422Z" fill="#1F2633"/>
<path fill-rule="evenodd" clip-rule="evenodd" d="M56.4219 109.297L71.2324 111.752C66.9854 112.679 62.4566 112.602 58.4154 110.988C57.8087 110.749 57.4511 110.568 57.1044 110.253C56.8119 109.985 56.5736 109.651 56.4219 109.297ZM61.7199 106.795C66.3678 106.833 70.7774 104.168 74.0927 101.016C75.1328 100.032 76.0971 99.0005 77.0288 97.9498C78.2423 96.5647 79.4016 95.1606 80.5283 93.7374C80.5283 93.7374 81.8718 92.0753 82.9661 90.6426C82.9661 90.6426 83.3344 90.1841 83.5945 89.8689C84.4829 88.7799 85.3713 87.6815 86.2489 86.583L86.5414 86.2296C89.6834 82.8195 92.8145 79.3331 96.6607 76.5439C98.0692 75.5219 99.6185 74.5953 101.309 73.9267C101.829 73.5542 102.349 73.2199 102.869 72.9524C104.18 71.6342 113.866 72.1787 114.516 72.5035C116.141 73.3058 117.604 74.3374 118.925 75.541C119.066 75.6174 119.207 75.6938 119.337 75.7798C123.432 78.0913 127.279 80.699 130.908 83.4977C130.908 83.4977 131.244 83.7747 131.526 84.0326C134.05 86.2773 136.358 88.608 138.308 90.9673C139.413 92.3046 140.41 93.7087 141.352 95.1415L141.396 95.2084C145.188 101.15 147.68 107.951 145.795 114.427C145.318 116.06 144.592 117.646 143.563 119.098C143.563 119.098 143.194 119.556 142.869 119.795C142.674 119.929 142.458 120.053 142.23 120.148L139.175 119.642C138.839 119.241 138.644 118.735 138.611 118.267C138.579 117.913 138.655 117.541 138.752 117.216C139.749 113.71 138.59 109.851 136.575 106.804C134.787 104.092 132.382 101.704 129.662 99.459C130.843 106.394 131.125 113.242 131.103 118.314L85.393 110.74C85.3821 108.954 85.4471 106.995 85.6313 104.856C83.1503 106.604 80.5717 108.18 77.7981 109.479L61.7199 106.795ZM85.5338 114.121L133.909 122.145C135.968 124.275 138.135 126.863 136.434 127.131C131.753 127.866 119.142 132.337 109.499 131.773C107.116 131.63 108.622 128.01 107.809 121.954C107.062 124.313 104.321 131.725 101.861 131.467C89.8134 130.188 76.4221 124.829 78.7515 123.329C80.3442 122.307 84.5045 121.008 86.2489 120.177C85.9672 118.448 85.6963 116.452 85.5338 114.121Z" fill="#323940"/>
<path fill-rule="evenodd" clip-rule="evenodd" d="M96.1739 76.8973C96.3364 76.7732 96.4881 76.6585 96.6506 76.5439C98.059 75.5219 99.6084 74.5953 101.299 73.9267C101.819 73.5542 102.339 73.2199 102.859 72.9524C104.17 71.6342 113.856 72.1787 114.506 72.5035C116.131 73.3058 117.593 74.3374 118.915 75.541C119.056 75.6174 119.197 75.6938 119.327 75.7798C123.422 78.0913 127.268 80.699 130.898 83.4977C130.898 83.4977 131.234 83.7747 131.516 84.0326C134.04 86.2773 136.348 88.608 138.298 90.9673C139.403 92.3046 140.4 93.7087 141.342 95.1415L141.386 95.2084C145.178 101.15 147.67 107.951 145.784 114.427C145.308 116.06 144.582 117.646 143.553 119.098C143.553 119.098 143.184 119.556 142.859 119.795C142.61 119.976 142.307 120.129 141.992 120.234C142.036 120.187 142.057 120.158 142.057 120.158C143.076 118.716 143.813 117.12 144.289 115.487C146.164 109.011 143.672 102.21 139.88 96.2686L139.836 96.2018C138.894 94.7785 137.897 93.3649 136.792 92.0276C134.842 89.6683 132.534 87.328 130.01 85.0929C129.728 84.8445 129.392 84.558 129.392 84.558C125.752 81.7593 121.905 79.142 117.821 76.84C117.68 76.7636 117.55 76.6872 117.409 76.6012C116.087 75.3977 114.614 74.3661 113 73.5637C112.35 73.239 102.664 72.6945 101.353 74.0127C100.833 74.2801 100.313 74.6144 99.7925 74.9869C98.5141 75.5028 97.3006 76.1618 96.1739 76.8973ZM84.6786 120.836C84.7003 120.97 84.7219 121.113 84.7436 121.247C83.3568 121.906 80.4315 122.871 78.4922 123.75C78.4922 123.587 78.5789 123.453 78.763 123.339C79.9657 122.556 82.6851 121.61 84.6786 120.836ZM135.492 127.303C134.972 125.278 129.587 120.569 129.587 120.387C129.663 115.239 129.425 107.922 128.157 100.51C128.818 101.054 129.468 101.618 130.085 102.181C130.985 108.629 131.158 114.809 131.093 119.327C131.093 119.547 139.305 126.672 136.434 127.131C136.153 127.169 135.838 127.226 135.492 127.303ZM102.252 131.439C104.083 129.337 105.751 124.772 106.304 123.014C106.412 123.864 106.488 124.667 106.521 125.421C105.405 128.096 103.801 131.124 102.252 131.439Z" fill="#4D5154"/>
<path fill-rule="evenodd" clip-rule="evenodd" d="M125.263 108.727C121.991 107.696 118.979 105.632 116.509 103.617C113.79 101.401 111.406 98.9079 109.337 96.1856C105.642 100.455 100.875 103.98 95.7615 106.358C94.808 106.798 93.8221 107.209 92.8037 107.562C93.042 108.02 93.2912 108.479 93.5512 108.937C104.136 110.112 114.711 110.112 125.263 108.727ZM56.4219 109.3L71.2324 111.755C66.9854 112.682 62.4566 112.605 58.4154 110.991C57.8087 110.752 57.4511 110.571 57.1044 110.256C56.8119 109.988 56.5736 109.654 56.4219 109.3ZM61.7199 106.798C66.3678 106.836 70.7774 104.171 74.0927 101.019C84.4612 93.6257 87.8415 92.5559 87.8415 92.5559C88.1016 92.2885 84.6779 104.505 86.1297 107.801C88.2532 106.893 96.2165 103.961 98.0692 102.643C101.699 100.054 104.808 96.9307 107.354 93.3583C107.268 93.2245 107.181 93.0908 107.094 92.9571C103.692 87.5985 101.623 81.4948 101.449 75.372L101.58 74.7416L101.97 74.2162L102.555 73.8533L103.281 73.71C103.519 73.7482 103.768 73.7864 104.006 73.8246C104.602 74.1589 104.613 74.1589 105.025 74.6652L105.187 75.2861C105.339 80.425 106.964 85.4111 109.434 90.1202C112.067 85.5639 113.649 80.6064 113.021 75.4962L113.096 74.8562L113.432 74.3117L113.985 73.9106L114.689 73.7195C114.938 73.7386 115.177 73.7577 115.426 73.7768C116.054 74.0634 116.065 74.0729 116.52 74.541L116.748 75.1523C117.333 79.9378 116.217 84.838 113.985 89.27C113.248 90.741 112.381 92.1643 111.406 93.5207C111.471 93.6257 111.536 93.7308 111.601 93.8359C114.624 98.5832 118.524 103.168 123.595 106.129C125.242 107.094 127.084 107.896 129.001 108.145C129.5 108.059 130.009 107.982 130.507 107.887C130.984 112.519 131.136 115.165 131.114 118.27L85.393 110.685C85.3821 108.899 85.4471 106.941 85.6313 104.801C83.1503 106.549 80.5717 108.126 77.7981 109.425L61.7199 106.798ZM85.4255 114.105L126.596 120.935C121.634 122.234 116.618 123.007 111.601 123.361C115.848 124.889 120.518 125.73 125.415 125.73C129.066 125.73 132.587 125.262 135.903 124.392C136.997 125.777 137.539 126.952 136.434 127.134C131.753 127.869 119.142 132.34 109.499 131.776C107.333 131.652 108.373 128.643 107.983 123.542C107.744 123.552 107.506 123.552 107.268 123.561C106.13 126.637 103.909 131.681 101.872 131.47C89.8242 130.19 76.4329 124.832 78.7623 123.332C80.2683 122.367 84.0712 121.154 85.9455 120.323C85.6963 118.518 85.4905 116.464 85.4255 114.105Z" fill="#333536"/>
<path fill-rule="evenodd" clip-rule="evenodd" d="M85.5813 105.554C100.587 108.066 115.56 108.286 130.511 105.669C131.053 110.932 131.151 115.832 131.097 119.548C115.95 122.299 100.988 122.165 86.1664 119.643C85.6355 116.147 85.1155 111.601 85.5813 105.554Z" fill="#1F2633"/>
<path d="M115.743 72.1974C116.371 72.484 116.382 72.4935 116.837 72.9616L117.064 73.5729C117.65 78.3584 116.534 83.2586 114.302 87.6907C110.618 95.0265 103.749 101.188 96.0783 104.741C93.0989 106.126 89.8161 107.177 86.5224 107.157L86.0457 106.995L85.8398 106.603L86.024 106.212C86.8583 105.868 87.1291 105.973 87.53 105.916C91.5604 105.352 95.2007 103.346 98.3969 101.054C102.384 98.2073 105.753 94.7113 108.419 90.69C111.831 85.551 114.063 79.839 113.348 73.9168L113.424 73.2768L113.76 72.7324L114.313 72.3312L115.017 72.1401C115.255 72.1592 115.494 72.1783 115.743 72.1974Z" fill="#1F2633"/>
<path d="M104.319 72.2443C104.915 72.5786 104.925 72.5786 105.337 73.0849L105.5 73.7057C105.684 80.2202 108.251 86.5053 111.914 92.2651C114.936 97.0125 118.837 101.597 123.907 104.558C125.825 105.676 127.992 106.583 130.245 106.65L130.711 106.822L130.906 107.214L130.722 107.606L130.256 107.787C125.218 108.007 120.451 104.96 116.821 102.008C113.073 98.9515 109.952 95.36 107.406 91.3673C104.004 86.0086 101.935 79.905 101.762 73.7822L101.892 73.1517L102.282 72.6264L102.867 72.2634L103.593 72.1201C103.842 72.1679 104.08 72.2061 104.319 72.2443Z" fill="#1F2633"/>
<path fill-rule="evenodd" clip-rule="evenodd" d="M139.103 113.93L139.114 113.873C141.086 115.325 143.079 115.64 145.474 115.487C145.105 116.49 144.64 117.474 144.054 118.401C143.794 118.802 143.524 119.174 143.242 119.49C143.134 119.595 143.014 119.709 142.895 119.786C142.776 119.872 142.657 119.948 142.516 120.015C142.527 120.034 142.538 120.053 142.548 120.072C142.451 120.445 142.245 120.817 141.931 121.161C140.826 122.346 139.667 122.097 138.247 121.161C136.828 120.225 136.373 119.394 137.478 118.21C137.771 117.894 138.085 117.627 138.41 117.436V117.398C138.616 117.312 138.746 117.245 138.767 117.197C139.06 116.137 139.157 115.038 139.103 113.93Z" fill="#1F2633"/>
<path d="M135.634 117.16C135.861 117.189 136.208 117.284 136.674 117.409C136.923 117.475 137.432 117.685 137.919 117.943L138.222 118.316L138.135 118.764L137.702 119.022L137.182 118.946C136.749 118.707 136.273 118.392 136.089 118.22C135.764 117.915 135.515 117.685 135.374 117.523C135.309 117.437 135.244 117.294 135.287 117.227C135.342 117.16 135.526 117.141 135.634 117.16Z" fill="#F1C9A7"/>
<path d="M137.234 119.062C137.429 119.129 137.743 119.797 137.678 119.941C137.602 120.084 137.44 120.256 137.245 120.304C136.747 120.437 135.154 120.686 134.666 120.743C134.536 120.753 134.32 120.695 134.287 120.619C134.255 120.542 134.363 120.39 134.45 120.304C134.558 120.189 134.742 120.055 134.916 119.95C135.273 119.74 136.237 119.205 136.617 119.062C136.801 118.995 137.039 118.995 137.234 119.062ZM138.068 120.113C138.274 120.132 138.816 120.686 138.794 120.848C138.783 121.01 138.675 121.211 138.513 121.307C138.047 121.584 136.508 122.29 136.031 122.491C135.912 122.539 135.685 122.529 135.62 122.462C135.555 122.405 135.609 122.224 135.663 122.118C135.728 121.985 135.891 121.784 136.031 121.641C136.335 121.335 137.137 120.533 137.483 120.275C137.635 120.151 137.873 120.093 138.068 120.113ZM141.264 121.44C141.492 121.612 141.535 121.708 141.6 121.87C141.676 122.071 141.676 122.29 141.687 122.501C141.73 123.026 141.568 123.589 141.503 123.866C141.47 123.981 141.373 124.143 141.275 124.153C141.178 124.172 141.026 124.038 140.939 123.952C140.831 123.847 140.723 123.685 140.647 123.542C140.495 123.236 140.105 122.434 140.019 122.109C139.975 121.937 140.04 121.736 140.149 121.603C140.257 121.479 141.059 121.402 141.264 121.44ZM138.708 121.173C138.87 121.096 139.715 121.278 139.802 121.421C139.899 121.555 139.954 121.775 139.889 121.937C139.715 122.329 139.011 123.446 138.762 123.781C138.686 123.876 138.502 123.981 138.415 123.962C138.318 123.943 138.253 123.771 138.209 123.656C138.166 123.523 138.144 123.322 138.155 123.16C138.177 122.816 138.242 121.918 138.328 121.593C138.383 121.421 138.545 121.259 138.708 121.173Z" fill="#F1C9A7"/>
<path d="M58.8937 106.088C59.6842 105.764 60.7021 105.802 61.3518 106.489C61.6442 106.795 61.4926 107.406 61.0594 107.387C60.9078 107.358 60.9403 107.473 60.3123 107.234C59.8141 107.043 59.3485 106.804 58.872 106.575C58.4281 106.356 58.6771 106.184 58.8937 106.088ZM56.4139 110.022C56.0241 110.003 55.8833 109.869 55.6343 109.621C55.4935 109.478 55.4935 109.019 55.6559 108.294C55.7101 108.036 56.0241 107.329 56.349 107.454C56.977 107.692 56.3923 108.494 56.7388 108.599C56.8471 108.37 57.0203 107.807 57.486 107.864C57.7567 107.893 57.6917 108.685 57.7675 108.905C57.9191 108.733 58.2548 108.16 58.6122 108.227C58.7638 108.256 58.7096 108.571 58.7204 108.685C58.7421 108.886 58.7529 109.077 58.7421 109.267C58.9045 109.162 59.3269 108.752 59.6409 108.914C59.8899 109.048 59.3269 110.776 59.316 110.824C59.3593 110.89 59.1211 111.349 58.623 111.33C58.4606 111.33 58.2656 111.225 58.1898 111.129C57.9841 111.186 57.5618 111.043 57.4643 110.967C57.4102 110.929 57.2911 110.766 57.2586 110.709C57.107 110.7 56.9662 110.757 56.7171 110.556C56.5764 110.432 56.4789 110.165 56.4139 110.022Z" fill="#F1C9A7"/>
<path fill-rule="evenodd" clip-rule="evenodd" d="M104.659 72.3521V71.5975C85.6121 70.5372 72.3292 65.9905 71.1699 42.0247V32.1194C73.8677 13.3594 88.3532 0.63623 109.524 0.63623C130.694 0.63623 146.1 13.5791 147.877 32.1194V42.0247C150.629 64.7583 133.077 70.2506 114.388 71.5306V72.4667C114.432 72.4762 114.475 72.4953 114.497 72.5049C116.122 73.3073 118.819 75.0553 118.949 75.1317C120.488 76.1155 122.741 77.5483 122.676 77.7871C121.452 82.4007 92.2211 82.2383 96.6307 76.5358C98.0391 75.5138 99.5885 74.5872 101.279 73.9186C101.799 73.546 102.319 73.2117 102.839 72.9443C103.142 72.6768 103.792 72.4762 104.659 72.3521Z" fill="#2F3133"/>
<path fill-rule="evenodd" clip-rule="evenodd" d="M148.093 48.7309C146.88 65.8862 131.094 70.3851 114.398 71.5313V72.4674C114.441 72.477 114.485 72.4961 114.507 72.5057C116.132 73.308 118.829 75.056 118.959 75.1324C120.498 76.1163 122.751 77.5491 122.686 77.7879C121.462 82.4014 92.231 82.2391 96.6406 76.5366C98.0491 75.5145 99.5984 74.588 101.289 73.9193C101.809 73.5468 102.329 73.2125 102.849 72.945C103.13 72.668 103.78 72.4674 104.647 72.3433V71.5887C85.6004 70.5284 72.3175 65.9817 71.1582 42.0159V32.1106C73.856 13.3506 88.3415 0.627441 109.512 0.627441C117.388 0.627441 124.463 2.42321 130.336 5.62311C126.067 4.26673 121.408 3.51213 116.533 3.51213C96.0122 3.51213 79.349 16.7606 79.349 33.0658C79.349 49.3805 96.0122 62.6194 116.533 62.6194C129.848 62.6385 141.527 57.0793 148.093 48.7309Z" fill="#2B2B2B"/>
<path fill-rule="evenodd" clip-rule="evenodd" d="M86.1387 7.30347C92.4009 3.04331 100.332 0.63623 109.541 0.63623C130.711 0.63623 146.118 13.5791 147.895 32.1194V42.0247C149.401 54.4709 144.818 61.7494 137.299 66C143.539 61.6157 147.147 54.5855 145.782 43.3524V33.4471C144.005 14.9163 128.599 1.96395 107.428 1.96395C99.2266 1.96395 92.0326 3.87433 86.1387 7.30347ZM102.564 73.1258V73.6798C101.697 73.8135 101.036 74.0045 100.765 74.2815C100.245 74.549 99.725 74.8833 99.2049 75.2558C98.4357 75.5615 97.6989 75.9149 96.9839 76.3161C98.3057 75.3896 99.7466 74.549 101.307 73.9281C101.729 73.632 102.141 73.355 102.564 73.1258ZM114.817 72.6577C116.453 73.5078 118.848 75.0553 118.978 75.1317C120.516 76.1155 122.77 77.5483 122.705 77.7871C122.52 78.4939 121.665 79.0957 120.375 79.5733C120.484 79.43 120.559 79.2772 120.603 79.1148C120.668 78.8665 118.414 77.4337 116.876 76.4594C116.746 76.3734 114.037 74.635 112.423 73.8326C112.401 73.823 112.358 73.8039 112.315 73.7944V72.8583C113.138 72.801 113.983 72.7341 114.817 72.6577Z" fill="#454545"/>
<path fill-rule="evenodd" clip-rule="evenodd" d="M75.2155 38.071C71.4018 44.2129 62.8426 45.2732 57.2954 38.2621C54.641 34.9093 61.3583 32.9417 66.3638 31.8527C61.6509 31.9292 57.7505 30.525 58.9748 24.2685C59.2673 22.788 59.7874 21.422 60.4699 20.0465C61.2717 18.4323 62.1059 16.3213 63.6335 15.0891C66.5263 12.7775 74.6629 21.5748 76.6348 28.9967C100.265 30.4486 123.851 30.4581 147.405 28.6719C147.622 29.7991 147.795 30.9453 147.903 32.1106V37.9468C123.45 38.7301 99.2353 38.7301 75.2155 38.071Z" fill="#1F2633"/>
<path fill-rule="evenodd" clip-rule="evenodd" d="M136.053 55.6746C144.092 55.6746 149.521 39.3027 145.143 38.5576H80.4839C72.4448 38.5576 80.0614 56.2191 88.1005 56.2191C98.8915 55.1493 109.953 53.1147 120.116 53.2389C125.782 53.3058 131.254 54.8914 136.053 55.6746Z" fill="#F1C9A7"/>
<path fill-rule="evenodd" clip-rule="evenodd" d="M95.6576 45.7803C97.7703 45.7803 99.493 47.2704 99.493 49.1044C99.493 50.9383 97.7812 52.4284 95.6576 52.4284C93.5449 52.4284 91.8223 50.9383 91.8223 49.1044C91.8223 47.2704 93.5449 45.7803 95.6576 45.7803Z" fill="#1F2633"/>
<path fill-rule="evenodd" clip-rule="evenodd" d="M136.052 45.7803C138.165 45.7803 139.888 47.2704 139.888 49.1044C139.888 50.9383 138.176 52.4284 136.052 52.4284C133.939 52.4284 132.217 50.9383 132.217 49.1044C132.217 47.2704 133.929 45.7803 136.052 45.7803Z" fill="#1F2633"/>
<path d="M141.788 41.3852L142.417 41.6718L142.893 42.1685L143.099 42.7798C143.023 43.3911 143.023 43.4007 142.687 43.9451L142.124 44.3559C140.683 45.015 139.285 45.7218 137.779 46.2663C137.303 46.4382 136.403 46.7248 135.938 46.8585C134.291 47.3552 132.655 47.8328 130.997 48.3008L130.466 48.3104L130.098 48.0716L130.076 47.6704L130.38 47.2979C130.39 47.2883 130.401 47.2788 130.412 47.2788C132.362 45.9702 132.633 45.7791 134.518 44.5565C134.908 44.2986 135.688 43.8114 136.122 43.5631C137.476 42.7798 138.928 42.1685 140.369 41.4998L141.073 41.3184C141.311 41.3375 141.55 41.3566 141.788 41.3852Z" fill="#1F2633"/>
<path d="M92.7001 41.4998C94.1302 42.1589 95.5929 42.7798 96.9472 43.5631C97.3805 43.8114 98.1498 44.2986 98.5506 44.5565C99.9483 45.4639 101.313 46.3713 102.689 47.2979L102.993 47.6704L102.971 48.0716L102.603 48.3104L102.072 48.3008C102.061 48.3008 102.039 48.2913 102.028 48.2913C99.6882 47.6226 99.3524 47.5271 97.1313 46.8585C96.6655 46.7152 95.7662 46.4287 95.2895 46.2663C93.7943 45.7314 92.3859 45.0245 90.9449 44.3654L90.3707 43.9547L90.0348 43.4102L89.959 42.7894L90.1757 42.1685L90.6416 41.6718C91.2699 41.3852 91.2808 41.3852 91.985 41.3184C92.2342 41.3757 92.4617 41.4425 92.7001 41.4998Z" fill="#1F2633"/>
</svg>
