<svg width="22" height="22" viewBox="0 0 22 22" fill="none" xmlns="http://www.w3.org/2000/svg">
<path d="M0.517636 0.518613C0.662779 0.373102 0.835202 0.257656 1.02503 0.178885C1.21486 0.100115 1.41836 0.0595703 1.62389 0.0595703C1.82941 0.0595703 2.03291 0.100115 2.22274 0.178885C2.41257 0.257656 2.58499 0.373102 2.73014 0.518613L10.9989 8.79049L19.2676 0.518613C19.4129 0.373338 19.5854 0.258099 19.7752 0.179477C19.965 0.100855 20.1684 0.0603884 20.3739 0.0603884C20.5793 0.0603884 20.7828 0.100855 20.9726 0.179477C21.1624 0.258099 21.3349 0.373338 21.4801 0.518613C21.6254 0.663887 21.7407 0.836353 21.8193 1.02616C21.8979 1.21597 21.9384 1.41941 21.9384 1.62486C21.9384 1.83031 21.8979 2.03375 21.8193 2.22356C21.7407 2.41337 21.6254 2.58584 21.4801 2.73111L13.2083 10.9999L21.4801 19.2686C21.6254 19.4139 21.7407 19.5864 21.8193 19.7762C21.8979 19.966 21.9384 20.1694 21.9384 20.3749C21.9384 20.5803 21.8979 20.7838 21.8193 20.9736C21.7407 21.1634 21.6254 21.3358 21.4801 21.4811C21.3349 21.6264 21.1624 21.7416 20.9726 21.8202C20.7828 21.8989 20.5793 21.9393 20.3739 21.9393C20.1684 21.9393 19.965 21.8989 19.7752 21.8202C19.5854 21.7416 19.4129 21.6264 19.2676 21.4811L10.9989 13.2092L2.73014 21.4811C2.58486 21.6264 2.4124 21.7416 2.22259 21.8202C2.03277 21.8989 1.82934 21.9393 1.62389 21.9393C1.41844 21.9393 1.215 21.8989 1.02519 21.8202C0.835377 21.7416 0.662911 21.6264 0.517636 21.4811C0.372361 21.3358 0.257123 21.1634 0.1785 20.9736C0.0998783 20.7838 0.0594118 20.5803 0.0594118 20.3749C0.0594118 20.1694 0.0998783 19.966 0.1785 19.7762C0.257123 19.5864 0.372361 19.4139 0.517636 19.2686L8.78951 10.9999L0.517636 2.73111C0.372126 2.58597 0.256679 2.41355 0.177909 2.22372C0.0991387 2.03389 0.0585938 1.83039 0.0585938 1.62486C0.0585938 1.41934 0.0991387 1.21584 0.177909 1.02601C0.256679 0.836179 0.372126 0.663755 0.517636 0.518613Z" fill="#B0ADAD"/>
</svg>
