<svg width="30" height="20" viewBox="0 0 30 20" fill="none" xmlns="http://www.w3.org/2000/svg">
<path fill-rule="evenodd" clip-rule="evenodd" d="M20.334 8.6665C22.5473 8.6665 24.3207 6.87984 24.3207 4.6665C24.3207 2.45317 22.5473 0.666504 20.334 0.666504C18.1207 0.666504 16.334 2.45317 16.334 4.6665C16.334 6.87984 18.1207 8.6665 20.334 8.6665ZM9.66732 8.6665C11.8807 8.6665 13.654 6.87984 13.654 4.6665C13.654 2.45317 11.8807 0.666504 9.66732 0.666504C7.45398 0.666504 5.66732 2.45317 5.66732 4.6665C5.66732 6.87984 7.45398 8.6665 9.66732 8.6665ZM9.66732 11.3332C6.56065 11.3332 0.333984 12.8932 0.333984 15.9998V17.9998C0.333984 18.7332 0.933984 19.3332 1.66732 19.3332H17.6673C18.4006 19.3332 19.0006 18.7332 19.0006 17.9998V15.9998C19.0006 12.8932 12.774 11.3332 9.66732 11.3332ZM20.334 11.3332C19.9473 11.3332 19.5073 11.3598 19.0406 11.3998C19.0673 11.4132 19.0806 11.4398 19.094 11.4532C20.614 12.5598 21.6673 14.0398 21.6673 15.9998V17.9998C21.6673 18.4665 21.574 18.9198 21.4273 19.3332H28.334C29.0673 19.3332 29.6673 18.7332 29.6673 17.9998V15.9998C29.6673 12.8932 23.4406 11.3332 20.334 11.3332Z" fill="#00BA73"/>
</svg>
