<svg width="40" height="40" viewBox="0 0 40 40" fill="none" xmlns="http://www.w3.org/2000/svg">
<path fill-rule="evenodd" clip-rule="evenodd" d="M20 40C31.0457 40 40 31.0457 40 20C40 8.95429 31.0457 0 20 0C8.95429 0 0 8.95429 0 20C0 31.0457 8.95429 40 20 40Z" fill="#33C88F"/>
<path d="M32.381 31.4284V30.0637C32.381 29.6808 32.1562 29.337 31.8165 29.2018C27.8301 27.6046 23.4048 25.6227 23.0329 24.3875V23.0913C23.8598 22.2151 24.512 20.9922 24.8981 19.5608C25.8255 18.8865 26.0561 17.4951 25.2884 16.516V13.616C25.2884 10.6208 23.6793 8.57129 20.0006 8.57129C16.4167 8.57129 14.7108 10.6208 14.7108 13.616V16.517C13.9448 17.4941 14.1749 18.8846 15.101 19.5608C15.487 20.9922 16.1398 22.2151 16.9672 23.0913V24.3875C16.5964 25.6208 12.17 27.6037 8.18371 29.2008C7.844 29.338 7.61914 29.6799 7.61914 30.0627V31.4284" fill="#33C88F"/>
<path d="M32.381 31.4284V30.0637C32.381 29.6808 32.1562 29.337 31.8165 29.2018C27.8301 27.6046 23.4048 25.6227 23.0329 24.3875V23.0913C23.8598 22.2151 24.512 20.9922 24.8981 19.5608C25.8255 18.8865 26.0561 17.4951 25.2884 16.516V13.616C25.2884 10.6208 23.6793 8.57129 20.0006 8.57129C16.4167 8.57129 14.7108 10.6208 14.7108 13.616V16.517C13.9448 17.4941 14.1749 18.8846 15.101 19.5608C15.487 20.9922 16.1398 22.2151 16.9672 23.0913V24.3875C16.5964 25.6208 12.17 27.6037 8.18371 29.2008C7.844 29.338 7.61914 29.6799 7.61914 30.0627V31.4284" stroke="white" stroke-width="2"/>
</svg>
