<svg width="19" height="13" viewBox="0 0 19 13" fill="none" xmlns="http://www.w3.org/2000/svg">
<path d="M1.91748 12.5C1.63415 12.5 1.39681 12.404 1.20548 12.212C1.01348 12.0207 0.91748 11.7833 0.91748 11.5C0.91748 11.2167 1.01348 10.9793 1.20548 10.788C1.39681 10.596 1.63415 10.5 1.91748 10.5H17.9175C18.2008 10.5 18.4381 10.596 18.6295 10.788C18.8215 10.9793 18.9175 11.2167 18.9175 11.5C18.9175 11.7833 18.8215 12.0207 18.6295 12.212C18.4381 12.404 18.2008 12.5 17.9175 12.5H1.91748ZM1.91748 7.5C1.63415 7.5 1.39681 7.404 1.20548 7.212C1.01348 7.02067 0.91748 6.78333 0.91748 6.5C0.91748 6.21667 1.01348 5.979 1.20548 5.787C1.39681 5.59567 1.63415 5.5 1.91748 5.5H17.9175C18.2008 5.5 18.4381 5.59567 18.6295 5.787C18.8215 5.979 18.9175 6.21667 18.9175 6.5C18.9175 6.78333 18.8215 7.02067 18.6295 7.212C18.4381 7.404 18.2008 7.5 17.9175 7.5H1.91748ZM1.91748 2.5C1.63415 2.5 1.39681 2.40433 1.20548 2.213C1.01348 2.021 0.91748 1.78333 0.91748 1.5C0.91748 1.21667 1.01348 0.979 1.20548 0.787C1.39681 0.595667 1.63415 0.5 1.91748 0.5H17.9175C18.2008 0.5 18.4381 0.595667 18.6295 0.787C18.8215 0.979 18.9175 1.21667 18.9175 1.5C18.9175 1.78333 18.8215 2.021 18.6295 2.213C18.4381 2.40433 18.2008 2.5 17.9175 2.5H1.91748Z" fill="#5B84FE"/>
</svg>
