<svg width="87" height="82" viewBox="0 0 87 82" fill="none" xmlns="http://www.w3.org/2000/svg">
<path fill-rule="evenodd" clip-rule="evenodd" d="M10.5971 2.30986C6.09506 2.30986 2.44548 5.75706 2.44548 10.0094V71.9906C2.44548 76.0869 5.83221 79.4361 10.1052 79.6763L61.2912 31.3289C61.5206 31.1123 61.8316 30.9906 62.1559 30.9906C62.4801 30.9906 62.7911 31.1123 63.0205 31.3289L84.3689 51.4934V10.0094C84.3689 5.75706 80.7193 2.30986 76.2173 2.30986H10.5971ZM86.8144 54.2794V10.0094C86.8144 4.48135 82.0699 0 76.2173 0H10.5971C4.74447 0 0 4.48136 0 10.0094V71.9906C0 77.5186 4.74446 82 10.5971 82H76.2173C82.0699 82 86.8144 77.5186 86.8144 71.9906V54.284C86.8144 54.2824 86.8144 54.2809 86.8144 54.2794ZM84.3689 54.7601L62.1559 33.7789L13.549 79.6901H76.2173C80.7193 79.6901 84.3689 76.2429 84.3689 71.9906V54.7601ZM27.0021 20.0188C23.7945 20.0188 21.1941 22.4749 21.1941 25.5047C21.1941 28.5345 23.7945 30.9906 27.0021 30.9906C30.2098 30.9906 32.8101 28.5345 32.8101 25.5047C32.8101 22.4749 30.2098 20.0188 27.0021 20.0188ZM18.7486 25.5047C18.7486 21.1992 22.4439 17.7089 27.0021 17.7089C31.5604 17.7089 35.2556 21.1992 35.2556 25.5047C35.2556 29.8102 31.5604 33.3005 27.0021 33.3005C22.4439 33.3005 18.7486 29.8102 18.7486 25.5047Z" fill="#7C9DFE"/>
</svg>
