<svg width="104" height="150" viewBox="0 0 104 150" fill="none" xmlns="http://www.w3.org/2000/svg">
<rect x="1" y="1" width="102" height="148" rx="4" fill="#CCD9FF" stroke="#5B84FE" stroke-width="2"/>
<path fill-rule="evenodd" clip-rule="evenodd" d="M38.3944 58.9578C36.5275 58.9578 35.0141 60.3873 35.0141 62.1507V87.8529C35.0141 89.5516 36.4185 90.9404 38.1904 91.04L59.4161 70.9914C59.5112 70.9016 59.6402 70.8511 59.7746 70.8511C59.9091 70.8511 60.0381 70.9016 60.1332 70.9914L68.9859 79.3532V62.1507C68.9859 60.3873 67.4725 58.9578 65.6056 58.9578H38.3944ZM70 80.5085V62.1507C70 59.8583 68.0326 58 65.6056 58H38.3944C35.9674 58 34 59.8583 34 62.1507V87.8529C34 90.1453 35.9674 92.0036 38.3944 92.0036H65.6056C68.0326 92.0036 70 90.1453 70 87.8529V80.5103C70 80.5097 70 80.5091 70 80.5085ZM68.9859 80.7078L59.7746 72.0073L39.6185 91.0457H65.6056C67.4725 91.0457 68.9859 89.6163 68.9859 87.8529V80.7078ZM45.1972 66.3013C43.867 66.3013 42.7887 67.3198 42.7887 68.5762C42.7887 69.8326 43.867 70.8511 45.1972 70.8511C46.5273 70.8511 47.6056 69.8326 47.6056 68.5762C47.6056 67.3198 46.5273 66.3013 45.1972 66.3013ZM41.7746 68.5762C41.7746 66.7908 43.307 65.3435 45.1972 65.3435C47.0874 65.3435 48.6197 66.7908 48.6197 68.5762C48.6197 70.3616 47.0874 71.809 45.1972 71.809C43.307 71.809 41.7746 70.3616 41.7746 68.5762Z" fill="#7C9DFE"/>
</svg>
