<svg width="152" height="136" viewBox="0 0 152 136" fill="none" xmlns="http://www.w3.org/2000/svg">
<path opacity="0.3" d="M78.917 135.041C118.816 135.041 151.16 131.84 151.16 127.893C151.16 123.945 118.816 120.745 78.917 120.745C39.0182 120.745 6.67383 123.945 6.67383 127.893C6.67383 131.84 39.0182 135.041 78.917 135.041Z" fill="#2F3133"/>
<path fill-rule="evenodd" clip-rule="evenodd" d="M88.2844 86.7608C87.9779 87.1208 88.5372 86.3777 88.5755 86.3318C89.3799 85.2975 90.2839 84.3399 91.1649 83.3669C92.3064 82.1029 98.1134 75.2386 100.151 77.8587C101.048 79.0155 101.339 80.7775 101.668 82.1565C101.952 83.3286 102.128 84.4625 102.12 85.6729C102.09 96.1608 89.7783 87.7491 87.2578 88.247" fill="#1F2633"/>
<path fill-rule="evenodd" clip-rule="evenodd" d="M89.6011 88.1011C89.5628 88.193 90.3365 88.4152 90.3978 88.4382C91.2712 88.737 92.1292 89.1047 92.9643 89.5031C94.7876 90.3764 104.586 93.686 101.361 96.9266C95.4541 102.871 87.2415 98.6962 88.3447 90.5986C88.4826 89.595 89.1184 84.8298 90.2063 84.3242" fill="#1F2633"/>
<path d="M56.8599 87.6414L102.121 96.1528L150.929 105.331C151.404 105.522 151.412 105.53 151.78 105.89L151.986 106.365C151.994 106.817 152.063 106.97 151.795 107.369C151.703 107.514 151.55 107.614 151.435 107.736L150.96 107.943L150.439 107.951C119.083 102.052 87.7261 96.1605 56.3696 90.2615L1.06488 79.8579C0.589897 79.6663 0.582236 79.6587 0.214508 79.2986L0.00766099 78.8236L0 78.3027L0.191525 77.82C0.551592 77.4523 0.559253 77.4446 1.03423 77.2455L1.55518 77.2378C19.9875 80.7082 38.4276 84.171 56.8599 87.6414Z" fill="#653313"/>
<path d="M102.123 96.1524C102.598 96.3439 102.606 96.3516 102.974 96.7117L103.18 97.1866C103.188 97.6999 103.18 97.7076 102.989 98.1902L102.629 98.558L102.154 98.7648L101.633 98.7725L43.0415 87.756L42.5589 87.5644L42.1912 87.2044L41.9843 86.7294C41.9767 86.2774 41.9154 86.1242 42.1758 85.7258C42.2678 85.5802 42.421 85.4806 42.5359 85.3581L43.0109 85.1512L43.5318 85.1436C63.0674 88.8055 82.5953 92.4828 102.123 96.1524Z" fill="#B51000"/>
<path fill-rule="evenodd" clip-rule="evenodd" d="M62.6764 77.0462C63.274 73.8209 83.6675 74.3878 90.7769 82.8072C92.3551 84.6765 92.7228 93.3258 92.6999 95.2027C92.6845 96.1833 110.573 127.019 110.703 127.387C111.056 128.382 108.03 126.636 108.03 126.636C107.738 126.82 105.639 127.433 104.942 127.21C104.467 127.057 105.264 127.448 104.942 127.21C100.529 123.87 95.2586 119.381 91.0527 115.711C88.042 113.083 84.334 110.042 81.1854 107.537C78.5653 107.774 69.5407 107.338 68.7209 107.468C65.5416 107.951 57.6202 111.697 60.4394 114.194C62.7224 116.217 64.5151 118.753 66.9742 120.622C67.25 120.913 68.7899 122.047 69.0197 122.376C69.4258 122.959 67.7403 126.437 67.0125 126.414C66.1852 126.383 63.7336 125.517 62.9369 125.203C58.0262 123.234 53.0159 120.737 50.3575 116.339C49.783 115.397 49.3616 114.355 49.1471 113.275C48.9862 112.486 48.9786 112.111 48.9786 111.59C48.9632 106.25 53.1385 101.24 57.444 98.1062C58.5701 97.2865 59.7499 96.5511 60.9833 95.8922C60.4164 91.7859 60.9757 86.224 62.6764 77.0462Z" fill="#2F3133"/>
<path fill-rule="evenodd" clip-rule="evenodd" d="M64.5907 125.846C64.5907 125.846 61.3041 124.529 60.4844 124.161C62.6065 122.866 65.035 120.905 64.7056 118.576C65.4181 119.304 66.1612 119.993 66.9809 120.622C68.6357 120.783 70.4283 122.322 70.5586 122.552C70.7961 122.966 70.1143 125.931 69.0724 128.237C68.8425 128.75 66.7664 131.293 63.7556 129.823C63.227 129.754 63.181 127.984 64.9048 127.731C64.8588 127.509 64.606 126.214 64.5907 125.846Z" fill="#1F2633"/>
<path fill-rule="evenodd" clip-rule="evenodd" d="M103.514 126.122C102.395 125.249 101.231 124.322 100.059 123.364C102.326 123.15 105.237 120.782 105.391 118.101C107.061 121.028 108.532 123.579 109.497 125.264C110.056 125.632 111.55 126.681 111.696 126.804C112.492 127.44 113.19 129.087 112.5 129.531C112.132 129.761 111.558 129.876 110.876 129.899C108.286 129.991 104.142 128.857 103.843 128.39C103.751 128.237 103.483 127.202 103.514 126.122Z" fill="#1F2633"/>
<path fill-rule="evenodd" clip-rule="evenodd" d="M59.656 96.6357C59.6713 96.743 59.679 96.8426 59.6943 96.9498C58.4685 97.6163 57.2811 98.3518 56.1549 99.1639C55.9021 99.3477 55.6493 99.5393 55.3965 99.7385C56.063 99.1486 56.7448 98.597 57.4343 98.099C58.1544 97.5857 58.8976 97.0954 59.656 96.6357ZM60.6826 111.391C59.7633 112.348 59.4798 113.344 60.4374 114.195C62.7204 116.217 64.5131 118.753 66.9722 120.622C67.248 120.913 68.7879 122.047 69.0177 122.377C69.4238 122.959 67.7383 126.437 67.0106 126.414C66.9416 126.414 66.865 126.406 66.7807 126.391C67.4242 125.326 67.9988 123.809 67.7383 123.442C67.5085 123.12 65.9687 121.978 65.6929 121.687C63.2337 119.818 61.441 117.282 59.158 115.26C57.8403 114.087 58.8822 112.647 60.6826 111.391ZM62.6821 77.0083C63.4482 73.829 83.6962 74.4265 90.7673 82.8077C92.3455 84.6769 92.7132 93.3262 92.6902 95.2031C92.6749 96.1837 110.563 127.019 110.694 127.387C110.954 128.115 109.414 127.387 108.564 126.935C104.994 120.668 91.4032 97.1261 91.4108 96.268C91.4338 94.3911 91.0661 85.7418 89.4879 83.8725C83.3668 76.6176 67.363 75.1926 62.6821 77.0083Z" fill="#454545"/>
<path fill-rule="evenodd" clip-rule="evenodd" d="M60.7526 97.2801C60.5228 95.2959 96.5601 101.317 95.771 101.463C92.4615 102.053 83.3909 106.964 76.5726 106.512C75.0404 106.412 76.6186 103.945 76.3351 99.8619C76.1666 99.8695 75.998 99.8696 75.8295 99.8772C75.0251 102.344 74.2513 106.381 72.811 106.205C64.292 105.179 54.0186 100.896 55.6657 99.6933C56.7383 98.9196 59.4196 97.9466 60.7526 97.2801Z" fill="#2A2A2A"/>
<path fill-rule="evenodd" clip-rule="evenodd" d="M78.0728 59.0352L78.2873 59.1577L78.3486 59.3952V59.4029L78.3103 59.7017L78.272 60.0081L78.2337 60.3145L78.2031 60.621H78.1954L78.1647 60.9198L78.1264 61.2262L78.0881 61.5326L78.0575 61.8314L78.0192 62.1379L78.0039 62.2834L77.9809 62.4366L77.9502 62.7431L77.9196 63.0495L77.8813 63.3483L77.8506 63.6547L77.82 63.9535L77.7894 64.2599L77.7817 64.2753L77.751 64.5587L77.7204 64.8652L77.6898 65.164L77.6591 65.4704L77.6285 65.7692L77.5978 66.0756L77.5748 66.3744L77.5672 66.4587L77.5442 66.6732L77.5136 66.9796L77.4829 67.2784L77.4599 67.5848L77.4293 67.8836L77.4063 68.1824L77.3757 68.4888L77.3527 68.7876L77.3297 69.0864L77.2991 69.3851L77.2761 69.6916L77.2531 69.9904L77.2301 70.2892L77.2071 70.5879L77.1841 70.8944L77.1765 70.9786L77.1535 71.1932L77.1305 71.4919L77.1075 71.7907L77.0845 72.0895L77.0616 72.3883L77.0462 72.6947L77.0233 72.9935L77.0003 73.2923L76.9773 73.591L76.9543 73.8898L76.939 74.1886L76.916 74.4874L76.9007 74.7862L76.893 74.8934L76.8777 75.0849L76.8547 75.3837L76.8394 75.6825L76.8241 75.9813L76.8011 76.28L76.7858 76.5788L76.7628 76.8776L76.7475 77.1764L76.7321 77.4752L76.7168 77.6897V77.7739L76.7015 78.0727L76.6862 78.3638L76.6632 78.6626L76.6479 78.9614L76.6325 79.2602L76.6172 79.5589L76.6096 79.8577L76.5942 80.1565L76.5789 80.4476L76.5636 80.7464L76.5559 81.0452L76.5483 81.1141L76.5406 81.344L76.5253 81.6351L76.5176 81.9339L76.5023 82.2327L76.4946 82.5314L76.4793 82.8225L76.4717 83.1213L76.4563 83.4201L76.4487 83.7112L76.441 84.01L76.4257 84.3088L76.418 84.5999L76.4104 84.8987L76.4027 85.1975L76.3951 85.4886L76.3874 85.7873L76.3797 86.0861L76.3721 86.3773L76.3644 86.676L76.3567 86.9671L76.3491 87.2659L76.3414 87.557V87.8558L76.3338 88.1469L76.3261 88.4457V88.6066V88.7368L76.3184 89.0356L76.3108 89.3267V89.6255L76.3031 89.9166V90.2154L76.2955 90.5065V90.8053V91.0964L76.2878 91.3952V91.6863V91.9774V92.2762V92.5673L76.2801 92.8661V93.1572V93.4483V93.7471V94.0382V94.3293L76.2878 94.6281V94.9193V95.2104V95.5091V95.8003L76.2955 96.0914V96.3825V96.6813L76.3031 96.9724V97.2635L76.3108 97.4321V97.5546L76.1959 97.6772L76.081 97.5623L76.0733 97.4397V97.2712L76.058 96.9801L76.0503 96.6813L76.0427 96.3902L76.035 96.0991L76.0273 95.8003L76.0197 95.5091L76.012 95.218L76.0043 94.9269V94.6281L75.9967 94.337L75.989 94.0382L75.9814 93.7471L75.9737 93.456V93.1572L75.966 92.8661L75.9584 92.5673V92.2762L75.9507 91.9851V91.6863L75.9431 91.3952V91.0964V90.8053L75.9354 90.5065V90.2154V89.9166V89.6255L75.9277 89.3267V89.0356V88.7368V88.6066V88.4457V88.1469V87.8482V87.557V87.2583L75.9354 86.9671V86.6684V86.3696V86.0785L75.9431 85.7797V85.4809V85.1898L75.9507 84.891V84.5922L75.9584 84.2935L75.966 84.0023V83.7035L75.9737 83.4048L75.9814 83.106V82.8149L75.989 82.5161L75.9967 82.2173L76.0043 81.9185L76.012 81.6198L76.0197 81.321L76.0273 81.0911V81.0222L76.035 80.7311L76.0427 80.4323L76.0503 80.1335L76.0656 79.8348L76.0733 79.536L76.081 79.2372L76.0886 78.9384L76.1039 78.6396L76.1116 78.3409L76.1269 78.0421L76.1346 77.7433L76.1422 77.659L76.1499 77.4445L76.1652 77.1457L76.1805 76.847L76.1882 76.5482L76.2035 76.2494L76.2189 75.9506L76.2342 75.6519L76.2495 75.3454L76.2648 75.0466L76.2725 74.8551L76.2801 74.7478L76.2955 74.4491L76.3184 74.1503L76.3338 73.8515L76.3491 73.5527L76.3721 73.2463L76.3874 72.9475L76.4104 72.6487L76.4257 72.35L76.4487 72.0435L76.4717 71.7447L76.487 71.446L76.51 71.1395L76.5253 70.9327L76.533 70.8408L76.5559 70.542L76.5789 70.2355L76.6019 69.9367L76.6249 69.638L76.6555 69.3315L76.6785 69.0327L76.7015 68.734L76.7321 68.4275L76.7551 68.1288L76.7858 67.8223L76.8087 67.5235L76.8394 67.2171L76.8624 66.9183L76.893 66.6119L76.9237 66.3131L76.9543 66.0067L76.9849 65.7079L77.0156 65.4014L77.0462 65.1027L77.0769 64.7962L77.1075 64.4898L77.1382 64.191L77.1688 63.8846L77.1995 63.5858L77.2378 63.2793L77.2684 62.9729L77.3067 62.6741L77.3374 62.3677L77.3757 62.0612L77.4063 61.7548L77.4446 61.456L77.4829 61.1496L77.5136 60.8431L77.5519 60.5367L77.5902 60.2303L77.6285 59.9315L77.6668 59.625L77.7051 59.3186L77.8277 59.1041L78.0652 59.0352H78.0728Z" fill="#1F2633"/>
<path fill-rule="evenodd" clip-rule="evenodd" d="M39.8867 87.1586L50.3593 89.1275C47.3562 89.8706 44.1539 89.8093 41.2963 88.5146C40.8673 88.3231 40.6145 88.1776 40.3694 87.9247C40.1625 87.7102 39.994 87.4421 39.8867 87.1586ZM43.6329 85.1515C46.9195 85.1821 50.0375 83.0447 52.3818 80.5166C53.1173 79.7275 53.7991 78.9001 54.4579 78.0574C55.316 76.9465 56.1357 75.8204 56.9324 74.6789C56.9324 74.6789 57.8824 73.3459 58.6562 72.1967C58.6562 72.1967 58.9166 71.829 59.1005 71.5762C59.7287 70.7028 60.3569 69.8218 60.9774 68.9408L61.1843 68.6573C63.406 65.9224 65.62 63.1261 68.3397 60.8891C69.3356 60.0694 70.4311 59.3262 71.6262 58.79C71.9939 58.4912 72.3617 58.2231 72.7294 58.0086C73.6564 56.9513 80.5053 57.388 80.965 57.6485C82.1141 58.292 83.1484 59.1194 84.083 60.0847C84.1826 60.146 84.2822 60.2073 84.3741 60.2762C87.27 62.1302 89.9896 64.2216 92.5561 66.4663C92.5561 66.4663 92.7936 66.6885 92.9927 66.8953C94.7777 68.6956 96.4095 70.5649 97.7885 72.4572C98.5699 73.5297 99.2748 74.6559 99.9413 75.805L99.9719 75.8587C102.653 80.6238 104.415 86.0784 103.082 91.2726C102.745 92.5826 102.232 93.8544 101.504 95.0188C101.504 95.0188 101.244 95.3865 101.014 95.5781C100.876 95.6853 100.723 95.7849 100.562 95.8615L98.4014 95.4555C98.1639 95.1337 98.026 94.7277 98.003 94.3523C97.98 94.0689 98.0337 93.7701 98.1026 93.5096C98.8074 90.698 97.9877 87.603 96.5628 85.1591C95.2987 82.9834 93.598 81.0682 91.675 79.2678C92.5101 84.8297 92.7093 90.3226 92.694 94.3906L60.3722 88.3155C60.3646 86.8829 60.4105 85.3123 60.5408 83.5963C58.7864 84.9982 56.9631 86.2623 55.0019 87.3042L43.6329 85.1515ZM60.4718 91.0274L94.6782 97.4627C96.1337 99.1711 97.6659 101.247 96.4632 101.462C93.1536 102.052 84.2362 105.637 77.4179 105.185C75.7325 105.07 76.7974 102.167 76.2228 97.3095C75.6942 99.2017 73.756 105.147 72.0169 104.94C63.4979 103.913 54.0289 99.6154 55.676 98.4126C56.8022 97.5929 59.744 96.551 60.9774 95.8845C60.7783 94.4979 60.5867 92.8967 60.4718 91.0274Z" fill="#323940"/>
<path fill-rule="evenodd" clip-rule="evenodd" d="M67.993 61.1725C68.1079 61.0729 68.2151 60.981 68.3301 60.8891C69.326 60.0694 70.4215 59.3262 71.6166 58.79C71.9844 58.4912 72.3521 58.2231 72.7198 58.0086C73.6468 56.9513 80.4957 57.388 80.9554 57.6485C82.1045 58.292 83.1388 59.1194 84.0734 60.0847C84.173 60.146 84.2726 60.2073 84.3645 60.2762C87.2604 62.1302 89.98 64.2216 92.5465 66.4663C92.5465 66.4663 92.784 66.6885 92.9831 66.8953C94.7682 68.6956 96.3999 70.5649 97.7789 72.4572C98.5603 73.5297 99.2652 74.6559 99.9317 75.805L99.9623 75.8587C102.644 80.6238 104.406 86.0784 103.073 91.2726C102.736 92.5826 102.222 93.8544 101.495 95.0188C101.495 95.0188 101.234 95.3865 101.004 95.5781C100.828 95.7236 100.613 95.8462 100.391 95.9305C100.422 95.8922 100.437 95.8692 100.437 95.8692C101.157 94.7124 101.678 93.433 102.015 92.123C103.341 86.9288 101.579 81.4742 98.8974 76.709L98.8668 76.6554C98.2003 75.5139 97.4955 74.3801 96.714 73.3076C95.3351 71.4153 93.7033 69.5384 91.9183 67.7457C91.7191 67.5465 91.4816 67.3167 91.4816 67.3167C88.9075 65.072 86.1878 62.9729 83.2996 61.1266C83.2001 61.0653 83.1081 61.004 83.0085 60.935C82.0739 59.9698 81.032 59.1424 79.8905 58.4989C79.4308 58.2384 72.5819 57.8017 71.6549 58.8589C71.2872 59.0734 70.9195 59.3416 70.5517 59.6403C69.6477 60.054 68.7897 60.5826 67.993 61.1725ZM59.8647 96.4131C59.88 96.5204 59.8953 96.6353 59.9106 96.7426C58.93 97.2712 56.8616 98.0449 55.4902 98.7497C55.4902 98.6195 55.5515 98.5122 55.6818 98.4203C56.5321 97.7921 58.455 97.0337 59.8647 96.4131ZM95.7947 101.6C95.427 99.9755 91.6195 96.1986 91.6195 96.053C91.6731 91.9238 91.5046 86.0554 90.6082 80.1105C91.0756 80.5472 91.5352 80.9992 91.9719 81.4512C92.6078 86.6224 92.7303 91.579 92.6844 95.2027C92.6844 95.3789 98.4914 101.094 96.4612 101.462C96.262 101.492 96.0399 101.538 95.7947 101.6ZM72.2908 104.917C73.5855 103.231 74.7653 99.5694 75.156 98.1598C75.2326 98.8416 75.2862 99.4852 75.3092 100.09C74.5201 102.235 73.3863 104.664 72.2908 104.917Z" fill="#4D5154"/>
<path fill-rule="evenodd" clip-rule="evenodd" d="M88.5647 86.7004C86.2511 85.8731 84.1213 84.2183 82.3746 82.6018C80.4517 80.8245 78.7663 78.8249 77.303 76.6416C74.6906 80.066 71.3198 82.8929 67.7038 84.8005C67.0296 85.1529 66.3325 85.4823 65.6123 85.7658C65.7809 86.1335 65.9571 86.5013 66.1409 86.869C73.6257 87.8113 81.1029 87.8113 88.5647 86.7004ZM39.8867 87.1601L50.3593 89.129C47.3562 89.8721 44.1539 89.8108 41.2963 88.5161C40.8673 88.3246 40.6145 88.179 40.3694 87.9262C40.1625 87.7117 39.994 87.4436 39.8867 87.1601ZM43.6329 85.1529C46.9195 85.1836 50.0375 83.0461 52.3818 80.518C59.7134 74.5884 62.1036 73.7304 62.1036 73.7304C62.2875 73.5159 59.8666 83.3143 60.8932 85.9573C62.3947 85.2295 68.0256 82.8776 69.3356 81.8204C71.902 79.7443 74.1007 77.2391 75.9011 74.3739C75.8398 74.2667 75.7785 74.1594 75.7172 74.0522C73.3116 69.7543 71.8484 64.859 71.7258 59.9483L71.8177 59.4426L72.0935 59.0213L72.5072 58.7302L73.0205 58.6152C73.1891 58.6459 73.3653 58.6765 73.5338 58.7072C73.9552 58.9753 73.9628 58.9753 74.2539 59.3813L74.3689 59.8793C74.4761 64.0009 75.6253 68 77.372 71.7768C79.2336 68.1225 80.3521 64.1465 79.9078 60.0478L79.9614 59.5346L80.1989 59.0979L80.5896 58.7761L81.0876 58.6229C81.2638 58.6382 81.4323 58.6535 81.6085 58.6689C82.0528 58.8987 82.0605 58.9063 82.3823 59.2817L82.5431 59.7721C82.9568 63.6102 82.1677 67.5403 80.5896 71.095C80.0686 72.2748 79.4558 73.4163 78.7663 74.5042C78.8122 74.5884 78.8582 74.6727 78.9042 74.757C81.0416 78.5645 83.7995 82.2417 87.3849 84.6167C88.5494 85.3904 89.8517 86.034 91.2077 86.2331C91.5601 86.1642 91.9202 86.1029 92.2726 86.0263C92.6097 89.7419 92.7169 91.864 92.7016 94.3538L60.3722 88.271C60.3646 86.8384 60.4105 85.2679 60.5408 83.5518C58.7864 84.9538 56.9631 86.2178 55.0019 87.2597L43.6329 85.1529ZM60.3952 91.0136L89.507 96.4912C85.9982 97.5331 82.4512 98.1536 78.9042 98.4371C81.9073 99.6629 85.2092 100.337 88.6719 100.337C91.2537 100.337 93.7435 99.9616 96.0878 99.2645C96.8615 100.375 97.2446 101.318 96.4632 101.463C93.1536 102.053 84.2362 105.638 77.4179 105.186C75.8857 105.087 76.6212 102.674 76.3454 98.5827C76.1769 98.5903 76.0083 98.5903 75.8398 98.598C75.0354 101.065 73.4649 105.11 72.0246 104.941C63.5056 103.915 54.0366 99.6169 55.6837 98.4141C56.7486 97.6404 59.4376 96.6674 60.7629 96.0009C60.5867 94.553 60.4412 92.9059 60.3952 91.0136Z" fill="#333536"/>
<path fill-rule="evenodd" clip-rule="evenodd" d="M60.5049 84.1553C71.1154 86.1701 81.7029 86.3463 92.275 84.2472C92.6581 88.4684 92.727 92.3985 92.6887 95.3786C81.9787 97.585 71.3988 97.4777 60.9186 95.4552C60.5432 92.6513 60.1755 89.0047 60.5049 84.1553Z" fill="#1F2633"/>
<path d="M81.824 57.4034C82.2684 57.6332 82.276 57.6409 82.5978 58.0163L82.7587 58.5066C83.1724 62.3447 82.3833 66.2748 80.8051 69.8295C78.2004 75.7132 73.3433 80.6545 67.9193 83.5044C65.8126 84.6152 63.4913 85.458 61.1623 85.4426L60.8252 85.3124L60.6797 84.9983L60.8099 84.6842C61.3998 84.4084 61.5913 84.4927 61.8748 84.4467C64.7247 83.9947 67.2988 82.3859 69.5588 80.5472C72.378 78.2643 74.7606 75.4603 76.6452 72.2351C79.0584 68.1134 80.6366 63.5322 80.131 58.7824L80.1846 58.2691L80.4221 57.8324L80.8128 57.5106L81.3107 57.3574C81.4793 57.3727 81.6478 57.3881 81.824 57.4034Z" fill="#1F2633"/>
<path d="M73.7396 57.4409C74.161 57.709 74.1686 57.709 74.4598 58.1151L74.5747 58.613C74.7049 63.8378 76.5206 68.8788 79.11 73.4984C81.2474 77.3059 84.0054 80.9832 87.5907 83.3581C88.9467 84.2544 90.4789 84.9822 92.0724 85.0358L92.4018 85.1737L92.5397 85.4878L92.4095 85.8019L92.0801 85.9475C88.5177 86.1237 85.1469 83.6798 82.5804 81.3126C79.9297 78.861 77.7234 75.9805 75.923 72.7782C73.5175 68.4804 72.0542 63.585 71.9316 58.6743L72.0236 58.1687L72.2994 57.7473L72.7131 57.4562L73.2263 57.3413C73.4025 57.3796 73.5711 57.4103 73.7396 57.4409Z" fill="#1F2633"/>
<path fill-rule="evenodd" clip-rule="evenodd" d="M98.3645 90.8751L98.3722 90.8291C99.7665 91.9936 101.176 92.2464 102.869 92.1238C102.609 92.9282 102.279 93.7173 101.866 94.4604C101.682 94.7822 101.49 95.081 101.291 95.3338C101.214 95.418 101.13 95.51 101.046 95.5713C100.962 95.6402 100.877 95.7015 100.778 95.7551C100.785 95.7704 100.793 95.7858 100.801 95.8011C100.732 96.0999 100.586 96.3986 100.364 96.6744C99.5826 97.6244 98.7629 97.4252 97.7593 96.6744C96.7557 95.9237 96.4339 95.2571 97.2154 94.3072C97.4222 94.0544 97.6444 93.8399 97.8742 93.6866V93.656C98.0198 93.5871 98.1117 93.5334 98.127 93.4951C98.3339 92.6447 98.4028 91.7637 98.3645 90.8751Z" fill="#1F2633"/>
<path d="M95.9133 93.4632C96.0742 93.4861 96.3193 93.5627 96.6487 93.6623C96.8249 93.716 97.185 93.8845 97.5297 94.0913L97.7443 94.3901L97.683 94.7502L97.3765 94.957L97.0088 94.8958C96.7024 94.7042 96.3653 94.4514 96.235 94.3135C96.0052 94.0684 95.829 93.8845 95.7294 93.7543C95.6834 93.6853 95.6375 93.5704 95.6681 93.5168C95.7064 93.4631 95.8367 93.4478 95.9133 93.4632Z" fill="#F1C9A7"/>
<path d="M97.0333 94.9899C97.1712 95.0436 97.3933 95.5798 97.3474 95.6947C97.2938 95.8097 97.1788 95.9475 97.0409 95.9858C96.6885 96.0931 95.5624 96.2923 95.2176 96.3383C95.1257 96.3459 94.9725 96.3 94.9495 96.2387C94.9265 96.1774 95.0031 96.0548 95.0644 95.9858C95.141 95.8939 95.2712 95.7867 95.3938 95.7024C95.6466 95.5339 96.3285 95.1048 96.5966 94.9899C96.7268 94.9363 96.8954 94.9363 97.0333 94.9899ZM97.6232 95.8326C97.7687 95.848 98.1518 96.2923 98.1365 96.4225C98.1288 96.5528 98.0522 96.7137 97.9373 96.7903C97.6078 97.0124 96.52 97.5793 96.1829 97.7402C96.0986 97.7785 95.9378 97.7709 95.8918 97.7172C95.8458 97.6713 95.8841 97.5257 95.9224 97.4415C95.9684 97.3342 96.0833 97.1733 96.1829 97.0584C96.3974 96.8133 96.9643 96.1697 97.2095 95.9629C97.3167 95.8633 97.4853 95.8173 97.6232 95.8326ZM99.8832 96.8975C100.044 97.0354 100.075 97.112 100.121 97.2423C100.174 97.4031 100.174 97.5793 100.182 97.7479C100.213 98.1692 100.098 98.6212 100.052 98.8434C100.029 98.9353 99.9598 99.0656 99.8908 99.0732C99.8219 99.0885 99.7146 98.9813 99.6533 98.9124C99.5767 98.8281 99.5001 98.6979 99.4465 98.5829C99.3392 98.3378 99.0634 97.6943 99.0021 97.4338C98.9715 97.2959 99.0175 97.135 99.0941 97.0278C99.1707 96.9282 99.7376 96.8669 99.8832 96.8975ZM98.0752 96.683C98.1901 96.6217 98.7876 96.7673 98.8489 96.8822C98.9179 96.9894 98.9562 97.1657 98.9102 97.2959C98.7876 97.61 98.2897 98.5063 98.1135 98.7745C98.0599 98.8511 97.9296 98.9353 97.8683 98.92C97.7994 98.9047 97.7534 98.7668 97.7228 98.6749C97.6921 98.5676 97.6768 98.4067 97.6845 98.2765C97.6998 98.0007 97.7457 97.2806 97.807 97.0201C97.8453 96.8822 97.9603 96.7519 98.0752 96.683Z" fill="#F1C9A7"/>
<path d="M41.6484 84.5851C42.2076 84.3246 42.9278 84.3552 43.3874 84.9068C43.5943 85.152 43.487 85.6423 43.1806 85.6269C43.0733 85.604 43.0963 85.6959 42.652 85.5044C42.2996 85.3511 41.9701 85.1596 41.6331 84.9757C41.319 84.7995 41.4952 84.6617 41.6484 84.5851ZM39.894 87.7414C39.6182 87.7261 39.5186 87.6188 39.3424 87.4196C39.2428 87.3047 39.2428 86.937 39.3577 86.3547C39.396 86.1479 39.6182 85.581 39.848 85.6806C40.2924 85.8721 39.8787 86.5156 40.1238 86.5999C40.2004 86.416 40.323 85.964 40.6524 86.01C40.844 86.033 40.798 86.6688 40.8516 86.845C40.9589 86.7071 41.1964 86.2475 41.4492 86.3011C41.5564 86.3241 41.5181 86.5769 41.5258 86.6688C41.5411 86.8297 41.5488 86.9829 41.5411 87.1362C41.656 87.0519 41.9548 86.7225 42.177 86.8527C42.3532 86.96 41.9548 88.3466 41.9472 88.3849C41.9778 88.4385 41.8093 88.8063 41.4568 88.7909C41.3419 88.7909 41.204 88.7067 41.1504 88.6301C41.0048 88.676 40.7061 88.5611 40.6371 88.4998C40.5988 88.4692 40.5145 88.3389 40.4916 88.293C40.3843 88.2853 40.2847 88.3313 40.1085 88.1704C40.0089 88.0708 39.94 87.8563 39.894 87.7414Z" fill="#F1C9A7"/>
<path fill-rule="evenodd" clip-rule="evenodd" d="M74.0063 57.5261V56.9209C60.5383 56.0705 51.1459 52.4239 50.3262 33.2024V25.258C52.2338 10.2118 62.4765 0.00732422 77.4461 0.00732422C92.4157 0.00732422 103.31 10.388 104.566 25.258V33.2024C106.512 51.4356 94.1011 55.8406 80.8859 56.8672V57.618C80.9165 57.6257 80.9472 57.641 80.9625 57.6487C82.1116 58.2922 84.0192 59.6941 84.1112 59.7554C85.199 60.5445 86.7925 61.6937 86.7465 61.8852C85.8809 65.5854 65.2115 65.4552 68.3295 60.8816C69.3254 60.0619 70.421 59.3187 71.6161 58.7825C71.9838 58.4837 72.3515 58.2156 72.7193 58.0011C72.9338 57.7865 73.3934 57.6257 74.0063 57.5261Z" fill="#2F3133"/>
<path fill-rule="evenodd" clip-rule="evenodd" d="M104.721 38.5808C103.863 52.3399 92.7009 55.9483 80.8953 56.8676V57.6184C80.926 57.626 80.9566 57.6413 80.972 57.649C82.1211 58.2925 84.0287 59.6945 84.1206 59.7558C85.2085 60.5449 86.802 61.694 86.756 61.8855C85.8903 65.5858 65.2209 65.4556 68.339 60.882C69.3349 60.0622 70.4304 59.3191 71.6255 58.7828C71.9933 58.484 72.361 58.2159 72.7287 58.0014C72.9279 57.7792 73.3876 57.6184 74.0004 57.5188V56.9135C60.5324 56.0632 51.14 52.4165 50.3203 33.1951V25.2506C52.2279 10.2045 62.4707 0 77.4402 0C83.0098 0 88.0124 1.44028 92.1647 4.00671C89.1462 2.91885 85.852 2.31362 82.4046 2.31362C67.8946 2.31362 56.112 12.9394 56.112 26.0167C56.112 39.1017 67.8946 49.7199 82.4046 49.7199C91.8199 49.7352 100.078 45.2765 104.721 38.5808Z" fill="#2B2B2B"/>
<path fill-rule="evenodd" clip-rule="evenodd" d="M60.9062 5.3547C65.3343 1.93789 70.9422 0.00732422 77.454 0.00732422C92.4236 0.00732422 103.318 10.388 104.574 25.258V33.2024C105.639 43.1847 102.398 49.0224 97.0815 52.4315C101.494 48.9151 104.045 43.2766 103.08 34.2673V26.3228C101.824 11.4605 90.9297 1.0722 75.9601 1.0722C70.1607 1.0722 65.0738 2.6044 60.9062 5.3547ZM72.5203 58.1466V58.5909C71.9074 58.6982 71.4401 58.8514 71.2486 59.0736C70.8809 59.2881 70.5131 59.5562 70.1454 59.855C69.6015 60.1002 69.0805 60.3836 68.5749 60.7054C69.5095 59.9623 70.5285 59.2881 71.6316 58.7901C71.9304 58.5527 72.2215 58.3305 72.5203 58.1466ZM81.1849 57.7712C82.3417 58.4531 84.0348 59.6941 84.1267 59.7554C85.2146 60.5445 86.8081 61.6937 86.7621 61.8852C86.6319 62.4521 86.0267 62.9347 85.115 63.3178C85.1916 63.2029 85.2452 63.0803 85.2759 62.9501C85.3218 62.7509 83.7284 61.6017 82.6405 60.8203C82.5486 60.7514 80.6333 59.3571 79.4918 58.7135C79.4765 58.7059 79.4459 58.6905 79.4152 58.6829V57.9321C79.9975 57.8861 80.595 57.8325 81.1849 57.7712Z" fill="#454545"/>
<path fill-rule="evenodd" clip-rule="evenodd" d="M53.1855 30.0314C50.4888 34.9575 44.4366 35.8078 40.5142 30.1847C38.6373 27.4957 43.3871 25.9175 46.9265 25.0442C43.5939 25.1054 40.836 23.9793 41.7017 18.9613C41.9085 17.7739 42.2762 16.6783 42.7589 15.5752C43.3258 14.2804 43.9157 12.5874 44.9959 11.5991C47.0414 9.74513 52.7948 16.8009 54.1891 22.7535C70.8977 23.918 87.5757 23.9256 104.231 22.493C104.384 23.397 104.506 24.3164 104.583 25.251V29.9319C87.2922 30.5601 70.1699 30.5601 53.1855 30.0314Z" fill="#1F2633"/>
<path fill-rule="evenodd" clip-rule="evenodd" d="M96.1994 44.1509C101.884 44.1509 105.722 31.0199 102.627 30.4224H56.9062C51.2217 30.4224 56.6074 44.5875 62.2919 44.5875C69.9222 43.7295 77.7441 42.0977 84.9301 42.1973C88.9368 42.2509 92.8056 43.5227 96.1994 44.1509Z" fill="#F1C9A7"/>
<path fill-rule="evenodd" clip-rule="evenodd" d="M67.6378 36.2158C69.1317 36.2158 70.3498 37.4109 70.3498 38.8819C70.3498 40.3528 69.1393 41.5479 67.6378 41.5479C66.1439 41.5479 64.9258 40.3528 64.9258 38.8819C64.9258 37.4109 66.1439 36.2158 67.6378 36.2158Z" fill="#1F2633"/>
<path fill-rule="evenodd" clip-rule="evenodd" d="M96.1964 36.2158C97.6903 36.2158 98.9084 37.4109 98.9084 38.8819C98.9084 40.3528 97.6979 41.5479 96.1964 41.5479C94.7025 41.5479 93.4844 40.3528 93.4844 38.8819C93.4844 37.4109 94.6948 36.2158 96.1964 36.2158Z" fill="#1F2633"/>
<path d="M100.258 32.6908L100.702 32.9207L101.04 33.319L101.185 33.8093C101.131 34.2996 101.131 34.3073 100.894 34.744L100.496 35.0734C99.4767 35.602 98.4884 36.1689 97.4235 36.6056C97.0864 36.7435 96.4506 36.9733 96.1212 37.0806C94.9567 37.479 93.7999 37.862 92.6278 38.2374L92.2524 38.2451L91.9919 38.0535L91.9766 37.7318L92.1911 37.433C92.1987 37.4253 92.2064 37.4177 92.2141 37.4177C93.593 36.3681 93.7846 36.2149 95.1176 35.2343C95.3934 35.0274 95.945 34.6367 96.2514 34.4375C97.209 33.8093 98.2356 33.319 99.2545 32.7828L99.7525 32.6372C99.921 32.6525 100.09 32.6679 100.258 32.6908Z" fill="#1F2633"/>
<path d="M65.5457 32.7828C66.5569 33.3114 67.5911 33.8093 68.5488 34.4375C68.8552 34.6367 69.3991 35.0274 69.6826 35.2343C70.6709 35.9621 71.6361 36.6899 72.6091 37.433L72.8236 37.7318L72.8083 38.0535L72.5478 38.2451L72.1724 38.2374C72.1648 38.2374 72.1494 38.2297 72.1418 38.2297C70.487 37.6935 70.2495 37.6169 68.679 37.0806C68.3496 36.9657 67.7137 36.7359 67.3766 36.6056C66.3194 36.1766 65.3235 35.6097 64.3046 35.0811L63.8985 34.7516L63.661 34.315L63.6074 33.817L63.7606 33.319L64.0901 32.9207C64.5344 32.6909 64.5421 32.6908 65.04 32.6372C65.2162 32.6832 65.3771 32.7368 65.5457 32.7828Z" fill="#1F2633"/>
</svg>
