<svg width="91" height="119" viewBox="0 0 91 119" fill="none" xmlns="http://www.w3.org/2000/svg">
<path opacity="0.3" d="M52.3962 118.139C70.8501 118.139 85.8099 115.515 85.8099 112.279C85.8099 109.043 70.8501 106.419 52.3962 106.419C33.9423 106.419 18.9824 109.043 18.9824 112.279C18.9824 115.515 33.9423 118.139 52.3962 118.139Z" fill="#2F3133"/>
<path fill-rule="evenodd" clip-rule="evenodd" d="M74.3616 41.3822C73.6142 43.4548 70.0844 47.8011 69.0418 49.1201C57.0204 64.3824 65.9203 57.5803 72.647 48.4732C75.0148 45.27 75.8502 43.8694 76.6918 41.9663C77.9165 39.2216 75.4984 38.2481 74.3616 41.3822Z" fill="#1F2633"/>
<path fill-rule="evenodd" clip-rule="evenodd" d="M68.369 45.2944L67.7598 45.6964L68.6705 49.1697L72.9728 52.0714L73.6574 51.6506L74.2164 47.9889L68.369 45.2944Z" fill="#5B5B5B"/>
<path fill-rule="evenodd" clip-rule="evenodd" d="M67.7012 45.7085L68.0027 49.5837L72.9896 52.0646L73.5486 48.403L67.7012 45.7085Z" fill="#A0A0A1"/>
<path fill-rule="evenodd" clip-rule="evenodd" d="M69.0326 48.6804C54.3104 66.9261 48.1113 71.643 29.9473 87.7657C29.9473 87.7657 37.5847 86.0825 42.333 83.3001C47.2697 80.4047 71.7584 52.0595 71.9783 50.3134C72.6063 49.5032 70.5588 47.2421 69.0326 48.6804Z" fill="#1F2633"/>
<path fill-rule="evenodd" clip-rule="evenodd" d="M71.884 49.2899C71.815 49.1768 69.6795 53.2217 61.2947 62.5926C56.7474 67.6737 44.9144 80.5682 41.4788 82.7288C37.6349 85.1469 30.3681 87.3703 29.9473 87.766C30.9271 87.3389 36.6049 87.32 42.333 83.2941C47.2697 80.3986 70.3201 53.8874 71.9783 50.3074C72.2295 49.8363 72.1102 49.6667 71.884 49.2899Z" fill="#0D1625"/>
<path fill-rule="evenodd" clip-rule="evenodd" d="M46.3537 90.0793C46.1715 88.9299 45.0975 70.8852 49.224 68.643C50.9261 67.6694 69.6993 67.3303 70.9932 67.6883C73.7002 68.6116 72.0923 88.5844 72.1237 89.8532C72.13 90.0353 72.5759 91.5741 72.5634 92.4094C72.4817 97.8926 71.8411 103.426 70.1892 108.601C69.9192 109.443 67.4634 113.368 66.4333 112.847C65.397 112.32 65.1458 107.552 65.1709 106.748C65.3153 101.674 64.5742 96.5045 63.3181 91.5553C63.2866 91.4359 63.2552 91.3166 63.2238 91.1972C61.013 91.4296 58.62 91.0842 56.0261 90.8644C55.7811 91.8756 55.442 93.3767 55.1719 94.413C54.0037 98.8787 53.1683 103.552 53.4195 107.967C53.4384 108.275 52.8982 110.957 51.8179 111.673C50.857 112.307 48.7529 109.663 48.6022 109.261C47.6726 106.811 47.2078 104.173 46.8373 101.561C46.3788 98.3448 46.0208 91.9384 46.3537 90.0793Z" fill="#2F3133"/>
<path fill-rule="evenodd" clip-rule="evenodd" d="M51.3848 111.759C52.1699 110.736 52.5593 108.745 52.5404 108.487C52.2892 104.078 53.1245 99.4051 54.2928 94.9332C54.5628 93.8969 54.902 92.3958 55.147 91.3846C55.3919 91.4034 55.6369 91.4285 55.8755 91.4474C55.6494 92.3958 55.3856 93.5577 55.1595 94.4056C53.9913 98.8713 53.1559 103.544 53.4072 107.96C53.426 108.267 52.8859 110.949 51.8056 111.665C51.6925 111.753 51.5481 111.778 51.3848 111.759ZM71.5084 85.0787C71.7973 78.71 72.6892 77.0581 72.4317 83.3954C72.2998 86.7431 72.1113 89.4187 72.1239 89.8583C72.1302 90.0405 72.5761 91.5793 72.5636 92.4146C72.4819 97.8977 71.8413 103.431 70.1894 108.606C69.9445 109.379 67.8718 112.727 66.7287 112.89C67.8279 111.879 69.1217 109.731 69.3164 109.128C70.9745 103.952 71.6089 98.419 71.6905 92.9359C71.7031 92.0943 71.2572 90.5555 71.2509 90.3796C71.2383 89.9902 71.3828 87.8673 71.5084 85.0787Z" fill="#454545"/>
<path fill-rule="evenodd" clip-rule="evenodd" d="M46.5907 75.0166C50.2524 73.886 54.6741 73.2266 59.4412 73.2266C64.3151 73.2266 68.831 73.9174 72.5366 75.092C72.6999 81.2346 72.1032 89.073 72.1221 89.8518C72.1284 89.9963 72.4236 91.0389 72.5303 91.8742C69.9552 92.6907 66.997 93.2685 63.7938 93.5512C63.643 92.8791 63.486 92.2134 63.3164 91.5539C63.285 91.4346 63.2536 91.3152 63.2222 91.1959C61.0114 91.4283 58.6184 91.0828 56.0244 90.863C55.836 91.623 55.5973 92.6656 55.3775 93.5763C52.011 93.3062 48.902 92.697 46.2264 91.8365C46.239 91.0891 46.2767 90.4799 46.352 90.0779C46.2264 89.3179 45.7114 81.1089 46.5907 75.0166Z" fill="#2B2B2B"/>
<path fill-rule="evenodd" clip-rule="evenodd" d="M49.5333 111.893C49.3888 110.813 48.968 109.902 48.3337 108.539C50.1677 109.124 52.1273 108.891 53.396 107.428C53.7791 108.879 53.5028 109.4 53.7477 110.085C53.7854 110.191 53.8419 110.336 53.8984 110.518C54.4449 111.309 54.5265 112.559 54.5077 113.181V113.206L54.5014 113.212C54.4951 113.382 54.4763 113.495 54.4637 113.539C54.2627 114.073 49.3574 116.422 47.8061 115.806C47.1906 115.561 47.4795 114.123 48.0071 113.495C48.1201 113.376 49.1753 112.258 49.5333 111.893Z" fill="#1F2633"/>
<path fill-rule="evenodd" clip-rule="evenodd" d="M64.658 110.518C64.7208 110.336 64.771 110.191 64.8087 110.085C65.0537 109.4 64.7773 108.879 65.1604 107.428C66.4291 108.885 68.3825 109.124 70.2227 108.539C69.5947 109.902 69.1738 110.813 69.0294 111.893C69.3937 112.258 70.4426 113.376 70.5493 113.495C71.0832 114.129 71.3721 115.561 70.7503 115.806C69.199 116.422 64.2937 114.073 64.0927 113.539C64.0801 113.495 64.0613 113.382 64.055 113.212L64.0487 113.206V113.181C64.0236 112.565 64.1115 111.309 64.658 110.518Z" fill="#1F2633"/>
<path fill-rule="evenodd" clip-rule="evenodd" d="M56.3338 47.5573C56.4342 47.4945 56.5347 47.4317 56.6352 47.3815C58.3373 46.408 61.6661 46.8099 62.9537 47.1679C63.2301 47.2621 63.519 47.4129 63.8142 47.6076C64.6181 47.9782 65.3718 48.4995 66.1129 48.9956C68.4305 50.547 70.61 52.3056 72.6701 54.1899C72.6701 54.1899 72.8585 54.3783 73.0218 54.5479C74.4538 56.0552 75.7602 57.6254 76.8656 59.2145C77.4874 60.1126 78.059 61.061 78.5928 62.022L78.618 62.0722C80.766 66.0668 82.1729 70.6455 81.1114 75.0044C80.8414 76.1035 80.4268 77.1712 79.849 78.1448C79.849 78.1448 79.6417 78.4525 79.4533 78.6095C79.0325 78.9675 78.3856 79.156 77.8768 78.9424C77.8768 78.9424 77.5942 78.7854 77.456 78.6347C77.2048 78.3583 77.0603 77.9563 77.0352 77.5858C77.0227 77.3471 77.0603 77.1021 77.1106 76.876C77.6759 74.5207 77.0164 71.9205 75.8733 69.8667C74.95 68.2023 73.7441 66.7263 72.3749 65.3382C72.4314 65.7402 72.4816 66.1359 72.5445 66.5253C73.116 70.0614 73.1537 74.2946 73.0155 77.9626C72.9276 80.2677 75.1447 85.9392 75.0002 87.7983C74.8997 89.0859 67.5826 90.7691 59.6249 90.4865C52.7725 90.2415 44.3689 88.5583 44.2495 86.9316C44.0925 84.771 45.6313 81.2223 45.6187 78.7728C45.5936 75.2807 45.7255 71.8263 46.0458 69.3328C44.5887 70.4696 43.0562 71.4746 41.4043 72.2659C38.3519 73.7231 34.7216 74.169 31.5938 72.6868C31.2483 72.5235 31.0473 72.3978 30.8463 72.1906C30.4632 71.7886 30.2497 71.148 30.4444 70.6329C30.4444 70.6329 30.5825 70.344 30.7333 70.1933C31.0787 69.8478 31.3111 69.8478 31.7633 69.7222C31.9706 69.7285 32.1779 69.7097 32.3788 69.7474C35.4062 70.3817 38.3393 68.3844 40.4748 65.9789C41.0589 65.3194 41.6116 64.6222 42.1329 63.9125C42.8175 62.9829 43.4833 62.0345 44.1176 61.0736C44.1176 61.0736 44.8776 59.9493 45.4994 58.9884C45.4994 58.9884 45.7067 58.6806 45.8574 58.4671C46.3599 57.7322 46.8623 56.9974 47.3648 56.2562L47.5281 56.0176C49.3118 53.7188 51.083 51.3761 53.2562 49.4981C54.1857 48.713 55.2032 48.0158 56.3338 47.5573Z" fill="#323940"/>
<path fill-rule="evenodd" clip-rule="evenodd" d="M59.739 63.241C57.7229 65.8852 55.2169 68.0772 52.1958 69.7856C51.3354 70.2755 50.0855 70.9413 48.9487 71.5128C55.3551 72.3356 62.132 72.0781 68.5573 71.0732C65.7812 69.4778 62.3204 66.8148 59.739 63.241ZM32.1224 69.7228C32.2104 69.7228 32.2983 69.7291 32.3862 69.7479C40.0614 72.9197 47.1963 57.9086 46.9765 60.0441C46.6185 63.4923 46.1286 68.2154 46.0281 69.3522L45.9904 69.3774L45.8962 69.4527L45.8522 69.4904L45.758 69.5595L45.7141 69.5972L45.6261 69.6663L45.5759 69.704L45.488 69.773L45.4377 69.8107L45.3498 69.8735L45.2995 69.9112L45.2116 69.974L45.1551 70.0117L45.0734 70.0745L45.0169 70.1122L44.9352 70.1687L44.8787 70.2127L44.7908 70.2755L44.7845 70.2818L44.6526 70.376L44.6338 70.3886L44.5835 70.42L44.5584 70.4388L44.5082 70.4702L44.483 70.4891L44.4391 70.5205L44.4139 70.5393L44.37 70.5707L44.3448 70.5895L44.3009 70.6209L44.2758 70.6398L44.2318 70.6712L44.2067 70.69L44.1627 70.7214L44.1376 70.7403L44.0936 70.7717L44.0685 70.7905L44.0245 70.8219L43.9931 70.8408L43.9492 70.8659L43.9178 70.8847L43.8738 70.9099L43.8424 70.9287L43.7984 70.9538L43.767 70.9727L43.7231 70.9978L43.6916 71.0166L43.6477 71.0418L43.6163 71.0606L43.5723 71.0857L43.5409 71.1046L43.5032 71.1297L43.4718 71.1485L43.4341 71.1737L43.4027 71.1925L43.365 71.2176L43.3336 71.2365L43.296 71.2616L43.2646 71.2804L43.2269 71.3056L43.1955 71.3244L43.1578 71.3495L43.1201 71.3684L43.0824 71.3935L43.0447 71.4123L43.007 71.4374L42.9694 71.4563L42.9317 71.4814L42.894 71.5003L42.8563 71.5254L42.8186 71.5442L42.7809 71.5631L42.7433 71.5819L42.7056 71.6007L42.6679 71.6196L42.6302 71.6384L42.5925 71.6573L42.5548 71.6761L42.5171 71.695L42.4795 71.7138L42.4418 71.7326L42.4041 71.7515L42.3664 71.7703L42.3287 71.7892L42.291 71.808L42.2534 71.8269L42.2157 71.8457L42.178 71.8645L42.1403 71.8834L42.1026 71.9022L42.0649 71.9211L42.0272 71.9399L41.9896 71.9588L41.9519 71.9776L41.9142 71.9964L41.8765 72.0153L41.8325 72.0341L41.7949 72.053L41.7509 72.0718L41.7195 72.0906L41.6755 72.1095L41.6441 72.1283L41.6002 72.1535L41.5687 72.166L41.5185 72.1911L41.4934 72.2288L41.418 72.2665C39.7034 73.0893 37.8003 73.5855 35.9098 73.6043H35.8281C34.3835 73.6043 32.9452 73.328 31.6074 72.6873C31.262 72.524 31.061 72.3984 30.86 72.1911C30.4769 71.7892 30.2633 71.1485 30.458 70.6335C30.458 70.6335 30.5962 70.3446 30.747 70.1939C31.0924 69.8484 31.3248 69.8484 31.777 69.7228H31.8147C31.8398 69.7228 31.8649 69.7228 31.8901 69.7228H31.9277C31.978 69.7228 32.0282 69.7228 32.0848 69.7228H32.1224ZM45.8774 71.0292C46.0469 71.0606 46.2228 71.092 46.3924 71.1234C51.2537 67.7758 55.2922 64.7484 58.1814 60.7601C57.7794 60.0127 57.4277 59.2402 57.1262 58.4362C56.3097 56.2505 54.8777 51.3013 55.2797 49.3793C55.3111 49.2412 55.5812 48.8832 56.4793 48.588C56.6615 48.5314 56.9441 48.4309 56.9567 48.5754C57.3147 52.3564 58.3322 55.6036 59.7014 58.3671C61.1836 55.6915 62.22 52.5763 62.735 48.7261C62.7538 48.5817 63.0302 48.6759 63.2123 48.7387C64.1105 49.0339 64.3805 49.3919 64.4119 49.5301C64.8139 51.452 63.5703 56.4829 62.5654 58.587C62.1571 59.4474 61.7112 60.2702 61.2276 61.0616C64.4685 66.0799 68.7457 69.1198 71.3522 70.5958C71.7353 70.5205 72.1247 70.4451 72.5079 70.3634C72.7717 73.1898 72.7842 76.2548 72.6837 79.0246C72.8345 79.1126 72.9852 79.2005 73.136 79.2947C73.3872 80.8335 74.009 82.8873 74.4612 84.6585C73.965 84.9474 73.45 85.2049 72.9915 85.4499C72.1247 85.9209 71.2643 86.2978 70.3096 86.5553C66.2836 87.6293 65.1656 85.5064 64.9835 82.8245C64.525 85.7325 63.5766 89.6643 61.2527 88.3642C58.0746 86.5867 57.0509 83.6787 57.7983 81.2229C53.6027 81.2794 49.4511 80.9528 45.5068 80.1552C45.5822 79.6716 45.6261 79.2131 45.6261 78.786C45.6073 76.0161 45.6827 73.284 45.8774 71.0292Z" fill="#333536"/>
<path fill-rule="evenodd" clip-rule="evenodd" d="M44.829 70.244C44.6783 70.3507 44.5212 70.4575 44.3705 70.5643C44.5275 70.4449 44.6845 70.3256 44.8353 70.2063L44.829 70.244ZM37.4114 68.6361C35.5648 70.1309 33.3917 71.0856 31.1683 70.6208C30.9673 70.5768 30.76 70.602 30.5528 70.5957C30.5214 70.602 30.49 70.6145 30.4648 70.6208C30.4962 70.5643 30.6156 70.3256 30.7475 70.1937C31.0929 69.8483 31.3253 69.8483 31.7775 69.7227C31.9848 69.7289 32.1921 69.7101 32.393 69.7478C34.1391 70.1121 35.8538 69.597 37.4114 68.6361ZM53.6661 49.1719C54.4763 48.5187 55.3681 47.9472 56.3354 47.5515C56.4359 47.4887 56.5364 47.4259 56.6369 47.3756C58.339 46.4021 61.6678 46.8041 62.9553 47.1621C63.2317 47.2563 63.5206 47.407 63.8158 47.6017C64.6197 47.9723 65.3734 48.4936 66.1146 48.9898C68.4322 50.5411 70.6116 52.2998 72.6717 54.184C72.6717 54.184 72.8601 54.3724 73.0234 54.542C74.4554 56.0494 75.7618 57.6196 76.8673 59.2086C77.4891 60.1068 78.0606 61.0552 78.5945 62.0161L78.6196 62.0664C80.7676 66.061 82.1745 70.6396 81.1131 74.9985C80.843 76.0976 80.4285 77.1654 79.8506 78.1389C79.8506 78.1389 79.6434 78.4467 79.4549 78.6037C79.2288 78.7984 78.9336 78.9428 78.6384 78.9994C79.2163 78.0321 79.6245 76.9644 79.8946 75.8715C80.9561 71.5127 79.5492 66.934 77.4011 62.9394L77.376 62.8892C76.8421 61.9282 76.2769 60.9798 75.6488 60.0817C74.5434 58.4926 73.237 56.9224 71.805 55.415C71.6417 55.2454 71.4532 55.057 71.4532 55.057C69.3931 53.1728 67.2137 51.4142 64.8961 49.8628C64.1612 49.3666 63.4075 48.8453 62.5973 48.4748C62.3021 48.2801 62.0132 48.1293 61.7369 48.0351C60.443 47.6771 57.1205 47.2689 55.4184 48.2424C55.3179 48.2989 55.2174 48.3554 55.1169 48.4182C54.6082 48.6318 54.1246 48.8893 53.6661 49.1719ZM73.7646 88.766C73.7771 88.7346 73.7834 88.7032 73.7834 88.6718C73.9341 86.8127 71.717 81.1411 71.7987 78.8361C71.9368 75.1681 71.8992 70.9348 71.3276 67.3988C71.2648 67.0093 71.2083 66.6074 71.1517 66.2117C71.717 66.7832 72.2509 67.3674 72.7471 67.9766C73.1239 71.1798 73.1365 74.785 73.0171 77.963C72.9292 80.2681 75.1463 85.9396 75.0019 87.7987C74.983 88.1065 74.5371 88.4394 73.7646 88.766Z" fill="#4D5154"/>
<path fill-rule="evenodd" clip-rule="evenodd" d="M60.2009 50.7422L60.3831 50.8238L60.4584 51.0123L60.4459 52.2873L60.4207 54.0145L60.3893 56.0746L60.3579 58.3482L60.2888 63.0337L60.2135 67.0785L60.157 69.9739L60.0879 73.5163L59.9246 81.2479L59.7236 90.3551V90.487L59.6294 90.5812L59.5352 90.4807V90.3551L59.598 81.2479L59.6545 73.51L59.6859 69.9677L59.711 67.0722L59.755 63.0274L59.8241 58.3419L59.9308 50.9997L60.0062 50.8176L60.1946 50.7422H60.2009Z" fill="#1F2633"/>
<path fill-rule="evenodd" clip-rule="evenodd" d="M58.1488 79.8161C53.8716 79.8726 49.6321 79.5334 45.625 78.6981C45.6061 75.3504 45.7255 72.0468 46.0207 69.591C54.6567 71.2554 64.2349 70.7466 72.8584 68.9629C73.1222 71.7892 73.1348 74.8543 73.0343 77.6241C75.1698 78.8614 77.4685 80.5886 76.4259 81.9453C75.7036 82.8874 74.3658 83.4903 73.3483 84.043C72.4816 84.5141 71.6211 84.891 70.6664 85.1485C66.6405 86.2225 65.5225 84.0996 65.3403 81.4177C64.8818 84.3257 63.9334 88.2575 61.6096 86.9573C58.4252 85.1736 57.4014 82.2656 58.1488 79.8161Z" fill="#1F2633"/>
<path fill-rule="evenodd" clip-rule="evenodd" d="M36.1799 69.2837C35.3822 70.4708 36.4751 73.3097 37.2413 73.5107C35.332 73.7493 33.3849 73.5295 31.6075 72.6879C31.5761 72.6753 31.5509 72.6565 31.5195 72.6439C31.9969 71.9467 31.4881 71.0486 32.6626 70.1504C32.9578 70.0123 32.2983 69.8678 32.4931 69.805C33.0458 69.3465 34.2391 69.8364 34.6599 69.7548C35.1749 69.6605 35.6837 69.4972 36.1799 69.2837Z" fill="#1F2633"/>
<path fill-rule="evenodd" clip-rule="evenodd" d="M79.844 18.2195C79.5928 18.5084 80.0513 17.9118 80.0827 17.8741C80.7484 17.0387 81.4896 16.2662 82.2119 15.4811C83.1477 14.4636 87.9211 8.92397 89.5227 11.0971C90.2261 12.0518 90.4334 13.5089 90.6846 14.6395C90.8982 15.6004 91.0175 16.5363 90.9987 17.5224C90.8228 26.1082 81.0311 19.0486 78.9961 19.4192" fill="#1F2633"/>
<path fill-rule="evenodd" clip-rule="evenodd" d="M80.8801 19.3377C80.8487 19.4131 81.4642 19.6015 81.5208 19.6203C82.2242 19.8778 82.9025 20.1919 83.5683 20.5311C85.0255 21.2722 92.8639 24.1174 90.2259 26.7239C85.3834 31.5099 78.8326 27.9738 79.8375 21.3601C79.9631 20.5373 80.541 16.6495 81.4203 16.2476" fill="#1F2633"/>
<path fill-rule="evenodd" clip-rule="evenodd" d="M67.6885 50.1458C63.5746 54.1655 53.2804 51.6217 52.2692 50.4033C53.0543 49.681 54.6684 48.0794 57.4445 47.0996V46.6097C46.5976 45.9125 36.5986 41.4594 38.3761 27.1832V20.6763C39.9149 8.35344 48.1616 0 60.2144 0C72.2672 0 81.0415 8.50418 82.0527 20.6763V27.1832C83.6166 42.1189 73.6238 45.7241 62.9842 46.5657L62.9528 47.0933C64.3283 47.9977 65.0255 48.0919 67.6885 50.1458Z" fill="#2F3133"/>
<path fill-rule="evenodd" clip-rule="evenodd" d="M82.0589 24.5641V27.1832C83.6228 42.1189 73.6301 45.7241 62.9905 46.5657L62.9591 47.0933C64.3346 47.9915 65.0255 48.0857 67.6885 50.1395C63.5746 54.1592 53.2804 51.6155 52.2692 50.397C53.0543 49.6747 54.6684 48.0731 57.4445 47.0933V46.6034C46.5976 45.9062 36.5986 41.4532 38.3761 27.1769V20.6763C39.9149 8.35344 48.1616 0 60.2144 0C60.3714 0 60.5221 0 60.6729 0.00628078C49.2104 0.232389 39.9714 9.9362 39.9714 21.8446C39.9714 33.9037 49.4366 43.6891 61.0937 43.6891C71.8652 43.6954 80.7588 35.342 82.0589 24.5641Z" fill="#2B2B2B"/>
<path fill-rule="evenodd" clip-rule="evenodd" d="M46.5527 4.64778C50.1642 1.68325 54.8057 0 60.2134 0C72.2663 0 81.0405 8.50418 82.0517 20.6763V27.1832C82.9059 35.3168 80.3308 40.0902 76.0913 42.8852C79.4829 39.9897 81.4111 35.4236 80.6574 28.2321V21.7252C79.6462 9.55307 70.8719 1.04889 58.8191 1.04889C54.0834 1.04889 49.9381 2.33645 46.5527 4.64778ZM56.0493 47.6837V48.1485C54.925 48.5442 53.9892 49.0403 53.2229 49.5428C53.9012 48.965 54.8245 48.2804 56.0493 47.6837ZM63.4983 47.4325C64.5597 48.0605 65.3951 48.3746 67.6876 50.1458C67.273 50.554 66.7894 50.8932 66.2618 51.1758C63.6176 49.1408 62.9267 49.0403 61.5575 48.1485L61.5889 47.6209C62.2296 47.5644 62.8639 47.5078 63.4983 47.4325Z" fill="#454545"/>
<path fill-rule="evenodd" clip-rule="evenodd" d="M72.5092 35.4369C77.0879 35.4369 83.5822 24.5083 79.0036 24.5083H42.1919C37.6132 24.5083 41.8967 35.2359 46.4754 35.2359C46.4754 35.2359 55.5386 33.0753 59.8786 33.1067C64.1558 33.1444 72.5092 35.4369 72.5092 35.4369Z" fill="#F1C9A7"/>
<path fill-rule="evenodd" clip-rule="evenodd" d="M49.2712 28.9233C50.4771 28.9233 51.4507 29.9031 51.4507 31.1028C51.4507 32.3087 50.4709 33.2822 49.2712 33.2822C48.0653 33.2822 47.0918 32.3024 47.0918 31.1028C47.0918 29.8969 48.0653 28.9233 49.2712 28.9233Z" fill="#1F2633"/>
<path fill-rule="evenodd" clip-rule="evenodd" d="M72.2634 28.9233C73.4693 28.9233 74.4428 29.9031 74.4428 31.1028C74.4428 32.3087 73.463 33.2822 72.2634 33.2822C71.0575 33.2822 70.084 32.3024 70.084 31.1028C70.084 29.8969 71.0638 28.9233 72.2634 28.9233Z" fill="#1F2633"/>
<path d="M75.5365 26.0337L75.8945 26.2221L76.1646 26.5487L76.2839 26.9507C76.24 27.3527 76.24 27.359 76.0516 27.717L75.7312 27.987C74.9147 28.4204 74.1108 28.8852 73.2566 29.2369C72.9803 29.35 72.4715 29.5384 72.2077 29.6263C71.2719 29.9529 70.3423 30.267 69.4002 30.5747L69.0987 30.581L68.8915 30.424L68.8789 30.1665L69.0485 29.9215C69.0548 29.9152 69.061 29.909 69.0673 29.909C70.179 29.0485 70.3298 28.9229 71.4038 28.1189C71.6299 27.9556 72.0695 27.6353 72.3145 27.4657C73.0807 26.9507 73.9161 26.5487 74.7326 26.1091L75.1346 25.9897C75.2665 26.0023 75.4046 26.0149 75.5365 26.0337Z" fill="#1F2633"/>
<path d="M47.5874 26.1092C48.4039 26.5426 49.2329 26.9508 50.0055 27.4659C50.2504 27.6292 50.6901 27.9495 50.9162 28.1191C51.7138 28.7157 52.4926 29.3124 53.2715 29.9216L53.441 30.1666L53.4285 30.4304L53.2212 30.5874L52.9197 30.5811C52.9135 30.5811 52.9072 30.5748 52.8946 30.5748C51.5631 30.1352 51.3684 30.0787 50.1059 29.6327C49.8422 29.5385 49.3334 29.3564 49.0571 29.2433C48.2029 28.8916 47.4052 28.4268 46.5824 27.9934L46.2558 27.7234L46.0674 27.3654L46.0234 26.9571L46.1428 26.5551L46.4128 26.2348C46.7708 26.0464 46.7771 26.0401 47.1791 26.0024C47.3173 26.0276 47.4555 26.0652 47.5874 26.1092Z" fill="#1F2633"/>
<path fill-rule="evenodd" clip-rule="evenodd" d="M81.7791 18.4155C81.9047 19.1567 81.9989 19.9104 82.0617 20.6766V24.5079C67.3647 25.048 52.8121 25.0166 38.3789 24.5079V20.6703C38.4731 19.9041 38.5987 19.1504 38.7432 18.4155C53.1136 19.5838 67.4589 19.6717 81.7791 18.4155Z" fill="#1F2633"/>
<path d="M63.5612 47.3375C64.4593 47.6327 64.7357 47.9907 64.7608 48.1288C65.1628 50.0508 63.9192 55.0817 62.9142 57.1857C60.6155 61.9905 57.1799 65.759 52.5384 68.3907C50.8991 69.3202 47.8655 70.903 46.8417 71.2233C46.7475 71.2547 46.4523 70.3691 46.3895 70.3063C46.3267 70.2435 46.2011 70.099 46.2702 70.0488C55.258 63.8811 61.5325 58.9192 63.0838 47.3312C63.1027 47.1805 63.3853 47.2809 63.5612 47.3375Z" fill="#1F2633"/>
<path d="M56.8223 47.1869C55.9242 47.4821 55.6478 47.8401 55.6227 47.9783C55.2207 49.9002 56.6465 54.8557 57.4692 57.0352C60.4966 65.106 68.894 70.1746 72.2291 71.2234C72.3233 71.2548 72.6122 69.6847 72.5368 69.647C68.6679 67.6685 58.6061 60.9355 57.2997 47.1806C57.2871 47.0299 57.0045 47.1241 56.8223 47.1869Z" fill="#1F2633"/>
<path fill-rule="evenodd" clip-rule="evenodd" d="M34.8523 71.7949C33.0121 70.5827 29.6204 66.1359 28.5778 64.8106C16.5564 49.5421 21.0849 59.7923 28.358 68.4661C30.9206 71.5185 32.0825 72.6616 33.7344 73.9241C36.1211 75.758 37.6347 73.6289 34.8523 71.7949Z" fill="#1F2633"/>
<path fill-rule="evenodd" clip-rule="evenodd" d="M32.4599 65.0498L32.2086 64.3589L28.6223 64.4405L24.791 67.9327L25.036 68.6989L28.4653 70.0995L32.4599 65.0498Z" fill="#919191"/>
<path fill-rule="evenodd" clip-rule="evenodd" d="M32.2086 64.3016L28.3711 63.6924L24.791 67.957L28.214 69.3576L32.2086 64.3016Z" fill="#BDBDBD"/>
<path fill-rule="evenodd" clip-rule="evenodd" d="M29.0108 64.8992C14.7283 46.3144 11.5942 39.1794 0.181982 17.7368C0.181982 17.7368 0.0249625 25.5501 1.62028 30.826C3.27213 36.3028 25.0853 66.7583 26.7308 67.3801C27.3715 68.1841 30.0471 66.7269 29.0108 64.8992Z" fill="#DDDDDD"/>
<path fill-rule="evenodd" clip-rule="evenodd" d="M27.7491 67.5309C27.8747 67.4932 24.4454 64.4658 17.2979 54.1151C13.4227 48.5064 3.66861 33.9789 2.36849 30.1288C0.917627 25.8265 0.45913 18.2393 0.176495 17.7368C0.358637 18.7857 -0.954046 24.3128 1.61479 30.826C3.26664 36.3028 23.6352 64.9306 26.7254 67.3801C27.1336 67.7381 27.3283 67.6628 27.7491 67.5309Z" fill="white"/>
<path fill-rule="evenodd" clip-rule="evenodd" d="M77.3148 74.6656L77.3211 74.6279C78.4328 75.6077 79.5696 75.815 80.92 75.7145C80.7127 76.3928 80.4426 77.0523 80.116 77.6741C79.9716 77.9442 79.8146 78.1954 79.6513 78.409C79.5885 78.4843 79.5194 78.5534 79.4566 78.6099C79.3875 78.6665 79.3184 78.7167 79.243 78.767C79.2493 78.7795 79.2556 78.7921 79.2619 78.8047C79.2053 79.0559 79.0923 79.3071 78.9101 79.5395C78.2821 80.3372 77.6289 80.1676 76.8249 79.5395C76.021 78.9114 75.7635 78.3524 76.3853 77.5548C76.5548 77.3412 76.7307 77.1654 76.9191 77.0335V77.0083C77.0385 76.9518 77.1138 76.9079 77.1201 76.8702C77.2897 76.1479 77.3462 75.4067 77.3148 74.6656Z" fill="#1F2633"/>
<path d="M75.3561 76.8391C75.488 76.8579 75.6827 76.927 75.9465 77.0024C76.0909 77.0464 76.3736 77.1845 76.6499 77.3604L76.8195 77.6053L76.7693 77.9068L76.5243 78.0827L76.2291 78.0324C75.9779 77.8754 75.7141 77.6619 75.6073 77.5425C75.4189 77.3353 75.2807 77.1845 75.2053 77.0778C75.1677 77.0212 75.1362 76.9207 75.1614 76.8831C75.1865 76.8391 75.2933 76.8265 75.3561 76.8391Z" fill="#F1C9A7"/>
<path d="M76.2507 78.115C76.3575 78.159 76.5396 78.6112 76.5019 78.7117C76.458 78.8122 76.37 78.9252 76.257 78.9566C75.9743 79.0446 75.0762 79.2141 74.7936 79.2518C74.7182 79.2644 74.5989 79.2141 74.5737 79.1639C74.5549 79.1136 74.6177 79.0132 74.6679 78.9503C74.7308 78.875 74.8375 78.7808 74.938 78.7117C75.1453 78.5735 75.6854 78.2155 75.9053 78.115C76.0058 78.071 76.1439 78.071 76.2507 78.115ZM76.728 78.8247C76.8411 78.8373 77.1489 79.2141 77.1426 79.3209C77.1363 79.4277 77.0798 79.5596 76.9856 79.6287C76.7218 79.8108 75.8487 80.2944 75.5787 80.42C75.5096 80.4515 75.384 80.4452 75.3463 80.4012C75.3086 80.3572 75.34 80.2379 75.3714 80.1688C75.4091 80.0746 75.497 79.9427 75.5787 79.8422C75.7482 79.635 76.2067 79.0948 76.4014 78.9252C76.4831 78.8499 76.6087 78.8122 76.728 78.8247ZM78.5369 79.7166C78.6688 79.8297 78.6876 79.8987 78.7253 80.0055C78.7693 80.1437 78.7693 80.2882 78.7756 80.4326C78.8007 80.7843 78.7065 81.1675 78.6688 81.3559C78.6562 81.4313 78.5934 81.538 78.5369 81.5506C78.4867 81.5632 78.3987 81.4752 78.3485 81.4187C78.292 81.3496 78.2229 81.2428 78.1789 81.1423C78.091 80.9351 77.8711 80.3949 77.8209 80.1814C77.7958 80.0683 77.8335 79.9302 77.8963 79.8422C77.9654 79.7417 78.4238 79.6915 78.5369 79.7166ZM77.0923 79.5407C77.1865 79.4842 77.6639 79.6161 77.7141 79.704C77.7644 79.792 77.8021 79.9427 77.7581 80.0495C77.6576 80.3133 77.2619 81.0607 77.1237 81.2868C77.0798 81.3559 76.973 81.4187 76.9227 81.4061C76.8725 81.3936 76.8285 81.2805 76.8097 81.2051C76.7846 81.1172 76.772 80.9853 76.7783 80.8723C76.7908 80.6399 76.8223 80.0369 76.8788 79.8171C76.9039 79.704 76.9981 79.591 77.0923 79.5407Z" fill="#F1C9A7"/>
<path d="M31.879 69.3907C32.3249 69.1709 32.9027 69.196 33.267 69.6608C33.4303 69.8681 33.3487 70.2763 33.0974 70.2637C33.0095 70.2449 33.0283 70.3203 32.6703 70.1632C32.3877 70.0314 32.1239 69.8743 31.8538 69.7173C31.6152 69.5729 31.7533 69.4535 31.879 69.3907ZM30.4721 72.0412C30.246 72.0224 30.1706 71.9344 30.0324 71.7711C29.9508 71.6706 29.9508 71.3629 30.045 70.873C30.0764 70.7034 30.2585 70.2198 30.4407 70.3077C30.7924 70.4647 30.4658 71.0049 30.6605 71.074C30.717 70.9232 30.8238 70.5401 31.0813 70.5778C31.2383 70.6029 31.1944 71.1305 31.2383 71.2749C31.3262 71.1619 31.5147 70.7725 31.7157 70.8165C31.7973 70.8353 31.7722 71.0488 31.7785 71.1242C31.791 71.2561 31.7973 71.388 31.791 71.5136C31.879 71.4445 32.1239 71.1619 32.2998 71.2812C32.4379 71.3754 32.1176 72.5311 32.1176 72.5625C32.1428 72.6065 32.0046 72.9205 31.7282 72.9017C31.6403 72.9017 31.5272 72.8326 31.4833 72.7635C31.3702 72.8012 31.1253 72.707 31.0687 72.6567C31.0436 72.6316 30.9682 72.5185 30.9494 72.4871C30.8615 72.4809 30.7861 72.5185 30.6416 72.3866C30.56 72.3113 30.5097 72.1354 30.4721 72.0412Z" fill="#F1C9A7"/>
</svg>
