<svg width="38" height="38" viewBox="0 0 38 38" fill="none" xmlns="http://www.w3.org/2000/svg">
<path d="M37.0653 18.5257L1.36947 0.628766C1.22439 0.556222 1.05796 0.539153 0.900073 0.577559C0.537354 0.667171 0.311188 1.03416 0.400801 1.40114L4.0792 16.4305C4.13467 16.6567 4.3011 16.8402 4.523 16.9127L10.8258 19.0762L4.52726 21.2397C4.30536 21.3165 4.13894 21.4958 4.08773 21.7219L0.400801 36.7726C0.362395 36.9305 0.379464 37.097 0.452008 37.2378C0.618432 37.5749 1.02809 37.7114 1.36947 37.545L37.0653 19.7505C37.1976 19.6864 37.3043 19.5755 37.3725 19.4475C37.539 19.1061 37.4024 18.6964 37.0653 18.5257ZM4.60834 32.4968L6.75478 23.7233L19.3518 19.4005C19.4499 19.3664 19.531 19.2896 19.5652 19.1872C19.6249 19.008 19.531 18.8159 19.3518 18.7519L6.75478 14.4334L4.61688 5.69403L31.4154 19.1317L4.60834 32.4968V32.4968Z" fill="#5B84FE"/>
</svg>
