<svg width="31" height="31" viewBox="0 0 31 31" fill="none" xmlns="http://www.w3.org/2000/svg">
<path fill-rule="evenodd" clip-rule="evenodd" d="M15.5 31C24.0604 31 31 24.0604 31 15.5C31 6.93957 24.0604 0 15.5 0C6.93957 0 0 6.93957 0 15.5C0 24.0604 6.93957 31 15.5 31Z" fill="#FC91FE"/>
<path d="M25.0948 24.3569V23.2992C25.0948 23.0025 24.9205 22.736 24.6572 22.6312C21.5678 21.3934 18.1382 19.8574 17.8499 18.9001V17.8956C18.4908 17.2165 18.9963 16.2688 19.2955 15.1595C20.0142 14.6369 20.1929 13.5585 19.598 12.7998V10.5523C19.598 8.23096 18.3509 6.64258 15.4999 6.64258C12.7224 6.64258 11.4003 8.23096 11.4003 10.5523V12.8005C10.8067 13.5578 10.985 14.6354 11.7028 15.1595C12.0019 16.2688 12.5078 17.2165 13.1491 17.8956V18.9001C12.8617 19.856 9.43121 21.3927 6.34184 22.6305C6.07856 22.7367 5.9043 23.0017 5.9043 23.2984V24.3569" fill="#FC91FE"/>
<path d="M25.0948 24.3569V23.2992C25.0948 23.0025 24.9205 22.736 24.6572 22.6312C21.5678 21.3934 18.1382 19.8574 17.8499 18.9001V17.8956C18.4908 17.2165 18.9963 16.2688 19.2955 15.1595C20.0142 14.6369 20.1929 13.5585 19.598 12.7998V10.5523C19.598 8.23096 18.3509 6.64258 15.4999 6.64258C12.7224 6.64258 11.4003 8.23096 11.4003 10.5523V12.8005C10.8067 13.5578 10.985 14.6354 11.7028 15.1595C12.0019 16.2688 12.5078 17.2165 13.1491 17.8956V18.9001C12.8617 19.856 9.43121 21.3927 6.34184 22.6305C6.07856 22.7367 5.9043 23.0017 5.9043 23.2984V24.3569" stroke="white"/>
</svg>
