<svg width="32" height="32" viewBox="0 0 32 32" fill="none" xmlns="http://www.w3.org/2000/svg">
<path d="M1 31.0002H7.66667L29.3333 9.33351C30.2174 8.44946 30.714 7.25042 30.714 6.00018C30.714 4.74994 30.2174 3.5509 29.3333 2.66684C28.4493 1.78279 27.2502 1.28613 26 1.28613C24.7498 1.28613 23.5507 1.78279 22.6667 2.66684L1 24.3335V31.0002ZM20.1667 5.16684L26.8333 11.8335Z" fill="#111827"/>
<path d="M20.1667 5.16684L26.8333 11.8335M1 31.0002H7.66667L29.3333 9.33351C30.2174 8.44946 30.714 7.25042 30.714 6.00018C30.714 4.74994 30.2174 3.5509 29.3333 2.66684C28.4493 1.78279 27.2502 1.28613 26 1.28613C24.7498 1.28613 23.5507 1.78279 22.6667 2.66684L1 24.3335V31.0002Z" stroke="black" stroke-width="2" stroke-linecap="round" stroke-linejoin="round"/>
<path d="M16 9.33333L7.66667 1L1 7.66667L9.33333 16M7.66667 9.33333L5.16667 11.8333M22.6667 16L31 24.3333L24.3333 31L16 22.6667M22.6667 24.3333L20.1667 26.8333" stroke="black" stroke-width="2" stroke-linecap="round" stroke-linejoin="round"/>
</svg>
