<svg width="469" height="492" viewBox="0 0 469 492" fill="none" xmlns="http://www.w3.org/2000/svg">
<path d="M234.018 257.501L454.187 185.963C485.179 281.347 451.228 385.838 370.09 444.788L234.018 257.501Z" fill="#CCD9FF" stroke="white" stroke-width="5"/>
<path d="M234.016 257.5L370.088 444.787C288.95 503.738 179.081 503.738 97.9434 444.787L234.016 257.5Z" fill="#91ADFE" stroke="white" stroke-width="5"/>
<path d="M234.016 257.5L97.9441 444.787C-5.49186 369.637 -28.4217 224.864 46.729 121.428C90.2864 61.4761 159.912 26 234.016 26V257.5Z" fill="#EFF3FF" stroke="white" stroke-width="5"/>
<path d="M235.5 234.5V3C335.792 3 424.678 67.5793 455.67 162.963L235.5 234.5Z" fill="#5B84FE" stroke="white" stroke-width="5"/>
<path d="M90.3671 194.149C90.1895 193.574 89.9445 193.059 89.632 192.604C89.3266 192.143 88.9573 191.749 88.5241 191.422C88.0979 191.095 87.6079 190.85 87.0539 190.687C86.4999 190.516 85.8962 190.431 85.2428 190.431C84.0709 190.431 83.0269 190.726 82.1107 191.315C81.1945 191.905 80.4736 192.771 79.9481 193.915C79.4296 195.051 79.1704 196.436 79.1704 198.07C79.1704 199.717 79.4296 201.113 79.9481 202.256C80.4665 203.4 81.1874 204.27 82.1107 204.866C83.034 205.456 84.1064 205.751 85.328 205.751C86.436 205.751 87.3948 205.538 88.2045 205.112C89.0212 204.685 89.6498 204.082 90.0901 203.3C90.5305 202.512 90.7506 201.589 90.7506 200.531L91.6455 200.669H85.7222V197.58H94.5752V200.2C94.5752 202.068 94.1775 203.684 93.382 205.048C92.5866 206.411 91.4928 207.462 90.1008 208.201C88.7087 208.933 87.1107 209.298 85.3067 209.298C83.2968 209.298 81.5319 208.847 80.012 207.945C78.4992 207.036 77.3167 205.747 76.4644 204.078C75.6192 202.402 75.1966 200.413 75.1966 198.112C75.1966 196.351 75.4452 194.778 75.9424 193.393C76.4466 192.008 77.1498 190.832 78.0518 189.866C78.9537 188.893 80.012 188.155 81.2265 187.651C82.441 187.139 83.762 186.884 85.1895 186.884C86.3969 186.884 87.5226 187.061 88.5667 187.416C89.6107 187.764 90.5376 188.261 91.3472 188.908C92.164 189.554 92.8351 190.321 93.3607 191.209C93.8863 192.097 94.2307 193.077 94.3941 194.149H90.3671ZM105.364 209.32C103.766 209.32 102.381 208.968 101.21 208.265C100.038 207.562 99.1286 206.578 98.4823 205.314C97.8431 204.05 97.5235 202.572 97.5235 200.882C97.5235 199.192 97.8431 197.711 98.4823 196.44C99.1286 195.168 100.038 194.181 101.21 193.478C102.381 192.775 103.766 192.423 105.364 192.423C106.962 192.423 108.347 192.775 109.519 193.478C110.691 194.181 111.597 195.168 112.236 196.44C112.882 197.711 113.205 199.192 113.205 200.882C113.205 202.572 112.882 204.05 112.236 205.314C111.597 206.578 110.691 207.562 109.519 208.265C108.347 208.968 106.962 209.32 105.364 209.32ZM105.386 206.23C106.252 206.23 106.977 205.992 107.559 205.516C108.141 205.033 108.575 204.387 108.859 203.577C109.15 202.768 109.296 201.866 109.296 200.871C109.296 199.87 109.15 198.964 108.859 198.155C108.575 197.338 108.141 196.688 107.559 196.205C106.977 195.722 106.252 195.481 105.386 195.481C104.498 195.481 103.759 195.722 103.17 196.205C102.587 196.688 102.151 197.338 101.859 198.155C101.575 198.964 101.433 199.87 101.433 200.871C101.433 201.866 101.575 202.768 101.859 203.577C102.151 204.387 102.587 205.033 103.17 205.516C103.759 205.992 104.498 206.23 105.386 206.23ZM121.187 209.33C120.15 209.33 119.217 209.146 118.386 208.776C117.562 208.4 116.908 207.846 116.425 207.114C115.949 206.383 115.712 205.481 115.712 204.408C115.712 203.485 115.882 202.722 116.223 202.118C116.564 201.514 117.029 201.031 117.619 200.669C118.208 200.307 118.872 200.033 119.611 199.849C120.356 199.657 121.127 199.518 121.922 199.433C122.881 199.334 123.659 199.245 124.256 199.167C124.852 199.082 125.285 198.954 125.555 198.783C125.832 198.606 125.971 198.332 125.971 197.963V197.899C125.971 197.097 125.733 196.475 125.257 196.035C124.781 195.594 124.096 195.374 123.201 195.374C122.256 195.374 121.507 195.58 120.953 195.992C120.406 196.404 120.037 196.891 119.845 197.452L116.244 196.94C116.528 195.946 116.997 195.115 117.65 194.447C118.304 193.773 119.103 193.268 120.047 192.935C120.992 192.594 122.036 192.423 123.18 192.423C123.968 192.423 124.753 192.516 125.534 192.7C126.315 192.885 127.029 193.19 127.675 193.616C128.322 194.036 128.84 194.607 129.231 195.332C129.628 196.056 129.827 196.962 129.827 198.048V209H126.12V206.752H125.992C125.758 207.207 125.427 207.633 125.001 208.031C124.582 208.421 124.053 208.737 123.414 208.979C122.782 209.213 122.04 209.33 121.187 209.33ZM122.189 206.496C122.963 206.496 123.634 206.344 124.202 206.038C124.771 205.726 125.207 205.314 125.513 204.803C125.825 204.291 125.981 203.734 125.981 203.13V201.202C125.861 201.301 125.655 201.393 125.364 201.479C125.079 201.564 124.76 201.638 124.405 201.702C124.05 201.766 123.698 201.823 123.35 201.873C123.002 201.923 122.7 201.965 122.445 202.001C121.869 202.079 121.354 202.207 120.9 202.384C120.445 202.562 120.087 202.81 119.824 203.13C119.561 203.442 119.43 203.847 119.43 204.344C119.43 205.055 119.689 205.591 120.207 205.953C120.726 206.315 121.386 206.496 122.189 206.496ZM137.562 187.182V209H133.705V187.182H137.562ZM157.801 187.182V209H153.848V191.028H153.72L148.617 194.288V190.665L154.04 187.182H157.801Z" fill="#5B84FE"/>
<path d="M108.078 245.626V243.007L115.793 230.818H117.977V234.547H116.645L111.451 242.777V242.919H122.22V245.626H108.078ZM116.751 249V244.827L116.787 243.656V230.818H119.894V249H116.751ZM131.777 249.346C130.315 249.346 129.061 248.976 128.013 248.237C126.971 247.491 126.169 246.417 125.607 245.014C125.051 243.605 124.773 241.91 124.773 239.927C124.779 237.944 125.06 236.257 125.616 234.866C126.178 233.47 126.98 232.404 128.022 231.67C129.069 230.937 130.321 230.57 131.777 230.57C133.233 230.57 134.485 230.937 135.533 231.67C136.58 232.404 137.382 233.47 137.938 234.866C138.501 236.263 138.782 237.95 138.782 239.927C138.782 241.915 138.501 243.614 137.938 245.023C137.382 246.425 136.58 247.497 135.533 248.237C134.491 248.976 133.239 249.346 131.777 249.346ZM131.777 246.567C132.914 246.567 133.81 246.008 134.467 244.89C135.13 243.765 135.462 242.111 135.462 239.927C135.462 238.483 135.311 237.269 135.009 236.287C134.707 235.304 134.281 234.565 133.73 234.067C133.18 233.564 132.529 233.313 131.777 233.313C130.647 233.313 129.753 233.875 129.096 235C128.439 236.118 128.108 237.761 128.102 239.927C128.096 241.377 128.241 242.596 128.537 243.585C128.839 244.573 129.265 245.319 129.815 245.822C130.366 246.319 131.02 246.567 131.777 246.567ZM151.453 245.591V244.632C151.453 243.928 151.601 243.28 151.897 242.688C152.198 242.096 152.636 241.62 153.211 241.259C153.785 240.897 154.48 240.717 155.297 240.717C156.137 240.717 156.842 240.897 157.41 241.259C157.978 241.614 158.407 242.087 158.697 242.679C158.993 243.271 159.141 243.922 159.141 244.632V245.591C159.141 246.295 158.993 246.943 158.697 247.535C158.401 248.127 157.966 248.603 157.392 248.964C156.824 249.326 156.125 249.506 155.297 249.506C154.468 249.506 153.767 249.326 153.193 248.964C152.619 248.603 152.184 248.127 151.888 247.535C151.598 246.943 151.453 246.295 151.453 245.591ZM153.77 244.632V245.591C153.77 246.058 153.882 246.488 154.107 246.878C154.332 247.269 154.729 247.464 155.297 247.464C155.871 247.464 156.265 247.272 156.478 246.887C156.697 246.496 156.806 246.064 156.806 245.591V244.632C156.806 244.159 156.702 243.727 156.495 243.336C156.288 242.939 155.889 242.741 155.297 242.741C154.74 242.741 154.347 242.939 154.116 243.336C153.885 243.727 153.77 244.159 153.77 244.632ZM142.211 235.186V234.227C142.211 233.517 142.362 232.866 142.664 232.274C142.966 231.682 143.403 231.209 143.978 230.854C144.552 230.493 145.247 230.312 146.064 230.312C146.898 230.312 147.6 230.493 148.168 230.854C148.742 231.209 149.174 231.682 149.464 232.274C149.754 232.866 149.899 233.517 149.899 234.227V235.186C149.899 235.896 149.751 236.547 149.455 237.139C149.165 237.725 148.733 238.196 148.159 238.551C147.585 238.906 146.887 239.083 146.064 239.083C145.229 239.083 144.525 238.906 143.951 238.551C143.383 238.196 142.951 237.722 142.655 237.13C142.359 236.538 142.211 235.89 142.211 235.186ZM144.546 234.227V235.186C144.546 235.66 144.655 236.092 144.874 236.482C145.099 236.867 145.496 237.059 146.064 237.059C146.632 237.059 147.023 236.867 147.236 236.482C147.455 236.092 147.564 235.66 147.564 235.186V234.227C147.564 233.754 147.461 233.322 147.254 232.931C147.046 232.535 146.65 232.336 146.064 232.336C145.502 232.336 145.108 232.535 144.883 232.931C144.658 233.328 144.546 233.76 144.546 234.227ZM143.223 249L155.723 230.818H157.942L145.442 249H143.223Z" fill="#26376B"/>
<path d="M293.758 110.149C293.58 109.574 293.335 109.059 293.023 108.604C292.717 108.143 292.348 107.749 291.915 107.422C291.489 107.095 290.998 106.85 290.445 106.687C289.891 106.516 289.287 106.431 288.633 106.431C287.462 106.431 286.418 106.726 285.501 107.315C284.585 107.905 283.864 108.771 283.339 109.915C282.82 111.051 282.561 112.436 282.561 114.07C282.561 115.717 282.82 117.113 283.339 118.256C283.857 119.4 284.578 120.27 285.501 120.866C286.425 121.456 287.497 121.751 288.719 121.751C289.827 121.751 290.785 121.538 291.595 121.112C292.412 120.685 293.04 120.082 293.481 119.3C293.921 118.512 294.141 117.589 294.141 116.531L295.036 116.669H289.113V113.58H297.966V116.2C297.966 118.068 297.568 119.684 296.773 121.048C295.977 122.411 294.883 123.462 293.491 124.201C292.099 124.933 290.501 125.298 288.697 125.298C286.687 125.298 284.922 124.847 283.403 123.945C281.89 123.036 280.707 121.747 279.855 120.078C279.01 118.402 278.587 116.413 278.587 114.112C278.587 112.351 278.836 110.778 279.333 109.393C279.837 108.008 280.54 106.832 281.442 105.866C282.344 104.893 283.403 104.155 284.617 103.651C285.832 103.139 287.153 102.884 288.58 102.884C289.788 102.884 290.913 103.061 291.957 103.416C293.001 103.764 293.928 104.261 294.738 104.908C295.555 105.554 296.226 106.321 296.751 107.209C297.277 108.097 297.621 109.077 297.785 110.149H293.758ZM308.755 125.32C307.157 125.32 305.772 124.968 304.6 124.265C303.428 123.562 302.519 122.578 301.873 121.314C301.234 120.05 300.914 118.572 300.914 116.882C300.914 115.192 301.234 113.711 301.873 112.44C302.519 111.168 303.428 110.181 304.6 109.478C305.772 108.775 307.157 108.423 308.755 108.423C310.353 108.423 311.738 108.775 312.91 109.478C314.082 110.181 314.987 111.168 315.627 112.44C316.273 113.711 316.596 115.192 316.596 116.882C316.596 118.572 316.273 120.05 315.627 121.314C314.987 122.578 314.082 123.562 312.91 124.265C311.738 124.968 310.353 125.32 308.755 125.32ZM308.776 122.23C309.643 122.23 310.367 121.992 310.95 121.516C311.532 121.033 311.965 120.387 312.249 119.577C312.541 118.768 312.686 117.866 312.686 116.871C312.686 115.87 312.541 114.964 312.249 114.155C311.965 113.338 311.532 112.688 310.95 112.205C310.367 111.722 309.643 111.481 308.776 111.481C307.889 111.481 307.15 111.722 306.56 112.205C305.978 112.688 305.541 113.338 305.25 114.155C304.966 114.964 304.824 115.87 304.824 116.871C304.824 117.866 304.966 118.768 305.25 119.577C305.541 120.387 305.978 121.033 306.56 121.516C307.15 121.992 307.889 122.23 308.776 122.23ZM324.578 125.33C323.541 125.33 322.607 125.146 321.776 124.776C320.952 124.4 320.299 123.846 319.816 123.114C319.34 122.383 319.102 121.481 319.102 120.408C319.102 119.485 319.273 118.722 319.614 118.118C319.954 117.514 320.42 117.031 321.009 116.669C321.599 116.307 322.263 116.033 323.001 115.849C323.747 115.657 324.518 115.518 325.313 115.433C326.272 115.334 327.05 115.245 327.646 115.167C328.243 115.082 328.676 114.954 328.946 114.783C329.223 114.606 329.361 114.332 329.361 113.963V113.899C329.361 113.097 329.123 112.475 328.648 112.035C328.172 111.594 327.486 111.374 326.592 111.374C325.647 111.374 324.898 111.58 324.344 111.992C323.797 112.404 323.427 112.891 323.236 113.452L319.635 112.94C319.919 111.946 320.388 111.115 321.041 110.447C321.695 109.773 322.494 109.268 323.438 108.935C324.383 108.594 325.427 108.423 326.57 108.423C327.359 108.423 328.143 108.516 328.925 108.7C329.706 108.885 330.42 109.19 331.066 109.616C331.712 110.036 332.231 110.607 332.621 111.332C333.019 112.056 333.218 112.962 333.218 114.048V125H329.511V122.752H329.383C329.148 123.207 328.818 123.633 328.392 124.031C327.973 124.421 327.444 124.737 326.805 124.979C326.172 125.213 325.43 125.33 324.578 125.33ZM325.579 122.496C326.354 122.496 327.025 122.344 327.593 122.038C328.161 121.726 328.598 121.314 328.903 120.803C329.216 120.291 329.372 119.734 329.372 119.13V117.202C329.251 117.301 329.045 117.393 328.754 117.479C328.47 117.564 328.15 117.638 327.795 117.702C327.44 117.766 327.089 117.823 326.741 117.873C326.393 117.923 326.091 117.965 325.835 118.001C325.26 118.079 324.745 118.207 324.29 118.384C323.836 118.562 323.477 118.81 323.214 119.13C322.952 119.442 322.82 119.847 322.82 120.344C322.82 121.055 323.079 121.591 323.598 121.953C324.116 122.315 324.777 122.496 325.579 122.496ZM340.952 103.182V125H337.096V103.182H340.952ZM352.317 125V122.145L359.891 114.719C360.616 113.988 361.22 113.338 361.703 112.77C362.185 112.202 362.548 111.651 362.789 111.119C363.031 110.586 363.151 110.018 363.151 109.414C363.151 108.725 362.995 108.136 362.683 107.646C362.37 107.148 361.94 106.765 361.394 106.495C360.847 106.225 360.225 106.09 359.529 106.09C358.812 106.09 358.183 106.239 357.644 106.538C357.104 106.829 356.685 107.244 356.386 107.784C356.095 108.324 355.95 108.967 355.95 109.712H352.189C352.189 108.327 352.505 107.124 353.137 106.101C353.769 105.078 354.639 104.286 355.747 103.725C356.862 103.164 358.141 102.884 359.582 102.884C361.046 102.884 362.331 103.157 363.439 103.704C364.547 104.251 365.406 105 366.017 105.952C366.635 106.903 366.944 107.99 366.944 109.212C366.944 110.028 366.788 110.831 366.475 111.619C366.163 112.408 365.612 113.281 364.824 114.24C364.043 115.199 362.945 116.36 361.532 117.724L357.771 121.548V121.697H367.274V125H352.317Z" fill="#EFF3FF"/>
<path d="M317.468 165V162.621L323.78 156.433C324.384 155.823 324.887 155.282 325.289 154.808C325.692 154.335 325.994 153.876 326.195 153.432C326.396 152.988 326.497 152.515 326.497 152.012C326.497 151.438 326.366 150.946 326.106 150.538C325.846 150.124 325.487 149.804 325.032 149.579C324.576 149.354 324.058 149.242 323.478 149.242C322.88 149.242 322.357 149.366 321.907 149.615C321.457 149.857 321.108 150.204 320.859 150.653C320.616 151.103 320.495 151.639 320.495 152.26H317.361C317.361 151.106 317.625 150.103 318.151 149.251C318.678 148.398 319.403 147.739 320.326 147.271C321.256 146.803 322.321 146.57 323.523 146.57C324.742 146.57 325.813 146.797 326.736 147.253C327.66 147.709 328.376 148.333 328.885 149.126C329.4 149.92 329.657 150.825 329.657 151.843C329.657 152.524 329.527 153.192 329.266 153.849C329.006 154.506 328.547 155.234 327.89 156.033C327.239 156.832 326.325 157.8 325.147 158.936L322.013 162.124V162.248H329.932V165H317.468ZM339.716 165.346C338.254 165.346 336.999 164.976 335.951 164.237C334.91 163.491 334.108 162.417 333.546 161.014C332.989 159.605 332.711 157.91 332.711 155.927C332.717 153.944 332.998 152.257 333.554 150.866C334.117 149.47 334.919 148.404 335.96 147.67C337.008 146.937 338.26 146.57 339.716 146.57C341.172 146.57 342.423 146.937 343.471 147.67C344.519 148.404 345.321 149.47 345.877 150.866C346.439 152.263 346.72 153.95 346.72 155.927C346.72 157.915 346.439 159.614 345.877 161.023C345.321 162.425 344.519 163.497 343.471 164.237C342.429 164.976 341.178 165.346 339.716 165.346ZM339.716 162.567C340.852 162.567 341.749 162.008 342.406 160.89C343.069 159.765 343.4 158.111 343.4 155.927C343.4 154.483 343.249 153.269 342.947 152.287C342.645 151.304 342.219 150.565 341.669 150.067C341.118 149.564 340.467 149.313 339.716 149.313C338.585 149.313 337.692 149.875 337.035 151C336.378 152.118 336.046 153.761 336.04 155.927C336.034 157.377 336.179 158.596 336.475 159.585C336.777 160.573 337.203 161.319 337.754 161.822C338.304 162.319 338.958 162.567 339.716 162.567ZM359.391 161.591V160.632C359.391 159.928 359.539 159.28 359.835 158.688C360.137 158.096 360.575 157.62 361.149 157.259C361.723 156.897 362.419 156.717 363.235 156.717C364.076 156.717 364.78 156.897 365.348 157.259C365.916 157.614 366.346 158.087 366.636 158.679C366.931 159.271 367.079 159.922 367.079 160.632V161.591C367.079 162.295 366.931 162.943 366.636 163.535C366.34 164.127 365.905 164.603 365.33 164.964C364.762 165.326 364.064 165.506 363.235 165.506C362.407 165.506 361.705 165.326 361.131 164.964C360.557 164.603 360.122 164.127 359.826 163.535C359.536 162.943 359.391 162.295 359.391 161.591ZM361.708 160.632V161.591C361.708 162.058 361.821 162.488 362.046 162.878C362.271 163.269 362.667 163.464 363.235 163.464C363.809 163.464 364.203 163.272 364.416 162.887C364.635 162.496 364.745 162.064 364.745 161.591V160.632C364.745 160.159 364.641 159.727 364.434 159.336C364.227 158.939 363.827 158.741 363.235 158.741C362.679 158.741 362.285 158.939 362.055 159.336C361.824 159.727 361.708 160.159 361.708 160.632ZM350.149 151.186V150.227C350.149 149.517 350.3 148.866 350.602 148.274C350.904 147.682 351.342 147.209 351.916 146.854C352.49 146.493 353.186 146.312 354.002 146.312C354.837 146.312 355.538 146.493 356.106 146.854C356.681 147.209 357.113 147.682 357.403 148.274C357.693 148.866 357.838 149.517 357.838 150.227V151.186C357.838 151.896 357.69 152.547 357.394 153.139C357.104 153.725 356.672 154.196 356.098 154.551C355.523 154.906 354.825 155.083 354.002 155.083C353.168 155.083 352.464 154.906 351.889 154.551C351.321 154.196 350.889 153.722 350.593 153.13C350.297 152.538 350.149 151.89 350.149 151.186ZM352.484 150.227V151.186C352.484 151.66 352.594 152.092 352.813 152.482C353.038 152.867 353.434 153.059 354.002 153.059C354.571 153.059 354.961 152.867 355.174 152.482C355.393 152.092 355.503 151.66 355.503 151.186V150.227C355.503 149.754 355.399 149.322 355.192 148.931C354.985 148.535 354.588 148.336 354.002 148.336C353.44 148.336 353.047 148.535 352.822 148.931C352.597 149.328 352.484 149.76 352.484 150.227ZM351.161 165L363.661 146.818H365.881L353.381 165H351.161Z" fill="#26376B"/>
<path d="M345.758 278.149C345.58 277.574 345.335 277.059 345.023 276.604C344.717 276.143 344.348 275.749 343.915 275.422C343.489 275.095 342.998 274.85 342.445 274.687C341.891 274.516 341.287 274.431 340.633 274.431C339.462 274.431 338.418 274.726 337.501 275.315C336.585 275.905 335.864 276.771 335.339 277.915C334.82 279.051 334.561 280.436 334.561 282.07C334.561 283.717 334.82 285.113 335.339 286.256C335.857 287.4 336.578 288.27 337.501 288.866C338.425 289.456 339.497 289.751 340.719 289.751C341.827 289.751 342.785 289.538 343.595 289.112C344.412 288.685 345.04 288.082 345.481 287.3C345.921 286.512 346.141 285.589 346.141 284.531L347.036 284.669H341.113V281.58H349.966V284.2C349.966 286.068 349.568 287.684 348.773 289.048C347.977 290.411 346.883 291.462 345.491 292.201C344.099 292.933 342.501 293.298 340.697 293.298C338.687 293.298 336.922 292.847 335.403 291.945C333.89 291.036 332.707 289.747 331.855 288.078C331.01 286.402 330.587 284.413 330.587 282.112C330.587 280.351 330.836 278.778 331.333 277.393C331.837 276.008 332.54 274.832 333.442 273.866C334.344 272.893 335.403 272.155 336.617 271.651C337.832 271.139 339.153 270.884 340.58 270.884C341.788 270.884 342.913 271.061 343.957 271.416C345.001 271.764 345.928 272.261 346.738 272.908C347.555 273.554 348.226 274.321 348.751 275.209C349.277 276.097 349.621 277.077 349.785 278.149H345.758ZM360.755 293.32C359.157 293.32 357.772 292.968 356.6 292.265C355.428 291.562 354.519 290.578 353.873 289.314C353.234 288.05 352.914 286.572 352.914 284.882C352.914 283.192 353.234 281.711 353.873 280.44C354.519 279.168 355.428 278.181 356.6 277.478C357.772 276.775 359.157 276.423 360.755 276.423C362.353 276.423 363.738 276.775 364.91 277.478C366.082 278.181 366.987 279.168 367.627 280.44C368.273 281.711 368.596 283.192 368.596 284.882C368.596 286.572 368.273 288.05 367.627 289.314C366.987 290.578 366.082 291.562 364.91 292.265C363.738 292.968 362.353 293.32 360.755 293.32ZM360.776 290.23C361.643 290.23 362.367 289.992 362.95 289.516C363.532 289.033 363.965 288.387 364.249 287.577C364.541 286.768 364.686 285.866 364.686 284.871C364.686 283.87 364.541 282.964 364.249 282.155C363.965 281.338 363.532 280.688 362.95 280.205C362.367 279.722 361.643 279.481 360.776 279.481C359.889 279.481 359.15 279.722 358.56 280.205C357.978 280.688 357.541 281.338 357.25 282.155C356.966 282.964 356.824 283.87 356.824 284.871C356.824 285.866 356.966 286.768 357.25 287.577C357.541 288.387 357.978 289.033 358.56 289.516C359.15 289.992 359.889 290.23 360.776 290.23ZM376.578 293.33C375.541 293.33 374.607 293.146 373.776 292.776C372.952 292.4 372.299 291.846 371.816 291.114C371.34 290.383 371.102 289.481 371.102 288.408C371.102 287.485 371.273 286.722 371.614 286.118C371.954 285.514 372.42 285.031 373.009 284.669C373.599 284.307 374.263 284.033 375.001 283.849C375.747 283.657 376.518 283.518 377.313 283.433C378.272 283.334 379.05 283.245 379.646 283.167C380.243 283.082 380.676 282.954 380.946 282.783C381.223 282.606 381.361 282.332 381.361 281.963V281.899C381.361 281.097 381.123 280.475 380.648 280.035C380.172 279.594 379.486 279.374 378.592 279.374C377.647 279.374 376.898 279.58 376.344 279.992C375.797 280.404 375.427 280.891 375.236 281.452L371.635 280.94C371.919 279.946 372.388 279.115 373.041 278.447C373.695 277.773 374.494 277.268 375.438 276.935C376.383 276.594 377.427 276.423 378.57 276.423C379.359 276.423 380.143 276.516 380.925 276.7C381.706 276.885 382.42 277.19 383.066 277.616C383.712 278.036 384.231 278.607 384.621 279.332C385.019 280.056 385.218 280.962 385.218 282.048V293H381.511V290.752H381.383C381.148 291.207 380.818 291.633 380.392 292.031C379.973 292.421 379.444 292.737 378.805 292.979C378.172 293.213 377.43 293.33 376.578 293.33ZM377.579 290.496C378.354 290.496 379.025 290.344 379.593 290.038C380.161 289.726 380.598 289.314 380.903 288.803C381.216 288.291 381.372 287.734 381.372 287.13V285.202C381.251 285.301 381.045 285.393 380.754 285.479C380.47 285.564 380.15 285.638 379.795 285.702C379.44 285.766 379.089 285.823 378.741 285.873C378.393 285.923 378.091 285.965 377.835 286.001C377.26 286.079 376.745 286.207 376.29 286.384C375.836 286.562 375.477 286.81 375.214 287.13C374.952 287.442 374.82 287.847 374.82 288.344C374.82 289.055 375.079 289.591 375.598 289.953C376.116 290.315 376.777 290.496 377.579 290.496ZM392.952 271.182V293H389.096V271.182H392.952ZM404.317 293V290.145L411.891 282.719C412.616 281.988 413.22 281.338 413.703 280.77C414.185 280.202 414.548 279.651 414.789 279.119C415.031 278.586 415.151 278.018 415.151 277.414C415.151 276.725 414.995 276.136 414.683 275.646C414.37 275.148 413.94 274.765 413.394 274.495C412.847 274.225 412.225 274.09 411.529 274.09C410.812 274.09 410.183 274.239 409.644 274.538C409.104 274.829 408.685 275.244 408.386 275.784C408.095 276.324 407.95 276.967 407.95 277.712H404.189C404.189 276.327 404.505 275.124 405.137 274.101C405.769 273.078 406.639 272.286 407.747 271.725C408.862 271.164 410.141 270.884 411.582 270.884C413.046 270.884 414.331 271.157 415.439 271.704C416.547 272.251 417.406 273 418.017 273.952C418.635 274.903 418.944 275.99 418.944 277.212C418.944 278.028 418.788 278.831 418.475 279.619C418.163 280.408 417.612 281.281 416.824 282.24C416.043 283.199 414.945 284.36 413.532 285.724L409.771 289.548V289.697H419.274V293H404.317Z" fill="#5B84FE"/>
<path d="M369.468 333V330.621L375.78 324.433C376.384 323.823 376.887 323.282 377.289 322.808C377.692 322.335 377.994 321.876 378.195 321.432C378.396 320.988 378.497 320.515 378.497 320.012C378.497 319.438 378.366 318.946 378.106 318.538C377.846 318.124 377.487 317.804 377.032 317.579C376.576 317.354 376.058 317.242 375.478 317.242C374.88 317.242 374.357 317.366 373.907 317.615C373.457 317.857 373.108 318.204 372.859 318.653C372.616 319.103 372.495 319.639 372.495 320.26H369.361C369.361 319.106 369.625 318.103 370.151 317.251C370.678 316.398 371.403 315.739 372.326 315.271C373.256 314.803 374.321 314.57 375.523 314.57C376.742 314.57 377.813 314.797 378.736 315.253C379.66 315.709 380.376 316.333 380.885 317.126C381.4 317.92 381.657 318.825 381.657 319.843C381.657 320.524 381.527 321.192 381.266 321.849C381.006 322.506 380.547 323.234 379.89 324.033C379.239 324.832 378.325 325.8 377.147 326.936L374.013 330.124V330.248H381.932V333H369.468ZM391.716 333.346C390.254 333.346 388.999 332.976 387.951 332.237C386.91 331.491 386.108 330.417 385.546 329.014C384.989 327.605 384.711 325.91 384.711 323.927C384.717 321.944 384.998 320.257 385.554 318.866C386.117 317.47 386.919 316.404 387.96 315.67C389.008 314.937 390.26 314.57 391.716 314.57C393.172 314.57 394.423 314.937 395.471 315.67C396.519 316.404 397.321 317.47 397.877 318.866C398.439 320.263 398.72 321.95 398.72 323.927C398.72 325.915 398.439 327.614 397.877 329.023C397.321 330.425 396.519 331.497 395.471 332.237C394.429 332.976 393.178 333.346 391.716 333.346ZM391.716 330.567C392.852 330.567 393.749 330.008 394.406 328.89C395.069 327.765 395.4 326.111 395.4 323.927C395.4 322.483 395.249 321.269 394.947 320.287C394.645 319.304 394.219 318.565 393.669 318.067C393.118 317.564 392.467 317.313 391.716 317.313C390.585 317.313 389.692 317.875 389.035 319C388.378 320.118 388.046 321.761 388.04 323.927C388.034 325.377 388.179 326.596 388.475 327.585C388.777 328.573 389.203 329.319 389.754 329.822C390.304 330.319 390.958 330.567 391.716 330.567ZM411.391 329.591V328.632C411.391 327.928 411.539 327.28 411.835 326.688C412.137 326.096 412.575 325.62 413.149 325.259C413.723 324.897 414.419 324.717 415.235 324.717C416.076 324.717 416.78 324.897 417.348 325.259C417.916 325.614 418.346 326.087 418.636 326.679C418.931 327.271 419.079 327.922 419.079 328.632V329.591C419.079 330.295 418.931 330.943 418.636 331.535C418.34 332.127 417.905 332.603 417.33 332.964C416.762 333.326 416.064 333.506 415.235 333.506C414.407 333.506 413.705 333.326 413.131 332.964C412.557 332.603 412.122 332.127 411.826 331.535C411.536 330.943 411.391 330.295 411.391 329.591ZM413.708 328.632V329.591C413.708 330.058 413.821 330.488 414.046 330.878C414.271 331.269 414.667 331.464 415.235 331.464C415.809 331.464 416.203 331.272 416.416 330.887C416.635 330.496 416.745 330.064 416.745 329.591V328.632C416.745 328.159 416.641 327.727 416.434 327.336C416.227 326.939 415.827 326.741 415.235 326.741C414.679 326.741 414.285 326.939 414.055 327.336C413.824 327.727 413.708 328.159 413.708 328.632ZM402.149 319.186V318.227C402.149 317.517 402.3 316.866 402.602 316.274C402.904 315.682 403.342 315.209 403.916 314.854C404.49 314.493 405.186 314.312 406.002 314.312C406.837 314.312 407.538 314.493 408.106 314.854C408.681 315.209 409.113 315.682 409.403 316.274C409.693 316.866 409.838 317.517 409.838 318.227V319.186C409.838 319.896 409.69 320.547 409.394 321.139C409.104 321.725 408.672 322.196 408.098 322.551C407.523 322.906 406.825 323.083 406.002 323.083C405.168 323.083 404.464 322.906 403.889 322.551C403.321 322.196 402.889 321.722 402.593 321.13C402.297 320.538 402.149 319.89 402.149 319.186ZM404.484 318.227V319.186C404.484 319.66 404.594 320.092 404.813 320.482C405.038 320.867 405.434 321.059 406.002 321.059C406.571 321.059 406.961 320.867 407.174 320.482C407.393 320.092 407.503 319.66 407.503 319.186V318.227C407.503 317.754 407.399 317.322 407.192 316.931C406.985 316.535 406.588 316.336 406.002 316.336C405.44 316.336 405.047 316.535 404.822 316.931C404.597 317.328 404.484 317.76 404.484 318.227ZM403.161 333L415.661 314.818H417.881L405.381 333H403.161Z" fill="#26376B"/>
<path d="M204.758 388.149C204.58 387.574 204.335 387.059 204.023 386.604C203.717 386.143 203.348 385.749 202.915 385.422C202.489 385.095 201.998 384.85 201.445 384.687C200.891 384.516 200.287 384.431 199.633 384.431C198.462 384.431 197.418 384.726 196.501 385.315C195.585 385.905 194.864 386.771 194.339 387.915C193.82 389.051 193.561 390.436 193.561 392.07C193.561 393.717 193.82 395.113 194.339 396.256C194.857 397.4 195.578 398.27 196.501 398.866C197.425 399.456 198.497 399.751 199.719 399.751C200.827 399.751 201.785 399.538 202.595 399.112C203.412 398.685 204.04 398.082 204.481 397.3C204.921 396.512 205.141 395.589 205.141 394.531L206.036 394.669H200.113V391.58H208.966V394.2C208.966 396.068 208.568 397.684 207.773 399.048C206.977 400.411 205.883 401.462 204.491 402.201C203.099 402.933 201.501 403.298 199.697 403.298C197.687 403.298 195.922 402.847 194.403 401.945C192.89 401.036 191.707 399.747 190.855 398.078C190.01 396.402 189.587 394.413 189.587 392.112C189.587 390.351 189.836 388.778 190.333 387.393C190.837 386.008 191.54 384.832 192.442 383.866C193.344 382.893 194.403 382.155 195.617 381.651C196.832 381.139 198.153 380.884 199.58 380.884C200.788 380.884 201.913 381.061 202.957 381.416C204.001 381.764 204.928 382.261 205.738 382.908C206.555 383.554 207.226 384.321 207.751 385.209C208.277 386.097 208.621 387.077 208.785 388.149H204.758ZM219.755 403.32C218.157 403.32 216.772 402.968 215.6 402.265C214.428 401.562 213.519 400.578 212.873 399.314C212.234 398.05 211.914 396.572 211.914 394.882C211.914 393.192 212.234 391.711 212.873 390.44C213.519 389.168 214.428 388.181 215.6 387.478C216.772 386.775 218.157 386.423 219.755 386.423C221.353 386.423 222.738 386.775 223.91 387.478C225.082 388.181 225.987 389.168 226.627 390.44C227.273 391.711 227.596 393.192 227.596 394.882C227.596 396.572 227.273 398.05 226.627 399.314C225.987 400.578 225.082 401.562 223.91 402.265C222.738 402.968 221.353 403.32 219.755 403.32ZM219.776 400.23C220.643 400.23 221.367 399.992 221.95 399.516C222.532 399.033 222.965 398.387 223.249 397.577C223.541 396.768 223.686 395.866 223.686 394.871C223.686 393.87 223.541 392.964 223.249 392.155C222.965 391.338 222.532 390.688 221.95 390.205C221.367 389.722 220.643 389.481 219.776 389.481C218.889 389.481 218.15 389.722 217.56 390.205C216.978 390.688 216.541 391.338 216.25 392.155C215.966 392.964 215.824 393.87 215.824 394.871C215.824 395.866 215.966 396.768 216.25 397.577C216.541 398.387 216.978 399.033 217.56 399.516C218.15 399.992 218.889 400.23 219.776 400.23ZM235.578 403.33C234.541 403.33 233.607 403.146 232.776 402.776C231.952 402.4 231.299 401.846 230.816 401.114C230.34 400.383 230.102 399.481 230.102 398.408C230.102 397.485 230.273 396.722 230.614 396.118C230.954 395.514 231.42 395.031 232.009 394.669C232.599 394.307 233.263 394.033 234.001 393.849C234.747 393.657 235.518 393.518 236.313 393.433C237.272 393.334 238.05 393.245 238.646 393.167C239.243 393.082 239.676 392.954 239.946 392.783C240.223 392.606 240.361 392.332 240.361 391.963V391.899C240.361 391.097 240.123 390.475 239.648 390.035C239.172 389.594 238.486 389.374 237.592 389.374C236.647 389.374 235.898 389.58 235.344 389.992C234.797 390.404 234.427 390.891 234.236 391.452L230.635 390.94C230.919 389.946 231.388 389.115 232.041 388.447C232.695 387.773 233.494 387.268 234.438 386.935C235.383 386.594 236.427 386.423 237.57 386.423C238.359 386.423 239.143 386.516 239.925 386.7C240.706 386.885 241.42 387.19 242.066 387.616C242.712 388.036 243.231 388.607 243.621 389.332C244.019 390.056 244.218 390.962 244.218 392.048V403H240.511V400.752H240.383C240.148 401.207 239.818 401.633 239.392 402.031C238.973 402.421 238.444 402.737 237.805 402.979C237.172 403.213 236.43 403.33 235.578 403.33ZM236.579 400.496C237.354 400.496 238.025 400.344 238.593 400.038C239.161 399.726 239.598 399.314 239.903 398.803C240.216 398.291 240.372 397.734 240.372 397.13V395.202C240.251 395.301 240.045 395.393 239.754 395.479C239.47 395.564 239.15 395.638 238.795 395.702C238.44 395.766 238.089 395.823 237.741 395.873C237.393 395.923 237.091 395.965 236.835 396.001C236.26 396.079 235.745 396.207 235.29 396.384C234.836 396.562 234.477 396.81 234.214 397.13C233.952 397.442 233.82 397.847 233.82 398.344C233.82 399.055 234.079 399.591 234.598 399.953C235.116 400.315 235.777 400.496 236.579 400.496ZM251.952 381.182V403H248.096V381.182H251.952ZM263.317 403V400.145L270.891 392.719C271.616 391.988 272.22 391.338 272.703 390.77C273.185 390.202 273.548 389.651 273.789 389.119C274.031 388.586 274.151 388.018 274.151 387.414C274.151 386.725 273.995 386.136 273.683 385.646C273.37 385.148 272.94 384.765 272.394 384.495C271.847 384.225 271.225 384.09 270.529 384.09C269.812 384.09 269.183 384.239 268.644 384.538C268.104 384.829 267.685 385.244 267.386 385.784C267.095 386.324 266.95 386.967 266.95 387.712H263.189C263.189 386.327 263.505 385.124 264.137 384.101C264.769 383.078 265.639 382.286 266.747 381.725C267.862 381.164 269.141 380.884 270.582 380.884C272.046 380.884 273.331 381.157 274.439 381.704C275.547 382.251 276.406 383 277.017 383.952C277.635 384.903 277.944 385.99 277.944 387.212C277.944 388.028 277.788 388.831 277.475 389.619C277.163 390.408 276.612 391.281 275.824 392.24C275.043 393.199 273.945 394.36 272.532 395.724L268.771 399.548V399.697H278.274V403H263.317Z" fill="#EFF3FF"/>
<path d="M228.468 443V440.621L234.78 434.433C235.384 433.823 235.887 433.282 236.289 432.808C236.692 432.335 236.994 431.876 237.195 431.432C237.396 430.988 237.497 430.515 237.497 430.012C237.497 429.438 237.366 428.946 237.106 428.538C236.846 428.124 236.487 427.804 236.032 427.579C235.576 427.354 235.058 427.242 234.478 427.242C233.88 427.242 233.357 427.366 232.907 427.615C232.457 427.857 232.108 428.204 231.859 428.653C231.616 429.103 231.495 429.639 231.495 430.26H228.361C228.361 429.106 228.625 428.103 229.151 427.251C229.678 426.398 230.403 425.739 231.326 425.271C232.256 424.803 233.321 424.57 234.523 424.57C235.742 424.57 236.813 424.797 237.736 425.253C238.66 425.709 239.376 426.333 239.885 427.126C240.4 427.92 240.657 428.825 240.657 429.843C240.657 430.524 240.527 431.192 240.266 431.849C240.006 432.506 239.547 433.234 238.89 434.033C238.239 434.832 237.325 435.8 236.147 436.936L233.013 440.124V440.248H240.932V443H228.468ZM250.716 443.346C249.254 443.346 247.999 442.976 246.951 442.237C245.91 441.491 245.108 440.417 244.546 439.014C243.989 437.605 243.711 435.91 243.711 433.927C243.717 431.944 243.998 430.257 244.554 428.866C245.117 427.47 245.919 426.404 246.96 425.67C248.008 424.937 249.26 424.57 250.716 424.57C252.172 424.57 253.423 424.937 254.471 425.67C255.519 426.404 256.321 427.47 256.877 428.866C257.439 430.263 257.72 431.95 257.72 433.927C257.72 435.915 257.439 437.614 256.877 439.023C256.321 440.425 255.519 441.497 254.471 442.237C253.429 442.976 252.178 443.346 250.716 443.346ZM250.716 440.567C251.852 440.567 252.749 440.008 253.406 438.89C254.069 437.765 254.4 436.111 254.4 433.927C254.4 432.483 254.249 431.269 253.947 430.287C253.645 429.304 253.219 428.565 252.669 428.067C252.118 427.564 251.467 427.313 250.716 427.313C249.585 427.313 248.692 427.875 248.035 429C247.378 430.118 247.046 431.761 247.04 433.927C247.034 435.377 247.179 436.596 247.475 437.585C247.777 438.573 248.203 439.319 248.754 439.822C249.304 440.319 249.958 440.567 250.716 440.567ZM270.391 439.591V438.632C270.391 437.928 270.539 437.28 270.835 436.688C271.137 436.096 271.575 435.62 272.149 435.259C272.723 434.897 273.419 434.717 274.235 434.717C275.076 434.717 275.78 434.897 276.348 435.259C276.916 435.614 277.346 436.087 277.636 436.679C277.931 437.271 278.079 437.922 278.079 438.632V439.591C278.079 440.295 277.931 440.943 277.636 441.535C277.34 442.127 276.905 442.603 276.33 442.964C275.762 443.326 275.064 443.506 274.235 443.506C273.407 443.506 272.705 443.326 272.131 442.964C271.557 442.603 271.122 442.127 270.826 441.535C270.536 440.943 270.391 440.295 270.391 439.591ZM272.708 438.632V439.591C272.708 440.058 272.821 440.488 273.046 440.878C273.271 441.269 273.667 441.464 274.235 441.464C274.809 441.464 275.203 441.272 275.416 440.887C275.635 440.496 275.745 440.064 275.745 439.591V438.632C275.745 438.159 275.641 437.727 275.434 437.336C275.227 436.939 274.827 436.741 274.235 436.741C273.679 436.741 273.285 436.939 273.055 437.336C272.824 437.727 272.708 438.159 272.708 438.632ZM261.149 429.186V428.227C261.149 427.517 261.3 426.866 261.602 426.274C261.904 425.682 262.342 425.209 262.916 424.854C263.49 424.493 264.186 424.312 265.002 424.312C265.837 424.312 266.538 424.493 267.106 424.854C267.681 425.209 268.113 425.682 268.403 426.274C268.693 426.866 268.838 427.517 268.838 428.227V429.186C268.838 429.896 268.69 430.547 268.394 431.139C268.104 431.725 267.672 432.196 267.098 432.551C266.523 432.906 265.825 433.083 265.002 433.083C264.168 433.083 263.464 432.906 262.889 432.551C262.321 432.196 261.889 431.722 261.593 431.13C261.297 430.538 261.149 429.89 261.149 429.186ZM263.484 428.227V429.186C263.484 429.66 263.594 430.092 263.813 430.482C264.038 430.867 264.434 431.059 265.002 431.059C265.571 431.059 265.961 430.867 266.174 430.482C266.393 430.092 266.503 429.66 266.503 429.186V428.227C266.503 427.754 266.399 427.322 266.192 426.931C265.985 426.535 265.588 426.336 265.002 426.336C264.44 426.336 264.047 426.535 263.822 426.931C263.597 427.328 263.484 427.76 263.484 428.227ZM262.161 443L274.661 424.818H276.881L264.381 443H262.161Z" fill="#26376B"/>
<path d="M238 231L452.507 161.369L452.507 183L238.007 253.869L238 231Z" fill="#7C9DFE"/>
</svg>
