<svg width="25" height="25" viewBox="0 0 25 25" fill="none" xmlns="http://www.w3.org/2000/svg">
<path d="M14.25 2.375C14.25 1.87772 14.0525 1.40081 13.7008 1.04917C13.3492 0.697544 12.8723 0.5 12.375 0.5C11.8777 0.5 11.4008 0.697544 11.0492 1.04917C10.6975 1.40081 10.5 1.87772 10.5 2.375V10.5H2.375C1.87772 10.5 1.40081 10.6975 1.04917 11.0492C0.697544 11.4008 0.5 11.8777 0.5 12.375C0.5 12.8723 0.697544 13.3492 1.04917 13.7008C1.40081 14.0525 1.87772 14.25 2.375 14.25H10.5V22.375C10.5 22.8723 10.6975 23.3492 11.0492 23.7008C11.4008 24.0525 11.8777 24.25 12.375 24.25C12.8723 24.25 13.3492 24.0525 13.7008 23.7008C14.0525 23.3492 14.25 22.8723 14.25 22.375V14.25H22.375C22.8723 14.25 23.3492 14.0525 23.7008 13.7008C24.0525 13.3492 24.25 12.8723 24.25 12.375C24.25 11.8777 24.0525 11.4008 23.7008 11.0492C23.3492 10.6975 22.8723 10.5 22.375 10.5H14.25V2.375Z" fill="#00BA73"/>
</svg>
