<svg width="15" height="15" viewBox="0 0 15 15" fill="none" xmlns="http://www.w3.org/2000/svg">
<path d="M8.75 1.625C8.75 1.32663 8.63147 1.04048 8.4205 0.829505C8.20952 0.618526 7.92337 0.5 7.625 0.5C7.32663 0.5 7.04048 0.618526 6.8295 0.829505C6.61853 1.04048 6.5 1.32663 6.5 1.625V6.5H1.625C1.32663 6.5 1.04048 6.61853 0.829505 6.8295C0.618526 7.04048 0.5 7.32663 0.5 7.625C0.5 7.92337 0.618526 8.20952 0.829505 8.4205C1.04048 8.63147 1.32663 8.75 1.625 8.75H6.5V13.625C6.5 13.9234 6.61853 14.2095 6.8295 14.4205C7.04048 14.6315 7.32663 14.75 7.625 14.75C7.92337 14.75 8.20952 14.6315 8.4205 14.4205C8.63147 14.2095 8.75 13.9234 8.75 13.625V8.75H13.625C13.9234 8.75 14.2095 8.63147 14.4205 8.4205C14.6315 8.20952 14.75 7.92337 14.75 7.625C14.75 7.32663 14.6315 7.04048 14.4205 6.8295C14.2095 6.61853 13.9234 6.5 13.625 6.5H8.75V1.625Z" fill="#004E30"/>
</svg>
