<svg width="40" height="40" viewBox="0 0 40 40" fill="none" xmlns="http://www.w3.org/2000/svg">
<path d="M19.9997 3.3335C21.493 3.3335 22.9397 3.53016 24.3163 3.8985L20.773 7.44016C20.5042 7.71005 20.2671 8.00977 20.0663 8.3335H19.9997C17.6922 8.3335 15.4366 9.01773 13.518 10.2997C11.5994 11.5816 10.1041 13.4037 9.22108 15.5355C8.33806 17.6673 8.10702 20.0131 8.55718 22.2762C9.00734 24.5393 10.1185 26.6181 11.7501 28.2497C13.3817 29.8814 15.4605 30.9925 17.7236 31.4427C19.9867 31.8928 22.3325 31.6618 24.4643 30.7788C26.5961 29.8957 28.4182 28.4004 29.7002 26.4818C30.9821 24.5632 31.6663 22.3076 31.6663 20.0002V19.9335C31.9863 19.7335 32.2863 19.4985 32.558 19.2252L36.1013 15.6835C36.4697 17.0602 36.6663 18.5068 36.6663 20.0002C36.6663 29.2052 29.2047 36.6668 19.9997 36.6668C10.7947 36.6668 3.33301 29.2052 3.33301 20.0002C3.33301 10.7952 10.7947 3.3335 19.9997 3.3335ZM19.3097 11.6952C19.3097 13.1135 19.2397 14.5518 19.3163 15.9685L18.4163 16.8685C18.1068 17.1781 17.8612 17.5456 17.6936 17.9501C17.5261 18.3546 17.4398 18.7882 17.4398 19.226C17.4398 19.6638 17.5261 20.0974 17.6936 20.5019C17.8612 20.9064 18.1068 21.2739 18.4163 21.5835C18.7259 21.8931 19.0935 22.1387 19.498 22.3062C19.9025 22.4738 20.336 22.56 20.7738 22.56C21.2117 22.56 21.6452 22.4738 22.0497 22.3062C22.4542 22.1387 22.8218 21.8931 23.1313 21.5835L24.0313 20.6835C25.448 20.7602 26.8847 20.6902 28.3047 20.6902C28.173 22.2741 27.5912 23.7873 26.6277 25.0513C25.6643 26.3154 24.3594 27.2776 22.8671 27.8244C21.3748 28.3713 19.7572 28.4799 18.2051 28.1376C16.6531 27.7953 15.2313 27.0163 14.1074 25.8924C12.9836 24.7686 12.2046 23.3468 11.8622 21.7947C11.5199 20.2426 11.6286 18.6251 12.1754 17.1327C12.7222 15.6404 13.6844 14.3356 14.9485 13.3721C16.2126 12.4087 17.7258 11.8268 19.3097 11.6952V11.6952ZM30.8397 3.54516C31.1439 3.67129 31.4039 3.88472 31.5869 4.15851C31.77 4.4323 31.8678 4.75417 31.868 5.0835V8.1335H34.9163C35.2459 8.13357 35.5681 8.23135 35.8421 8.41449C36.1161 8.59763 36.3297 8.85791 36.4558 9.16241C36.5819 9.46691 36.6149 9.80196 36.5506 10.1252C36.4864 10.4485 36.3277 10.7454 36.0947 10.9785L30.1997 16.8668C29.8872 17.1794 29.4633 17.3551 29.0213 17.3552H24.9997L21.9513 20.4035C21.6386 20.716 21.2145 20.8915 20.7724 20.8913C20.3303 20.8912 19.9064 20.7154 19.5938 20.4027C19.2813 20.0899 19.1058 19.6659 19.106 19.2237C19.1062 18.7816 19.2819 18.3577 19.5947 18.0452L22.643 15.0002V10.9768C22.6428 10.7577 22.6859 10.5407 22.7697 10.3382C22.8535 10.1357 22.9764 9.95176 23.1313 9.79683L29.023 3.90516C29.2561 3.67194 29.5531 3.51309 29.8765 3.44872C30.1998 3.38434 30.5351 3.41732 30.8397 3.5435V3.54516Z" fill="#111827"/>
</svg>
