<svg width="40" height="40" viewBox="0 0 40 40" fill="none" xmlns="http://www.w3.org/2000/svg">
<path d="M35.5117 8.17578L33.3086 9.89844C30.3047 6.05859 25.6328 3.59375 20.3867 3.59375C11.3281 3.59375 3.99611 10.918 3.98439 19.9805C3.97267 29.0508 11.3203 36.4062 20.3867 36.4062C27.4688 36.4062 33.5039 31.9141 35.8008 25.6211C35.8594 25.457 35.7735 25.2734 35.6094 25.2188L33.3945 24.457C33.3173 24.4306 33.2328 24.4354 33.1591 24.4704C33.0854 24.5054 33.0283 24.5679 33 24.6445C32.9297 24.8398 32.8516 25.0352 32.7695 25.2266C32.0938 26.8281 31.125 28.2656 29.8906 29.5C28.6662 30.7267 27.2165 31.7056 25.6211 32.3828C23.9688 33.082 22.207 33.4375 20.3945 33.4375C18.5781 33.4375 16.8203 33.082 15.168 32.3828C13.571 31.7084 12.1208 30.7292 10.8985 29.5C9.67072 28.2757 8.69292 26.8243 8.01955 25.2266C7.32033 23.5703 6.96486 21.8125 6.96486 19.9961C6.96486 18.1797 7.32033 16.4219 8.01955 14.7656C8.69533 13.1641 9.66408 11.7266 10.8985 10.4922C12.1328 9.25781 13.5703 8.28906 15.168 7.60938C16.8203 6.91016 18.582 6.55469 20.3945 6.55469C22.211 6.55469 23.9688 6.91016 25.6211 7.60938C27.2181 8.28377 28.6683 9.26296 29.8906 10.4922C30.2774 10.8789 30.6406 11.2891 30.9766 11.7188L28.625 13.5547C28.5785 13.5907 28.5431 13.6391 28.5228 13.6943C28.5026 13.7495 28.4983 13.8094 28.5106 13.8669C28.5228 13.9244 28.551 13.9773 28.592 14.0195C28.633 14.0618 28.6851 14.0915 28.7422 14.1055L35.6016 15.7852C35.7969 15.832 35.9883 15.6836 35.9883 15.4844L36.0195 8.41797C36.0156 8.16016 35.7149 8.01562 35.5117 8.17578Z" fill="#111827"/>
</svg>
