<svg width="30" height="30" viewBox="0 0 30 30" fill="none" xmlns="http://www.w3.org/2000/svg">
<path d="M25.222 9.88276L19.5858 4.24655C19.357 4.01773 19.0439 3.88525 18.7308 3.88525H10.7341C10.421 3.88525 10.1078 4.01773 9.89107 4.23451L4.24281 9.88276C4.02603 10.0995 3.89355 10.4127 3.89355 10.7258V18.7104C3.89355 19.0356 4.02603 19.3367 4.24281 19.5655L9.87902 25.2017C10.1078 25.4305 10.421 25.563 10.7341 25.563H18.7187C19.0439 25.563 19.345 25.4305 19.5738 25.2137L25.21 19.5775C25.3222 19.4654 25.4108 19.332 25.4708 19.1852C25.5308 19.0384 25.5608 18.8811 25.5593 18.7225V10.7258C25.5713 10.4127 25.4388 10.0995 25.222 9.88276V9.88276ZM23.1627 18.2167L18.225 23.1544H11.2399L6.30219 18.2167V11.2316L11.2399 6.29389H18.225L23.1627 11.2316V18.2167V18.2167Z" fill="white"/>
<path d="M14.7317 20.746C15.3968 20.746 15.936 20.2068 15.936 19.5417C15.936 18.8766 15.3968 18.3374 14.7317 18.3374C14.0665 18.3374 13.5273 18.8766 13.5273 19.5417C13.5273 20.2068 14.0665 20.746 14.7317 20.746Z" fill="white"/>
<path d="M14.7317 8.70264C14.0693 8.70264 13.5273 9.24458 13.5273 9.90696V15.9286C13.5273 16.5909 14.0693 17.1329 14.7317 17.1329C15.394 17.1329 15.936 16.5909 15.936 15.9286V9.90696C15.936 9.24458 15.394 8.70264 14.7317 8.70264Z" fill="white"/>
</svg>
