<svg width="28" height="25" viewBox="0 0 28 25" fill="none" xmlns="http://www.w3.org/2000/svg">
<path d="M5.95215 1.729V4.16922H1.62109V6.55832C1.62109 10.5572 2.80926 12.7866 5.66469 14.1728C6.72624 14.7436 7.70603 15.4548 8.57761 16.2872C9.27814 17.0345 10.1325 17.6207 11.0817 18.0056L12.1613 18.3378V21.2315H10.5132C8.52012 21.2315 7.84938 21.6851 7.84938 23.0329V23.94H20.306V23.1288C20.306 21.8065 19.4883 21.2124 17.5974 21.2124H15.9941V18.3378L17.0928 18.012C18.0434 17.6267 18.8981 17.038 19.5969 16.2872C20.5062 15.4206 21.5239 14.6755 22.6248 14.0706C23.4796 13.6593 24.2429 13.0803 24.8695 12.3681C25.4961 11.6559 25.9732 10.825 26.2723 9.92479C26.4757 8.8102 26.5698 7.67842 26.5534 6.54555V4.1756H22.2032V1.729H5.95215ZM14.0777 5.79815L15.3872 8.50666H18.5429L16.0707 10.7872L16.7798 13.7001L14.0777 12.25L11.3756 13.7193L12.0846 10.8063L9.60608 8.52582H12.7681L14.0777 5.79815ZM3.89522 6.60943H5.91382V11.6432C5.70302 11.7709 5.04505 11.0044 4.56596 10.1292C4.29396 9.4592 4.1197 8.75356 4.04853 8.03395L3.89522 6.60943ZM22.2415 6.60943H24.439L24.2537 8.01478C24.2102 9.18467 23.7398 10.2981 22.9314 11.1449C22.7412 11.4041 22.4999 11.6215 22.2224 11.7837L22.2415 6.60943Z" stroke="#5B84FE" stroke-width="1.53312" stroke-linecap="round" stroke-linejoin="round"/>
</svg>
