<svg width="21" height="10" viewBox="0 0 21 10" fill="none" xmlns="http://www.w3.org/2000/svg">
<path d="M9.81779 9.36374C9.9121 9.44936 10.0383 9.51936 10.1855 9.56772C10.3327 9.61608 10.4966 9.64134 10.6629 9.64134C10.8292 9.64134 10.993 9.61608 11.1402 9.56772C11.2874 9.51936 11.4136 9.44936 11.5079 9.36374L20.7607 1.0106C20.8678 0.914256 20.9306 0.801408 20.9422 0.684319C20.9539 0.567229 20.9141 0.450377 20.827 0.346458C20.7398 0.242539 20.6088 0.155528 20.4482 0.0948774C20.2875 0.0342271 20.1033 0.00225742 19.9156 0.0024422H1.41016C1.22289 0.00292566 1.03937 0.0353064 0.879341 0.0961021C0.719312 0.156898 0.588828 0.243808 0.501921 0.347487C0.415013 0.451165 0.37497 0.56769 0.386098 0.684528C0.397226 0.801367 0.459103 0.914099 0.565077 1.0106L9.81779 9.36374Z" fill="#5F88F7"/>
</svg>
