<svg width="37" height="46" viewBox="0 0 37 46" fill="none" xmlns="http://www.w3.org/2000/svg">
<path opacity="0.3" d="M18.4999 45.8735C27.04 45.8735 33.9632 44.7507 33.9632 43.3657C33.9632 41.9807 27.04 40.8579 18.4999 40.8579C9.95977 40.8579 3.03662 41.9807 3.03662 43.3657C3.03662 44.7507 9.95977 45.8735 18.4999 45.8735Z" fill="#2F3133"/>
<path fill-rule="evenodd" clip-rule="evenodd" d="M12.6568 35.6145C12.0762 33.3191 12.7939 30.5317 14.0303 28.1799C14.7614 27.7767 22.6879 29.4915 23.2416 29.6394C23.8786 32.3272 24.4807 33.3701 23.7093 35.5957C23.7093 35.5957 23.7926 35.8618 23.8491 36.0876C24.142 37.2622 24.1367 38.5013 23.7442 39.657C23.212 41.2214 21.9272 42.4578 20.3306 42.8852C20.078 42.9524 19.2447 41.3531 19.4571 41.2348C20.2177 40.8128 20.7392 40.0199 20.7768 39.1625C20.8145 38.3427 20.0269 36.6278 19.6479 36.3322C18.7314 36.4988 17.7637 36.5203 16.7235 36.3187C16.2424 36.7998 15.5677 38.3266 15.5866 39.0845C15.6134 40.079 16.2666 40.9929 17.2262 41.3907C17.3256 41.4525 16.6456 43.0142 16.3822 42.9631C14.6915 42.6352 13.2669 41.3827 12.6649 39.7726C12.1757 38.4529 12.2294 36.9477 12.6568 35.6145Z" fill="#2F3133"/>
<path fill-rule="evenodd" clip-rule="evenodd" d="M14.7479 28.123C16.8874 28.2332 22.7685 29.51 23.2415 29.6363C23.8785 32.3242 24.4806 33.3671 23.7092 35.5926C23.7092 35.5926 23.7764 35.8103 23.8328 36.0173C22.833 36.5818 21.5939 36.9957 20.215 37.2027C20.0134 36.786 19.8011 36.4474 19.6505 36.3318C18.734 36.4984 17.7663 36.5199 16.7261 36.3183C16.5487 36.4957 16.3445 36.8183 16.159 37.1892C14.7801 36.9715 13.5437 36.5468 12.5546 35.9689C12.5868 35.8507 12.6218 35.7324 12.6567 35.6141C12.0949 33.3886 12.7508 30.7034 13.9173 28.3972C14.1861 28.2951 14.463 28.2037 14.7479 28.123Z" fill="#2B2B2B"/>
<path fill-rule="evenodd" clip-rule="evenodd" d="M19.1318 36.4077C19.1103 36.4103 19.0915 36.413 19.07 36.4157C19.0888 36.413 19.1076 36.4077 19.1264 36.405L19.1318 36.4077ZM23.5023 33.0075C23.3813 32.091 23.8625 31.8894 23.9995 32.7549C24.1393 33.6445 24.1017 34.467 23.7093 35.5959C23.7093 35.5959 23.7926 35.862 23.849 36.0878C24.142 37.2624 24.1366 38.5015 23.7442 39.6573C23.212 41.2216 21.9272 42.458 20.3306 42.8854C20.2983 42.8935 20.2553 42.8747 20.207 42.8343C21.6154 42.3183 22.7336 41.1652 23.2201 39.7299C23.6125 38.5741 23.6179 37.335 23.3249 36.1604C23.2684 35.9373 23.1851 35.6685 23.1851 35.6685C23.5534 34.6175 23.6098 33.8273 23.5023 33.0075ZM16.0703 42.8881C16.3768 42.5064 16.788 41.5119 16.7074 41.4635C15.7478 41.0657 15.0946 40.1519 15.0678 39.1573C15.049 38.3994 15.7236 36.8727 16.2047 36.3915C16.3391 36.4184 16.4708 36.4399 16.6025 36.4587C16.1375 37.0474 15.5731 38.3886 15.5919 39.0821C15.6188 40.0766 16.2719 40.9905 17.2315 41.3883C17.3309 41.4501 16.6509 43.0117 16.3875 42.9607C16.2773 42.9392 16.1725 42.915 16.0703 42.8881Z" fill="#454545"/>
<path fill-rule="evenodd" clip-rule="evenodd" d="M21.5059 42.3503C20.807 41.9256 20.0867 41.4929 20.213 40.7026C19.748 41.1058 19.7964 40.9661 19.6163 41.1757C19.4255 41.2456 18.939 41.4095 18.3826 41.767C18.224 42.7239 18.9417 43.0276 19.6593 43.4093C19.8609 43.2158 20.0061 43.0276 20.1942 42.9228C20.5598 42.7212 20.9764 42.6675 21.5059 42.3503Z" fill="#1F2633"/>
<path fill-rule="evenodd" clip-rule="evenodd" d="M20.0942 43.5516C20.1076 43.479 20.1883 43.0597 20.1936 42.9387C20.1936 42.9387 19.6695 43.0973 19.5217 42.9763C19.2851 42.7828 18.9841 42.2668 18.9706 41.9765C18.9599 41.7426 19.4357 41.2427 19.4357 41.2427C18.9035 41.2911 18.3283 41.7964 18.2852 41.8689C18.2073 42.0033 18.4277 42.9656 18.761 43.7155C18.8363 43.8822 19.4975 44.71 20.4597 44.2316C20.6291 44.2101 20.6452 43.6349 20.0942 43.5516Z" fill="#1F2633"/>
<path fill-rule="evenodd" clip-rule="evenodd" d="M14.8584 42.3503C15.5572 41.9256 16.2776 41.4929 16.1513 40.7026C16.6163 41.1058 16.5679 40.9661 16.748 41.1757C16.9388 41.2456 17.4253 41.4095 17.9817 41.767C18.1403 42.7239 17.4226 43.0276 16.705 43.4093C16.5034 43.2158 16.3582 43.0276 16.1701 42.9228C15.8045 42.7212 15.3879 42.6675 14.8584 42.3503Z" fill="#1F2633"/>
<path fill-rule="evenodd" clip-rule="evenodd" d="M16.2689 43.5516C16.2555 43.479 16.1749 43.0597 16.1695 42.9387C16.1695 42.9387 16.6936 43.0973 16.8415 42.9763C17.078 42.7828 17.379 42.2668 17.3925 41.9765C17.4032 41.7426 16.9275 41.2427 16.9275 41.2427C17.4597 41.2911 18.0349 41.7964 18.0779 41.8689C18.1558 42.0033 17.9354 42.9656 17.6021 43.7155C17.5269 43.8822 16.8656 44.71 15.9034 44.2316C15.7341 44.2101 15.7179 43.6349 16.2689 43.5516Z" fill="#1F2633"/>
<path fill-rule="evenodd" clip-rule="evenodd" d="M16.1367 19.1593C16.419 18.8797 16.7012 18.6539 16.9807 18.5061C17.7118 18.1029 19.1364 18.2696 19.6901 18.4201C20.0341 18.533 20.4185 18.8313 20.8109 19.2641C20.8486 19.1781 20.8889 19.1431 20.9346 19.1727C21.5689 19.5893 22.1172 20.1511 22.6064 20.6967C23.0607 21.2047 23.488 21.7315 23.9127 22.2637L23.9181 22.2718C24.195 22.6642 24.4691 23.0567 24.746 23.4464C24.746 23.4464 25.1438 24.0243 25.4502 24.4705C26.1222 25.4462 26.8129 26.4165 27.7591 27.1691C28.4875 27.7497 29.3933 28.1367 30.3636 27.962C30.834 27.8787 31.1404 28.0803 31.2345 28.3195C31.2345 28.3195 31.2721 28.4512 31.264 28.5399C31.2533 28.6958 31.17 28.8544 31.0598 28.9646C30.9281 29.099 30.756 29.1689 30.5786 29.2414C29.3637 29.7387 27.9391 29.5962 26.7054 29.0721C25.6894 28.6394 24.7702 27.9835 23.9423 27.3008C23.8778 27.2497 23.816 27.196 23.7541 27.1422C23.7568 27.1906 23.7595 27.2363 23.7622 27.282C23.7891 27.7362 24.246 32.5475 23.9961 35.1359C20.7572 36.8051 15.1584 36.4449 12.2044 35.0875C11.6641 32.948 12.1721 29.271 12.4839 27.5723C11.8469 28.0561 11.1803 28.4835 10.4573 28.8168C9.15098 29.4215 7.5947 29.6043 6.25614 28.9915C6.10831 28.9243 6.0223 28.8732 5.93629 28.7845C5.82609 28.6716 5.74545 28.5157 5.73201 28.3598C5.72663 28.2711 5.76158 28.1394 5.76158 28.1394C5.8019 28.0803 5.83146 28.0104 5.88522 27.9593C5.99811 27.8491 6.16744 27.7819 6.32602 27.7658C6.50073 27.747 6.67007 27.7981 6.85016 27.8169C8.08389 27.9513 9.24236 27.1019 10.0568 26.2176C10.6374 25.5859 11.14 24.8871 11.6184 24.1883C11.6184 24.1883 11.9437 23.7233 12.2098 23.3255C12.2098 23.3255 12.2985 23.1991 12.363 23.1104C12.578 22.8067 12.793 22.5003 13.0081 22.1965L13.0779 22.0971C13.8413 21.1456 14.5993 20.1753 15.532 19.3985C15.6852 19.2722 15.8438 19.1512 16.0077 19.0383C16.0615 18.9953 16.1045 19.0464 16.1367 19.1593Z" fill="#323940"/>
<path d="M17.9922 25.6347C16.8848 26.7341 15.5543 27.5727 14.4039 28.1345C16.5085 28.5323 19.3227 28.5457 21.3225 28.0995C20.2581 27.5297 19.0324 26.6965 17.9922 25.6347ZM7.0714 29.2607C7.0499 29.1532 7.04452 29.043 7.06065 28.9354C7.13322 28.4113 7.80787 28.3871 8.20568 28.2581C9.2862 27.9087 10.1947 27.3254 11.1059 26.6669C11.6811 26.253 12.2563 25.831 12.6003 25.1966C12.7885 24.8526 13.0062 24.5273 13.2132 24.194C13.2185 24.1833 13.2857 24.065 13.3019 24.0731C13.4524 24.1484 13.3234 24.651 13.3072 24.737C13.189 25.3686 13.0223 25.9949 12.8422 26.6104C12.7697 26.8604 12.7186 27.1184 12.6622 27.3711C12.6514 27.4249 12.5681 27.6963 12.5681 27.6775L12.4068 27.9893C12.431 27.8388 12.4579 27.699 12.4794 27.57C11.8424 28.0538 11.1758 28.4812 10.4527 28.8145C9.41253 29.2983 8.2003 29.5106 7.0714 29.2607ZM12.4014 28.0592C12.5466 27.9463 12.6917 27.828 12.8369 27.7098C12.9444 27.7501 13.0573 27.7904 13.1755 27.828C14.3367 27.2582 15.9091 26.2879 17.2611 24.8015C16.8257 24.2478 16.4494 23.6457 16.1698 22.9953C15.8419 22.2373 15.3124 20.6756 15.2559 19.7134C15.5785 19.7644 15.9064 19.8075 16.237 19.8397C16.5569 21.4363 17.2073 22.7829 18.0029 23.9011C18.8281 22.791 19.5055 21.4444 19.8549 19.837C20.164 19.8075 20.4731 19.7698 20.7768 19.7268C20.8306 20.6111 20.1075 22.4738 19.6963 23.3151C19.4329 23.8527 19.105 24.3553 18.7314 24.8176C19.9543 26.2153 21.3601 27.1749 22.4299 27.7662C22.7067 27.656 22.9486 27.5351 23.1502 27.398C23.2685 27.5028 23.3867 27.6076 23.505 27.7098C23.5803 28.621 23.7173 30.3036 23.7577 31.6099C23.8544 31.6636 23.9512 31.7201 24.048 31.7792C24.0748 32.6151 24.0856 33.4618 24.0587 34.2117C24.0103 34.2359 23.9619 34.2601 23.9162 34.2843C23.5453 34.4778 23.1744 34.6364 22.7658 34.7412C21.0402 35.1847 20.5645 34.3058 20.4838 33.1957C20.2876 34.3999 19.8818 36.0287 18.8846 35.4885C17.7718 34.8864 17.2745 33.9725 17.3068 33.1016C15.471 33.0586 13.5599 32.7764 11.9768 32.1958C12.0144 30.7014 12.2213 29.1397 12.4014 28.0592Z" fill="#333536"/>
<path fill-rule="evenodd" clip-rule="evenodd" d="M15.6166 19.3232C15.7456 19.2211 15.8773 19.1216 16.0144 19.0276C16.052 19.0034 16.0843 19.0222 16.1112 19.0813C15.9714 19.1915 15.829 19.3152 15.6892 19.4549C15.6677 19.385 15.6435 19.3394 15.6166 19.3232ZM8.69268 27.3465C8.01802 27.8491 7.22779 28.1959 6.40799 28.1072C6.2279 28.0883 6.05856 28.0373 5.88385 28.0561C5.85966 28.0588 5.83278 28.0615 5.80859 28.0668C5.83278 28.0265 5.85697 27.9835 5.89192 27.9513C6.00481 27.8411 6.17415 27.7739 6.33273 27.7577C6.50744 27.7389 6.67677 27.79 6.85686 27.8088C7.50195 27.8787 8.12822 27.6798 8.69268 27.3465ZM12.0337 27.8975C11.8912 27.997 11.7461 28.0937 11.5983 28.1878C11.7461 28.083 11.8939 27.9755 12.0391 27.8653L12.0337 27.8975ZM16.5251 18.8098C16.6783 18.6889 16.8315 18.5867 16.982 18.5061C17.7131 18.1029 19.1377 18.2696 19.6914 18.4201C20.0355 18.533 20.4198 18.8313 20.8123 19.2641C20.8499 19.1781 20.8902 19.1431 20.9359 19.1727C21.5702 19.5893 22.1186 20.1511 22.6077 20.6967C23.062 21.2047 23.4894 21.7315 23.9141 22.2637L23.9194 22.2718C24.1963 22.6642 24.4704 23.0567 24.7473 23.4464C24.7473 23.4464 25.1451 24.0243 25.4515 24.4705C26.1235 25.4462 26.8143 26.4165 27.7604 27.1691C28.4888 27.7497 29.3946 28.1367 30.3649 27.962C30.8353 27.8787 31.1417 28.0803 31.2358 28.3195C31.2358 28.3195 31.2734 28.4512 31.2654 28.5399C31.2546 28.6958 31.1713 28.8544 31.0611 28.9646C30.9509 29.0775 30.8111 29.1447 30.6633 29.2065C30.7466 29.1017 30.8057 28.97 30.8165 28.8383C30.8219 28.7496 30.7869 28.6179 30.7869 28.6179C30.6955 28.3786 30.3864 28.1744 29.9161 28.2604C28.9457 28.4351 28.0399 28.048 27.3115 27.4675C26.3654 26.7122 25.6746 25.7445 25.0026 24.7688C24.6962 24.3226 24.2984 23.7448 24.2984 23.7448C24.0216 23.355 23.7447 22.9626 23.4706 22.5702L23.4652 22.5621C23.0378 22.0326 22.6104 21.5031 22.1589 20.9951C21.6697 20.4494 21.1214 19.885 20.487 19.4711C20.4413 19.4415 20.401 19.4764 20.3634 19.5624C19.971 19.1297 19.5866 18.8313 19.2425 18.7185C18.6888 18.5706 17.2643 18.4013 16.5332 18.8045L16.5251 18.8098ZM23.5593 35.3402C23.7904 32.733 23.3442 28.0265 23.3173 27.5777C23.3147 27.532 23.312 27.4863 23.3093 27.4379C23.3711 27.4916 23.4356 27.5427 23.4974 27.5965C23.5996 27.6825 23.7044 27.7658 23.8119 27.8518C23.9275 29.2979 24.2097 32.9829 24.0028 35.1332C23.8576 35.2058 23.7125 35.2757 23.5593 35.3402Z" fill="#4D5154"/>
<path d="M21.0001 19.1294C21.0538 20.0137 20.3308 21.8764 19.9196 22.7177C18.3095 26.0157 14.1863 27.9456 12.5682 28.3111C12.5226 28.3219 12.415 27.6634 12.4527 27.6472C14.275 26.9323 18.9331 24.5078 20.0781 19.2369C20.3872 19.2073 20.6964 19.1724 21.0001 19.1294Z" fill="#1F2633"/>
<path d="M15.479 19.1162C15.8015 19.1673 16.1295 19.2103 16.4601 19.2425C17.4788 24.3387 21.8681 26.8761 23.6152 27.6556C23.6528 27.6717 23.5103 28.3248 23.4673 28.3141C21.8681 27.8786 17.8416 25.766 16.3929 22.3981C16.065 21.6401 15.5354 20.0785 15.479 19.1162Z" fill="#1F2633"/>
<path fill-rule="evenodd" clip-rule="evenodd" d="M18.5031 18.5142L18.5837 18.5518L18.6133 18.6324L18.5998 19.2023L18.5837 19.9764L18.5622 20.901L18.538 21.9197L18.487 24.0189L18.4386 25.8305L18.4009 27.1288L18.3552 28.7119L18.2504 32.1793L18.1241 36.2568V36.3159L18.0811 36.3562L18.0435 36.3132V36.2568L18.1107 32.1766L18.1698 28.7092L18.1993 27.1234L18.2235 25.8252L18.2585 24.0135L18.3096 21.9143L18.3875 18.627L18.4224 18.5464L18.5031 18.5142Z" fill="#1F2633"/>
<path fill-rule="evenodd" clip-rule="evenodd" d="M7.79716 27.7306C7.95844 27.7091 8.1224 27.6688 8.29174 27.6069C7.81599 28.0289 8.32399 29.2438 8.67072 29.3272C7.85361 29.4266 7.02038 29.3352 6.25702 28.9858C6.10919 28.9186 6.02318 28.8675 5.93717 28.7788C5.85922 28.6982 5.79471 28.5961 5.75977 28.4886C5.80546 28.3192 5.83503 28.1606 5.82965 28.0289C5.84578 28.002 5.8646 27.9752 5.88879 27.9537C6.00168 27.8435 6.17101 27.7763 6.32959 27.7601C6.5043 27.7413 6.67364 27.7924 6.85373 27.8112C7.17627 27.8435 7.49343 27.8112 7.79716 27.7306Z" fill="#1F2633"/>
<path fill-rule="evenodd" clip-rule="evenodd" d="M28.332 29.5098C28.6788 29.4184 29.1814 28.2089 28.7056 27.7896C28.8212 27.8326 28.9368 27.8594 29.047 27.8702C29.4636 27.9992 29.9071 28.0395 30.3641 27.9589C30.7296 27.8944 30.9957 27.9992 31.1408 28.1632C31.1731 28.2841 31.2161 28.4131 31.2645 28.5422C31.251 28.6954 31.1704 28.8513 31.0629 28.9615C30.9312 29.0959 30.7592 29.1657 30.5818 29.2383C29.8749 29.5286 29.1008 29.6012 28.332 29.5098Z" fill="#1F2633"/>
<path fill-rule="evenodd" clip-rule="evenodd" d="M17.5297 32.5074C15.6186 32.4617 13.6215 32.1579 12.0034 31.529C12.0894 29.9996 12.3179 28.4917 12.4872 27.5671C12.6808 27.4192 12.8716 27.266 13.0597 27.1101C15.6831 28.1208 21.4217 28.1235 23.3731 26.8037C23.4913 26.9085 23.6096 27.0134 23.7279 27.1155C23.8031 28.0267 23.9402 29.7093 23.9805 31.0156C24.9025 31.529 25.9104 32.252 25.4589 32.8218C25.1498 33.2116 24.5746 33.4616 24.1391 33.69C23.7682 33.8835 23.3973 34.0421 22.9887 34.147C21.2631 34.5905 20.7874 33.7115 20.7067 32.6014C20.5105 33.8056 20.1046 35.4344 19.1074 34.8942C17.9974 34.2921 17.5001 33.3782 17.5297 32.5074Z" fill="#1F2633"/>
<path fill-rule="evenodd" clip-rule="evenodd" d="M10.1733 8.33243C10.1975 8.48832 10.1679 8.17922 10.1679 8.15772C10.1222 7.71691 10.0335 7.28416 9.95554 6.84873C9.85341 6.28427 9.41797 3.28462 8.33476 3.68511C7.85901 3.85982 7.44777 4.31945 7.09566 4.65812C6.79731 4.94572 6.53659 5.24407 6.31349 5.59349C4.38898 8.62272 9.55237 8.35662 10.1975 8.94257" fill="#1F2633"/>
<path fill-rule="evenodd" clip-rule="evenodd" d="M9.53795 8.49102C9.53257 8.52328 9.26647 8.45339 9.24228 8.44801C8.93049 8.38082 8.61063 8.33781 8.29347 8.30556C7.59731 8.23567 4.11115 7.47232 4.46058 8.97215C5.0976 11.7218 8.27734 11.9584 9.44656 9.42909C9.59171 9.11461 10.2825 7.6309 10.0594 7.29492" fill="#1F2633"/>
<path fill-rule="evenodd" clip-rule="evenodd" d="M20.8385 19.1943L18.3683 17.8047L15.6401 19.1943C16.0594 19.9899 16.7475 20.5221 17.5163 20.721C18.6559 21.0167 19.9703 20.5839 20.8385 19.1943Z" fill="#2B2B2B"/>
<path fill-rule="evenodd" clip-rule="evenodd" d="M19.5644 19.7854C21.0588 20.3122 15.6938 20.2369 17.1883 19.7343V19.3016C12.541 19.014 8.25652 17.1674 9.01987 11.2595V8.56354C9.6784 3.45928 13.2129 0 18.3763 0C23.5397 0 27.2973 3.5211 27.7328 8.56354V11.2595C28.4021 17.4442 24.123 18.936 19.5644 19.2854V19.7854Z" fill="#2F3133"/>
<path fill-rule="evenodd" clip-rule="evenodd" d="M26.7087 16.3368C25.2331 18.3796 22.4538 19.0623 19.5644 19.2827V19.7827C21.0588 20.3095 15.6938 20.2342 17.1883 19.7316V19.2989C12.541 19.0113 8.25652 17.1647 9.01987 11.2568V8.56354C9.6784 3.45928 13.2129 0 18.3763 0C18.7069 0 19.0322 0.0134393 19.352 0.0430058C14.3284 0.494567 10.3934 4.4511 10.3934 9.25969C10.3934 14.3693 14.8364 18.5194 20.3116 18.5194C22.7495 18.5194 24.9804 17.6996 26.7087 16.3368Z" fill="#2B2B2B"/>
<path fill-rule="evenodd" clip-rule="evenodd" d="M13.0649 1.52939C14.5245 0.548324 16.3226 0 18.3762 0C23.5396 0 27.2972 3.5211 27.7326 8.56354V11.2595C28.1331 14.9472 26.7704 16.9685 24.6389 18.0705C26.3296 16.8959 27.3348 14.9445 26.9854 11.7083V9.01241C26.5526 3.96998 22.7923 0.448873 17.6289 0.448873C15.9141 0.448873 14.3766 0.83055 13.0649 1.52939Z" fill="#454545"/>
<path fill-rule="evenodd" clip-rule="evenodd" d="M27.6115 8.4502C27.6652 8.75661 27.7056 9.0684 27.7324 9.38557V10.9741C21.3568 12.3315 15.1264 12.2858 9.01953 10.9741V9.38557C9.05985 9.0684 9.1136 8.75661 9.17542 8.45288C15.3844 9.77531 21.5289 9.7995 27.6115 8.4502Z" fill="#1F2633"/>
<path fill-rule="evenodd" clip-rule="evenodd" d="M24.5341 16.1276C26.9183 15.332 27.5822 10.9696 26.4237 10.9696H10.654C9.20793 10.9212 10.3342 15.5175 12.3796 16.133C14.3633 16.7297 16.1641 15.2944 18.3789 15.2729C20.3787 15.2514 22.8005 16.7055 24.5341 16.1276Z" fill="#F1C9A7"/>
<path fill-rule="evenodd" clip-rule="evenodd" d="M13.6854 13.5439C14.2014 13.5439 14.6208 13.9498 14.6208 14.4471C14.6208 14.9443 14.2014 15.3502 13.6854 15.3502C13.1693 15.3502 12.75 14.9443 12.75 14.4471C12.75 13.9498 13.1693 13.5439 13.6854 13.5439Z" fill="#1F2633"/>
<path d="M23.5369 15.3502C24.0535 15.3502 24.4723 14.9458 24.4723 14.4471C24.4723 13.9483 24.0535 13.5439 23.5369 13.5439C23.0203 13.5439 22.6016 13.9483 22.6016 14.4471C22.6016 14.9458 23.0203 15.3502 23.5369 15.3502Z" fill="#1F2633"/>
<path d="M24.9397 12.3477L25.0929 12.4256L25.2085 12.56L25.2596 12.7267C25.2408 12.8933 25.2408 12.896 25.1601 13.0438L25.0204 13.154C24.6709 13.3341 24.3269 13.525 23.9613 13.6728C23.8431 13.7185 23.6253 13.7964 23.5125 13.8341C23.112 13.9685 22.7142 14.1002 22.3083 14.2265L22.1793 14.2292L22.0879 14.1647L22.0825 14.0572L22.1551 13.955C22.1578 13.9523 22.1605 13.9523 22.1632 13.9496C22.6389 13.5948 22.7061 13.5411 23.1657 13.2105C23.2625 13.1406 23.4506 13.0089 23.5555 12.9417C23.8861 12.7293 24.2409 12.5627 24.5903 12.3799L24.7623 12.3315C24.8241 12.3369 24.8806 12.3423 24.9397 12.3477Z" fill="#1F2633"/>
<path d="M12.9654 12.3797C13.3148 12.5598 13.6723 12.7291 14.0029 12.9414C14.1078 13.0086 14.2959 13.143 14.3927 13.2102C14.734 13.4548 15.0673 13.7021 15.4033 13.9575L15.4759 14.0596L15.4705 14.1671L15.3818 14.2316H15.2528C15.2501 14.2316 15.2474 14.2289 15.242 14.2289C14.6722 14.0462 14.5889 14.022 14.0459 13.8392C13.933 13.8016 13.7153 13.7236 13.5971 13.6779C13.2315 13.5328 12.8875 13.3392 12.5381 13.1592L12.3983 13.049L12.3176 12.8984L12.2988 12.7318L12.3499 12.5651L12.4655 12.4307C12.6187 12.3528 12.6214 12.3528 12.7934 12.334C12.8498 12.3474 12.9063 12.3636 12.9654 12.3797Z" fill="#1F2633"/>
<path fill-rule="evenodd" clip-rule="evenodd" d="M7.41571 28.7597C6.75181 28.3162 5.52883 26.6954 5.15253 26.2143C0.817002 20.6504 2.45123 24.3866 5.07458 27.5448C5.99921 28.6576 6.41851 29.0742 7.01253 29.5338C7.87265 30.2004 8.41829 29.4263 7.41571 28.7597Z" fill="#1F2633"/>
<path d="M6.37514 27.6209C6.64392 27.5725 6.93959 27.6612 7.09548 27.8521C7.16537 27.9381 7.13043 28.1074 7.02291 28.102C6.98528 28.094 6.8697 28.0053 6.71649 27.9381C6.59554 27.8843 6.48265 27.8171 6.36707 27.7526C6.26225 27.6962 6.316 27.6317 6.37514 27.6209ZM5.77037 28.7176C5.6736 28.7122 5.64135 28.6746 5.58221 28.6074C5.54727 28.567 5.54727 28.438 5.58759 28.2364C5.60102 28.1639 5.67897 27.9677 5.75692 27.9999C5.91013 28.0671 5.76768 28.2902 5.851 28.3171C5.87519 28.2553 5.92088 28.0967 6.03377 28.1128C6.10097 28.1209 6.08215 28.3413 6.10097 28.4031C6.1386 28.3547 6.21924 28.1934 6.30525 28.2149C6.34019 28.223 6.32944 28.3117 6.33213 28.3413C6.33751 28.3977 6.34019 28.4515 6.3375 28.5025C6.37513 28.473 6.47996 28.3574 6.55522 28.4058C6.61435 28.4434 6.47728 28.9245 6.47728 28.938C6.48803 28.9568 6.42889 29.0858 6.31062 29.0804C6.27299 29.0804 6.22461 29.0509 6.2058 29.024C6.15742 29.0401 6.05259 28.9998 6.0284 28.9783C6.01765 28.9675 5.98539 28.9218 5.97733 28.9057C5.9397 28.903 5.90745 28.9192 5.84563 28.8627C5.81068 28.8305 5.78918 28.7579 5.77037 28.7176Z" fill="#F1C9A7"/>
<path d="M30.6252 27.803C30.3565 27.7547 30.0608 27.8434 29.9049 28.0342C29.835 28.1202 29.87 28.2895 29.9775 28.2842C30.0151 28.2761 30.1307 28.1874 30.2839 28.1202C30.4048 28.0665 30.5177 27.9993 30.6333 27.9348C30.7381 27.8783 30.6844 27.8138 30.6252 27.803ZM31.23 28.8997C31.3241 28.8943 31.359 28.8567 31.4182 28.7895C31.4531 28.7492 31.4531 28.6202 31.4128 28.4186C31.3993 28.346 31.3214 28.1498 31.2434 28.182C31.0902 28.2492 31.2327 28.4723 31.1494 28.4992C31.1225 28.4374 31.0795 28.2788 30.9693 28.2949C30.9021 28.303 30.9209 28.5234 30.9021 28.5852C30.8645 28.5368 30.7838 28.3756 30.6978 28.3971C30.6629 28.4051 30.6736 28.4938 30.6709 28.5234C30.6656 28.5798 30.6629 28.6336 30.6656 28.6847C30.6279 28.6551 30.5231 28.5395 30.4478 28.5879C30.3887 28.6255 30.5258 29.1067 30.5258 29.1201C30.515 29.1389 30.5742 29.2679 30.6924 29.2626C30.7301 29.2626 30.7784 29.233 30.7973 29.2061C30.8456 29.2222 30.9505 29.1819 30.9747 29.1604C30.9881 29.1497 31.0177 29.104 31.0257 29.0878C31.0634 29.0852 31.0956 29.1013 31.1574 29.0448C31.1897 29.0126 31.2112 28.9373 31.23 28.8997Z" fill="#F1C9A7"/>
<path fill-rule="evenodd" clip-rule="evenodd" d="M7.00641 27.3352L6.94729 27.0906L5.76194 27.0073L4.38037 28.0986L4.43681 28.3701L5.52002 28.9587L7.00641 27.3352Z" fill="#919191"/>
<path fill-rule="evenodd" clip-rule="evenodd" d="M6.94997 27.0721L5.70549 26.7441L4.38037 28.1069L5.46358 28.6928L6.94997 27.0721Z" fill="#BDBDBD"/>
<path fill-rule="evenodd" clip-rule="evenodd" d="M6.02294 27.0235C4.56612 25.3328 2.88082 22.7632 0.19027 19.4383C0.0720038 19.2932 -0.0462661 19.3792 0.0182426 19.5647C1.54764 24.048 4.25432 27.3729 5.04724 28.0476C5.31872 28.3809 6.46644 27.7761 6.02294 27.0235Z" fill="#DDDDDD"/>
<path fill-rule="evenodd" clip-rule="evenodd" d="M5.87513 27.8812C5.79181 28.0882 -0.290823 19.7047 0.0155933 19.5649C1.54499 24.0483 4.25167 27.3732 5.04459 28.0478C5.19511 28.2306 5.60635 28.1339 5.87513 27.8812Z" fill="white"/>
<path fill-rule="evenodd" clip-rule="evenodd" d="M29.9932 27.5179L30.0523 27.2733L31.2376 27.1899L32.6192 28.2812L32.5628 28.5527L31.4796 29.1386L29.9932 27.5179Z" fill="#919191"/>
<path fill-rule="evenodd" clip-rule="evenodd" d="M30.0493 27.252L31.2938 26.9268L32.6189 28.2895L31.5357 28.8755L30.0493 27.252Z" fill="#BDBDBD"/>
<path fill-rule="evenodd" clip-rule="evenodd" d="M30.9768 27.2037C32.4363 25.513 34.1216 22.9434 36.8094 19.6185C36.9277 19.4734 37.046 19.5594 36.9814 19.7448C35.4521 24.2282 32.7454 27.5531 31.9525 28.2277C31.681 28.5637 30.5333 27.959 30.9768 27.2037Z" fill="#DDDDDD"/>
<path fill-rule="evenodd" clip-rule="evenodd" d="M31.125 28.0638C31.2083 28.2708 37.291 19.8873 36.9845 19.7476C35.4552 24.2309 32.7485 27.5558 31.9555 28.2305C31.805 28.4132 31.3938 28.3138 31.125 28.0638Z" fill="white"/>
</svg>
