<svg width="269" height="105" viewBox="0 0 269 105" fill="none" xmlns="http://www.w3.org/2000/svg">
<g filter="url(#filter0_d_112_9502)">
<path d="M15 52.0728C15 41.0271 23.9543 32.0728 35 32.0728H75V72.0728H35C23.9543 72.0728 15 63.1184 15 52.0728V52.0728Z" fill="#5B84FE"/>
<circle cx="50.0003" cy="52.0726" r="13.3333" fill="#5B84FE"/>
<path d="M75 32.0728H115C126.046 32.0728 135 41.0271 135 52.0728C135 63.1184 126.046 72.0728 115 72.0728H75V32.0728Z" fill="#5B84FE"/>
</g>
<path opacity="0.3" d="M227 104.146C246.389 104.146 262.106 101.597 262.106 98.4526C262.106 95.3083 246.389 92.7593 227 92.7593C207.612 92.7593 191.895 95.3083 191.895 98.4526C191.895 101.597 207.612 104.146 227 104.146Z" fill="#2F3133"/>
<path fill-rule="evenodd" clip-rule="evenodd" d="M213.734 80.854C212.415 75.6428 214.045 69.3148 216.852 63.9754C218.512 63.0601 236.507 66.9533 237.764 67.2889C239.21 73.3911 240.577 75.7587 238.826 80.8113C238.826 80.8113 239.015 81.4154 239.143 81.928C239.808 84.5947 239.796 87.4078 238.905 90.0317C237.697 93.5832 234.78 96.3902 231.155 97.3604C230.582 97.513 228.69 93.8822 229.172 93.6137C230.899 92.6556 232.083 90.8555 232.168 88.9089C232.254 87.0477 230.466 83.1545 229.605 82.4833C227.524 82.8616 225.328 82.9105 222.966 82.4528C221.874 83.5451 220.342 87.0111 220.385 88.7319C220.446 90.9897 221.929 93.0645 224.107 93.9676C224.333 94.108 222.789 97.6533 222.191 97.5374C218.353 96.7929 215.119 93.9493 213.752 90.2941C212.641 87.2979 212.763 83.8807 213.734 80.854Z" fill="#2F3133"/>
<path fill-rule="evenodd" clip-rule="evenodd" d="M218.481 63.8472C223.339 64.0974 236.69 66.9959 237.764 67.2827C239.21 73.3849 240.577 75.7525 238.826 80.8051C238.826 80.8051 238.979 81.2994 239.107 81.7693C236.837 83.0507 234.024 83.9905 230.893 84.4603C230.435 83.5145 229.953 82.7456 229.612 82.4832C227.531 82.8616 225.334 82.9104 222.972 82.4527C222.57 82.8555 222.106 83.5877 221.685 84.4298C218.555 83.9355 215.748 82.9714 213.502 81.6594C213.575 81.3909 213.654 81.1224 213.734 80.8539C212.458 75.8013 213.947 69.7053 216.596 64.4696C217.206 64.2377 217.834 64.0302 218.481 63.8472Z" fill="#2B2B2B"/>
<path fill-rule="evenodd" clip-rule="evenodd" d="M228.433 82.6541C228.385 82.6602 228.342 82.6663 228.293 82.6724C228.336 82.6663 228.379 82.6541 228.421 82.648L228.433 82.6541ZM238.356 74.9348C238.081 72.854 239.173 72.3963 239.484 74.3612C239.802 76.3811 239.716 78.2483 238.825 80.8112C238.825 80.8112 239.015 81.4154 239.143 81.9279C239.808 84.5946 239.796 87.4077 238.905 90.0316C237.697 93.5831 234.78 96.3901 231.155 97.3603C231.082 97.3787 230.984 97.3359 230.874 97.2444C234.072 96.0728 236.61 93.455 237.715 90.1964C238.606 87.5725 238.618 84.7593 237.953 82.0927C237.825 81.5862 237.635 80.976 237.635 80.976C238.471 78.59 238.6 76.796 238.356 74.9348ZM221.483 97.3664C222.179 96.4999 223.112 94.2421 222.929 94.1323C220.751 93.2292 219.268 91.1544 219.207 88.8966C219.164 87.1758 220.696 83.7098 221.788 82.6175C222.093 82.6785 222.392 82.7273 222.691 82.77C221.636 84.1064 220.354 87.1514 220.397 88.7258C220.458 90.9836 221.941 93.0583 224.119 93.9614C224.345 94.1018 222.801 97.6472 222.203 97.5312C221.953 97.4824 221.715 97.4275 221.483 97.3664Z" fill="#454545"/>
<path fill-rule="evenodd" clip-rule="evenodd" d="M233.822 96.1459C232.235 95.1818 230.6 94.1993 230.887 92.4053C229.831 93.3206 229.941 93.0033 229.532 93.4793C229.099 93.6379 227.994 94.0102 226.731 94.8217C226.371 96.9941 228 97.6837 229.63 98.5502C230.087 98.1108 230.417 97.6837 230.844 97.4457C231.674 96.988 232.62 96.866 233.822 96.1459Z" fill="#1F2633"/>
<path fill-rule="evenodd" clip-rule="evenodd" d="M230.618 98.8741C230.649 98.7093 230.832 97.7574 230.844 97.4828C230.844 97.4828 229.654 97.8428 229.318 97.5682C228.781 97.1289 228.098 95.9573 228.067 95.2982C228.043 94.7673 229.123 93.6323 229.123 93.6323C227.915 93.7422 226.609 94.8894 226.511 95.0541C226.334 95.3592 226.835 97.5438 227.591 99.2463C227.762 99.6247 229.263 101.504 231.448 100.418C231.832 100.369 231.869 99.0633 230.618 98.8741Z" fill="#1F2633"/>
<path fill-rule="evenodd" clip-rule="evenodd" d="M218.731 96.1459C220.318 95.1818 221.953 94.1993 221.667 92.4053C222.722 93.3206 222.612 93.0033 223.021 93.4793C223.455 93.6379 224.559 94.0102 225.822 94.8217C226.182 96.9941 224.553 97.6837 222.924 98.5502C222.466 98.1108 222.136 97.6837 221.709 97.4457C220.879 96.988 219.934 96.866 218.731 96.1459Z" fill="#1F2633"/>
<path fill-rule="evenodd" clip-rule="evenodd" d="M221.935 98.8741C221.905 98.7093 221.722 97.7574 221.71 97.4828C221.71 97.4828 222.899 97.8428 223.235 97.5682C223.772 97.1289 224.456 95.9573 224.486 95.2982C224.51 94.7673 223.43 93.6323 223.43 93.6323C224.639 93.7422 225.944 94.8894 226.042 95.0541C226.219 95.3592 225.719 97.5438 224.962 99.2463C224.791 99.6247 223.29 101.504 221.105 100.418C220.721 100.369 220.684 99.0633 221.935 98.8741Z" fill="#1F2633"/>
<path fill-rule="evenodd" clip-rule="evenodd" d="M221.636 43.4962C222.277 42.8616 222.918 42.349 223.553 42.0134C225.212 41.098 228.447 41.4764 229.704 41.8181C230.485 42.0744 231.357 42.7517 232.248 43.7342C232.334 43.5389 232.425 43.4596 232.529 43.5267C233.969 44.4725 235.214 45.7479 236.324 46.9866C237.356 48.1399 238.326 49.336 239.29 50.5442L239.302 50.5625C239.931 51.4534 240.553 52.3443 241.182 53.2292C241.182 53.2292 242.085 54.5411 242.781 55.5541C244.306 57.7692 245.874 59.9721 248.022 61.6807C249.676 62.9988 251.732 63.8775 253.935 63.4808C255.003 63.2917 255.699 63.7493 255.912 64.2924C255.912 64.2924 255.998 64.5914 255.98 64.7928C255.955 65.1467 255.766 65.5067 255.516 65.7569C255.217 66.062 254.826 66.2207 254.423 66.3855C251.665 67.5144 248.431 67.1909 245.63 66.001C243.324 65.0186 241.237 63.5296 239.357 61.9797C239.211 61.8638 239.07 61.7417 238.93 61.6197C238.936 61.7295 238.942 61.8332 238.948 61.937C239.009 62.9682 240.047 73.8911 239.479 79.7675C232.126 83.557 219.415 82.7393 212.709 79.6577C211.482 74.8004 212.636 66.4526 213.344 62.596C211.897 63.6944 210.384 64.6646 208.743 65.4213C205.777 66.7943 202.244 67.2093 199.205 65.818C198.869 65.6654 198.674 65.5495 198.479 65.3481C198.229 65.0918 198.045 64.7379 198.015 64.3839C198.003 64.1826 198.082 63.8836 198.082 63.8836C198.174 63.7493 198.241 63.5907 198.363 63.4747C198.619 63.2245 199.003 63.072 199.364 63.0354C199.76 62.9927 200.145 63.1086 200.553 63.1513C203.354 63.4564 205.984 61.5281 207.833 59.5205C209.151 58.0865 210.293 56.4999 211.379 54.9134C211.379 54.9134 212.117 53.8577 212.721 52.9546C212.721 52.9546 212.923 52.6678 213.069 52.4664C213.557 51.7768 214.045 51.0812 214.534 50.3917L214.692 50.1659C216.425 48.0057 218.146 45.8028 220.263 44.0393C220.611 43.7525 220.971 43.4779 221.344 43.2216C221.466 43.124 221.563 43.2399 221.636 43.4962Z" fill="#323940"/>
<path d="M225.847 58.1965C223.333 60.6923 220.312 62.5962 217.7 63.8715C222.478 64.7747 228.867 64.8052 233.407 63.7922C230.991 62.4986 228.208 60.6069 225.847 58.1965ZM201.054 66.4284C201.005 66.1843 200.992 65.9341 201.029 65.69C201.194 64.5001 202.726 64.4452 203.629 64.1522C206.082 63.359 208.144 62.0348 210.213 60.5398C211.519 59.6 212.825 58.642 213.606 57.2019C214.033 56.4208 214.527 55.6824 214.997 54.9257C215.009 54.9013 215.162 54.6328 215.198 54.6512C215.54 54.822 215.247 55.9631 215.211 56.1584C214.942 57.5924 214.564 59.0142 214.155 60.4116C213.99 60.9791 213.874 61.5649 213.746 62.1385C213.722 62.2606 213.532 62.8769 213.532 62.8342L213.166 63.542C213.221 63.2003 213.282 62.883 213.331 62.5901C211.885 63.6885 210.372 64.6587 208.73 65.4154C206.369 66.5138 203.616 66.9959 201.054 66.4284ZM213.154 63.7007C213.484 63.4444 213.813 63.1759 214.143 62.9074C214.387 62.9989 214.643 63.0905 214.912 63.1759C217.548 61.8822 221.117 59.6793 224.187 56.3048C223.198 55.0478 222.344 53.6809 221.709 52.2042C220.965 50.4834 219.763 46.938 219.635 44.7534C220.367 44.8694 221.111 44.967 221.862 45.0402C222.588 48.6649 224.065 51.7221 225.871 54.2606C227.744 51.7404 229.282 48.6832 230.075 45.0341C230.777 44.967 231.479 44.8816 232.169 44.7839C232.291 46.7915 230.649 51.0204 229.715 52.9303C229.117 54.1508 228.373 55.2919 227.525 56.3415C230.301 59.5146 233.493 61.6931 235.921 63.0355C236.55 62.7854 237.099 62.5108 237.557 62.1996C237.825 62.4375 238.094 62.6755 238.362 62.9074C238.533 64.976 238.844 68.796 238.936 71.7617C239.156 71.8837 239.375 72.0119 239.595 72.1461C239.656 74.0439 239.68 75.9661 239.619 77.6686C239.509 77.7235 239.4 77.7784 239.296 77.8333C238.454 78.2727 237.612 78.6327 236.684 78.8707C232.767 79.8776 231.686 77.8822 231.503 75.362C231.058 78.0957 230.136 81.7936 227.873 80.5671C225.346 79.2002 224.217 77.1255 224.291 75.1484C220.123 75.0507 215.784 74.41 212.19 73.0919C212.275 69.6991 212.745 66.1538 213.154 63.7007Z" fill="#333536"/>
<path fill-rule="evenodd" clip-rule="evenodd" d="M220.452 43.8684C220.745 43.6365 221.044 43.4108 221.356 43.1972C221.441 43.1423 221.514 43.185 221.575 43.3192C221.258 43.5694 220.934 43.8501 220.617 44.1674C220.568 44.0088 220.513 43.905 220.452 43.8684ZM204.733 62.0834C203.202 63.2245 201.408 64.0117 199.546 63.8103C199.137 63.7676 198.753 63.6517 198.356 63.6944C198.301 63.7005 198.24 63.7066 198.186 63.7188C198.24 63.6273 198.295 63.5296 198.375 63.4564C198.631 63.2062 199.015 63.0537 199.375 63.0171C199.772 62.9743 200.157 63.0903 200.565 63.133C202.03 63.2917 203.452 62.8401 204.733 62.0834ZM212.318 63.3344C211.995 63.5602 211.665 63.7798 211.33 63.9934C211.665 63.7554 212.001 63.5113 212.33 63.2612L212.318 63.3344ZM222.515 42.7029C222.863 42.4283 223.211 42.1964 223.552 42.0134C225.212 41.098 228.446 41.4764 229.703 41.8181C230.484 42.0744 231.357 42.7517 232.248 43.7342C232.333 43.5389 232.425 43.4596 232.529 43.5267C233.969 44.4725 235.214 45.7479 236.324 46.9866C237.355 48.1399 238.326 49.336 239.29 50.5442L239.302 50.5625C239.931 51.4534 240.553 52.3443 241.181 53.2292C241.181 53.2292 242.085 54.5411 242.78 55.5541C244.306 57.7692 245.874 59.9721 248.022 61.6807C249.676 62.9988 251.732 63.8775 253.935 63.4808C255.003 63.2917 255.699 63.7493 255.912 64.2924C255.912 64.2924 255.998 64.5914 255.979 64.7928C255.955 65.1467 255.766 65.5068 255.516 65.7569C255.265 66.0132 254.948 66.1658 254.612 66.3061C254.802 66.0682 254.936 65.7691 254.96 65.4701C254.972 65.2688 254.893 64.9698 254.893 64.9698C254.686 64.4267 253.984 63.9629 252.916 64.1582C250.713 64.5548 248.657 63.6761 247.003 62.358C244.855 60.6433 243.287 58.4465 241.761 56.2314C241.066 55.2185 240.162 53.9065 240.162 53.9065C239.534 53.0217 238.905 52.1308 238.283 51.2399L238.271 51.2215C237.301 50.0194 236.33 48.8173 235.305 47.664C234.195 46.4252 232.95 45.1438 231.51 44.204C231.406 44.1369 231.314 44.2162 231.229 44.4115C230.338 43.4291 229.465 42.7517 228.684 42.4954C227.427 42.1598 224.193 41.7754 222.533 42.6907L222.515 42.7029ZM238.484 80.2313C239.009 74.3122 237.996 63.6273 237.935 62.6082C237.929 62.5045 237.923 62.4007 237.917 62.2909C238.057 62.4129 238.204 62.5289 238.344 62.6509C238.576 62.8462 238.814 63.0354 239.058 63.2306C239.32 66.5136 239.961 74.8797 239.491 79.7614C239.162 79.9262 238.832 80.0849 238.484 80.2313Z" fill="#4D5154"/>
<path d="M232.676 43.4292C232.798 45.4368 231.156 49.6656 230.223 51.5756C226.567 59.063 217.207 63.4443 213.533 64.2742C213.429 64.2987 213.185 62.8036 213.271 62.767C217.408 61.1438 227.983 55.6397 230.583 43.6733C231.284 43.6062 231.986 43.5268 232.676 43.4292Z" fill="#1F2633"/>
<path d="M220.142 43.3989C220.874 43.5149 221.618 43.6125 222.369 43.6857C224.682 55.2555 234.646 61.0159 238.613 62.7855C238.698 62.8222 238.375 64.305 238.277 64.2806C234.646 63.292 225.505 58.4957 222.216 50.8497C221.472 49.1289 220.27 45.5835 220.142 43.3989Z" fill="#1F2633"/>
<path fill-rule="evenodd" clip-rule="evenodd" d="M227.006 42.0317L227.189 42.1172L227.257 42.3002L227.226 43.5939L227.189 45.3513L227.141 47.4505L227.086 49.7632L226.97 54.529L226.86 58.6419L226.774 61.5892L226.671 65.1834L226.433 73.0552L226.146 82.3122V82.4465L226.048 82.538L225.963 82.4404V82.3122L226.115 73.0491L226.25 65.1773L226.317 61.577L226.372 58.6297L226.451 54.5168L226.567 49.751L226.744 42.288L226.823 42.105L227.006 42.0317Z" fill="#1F2633"/>
<path fill-rule="evenodd" clip-rule="evenodd" d="M202.702 62.956C203.068 62.9072 203.44 62.8156 203.824 62.6753C202.744 63.6333 203.898 66.3915 204.685 66.5807C202.83 66.8065 200.938 66.599 199.205 65.8057C198.869 65.6532 198.674 65.5372 198.479 65.3358C198.302 65.1528 198.156 64.9209 198.076 64.6768C198.18 64.2924 198.247 63.9323 198.235 63.6333C198.271 63.5723 198.314 63.5113 198.369 63.4625C198.625 63.2123 199.01 63.0597 199.37 63.0231C199.766 62.9804 200.151 63.0963 200.56 63.1391C201.292 63.2123 202.012 63.1391 202.702 62.956Z" fill="#1F2633"/>
<path fill-rule="evenodd" clip-rule="evenodd" d="M249.322 66.9957C250.109 66.7882 251.251 64.0423 250.17 63.0903C250.433 63.188 250.695 63.249 250.945 63.2734C251.891 63.5663 252.898 63.6578 253.936 63.4748C254.765 63.3283 255.37 63.5663 255.699 63.9385C255.772 64.2131 255.87 64.506 255.98 64.7989C255.949 65.1468 255.766 65.5007 255.522 65.7509C255.223 66.056 254.833 66.2146 254.43 66.3794C252.825 67.0384 251.067 67.2032 249.322 66.9957Z" fill="#1F2633"/>
<path fill-rule="evenodd" clip-rule="evenodd" d="M224.797 73.7999C220.458 73.6962 215.924 73.0066 212.251 71.5787C212.446 68.1066 212.965 64.6832 213.349 62.5841C213.789 62.2485 214.222 61.9006 214.649 61.5467C220.605 63.8411 233.633 63.8472 238.063 60.8511C238.332 61.0891 238.6 61.327 238.869 61.5589C239.04 63.6276 239.351 67.4475 239.442 70.4132C241.535 71.5787 243.824 73.2202 242.798 74.5139C242.097 75.3987 240.791 75.9662 239.802 76.4849C238.96 76.9242 238.118 77.2842 237.191 77.5222C233.273 78.5291 232.193 76.5337 232.01 74.0135C231.564 76.7472 230.643 80.4452 228.379 79.2186C225.859 77.8517 224.73 75.777 224.797 73.7999Z" fill="#1F2633"/>
<path fill-rule="evenodd" clip-rule="evenodd" d="M208.096 18.9166C208.151 19.2706 208.084 18.5688 208.084 18.52C207.98 17.5192 207.779 16.5368 207.602 15.5482C207.37 14.2668 206.381 7.45675 203.922 8.36597C202.842 8.76261 201.908 9.80608 201.109 10.575C200.432 11.2279 199.84 11.9052 199.333 12.6985C194.964 19.5757 206.686 18.9716 208.151 20.3018" fill="#1F2633"/>
<path fill-rule="evenodd" clip-rule="evenodd" d="M206.656 19.277C206.644 19.3502 206.04 19.1916 205.985 19.1794C205.277 19.0268 204.551 18.9292 203.831 18.8559C202.25 18.6973 194.336 16.9643 195.129 20.3693C196.575 26.6118 203.794 27.1488 206.448 21.4067C206.778 20.6927 208.346 17.3243 207.84 16.5615" fill="#1F2633"/>
<path fill-rule="evenodd" clip-rule="evenodd" d="M232.309 43.5757L226.702 40.4209L220.508 43.5757C221.46 45.382 223.022 46.5902 224.767 47.0418C227.354 47.713 230.338 46.7306 232.309 43.5757Z" fill="#2B2B2B"/>
<path fill-rule="evenodd" clip-rule="evenodd" d="M229.417 44.9181C232.809 46.1142 220.629 45.9433 224.022 44.8022V43.8197C213.472 43.1668 203.745 38.9746 205.478 25.562V19.4415C206.973 7.8535 214.997 0 226.719 0C238.442 0 246.973 7.99385 247.961 19.4415V25.562C249.481 39.6031 239.766 42.9898 229.417 43.7831V44.9181Z" fill="#2F3133"/>
<path fill-rule="evenodd" clip-rule="evenodd" d="M245.636 37.089C242.286 41.7267 235.976 43.2766 229.417 43.777V44.912C232.809 46.1081 220.629 45.9372 224.022 44.7961V43.8136C213.472 43.1607 203.745 38.9685 205.478 25.5559V19.4415C206.973 7.8535 214.997 0 226.719 0C227.47 0 228.208 0.0305108 228.935 0.0976348C217.53 1.1228 208.596 10.1052 208.596 21.022C208.596 32.6222 218.683 42.044 231.113 42.044C236.648 42.044 241.713 40.1828 245.636 37.089Z" fill="#2B2B2B"/>
<path fill-rule="evenodd" clip-rule="evenodd" d="M214.662 3.47214C217.976 1.24484 222.058 0 226.72 0C238.442 0 246.973 7.99385 247.962 19.4415V25.562C248.871 33.9342 245.777 38.5231 240.938 41.0249C244.776 38.3583 247.059 33.9281 246.265 26.5811V20.4606C245.283 9.01292 236.746 1.01906 225.024 1.01906C221.13 1.01906 217.64 1.88557 214.662 3.47214Z" fill="#454545"/>
<path fill-rule="evenodd" clip-rule="evenodd" d="M247.687 19.1851C247.809 19.8807 247.901 20.5886 247.962 21.3086V24.915C233.488 27.9966 219.343 27.8929 205.479 24.915V21.3086C205.57 20.5886 205.692 19.8807 205.832 19.1912C219.928 22.1934 233.878 22.2484 247.687 19.1851Z" fill="#1F2633"/>
<path fill-rule="evenodd" clip-rule="evenodd" d="M240.7 36.6133C246.113 34.807 247.62 24.9032 244.99 24.9032H209.188C205.905 24.7934 208.462 35.2281 213.106 36.6255C217.609 37.9802 221.698 34.7216 226.726 34.6728C231.266 34.624 236.764 37.9253 240.7 36.6133Z" fill="#F1C9A7"/>
<path fill-rule="evenodd" clip-rule="evenodd" d="M216.072 30.7485C217.243 30.7485 218.195 31.67 218.195 32.7989C218.195 33.9278 217.243 34.8492 216.072 34.8492C214.9 34.8492 213.948 33.9278 213.948 32.7989C213.948 31.67 214.9 30.7485 216.072 30.7485Z" fill="#1F2633"/>
<path d="M238.436 34.8492C239.609 34.8492 240.56 33.9312 240.56 32.7989C240.56 31.6665 239.609 30.7485 238.436 30.7485C237.263 30.7485 236.312 31.6665 236.312 32.7989C236.312 33.9312 237.263 34.8492 238.436 34.8492Z" fill="#1F2633"/>
<path d="M241.621 28.0332L241.969 28.2102L242.232 28.5153L242.348 28.8936C242.305 29.2719 242.305 29.278 242.122 29.6137L241.804 29.8638C241.011 30.2727 240.23 30.7059 239.4 31.0416C239.132 31.1453 238.637 31.3223 238.381 31.4077C237.472 31.7128 236.569 32.0118 235.647 32.2986L235.354 32.3047L235.147 32.1583L235.135 31.9142L235.3 31.6823C235.306 31.6762 235.312 31.6762 235.318 31.6701C236.398 30.8646 236.55 30.7426 237.594 29.992C237.814 29.8333 238.241 29.5343 238.479 29.3818C239.229 28.8997 240.035 28.5214 240.828 28.1064L241.219 27.9966C241.359 28.0088 241.487 28.021 241.621 28.0332Z" fill="#1F2633"/>
<path d="M214.436 28.1062C215.229 28.515 216.041 28.8995 216.792 29.3815C217.03 29.5341 217.457 29.8392 217.676 29.9917C218.451 30.547 219.208 31.1085 219.971 31.6882L220.136 31.92L220.123 32.1641L219.922 32.3106H219.629C219.623 32.3106 219.617 32.3045 219.605 32.3045C218.311 31.8895 218.122 31.8346 216.889 31.4197C216.633 31.3342 216.139 31.1573 215.87 31.0535C215.04 30.724 214.259 30.2847 213.466 29.8758L213.149 29.6256L212.966 29.2839L212.923 28.9056L213.039 28.5272L213.301 28.2221C213.649 28.0452 213.655 28.0452 214.046 28.0024C214.174 28.033 214.302 28.0696 214.436 28.1062Z" fill="#1F2633"/>
<path fill-rule="evenodd" clip-rule="evenodd" d="M201.835 65.293C200.327 64.2861 197.551 60.6065 196.696 59.5142C186.854 46.8827 190.564 55.3648 196.52 62.5348C198.619 65.0611 199.571 66.007 200.919 67.0504C202.872 68.5638 204.111 66.8063 201.835 65.293Z" fill="#1F2633"/>
<path d="M199.473 62.7058C200.084 62.596 200.755 62.7973 201.109 63.2306C201.267 63.4259 201.188 63.8103 200.944 63.7981C200.859 63.7798 200.596 63.5784 200.248 63.4259C199.974 63.3038 199.718 63.1513 199.455 63.0048C199.217 62.8767 199.339 62.7302 199.473 62.7058ZM198.1 65.1955C197.881 65.1833 197.808 65.0979 197.673 64.9453C197.594 64.8538 197.594 64.5609 197.685 64.1032C197.716 63.9384 197.893 63.493 198.07 63.5662C198.418 63.7188 198.094 64.2252 198.284 64.2863C198.338 64.1459 198.442 63.7859 198.698 63.8225C198.851 63.8408 198.808 64.3412 198.851 64.4815C198.936 64.3717 199.12 64.0056 199.315 64.0544C199.394 64.0727 199.37 64.2741 199.376 64.3412C199.388 64.4693 199.394 64.5914 199.388 64.7073C199.473 64.6402 199.711 64.3778 199.882 64.4876C200.017 64.5731 199.705 65.6654 199.705 65.6959C199.73 65.7386 199.595 66.0315 199.327 66.0193C199.242 66.0193 199.132 65.9522 199.089 65.8911C198.979 65.9277 198.741 65.8362 198.686 65.7874C198.662 65.763 198.589 65.6593 198.57 65.6226C198.485 65.6165 198.412 65.6532 198.271 65.525C198.192 65.4518 198.143 65.287 198.1 65.1955Z" fill="#F1C9A7"/>
<path d="M254.527 63.1208C253.917 63.011 253.246 63.2124 252.892 63.6456C252.733 63.8409 252.813 64.2253 253.057 64.2131C253.142 64.1948 253.404 63.9934 253.752 63.8409C254.027 63.7188 254.283 63.5663 254.546 63.4198C254.784 63.2917 254.661 63.1452 254.527 63.1208ZM255.9 65.6105C256.114 65.5983 256.193 65.5129 256.327 65.3603C256.407 65.2688 256.407 64.9759 256.315 64.5182C256.285 64.3535 256.108 63.908 255.931 63.9812C255.583 64.1338 255.906 64.6403 255.717 64.7013C255.656 64.561 255.559 64.2009 255.308 64.2375C255.156 64.2558 255.198 64.7562 255.156 64.8966C255.07 64.7867 254.887 64.4206 254.692 64.4694C254.613 64.4877 254.637 64.6891 254.631 64.7562C254.619 64.8844 254.613 65.0064 254.619 65.1224C254.533 65.0552 254.295 64.7928 254.124 64.9027C253.99 64.9881 254.301 66.0804 254.301 66.1109C254.277 66.1536 254.411 66.4465 254.68 66.4343C254.765 66.4343 254.875 66.3672 254.918 66.3062C255.028 66.3428 255.266 66.2513 255.321 66.2024C255.351 66.178 255.418 66.0743 255.436 66.0377C255.522 66.0316 255.595 66.0682 255.735 65.94C255.809 65.8668 255.858 65.696 255.9 65.6105Z" fill="#F1C9A7"/>
<path fill-rule="evenodd" clip-rule="evenodd" d="M200.907 62.0589L200.773 61.5036L198.082 61.3145L194.945 63.7919L195.073 64.4083L197.533 65.7446L200.907 62.0589Z" fill="#919191"/>
<path fill-rule="evenodd" clip-rule="evenodd" d="M200.779 61.4613L197.954 60.7168L194.945 63.8106L197.404 65.1409L200.779 61.4613Z" fill="#BDBDBD"/>
<path fill-rule="evenodd" clip-rule="evenodd" d="M198.674 61.3512C195.366 57.5129 191.54 51.6792 185.432 44.1308C185.163 43.8013 184.895 43.9966 185.041 44.4176C188.514 54.596 194.658 62.1444 196.459 63.6761C197.075 64.4327 199.681 63.0598 198.674 61.3512Z" fill="#DDDDDD"/>
<path fill-rule="evenodd" clip-rule="evenodd" d="M198.338 63.2981C198.149 63.768 184.34 44.7353 185.035 44.418C188.507 54.5964 194.652 62.1448 196.452 63.6764C196.794 64.0914 197.728 63.8717 198.338 63.2981Z" fill="white"/>
<path fill-rule="evenodd" clip-rule="evenodd" d="M253.093 62.474L253.227 61.9187L255.918 61.7295L259.055 64.207L258.926 64.8233L256.467 66.1536L253.093 62.474Z" fill="#919191"/>
<path fill-rule="evenodd" clip-rule="evenodd" d="M253.221 61.8697L256.046 61.1313L259.054 64.2252L256.595 65.5554L253.221 61.8697Z" fill="#BDBDBD"/>
<path fill-rule="evenodd" clip-rule="evenodd" d="M255.326 61.7598C258.64 57.9216 262.466 52.0879 268.568 44.5395C268.837 44.21 269.105 44.4052 268.959 44.8263C265.487 55.0047 259.342 62.5531 257.542 64.0848C256.925 64.8475 254.32 63.4746 255.326 61.7598Z" fill="#DDDDDD"/>
<path fill-rule="evenodd" clip-rule="evenodd" d="M255.662 63.7127C255.851 64.1825 269.661 45.1498 268.965 44.8325C265.493 55.011 259.348 62.5593 257.548 64.091C257.206 64.5059 256.272 64.2802 255.662 63.7127Z" fill="white"/>
<defs>
<filter id="filter0_d_112_9502" x="0" y="19.0728" width="150" height="70" filterUnits="userSpaceOnUse" color-interpolation-filters="sRGB">
<feFlood flood-opacity="0" result="BackgroundImageFix"/>
<feColorMatrix in="SourceAlpha" type="matrix" values="0 0 0 0 0 0 0 0 0 0 0 0 0 0 0 0 0 0 127 0" result="hardAlpha"/>
<feOffset dy="2"/>
<feGaussianBlur stdDeviation="7.5"/>
<feColorMatrix type="matrix" values="0 0 0 0 0.14902 0 0 0 0 0.2 0 0 0 0 0.301961 0 0 0 0.05 0"/>
<feBlend mode="normal" in2="BackgroundImageFix" result="effect1_dropShadow_112_9502"/>
<feBlend mode="normal" in="SourceGraphic" in2="effect1_dropShadow_112_9502" result="shape"/>
</filter>
</defs>
</svg>
