<svg width="51" height="36" viewBox="0 0 51 36" fill="none" xmlns="http://www.w3.org/2000/svg">
<path d="M34.1816 16.6968C34.1816 21.7524 27.8621 25.544 27.8621 29.3357H22.8066C22.8066 25.544 16.4872 21.7524 16.4872 16.6968C16.4872 11.8182 20.4558 7.84961 25.3344 7.84961C30.213 7.84961 34.1816 11.8182 34.1816 16.6968ZM27.8621 31.8634H22.8066V35.6551H27.8621V31.8634ZM50.6121 17.9607C50.6121 10.984 47.781 4.66462 43.2057 0.0893555L40.5263 2.76879C42.5236 4.76217 44.1078 7.13027 45.1879 9.73726C46.268 12.3442 46.8228 15.1388 46.8204 17.9607C46.8204 23.8757 44.419 29.2598 40.5263 33.1526L43.2057 35.832C45.5566 33.4879 47.4211 30.7023 48.6921 27.6354C49.9632 24.5685 50.6156 21.2806 50.6121 17.9607V17.9607ZM3.84831 17.9607C3.84831 12.0457 6.24969 6.66156 10.1425 2.76879L7.46302 0.0893555C5.11213 2.43349 3.24761 5.21905 1.97659 8.286C0.705561 11.3529 0.0530872 14.6408 0.0566552 17.9607C0.0566552 24.9373 2.88776 31.2568 7.46302 35.832L10.1425 33.1526C8.14511 31.1592 6.56095 28.7911 5.48085 26.1841C4.40075 23.5772 3.84596 20.7826 3.84831 17.9607V17.9607ZM39.2371 17.9607C39.2371 21.8029 37.6699 25.266 35.1674 27.7937L37.8468 30.4732C39.4926 28.832 40.7976 26.8816 41.6869 24.7342C42.5762 22.5869 43.0322 20.2849 43.0288 17.9607C43.0288 13.0821 41.0571 8.6585 37.8468 5.44823L35.1674 8.12767C37.6699 10.6554 39.2371 14.1185 39.2371 17.9607ZM12.8219 30.4732L15.5013 27.7937C12.9736 25.266 11.4316 21.8029 11.4316 17.9607C11.4316 14.1185 12.9988 10.6554 15.5013 8.12767L12.8219 5.44823C11.1762 7.08944 9.87113 9.0398 8.98182 11.1872C8.09251 13.3345 7.63649 15.6365 7.63997 17.9607C7.63997 22.8393 9.61163 27.2629 12.8219 30.4732Z" fill="#00BA73"/>
</svg>
