<svg width="38" height="36" viewBox="0 0 38 36" fill="none" xmlns="http://www.w3.org/2000/svg">
<path d="M37.3671 13.54C37.25 13.2011 37.0372 12.9034 36.7544 12.6831C36.4715 12.4627 36.1308 12.3291 35.7735 12.2986L25.2304 10.7606L20.5054 1.181C20.3537 0.867721 20.1168 0.603518 19.8219 0.418654C19.5269 0.23379 19.1859 0.135742 18.8378 0.135742C18.4897 0.135742 18.1487 0.23379 17.8537 0.418654C17.5588 0.603518 17.3219 0.867721 17.1702 1.181L12.4452 10.7421L1.90203 12.2986C1.55909 12.3473 1.23669 12.4912 0.971394 12.7139C0.706103 12.9366 0.508551 13.2292 0.401155 13.5586C0.302848 13.8804 0.294026 14.2229 0.375636 14.5493C0.457246 14.8757 0.626208 15.1738 0.864387 15.4115L8.51698 22.8232L6.66405 33.3478C6.58924 33.697 6.6169 34.0603 6.7437 34.3941C6.8705 34.7278 7.09103 35.0179 7.37878 35.2293C7.66652 35.4407 8.00922 35.5645 8.36565 35.5857C8.72207 35.6069 9.07704 35.5247 9.38786 35.349L18.8378 30.4017L28.2877 35.349C28.5478 35.4957 28.8415 35.5723 29.1401 35.5713C29.5326 35.5727 29.9154 35.4495 30.2333 35.2193C30.5208 35.0134 30.7433 34.7295 30.8746 34.4011C31.006 34.0728 31.0406 33.7137 30.9745 33.3664L29.1215 22.8417L36.7741 15.43C37.0417 15.2034 37.2394 14.9055 37.3443 14.5709C37.4493 14.2363 37.4572 13.8789 37.3671 13.54ZM25.9716 20.9517C25.7571 21.16 25.5962 21.4171 25.5026 21.701C25.4091 21.985 25.3856 22.2873 25.4342 22.5823L26.7683 30.3646L19.8013 26.6588C19.5305 26.5248 19.2325 26.4551 18.9304 26.4551C18.6283 26.4551 18.3303 26.5248 18.0596 26.6588L11.0925 30.3646L12.4267 22.5823C12.4753 22.2873 12.4518 21.985 12.3582 21.701C12.2647 21.4171 12.1038 21.16 11.8893 20.9517L6.33052 15.393L14.1313 14.2627C14.4315 14.2209 14.7169 14.1062 14.9624 13.9285C15.2079 13.7508 15.4061 13.5156 15.5396 13.2436L18.8378 6.1839L22.3213 13.2621C22.4548 13.5342 22.653 13.7694 22.8985 13.947C23.144 14.1247 23.4293 14.2394 23.7295 14.2812L31.5303 15.4115L25.9716 20.9517Z" fill="#5B84FE"/>
</svg>
