<svg width="26" height="24" viewBox="0 0 26 24" fill="none" xmlns="http://www.w3.org/2000/svg">
<path d="M24.3346 8.86851L24.353 8.8712L24.3716 8.87278C24.4921 8.88309 24.607 8.92815 24.7024 9.00247C24.7918 9.07215 24.8605 9.16474 24.9013 9.27022C24.9258 9.3779 24.9213 9.49029 24.8882 9.59591C24.8528 9.70875 24.7861 9.80924 24.6958 9.88569L24.68 9.89914L24.665 9.91361L19.5025 14.9136L19.2643 15.1443L19.3218 15.4709L20.5718 22.5709L20.5718 22.5709L20.5734 22.5795C20.5957 22.6966 20.584 22.8178 20.5397 22.9285C20.4954 23.0393 20.4203 23.135 20.3234 23.2045L20.3208 23.2063C20.2136 23.284 20.0845 23.3255 19.9521 23.325L19.9478 23.3251C19.8547 23.3254 19.7631 23.3015 19.6819 23.2557L19.6734 23.2509L19.6647 23.2464L13.2897 19.9088L12.9998 19.7571L12.71 19.9088L6.33497 23.2464L6.32602 23.251L6.31723 23.256C6.21239 23.3153 6.09266 23.343 5.97244 23.3358C5.85221 23.3287 5.73662 23.2869 5.63956 23.2156C5.5425 23.1443 5.46811 23.0465 5.42534 22.9339C5.38257 22.8213 5.37324 22.6988 5.39848 22.581L5.40089 22.5698L5.40288 22.5584L6.65288 15.4584L6.71038 15.1318L6.47217 14.9011L1.3136 9.90492C1.2347 9.8252 1.17869 9.7257 1.15147 9.61684L0.549693 9.76729L1.15147 9.61684C1.12442 9.50863 1.12683 9.39518 1.1584 9.28827C1.19501 9.17946 1.26091 9.0828 1.34889 9.00894C1.43838 8.93382 1.54713 8.88528 1.6628 8.86884L1.6628 8.86885L1.66613 8.86836L8.77863 7.81836L9.10258 7.77053L9.24766 7.47696L12.4352 1.02696L12.4352 1.02697L12.4373 1.02249C12.4885 0.91682 12.5684 0.827703 12.6679 0.765349C12.7674 0.702994 12.8824 0.669922 12.9998 0.669922C13.1173 0.669922 13.2323 0.702994 13.3318 0.765348C13.4313 0.827703 13.5112 0.91682 13.5624 1.02249L13.5623 1.0225L13.5643 1.02653L16.7518 7.48903L16.8971 7.7836L17.2221 7.83101L24.3346 8.86851ZM18.2478 14.5359L18.2478 14.536L18.2536 14.5302L22.0036 10.7927L22.8885 9.91069L21.652 9.73152L16.3895 8.96902L16.3895 8.96901L16.386 8.96852C16.2847 8.95444 16.1885 8.91573 16.1056 8.8558C16.0228 8.79587 15.956 8.71654 15.911 8.62477L15.9106 8.62408L13.5606 3.84908L12.9852 2.67986L12.4336 3.86051L10.2115 8.6167C10.1666 8.70659 10.1005 8.78434 10.0191 8.8433C9.93624 8.90323 9.83999 8.94194 9.73874 8.95601L9.73523 8.95652L4.47273 9.71902L3.23872 9.89782L4.12041 10.7795L7.87041 14.5295L7.87036 14.5295L7.87692 14.5359C7.94926 14.6062 8.00353 14.6929 8.03509 14.7887L8.61435 14.5978L8.03509 14.7887C8.06648 14.8839 8.07448 14.9853 8.05844 15.0843C8.05835 15.0848 8.05826 15.0854 8.05817 15.0859L7.15884 20.332L6.94358 21.5876L8.06836 20.9894L12.7589 18.4944C12.8536 18.4488 12.9573 18.4252 13.0623 18.4252C13.1674 18.4252 13.2711 18.4488 13.3657 18.4944L18.0563 20.9894L19.1811 21.5876L18.9659 20.332L18.0665 15.0859C18.0664 15.0854 18.0664 15.0848 18.0663 15.0843C18.0502 14.9853 18.0582 14.8839 18.0896 14.7887C18.1212 14.6929 18.1754 14.6062 18.2478 14.5359Z" fill="#00BA73" stroke="#00BA73" stroke-width="1.25"/>
</svg>
