<svg width="20" height="24" viewBox="0 0 20 24" fill="none" xmlns="http://www.w3.org/2000/svg">
<path d="M0.93298 8.24251C1.13158 8.38651 1.38628 8.42461 1.63378 8.35201L5.41588 7.37341L5.44708 7.36651C5.59723 7.31648 5.73315 7.23108 5.84338 7.11751C6.04288 6.91921 6.15808 6.65311 6.15748 6.38731L6.15718 4.98211C6.15898 4.92421 6.21568 4.78471 6.24328 4.75321C6.25168 4.74661 7.11928 3.99481 10.0995 3.99481C13.0734 3.99421 13.9491 4.74361 13.9497 4.74301C13.9899 4.78531 14.0466 4.92421 14.0481 4.98271L14.0478 6.18091C14.0484 6.60361 14.3364 7.01701 14.7321 7.16281L18.5448 8.33071C18.8391 8.43271 19.1484 8.36791 19.356 8.15971C19.5027 8.01391 19.5825 7.81291 19.5825 7.59181L19.5867 4.32811C19.5879 4.01581 19.4502 3.60871 19.2603 3.35971C19.1697 3.24061 16.9584 0.450007 10.0998 0.449707C4.27828 0.450007 1.78258 2.49421 1.15528 3.12151C1.02058 3.25621 0.95128 3.34351 0.93838 3.36031C0.74938 3.60841 0.61168 4.01521 0.61198 4.32631V7.59121C0.61258 7.85791 0.72928 8.09521 0.93298 8.24251ZM2.30758 14.5728V15.3357C2.30758 15.6861 2.59258 15.9717 2.94388 15.9717H4.99468C5.1632 15.9715 5.32474 15.9044 5.44382 15.7851C5.5629 15.6659 5.62978 15.5042 5.62978 15.3357V14.5728C5.62986 14.4042 5.56303 14.2424 5.44396 14.123C5.32489 14.0036 5.16331 13.9363 4.99468 13.9359H2.94388C2.59288 13.9359 2.30758 14.2224 2.30758 14.5728ZM9.67108 15.3357V14.5728C9.67108 14.2224 9.38608 13.9359 9.03538 13.9359H6.98398C6.63298 13.9359 6.34888 14.2224 6.34888 14.5728V15.3357C6.34888 15.5042 6.41576 15.6659 6.53484 15.7851C6.65392 15.9044 6.81546 15.9715 6.98398 15.9717H9.03538C9.38638 15.9717 9.67108 15.6861 9.67108 15.3357ZM13.7124 15.3357V14.5728C13.7124 14.2224 13.4274 13.9359 13.0761 13.9359H11.0253C10.8565 13.9362 10.6948 14.0034 10.5755 14.1228C10.4562 14.2422 10.3891 14.404 10.389 14.5728V15.3357C10.389 15.6861 10.6737 15.9717 11.0253 15.9717H13.0761C13.2447 15.9715 13.4064 15.9045 13.5257 15.7853C13.645 15.666 13.7121 15.5044 13.7124 15.3357ZM17.7537 15.3357V14.5728C17.7537 14.2224 17.4687 13.9359 17.1171 13.9359H15.0663C14.8975 13.9362 14.7357 14.0034 14.6164 14.1228C14.4971 14.2422 14.4299 14.404 14.4297 14.5728V15.3357C14.4297 15.6861 14.7147 15.9717 15.0663 15.9717H17.1171C17.2858 15.9716 17.4476 15.9046 17.5669 15.7854C17.6863 15.6661 17.7534 15.5044 17.7537 15.3357ZM0.89218 12.1827H2.94418C3.11268 12.1822 3.27413 12.115 3.39316 11.9957C3.5122 11.8765 3.57912 11.7149 3.57928 11.5464V10.7835C3.57928 10.4337 3.29428 10.1472 2.94418 10.1472H0.89218C0.723704 10.1478 0.562304 10.215 0.443286 10.3343C0.324267 10.4535 0.257317 10.615 0.25708 10.7835V11.5464C0.257159 11.7149 0.324058 11.8765 0.443111 11.9958C0.562164 12.1151 0.723655 12.1823 0.89218 12.1827ZM6.98398 12.1827C7.15269 12.1825 7.31444 12.1155 7.43374 11.9962C7.55303 11.8769 7.62012 11.7151 7.62028 11.5464V10.7835C7.62028 10.4337 7.33528 10.1472 6.98398 10.1472H4.93318C4.76463 10.1475 4.60309 10.2147 4.48402 10.334C4.36495 10.4533 4.29808 10.615 4.29808 10.7835V11.5464C4.298 11.715 4.36485 11.8767 4.48394 11.996C4.60302 12.1153 4.76461 12.1825 4.93318 12.1827H6.98398ZM11.0253 12.1827C11.194 12.1825 11.3558 12.1155 11.4751 11.9962C11.5945 11.8769 11.6616 11.7151 11.6619 11.5464V10.7835C11.6619 10.4337 11.3769 10.1472 11.0253 10.1472H8.97448C8.80577 10.1474 8.64403 10.2146 8.5247 10.3338C8.40538 10.4531 8.3382 10.6148 8.33788 10.7835V11.5464C8.33788 11.8968 8.62288 12.1827 8.97448 12.1827H11.0253ZM15.0666 10.1472H13.0161C12.8474 10.1474 12.6856 10.2146 12.5663 10.3338C12.447 10.4531 12.3798 10.6148 12.3795 10.7835V11.5464C12.3795 11.8968 12.6645 12.1827 13.0161 12.1827H15.0666C15.2352 12.1825 15.3967 12.1153 15.5158 11.996C15.6349 11.8767 15.7018 11.715 15.7017 11.5464V10.7835C15.7017 10.615 15.6348 10.4533 15.5157 10.334C15.3967 10.2147 15.2351 10.1475 15.0666 10.1472ZM19.1079 10.1472H17.0559C16.8874 10.1478 16.726 10.215 16.607 10.3343C16.488 10.4535 16.421 10.615 16.4208 10.7835V11.5464C16.4208 11.8968 16.7058 12.1827 17.0559 12.1827H19.1079C19.2764 12.1822 19.4378 12.115 19.5569 11.9957C19.6759 11.8765 19.7428 11.7149 19.743 11.5464V10.7835C19.7427 10.6151 19.6757 10.4536 19.5567 10.3343C19.4377 10.2151 19.2763 10.1478 19.1079 10.1472ZM3.57928 19.1244V18.3618C3.57928 18.0117 3.29428 17.7258 2.94418 17.7258H0.89218C0.723707 17.7262 0.562261 17.7934 0.443217 17.9126C0.324173 18.0318 0.257238 18.1933 0.25708 18.3618V19.1244C0.25708 19.4754 0.54238 19.7613 0.89218 19.7613H2.94418C3.11278 19.7608 3.27432 19.6935 3.39337 19.5741C3.51243 19.4547 3.57928 19.293 3.57928 19.1244ZM4.93318 19.7613H6.98398C7.15277 19.7611 7.31457 19.6939 7.43386 19.5745C7.55316 19.4551 7.6202 19.2932 7.62028 19.1244V18.3618C7.62028 18.0117 7.33528 17.7258 6.98398 17.7258H4.93318C4.76466 17.726 4.60312 17.7932 4.48404 17.9124C4.36496 18.0317 4.29808 18.1933 4.29808 18.3618V19.1244C4.29796 19.2079 4.3143 19.2907 4.34615 19.3679C4.378 19.4451 4.42475 19.5153 4.48372 19.5744C4.5427 19.6335 4.61274 19.6805 4.68986 19.7126C4.76698 19.7446 4.84966 19.7612 4.93318 19.7613ZM8.97478 19.7613H11.0256C11.1944 19.7611 11.3562 19.6939 11.4756 19.5745C11.5949 19.4551 11.662 19.2932 11.6622 19.1244V18.3618C11.6622 18.0117 11.3772 17.7258 11.0256 17.7258H8.97478C8.80607 17.7259 8.64429 17.7929 8.52494 17.9121C8.40559 18.0314 8.33842 18.1931 8.33818 18.3618V19.1244C8.33818 19.4754 8.62318 19.7613 8.97478 19.7613ZM13.0158 19.7613H15.0663C15.1498 19.7612 15.2325 19.7446 15.3096 19.7126C15.3867 19.6805 15.4568 19.6335 15.5157 19.5744C15.5747 19.5153 15.6215 19.4451 15.6533 19.3679C15.6852 19.2907 15.7015 19.2079 15.7014 19.1244V18.3618C15.7014 18.1933 15.6345 18.0317 15.5154 17.9124C15.3963 17.7932 15.2348 17.726 15.0663 17.7258H13.0158C12.8471 17.7259 12.6853 17.7929 12.5659 17.9121C12.4466 18.0314 12.3794 18.1931 12.3792 18.3618V19.1244C12.3793 19.2932 12.4465 19.4551 12.5658 19.5745C12.6851 19.6939 12.847 19.7611 13.0158 19.7613ZM19.1079 17.7258H17.0559C16.8874 17.7262 16.726 17.7934 16.6069 17.9126C16.4879 18.0318 16.4209 18.1933 16.4208 18.3618V19.1244C16.4208 19.4754 16.7058 19.7613 17.0559 19.7613H19.1079C19.2765 19.7608 19.438 19.6935 19.5571 19.5741C19.6761 19.4547 19.743 19.293 19.743 19.1244V18.3618C19.743 18.0117 19.4577 17.7258 19.1079 17.7258ZM16.728 21.5145H3.09118C2.9227 21.5151 2.7613 21.5823 2.64229 21.7016C2.52327 21.8208 2.45632 21.9823 2.45608 22.1508V22.9137C2.456 23.0823 2.52285 23.244 2.64194 23.3633C2.76102 23.4826 2.92261 23.5498 3.09118 23.55H16.728C16.8966 23.5498 17.0583 23.4827 17.1774 23.3634C17.2966 23.2441 17.3635 23.0823 17.3634 22.9137V22.1508C17.3634 21.801 17.0784 21.5145 16.728 21.5145Z" fill="white"/>
</svg>
