<svg width="57" height="70" viewBox="0 0 57 70" fill="none" xmlns="http://www.w3.org/2000/svg">
<path opacity="0.3" d="M28.2306 70.0001C41.2623 70.0001 51.8265 68.2868 51.8265 66.1734C51.8265 64.0599 41.2623 62.3467 28.2306 62.3467C15.199 62.3467 4.63477 64.0599 4.63477 66.1734C4.63477 68.2868 15.199 70.0001 28.2306 70.0001Z" fill="#2F3133"/>
<path fill-rule="evenodd" clip-rule="evenodd" d="M19.3136 54.3449C18.4277 50.8422 19.5227 46.5889 21.4094 43.0001C22.525 42.3849 34.6203 45.0017 35.4652 45.2273C36.4373 49.3287 37.356 50.9201 36.1789 54.3161C36.1789 54.3161 36.306 54.7222 36.3922 55.0667C36.8392 56.8591 36.831 58.7499 36.2322 60.5135C35.4201 62.9006 33.4596 64.7873 31.0233 65.4394C30.6378 65.5419 29.3663 63.1015 29.6903 62.9211C30.8511 62.2771 31.6467 61.0672 31.7042 59.7588C31.7616 58.5079 30.5599 55.8911 29.9815 55.44C28.5829 55.6943 27.1064 55.7271 25.5191 55.4195C24.785 56.1536 23.7555 58.4833 23.7842 59.6399C23.8252 61.1574 24.8219 62.5519 26.2861 63.159C26.4379 63.2533 25.4002 65.6363 24.9982 65.5583C22.4184 65.0579 20.2446 63.1467 19.3259 60.6899C18.5794 58.676 18.6614 56.3792 19.3136 54.3449Z" fill="#2F3133"/>
<path fill-rule="evenodd" clip-rule="evenodd" d="M22.5053 42.9141C25.7701 43.0822 34.7441 45.0304 35.466 45.2232C36.438 49.3247 37.3568 50.9161 36.1796 54.3121C36.1796 54.3121 36.2822 54.6443 36.3683 54.9601C34.8426 55.8214 32.9518 56.4531 30.8477 56.7689C30.5401 56.1332 30.2161 55.6164 29.9864 55.44C28.5878 55.6943 27.1113 55.7271 25.524 55.4195C25.2533 55.6902 24.9416 56.1824 24.6586 56.7484C22.5545 56.4162 20.6678 55.7681 19.1585 54.8863C19.2077 54.7058 19.261 54.5254 19.3143 54.3449C18.4571 50.9489 19.4579 46.8515 21.2379 43.3324C21.6481 43.1766 22.0705 43.0371 22.5053 42.9141Z" fill="#2B2B2B"/>
<path fill-rule="evenodd" clip-rule="evenodd" d="M29.1932 55.555C29.1604 55.5591 29.1317 55.5632 29.0989 55.5673C29.1276 55.5632 29.1563 55.555 29.185 55.5509L29.1932 55.555ZM35.8623 50.3666C35.6777 48.968 36.4119 48.6604 36.621 49.9811C36.8343 51.3387 36.7769 52.5937 36.1781 54.3164C36.1781 54.3164 36.3052 54.7224 36.3914 55.0669C36.8384 56.8593 36.8302 58.7501 36.2314 60.5137C35.4193 62.9008 33.4588 64.7875 31.0225 65.4396C30.9733 65.4519 30.9077 65.4232 30.8338 65.3617C32.983 64.5742 34.6892 62.8146 35.4316 60.6244C36.0304 58.8608 36.0386 56.97 35.5916 55.1777C35.5054 54.8372 35.3783 54.4271 35.3783 54.4271C35.9402 52.8234 36.0263 51.6176 35.8623 50.3666ZM24.5216 65.4437C24.9892 64.8613 25.6168 63.3437 25.4937 63.2699C24.0295 62.6629 23.0328 61.2684 22.9918 59.7508C22.9631 58.5942 23.9926 56.2646 24.7267 55.5304C24.9318 55.5714 25.1328 55.6042 25.3337 55.6329C24.6242 56.5312 23.7629 58.5778 23.7916 59.636C23.8326 61.1535 24.8293 62.548 26.2935 63.1551C26.4452 63.2494 25.4076 65.6324 25.0056 65.5544C24.8375 65.5216 24.6775 65.4847 24.5216 65.4437Z" fill="#454545"/>
<path fill-rule="evenodd" clip-rule="evenodd" d="M32.8184 64.6226C31.752 63.9746 30.6528 63.3142 30.8456 62.1084C30.136 62.7236 30.2098 62.5103 29.935 62.8303C29.6438 62.9369 28.9015 63.1871 28.0525 63.7326C27.8105 65.1927 28.9056 65.6562 30.0007 66.2386C30.3083 65.9433 30.5298 65.6562 30.8169 65.4962C31.3747 65.1886 32.0104 65.1066 32.8184 64.6226Z" fill="#1F2633"/>
<path fill-rule="evenodd" clip-rule="evenodd" d="M30.6642 66.4563C30.6847 66.3455 30.8077 65.7057 30.8159 65.5211C30.8159 65.5211 30.0161 65.7631 29.7905 65.5786C29.4296 65.2833 28.9702 64.4958 28.9497 64.0528C28.9333 63.696 29.6593 62.9331 29.6593 62.9331C28.8472 63.0069 27.9695 63.778 27.9039 63.8888C27.7849 64.0938 28.1212 65.5622 28.6298 66.7065C28.7447 66.9608 29.7536 68.224 31.222 67.494C31.4804 67.4611 31.505 66.5834 30.6642 66.4563Z" fill="#1F2633"/>
<path fill-rule="evenodd" clip-rule="evenodd" d="M22.6729 64.6236C23.7392 63.9756 24.8384 63.3152 24.6457 62.1094C25.3552 62.7246 25.2814 62.5113 25.5562 62.8312C25.8474 62.9379 26.5898 63.1881 27.4388 63.7336C27.6808 65.1937 26.5857 65.6572 25.4906 66.2396C25.183 65.9443 24.9615 65.6572 24.6744 65.4972C24.1166 65.1896 23.4808 65.1076 22.6729 64.6236Z" fill="#1F2633"/>
<path fill-rule="evenodd" clip-rule="evenodd" d="M24.827 66.4573C24.8065 66.3465 24.6834 65.7067 24.6752 65.5221C24.6752 65.5221 25.475 65.7641 25.7006 65.5795C26.0615 65.2842 26.5209 64.4967 26.5414 64.0538C26.5578 63.697 25.8318 62.9341 25.8318 62.9341C26.6439 63.0079 27.5216 63.779 27.5873 63.8897C27.7062 64.0948 27.3699 65.5631 26.8613 66.7074C26.7465 66.9617 25.7375 68.225 24.2692 67.4949C24.0108 67.4621 23.9862 66.5844 24.827 66.4573Z" fill="#1F2633"/>
<path fill-rule="evenodd" clip-rule="evenodd" d="M24.6258 29.2362C25.0564 28.8097 25.4871 28.4652 25.9136 28.2396C27.0292 27.6243 29.203 27.8786 30.0479 28.1083C30.5729 28.2806 31.1594 28.7359 31.7583 29.3962C31.8157 29.2649 31.8772 29.2116 31.9469 29.2567C32.9149 29.8925 33.7516 30.7497 34.498 31.5823C35.1912 32.3575 35.8433 33.1614 36.4914 33.9734L36.4996 33.9858C36.922 34.5846 37.3404 35.1834 37.7628 35.7781C37.7628 35.7781 38.3699 36.6599 38.8374 37.3408C39.8628 38.8296 40.9169 40.3102 42.3606 41.4587C43.4721 42.3446 44.8543 42.9352 46.3349 42.6686C47.0527 42.5415 47.5203 42.8491 47.6638 43.2141C47.6638 43.2141 47.7212 43.4151 47.7089 43.5504C47.6925 43.7883 47.5654 44.0303 47.3972 44.1985C47.1963 44.4035 46.9338 44.5102 46.6631 44.6209C44.8092 45.3797 42.6354 45.1623 40.7528 44.3625C39.2024 43.7022 37.7997 42.7014 36.5365 41.6596C36.438 41.5817 36.3437 41.4997 36.2494 41.4177C36.2535 41.4915 36.2576 41.5612 36.2617 41.6309C36.3027 42.3241 37 49.6657 36.6185 53.6155C31.6762 56.1625 23.1328 55.6129 18.6253 53.5416C17.8009 50.2769 18.5761 44.666 19.0518 42.0739C18.0798 42.8122 17.0626 43.4643 15.9593 43.9729C13.966 44.8957 11.5912 45.1746 9.5487 44.2395C9.32312 44.1369 9.19187 44.059 9.06062 43.9237C8.89246 43.7514 8.76941 43.5135 8.7489 43.2756C8.7407 43.1403 8.79403 42.9393 8.79403 42.9393C8.85555 42.8491 8.90066 42.7424 8.98269 42.6645C9.15495 42.4963 9.41334 42.3938 9.65533 42.3692C9.92193 42.3405 10.1803 42.4184 10.4551 42.4471C12.3377 42.6522 14.1054 41.3561 15.3482 40.0067C16.2341 39.0429 17.0011 37.9765 17.7312 36.9101C17.7312 36.9101 18.2274 36.2006 18.6335 35.5935C18.6335 35.5935 18.7688 35.4008 18.8673 35.2654C19.1954 34.802 19.5235 34.3344 19.8516 33.8709L19.9583 33.7192C21.1231 32.2672 22.2797 30.7866 23.7029 29.6013C23.9367 29.4085 24.1787 29.2239 24.4289 29.0517C24.5109 28.986 24.5765 29.064 24.6258 29.2362Z" fill="#323940"/>
<path d="M27.4558 39.1161C25.766 40.7937 23.7358 42.0733 21.9803 42.9305C25.1918 43.5375 29.486 43.5581 32.5375 42.8772C30.9134 42.0077 29.0431 40.7362 27.4558 39.1161ZM10.7915 44.6491C10.7586 44.485 10.7504 44.3168 10.775 44.1528C10.8858 43.353 11.9153 43.3161 12.5223 43.1192C14.1711 42.586 15.5574 41.696 16.9478 40.6911C17.8255 40.0595 18.7032 39.4156 19.2282 38.4476C19.5153 37.9226 19.8475 37.4263 20.1634 36.9177C20.1716 36.9013 20.2741 36.7209 20.2987 36.7332C20.5284 36.848 20.3315 37.615 20.3069 37.7462C20.1264 38.7101 19.8722 39.6657 19.5974 40.605C19.4866 40.9864 19.4087 41.3802 19.3225 41.7657C19.3061 41.8477 19.179 42.262 19.179 42.2333L18.9329 42.709C18.9698 42.4794 19.0108 42.2661 19.0437 42.0692C18.0716 42.8075 17.0544 43.4596 15.9511 43.9682C14.3638 44.7065 12.5141 45.0305 10.7915 44.6491ZM18.9247 42.8157C19.1462 42.6434 19.3677 42.463 19.5891 42.2825C19.7532 42.344 19.9255 42.4055 20.1059 42.463C21.8778 41.5934 24.2772 40.1128 26.3402 37.8447C25.6758 36.9998 25.1016 36.081 24.675 35.0885C24.1746 33.9319 23.3666 31.5489 23.2805 30.0806C23.7727 30.1585 24.2731 30.2241 24.7775 30.2733C25.2656 32.7096 26.2582 34.7645 27.4722 36.4707C28.7314 34.7768 29.7649 32.7219 30.2981 30.2692C30.7698 30.2241 31.2415 30.1667 31.7049 30.1011C31.787 31.4505 30.6837 34.2928 30.0561 35.5766C29.6542 36.3969 29.1538 37.1638 28.5837 37.8693C30.4499 40.0021 32.595 41.4663 34.2274 42.3686C34.6498 42.2005 35.019 42.0159 35.3266 41.8067C35.507 41.9667 35.6875 42.1266 35.8679 42.2825C35.9828 43.6729 36.192 46.2404 36.2535 48.2337C36.4011 48.3158 36.5488 48.4019 36.6965 48.4921C36.7375 49.7677 36.7539 51.0597 36.7129 52.204C36.639 52.2409 36.5652 52.2778 36.4955 52.3147C35.9295 52.61 35.3635 52.852 34.74 53.012C32.1069 53.6887 31.3809 52.3475 31.2579 50.6536C30.9585 52.4911 30.3391 54.9766 28.8175 54.1522C27.1195 53.2335 26.3607 51.839 26.4099 50.5101C23.6086 50.4445 20.6925 50.0138 18.2767 49.1279C18.3341 46.8475 18.6499 44.4645 18.9247 42.8157Z" fill="#333536"/>
<path fill-rule="evenodd" clip-rule="evenodd" d="M23.8306 29.4864C24.0275 29.3306 24.2284 29.1788 24.4376 29.0353C24.495 28.9983 24.5443 29.0271 24.5853 29.1173C24.372 29.2855 24.1546 29.4741 23.9413 29.6874C23.9085 29.5808 23.8716 29.511 23.8306 29.4864ZM13.2652 41.7294C12.2357 42.4963 11.0298 43.0254 9.77889 42.8901C9.50409 42.8614 9.2457 42.7834 8.9791 42.8122C8.94219 42.8163 8.90117 42.8204 8.86426 42.8286C8.90117 42.767 8.93808 42.7014 8.9914 42.6522C9.16367 42.484 9.42207 42.3815 9.66405 42.3569C9.93065 42.3282 10.189 42.4061 10.4638 42.4348C11.4482 42.5415 12.4038 42.2379 13.2652 41.7294ZM18.3633 42.5702C18.1459 42.7219 17.9244 42.8696 17.6989 43.0131C17.9244 42.8532 18.15 42.6891 18.3715 42.521L18.3633 42.5702ZM25.2169 28.703C25.4507 28.5185 25.6845 28.3626 25.9141 28.2396C27.0297 27.6243 29.2035 27.8786 30.0484 28.1083C30.5734 28.2806 31.1599 28.7359 31.7588 29.3962C31.8162 29.2649 31.8777 29.2116 31.9474 29.2567C32.9154 29.8925 33.7521 30.7497 34.4986 31.5823C35.1917 32.3575 35.8439 33.1614 36.4919 33.9734L36.5001 33.9858C36.9225 34.5846 37.3409 35.1834 37.7633 35.7781C37.7633 35.7781 38.3704 36.6599 38.8379 37.3408C39.8633 38.8296 40.9174 40.3102 42.3611 41.4587C43.4726 42.3446 44.8548 42.9352 46.3355 42.6686C47.0532 42.5415 47.5208 42.8491 47.6643 43.2141C47.6643 43.2141 47.7217 43.4151 47.7094 43.5504C47.693 43.7883 47.5659 44.0303 47.3977 44.1985C47.2296 44.3707 47.0163 44.4733 46.7907 44.5676C46.9179 44.4076 47.0081 44.2067 47.0245 44.0057C47.0327 43.8703 46.9794 43.6694 46.9794 43.6694C46.8399 43.3043 46.3683 42.9926 45.6505 43.1239C44.1699 43.3905 42.7877 42.7999 41.6762 41.9139C40.2324 40.7614 39.1784 39.2849 38.153 37.796C37.6854 37.1152 37.0784 36.2334 37.0784 36.2334C36.6559 35.6387 36.2335 35.0398 35.8151 34.441L35.8069 34.4287C35.1548 33.6207 34.5027 32.8127 33.8136 32.0375C33.0671 31.2049 32.2304 30.3436 31.2625 29.712C31.1928 29.6669 31.1312 29.7202 31.0738 29.8515C30.475 29.1911 29.8885 28.7359 29.3635 28.5636C28.5186 28.338 26.3448 28.0796 25.2292 28.6948L25.2169 28.703ZM35.9505 53.9272C36.3032 49.9487 35.6224 42.767 35.5814 42.0821C35.5773 42.0124 35.5732 41.9426 35.569 41.8688C35.6634 41.9508 35.7618 42.0288 35.8561 42.1108C36.012 42.242 36.172 42.3692 36.336 42.5004C36.5124 44.707 36.943 50.3302 36.6272 53.6114C36.4057 53.7221 36.1843 53.8288 35.9505 53.9272Z" fill="#4D5154"/>
<path d="M32.0449 29.1909C32.127 30.5403 31.0237 33.3826 30.3961 34.6664C27.9393 39.6989 21.6477 42.6438 19.1786 43.2016C19.1088 43.218 18.9448 42.2131 19.0022 42.1885C21.783 41.0975 28.8909 37.398 30.6381 29.355C31.1098 29.3099 31.5815 29.2565 32.0449 29.1909Z" fill="#1F2633"/>
<path d="M23.6211 29.1704C24.1133 29.2483 24.6137 29.314 25.1181 29.3632C26.6726 37.1396 33.3703 41.0114 36.0363 42.2008C36.0937 42.2254 35.8763 43.2221 35.8107 43.2057C33.3703 42.5413 27.2263 39.3175 25.0156 34.1783C24.5152 33.0217 23.7072 30.6387 23.6211 29.1704Z" fill="#1F2633"/>
<path fill-rule="evenodd" clip-rule="evenodd" d="M28.2355 28.252L28.3586 28.3094L28.4037 28.4324L28.3832 29.3019L28.3586 30.4832L28.3258 31.8941L28.2889 33.4485L28.2109 36.6518L28.1371 39.4162L28.0797 41.3972L28.0099 43.813L27.85 49.1039L27.6572 55.3259V55.4161L27.5916 55.4776L27.5342 55.412V55.3259L27.6367 49.0998L27.727 43.8089L27.7721 41.389L27.809 39.408L27.8623 36.6436L27.9402 33.4403L28.0592 28.4242L28.1125 28.3012L28.2355 28.252Z" fill="#1F2633"/>
<path fill-rule="evenodd" clip-rule="evenodd" d="M11.898 42.3156C12.1441 42.2828 12.3943 42.2213 12.6527 42.127C11.9267 42.7709 12.7019 44.6248 13.231 44.7519C11.9841 44.9037 10.7127 44.7642 9.54784 44.231C9.32226 44.1285 9.19101 44.0506 9.05976 43.9152C8.94082 43.7922 8.84238 43.6363 8.78906 43.4722C8.85879 43.2138 8.90391 42.9719 8.89571 42.7709C8.92031 42.7299 8.94903 42.6889 8.98594 42.656C9.1582 42.4879 9.41659 42.3853 9.65858 42.3607C9.92517 42.332 10.1836 42.41 10.4584 42.4387C10.9505 42.4879 11.4345 42.4387 11.898 42.3156Z" fill="#1F2633"/>
<path fill-rule="evenodd" clip-rule="evenodd" d="M43.2344 45.0307C43.7635 44.8913 44.5304 43.0456 43.8045 42.4058C43.9808 42.4714 44.1572 42.5124 44.3254 42.5288C44.9611 42.7257 45.6378 42.7872 46.3351 42.6642C46.8929 42.5657 47.2989 42.7257 47.5204 42.9759C47.5696 43.1604 47.6353 43.3573 47.7091 43.5542C47.6886 43.788 47.5655 44.0258 47.4015 44.194C47.2005 44.3991 46.938 44.5057 46.6673 44.6165C45.5886 45.0594 44.4074 45.1702 43.2344 45.0307Z" fill="#1F2633"/>
<path fill-rule="evenodd" clip-rule="evenodd" d="M26.751 49.6042C23.8349 49.5345 20.7875 49.071 18.3184 48.1113C18.4496 45.7775 18.7982 43.4766 19.0566 42.0657C19.3519 41.8401 19.6431 41.6063 19.9302 41.3684C23.9333 42.9106 32.69 42.9147 35.6676 40.9009C35.8481 41.0608 36.0286 41.2208 36.209 41.3766C36.3239 42.7671 36.5331 45.3346 36.5946 47.3279C38.0014 48.1113 39.5395 49.2146 38.8504 50.0841C38.3787 50.6788 37.501 51.0603 36.8366 51.4089C36.2706 51.7042 35.7046 51.9462 35.0811 52.1061C32.448 52.7829 31.722 51.4417 31.599 49.7478C31.2996 51.5852 30.6802 54.0708 29.1586 53.2464C27.4647 52.3276 26.7059 50.9331 26.751 49.6042Z" fill="#1F2633"/>
<path fill-rule="evenodd" clip-rule="evenodd" d="M15.5241 12.7148C15.561 12.9527 15.5159 12.481 15.5159 12.4482C15.4462 11.7756 15.3108 11.1152 15.1919 10.4508C15.036 9.58948 14.3716 5.01222 12.7187 5.62334C11.9927 5.88994 11.3652 6.59129 10.8279 7.10808C10.3727 7.54694 9.97482 8.0022 9.63439 8.5354C6.69773 13.1578 14.5767 12.7517 15.561 13.6459" fill="#1F2633"/>
<path fill-rule="evenodd" clip-rule="evenodd" d="M14.5557 12.957C14.5475 13.0062 14.1414 12.8996 14.1045 12.8914C13.6287 12.7888 13.1406 12.7232 12.6567 12.674C11.5944 12.5674 6.27476 11.4025 6.80796 13.6912C7.78001 17.887 12.6321 18.2479 14.4162 14.3884C14.6377 13.9085 15.6918 11.6445 15.3513 11.1318" fill="#1F2633"/>
<path fill-rule="evenodd" clip-rule="evenodd" d="M31.7985 29.2889L28.0292 27.1685L23.8662 29.2889C24.506 30.503 25.556 31.3151 26.729 31.6186C28.4681 32.0697 30.4737 31.4094 31.7985 29.2889Z" fill="#2B2B2B"/>
<path fill-rule="evenodd" clip-rule="evenodd" d="M29.8534 30.1911C32.1339 30.9949 23.9473 30.8801 26.2277 30.1131V29.4528C19.1362 29.0139 12.5985 26.1962 13.7633 17.1811V13.0673C14.7682 5.27861 20.1616 0 28.0406 0C35.9195 0 41.6534 5.37295 42.3179 13.0673V17.1811C43.3391 26.6187 36.8096 28.895 29.8534 29.4282V30.1911Z" fill="#2F3133"/>
<path fill-rule="evenodd" clip-rule="evenodd" d="M40.7552 24.9288C38.5035 28.046 34.2625 29.0877 29.8534 29.4241V30.1869C32.1339 30.9908 23.9473 30.876 26.2277 30.109V29.4487C19.1362 29.0098 12.5985 26.1921 13.7633 17.177V13.0673C14.7682 5.27861 20.1616 0 28.0406 0C28.5451 0 29.0414 0.0205074 29.5294 0.0656237C21.8637 0.754674 15.8592 6.79206 15.8592 14.1296C15.8592 21.9266 22.6389 28.2592 30.9936 28.2592C34.7137 28.2592 38.1179 27.0083 40.7552 24.9288Z" fill="#2B2B2B"/>
<path fill-rule="evenodd" clip-rule="evenodd" d="M19.9375 2.33375C22.1646 0.836703 24.9085 0 28.042 0C35.921 0 41.6549 5.37295 42.3193 13.0673V17.1811C42.9304 22.8084 40.851 25.8927 37.5985 27.5743C40.1783 25.7819 41.7123 22.8043 41.1791 17.8661V13.7523C40.5188 6.0579 34.7808 0.684949 26.9018 0.684949C24.2851 0.684949 21.939 1.26736 19.9375 2.33375Z" fill="#454545"/>
<path fill-rule="evenodd" clip-rule="evenodd" d="M42.1346 12.895C42.2167 13.3626 42.2782 13.8384 42.3192 14.3223V16.7463C32.5905 18.8176 23.0832 18.7478 13.7646 16.7463V14.3223C13.8262 13.8384 13.9082 13.3626 14.0025 12.8991C23.477 14.9171 32.853 14.954 42.1346 12.895Z" fill="#1F2633"/>
<path fill-rule="evenodd" clip-rule="evenodd" d="M37.4375 24.6086C41.0756 23.3946 42.0886 16.7379 40.3209 16.7379H16.2574C14.0508 16.6641 15.7694 23.6776 18.8906 24.6168C21.9175 25.5274 24.6655 23.3372 28.0451 23.3044C31.0966 23.2716 34.7921 25.4905 37.4375 24.6086Z" fill="#F1C9A7"/>
<path fill-rule="evenodd" clip-rule="evenodd" d="M20.8834 20.667C21.6709 20.667 22.3107 21.2863 22.3107 22.0451C22.3107 22.8039 21.6709 23.4232 20.8834 23.4232C20.0959 23.4232 19.4561 22.8039 19.4561 22.0451C19.4561 21.2863 20.0959 20.667 20.8834 20.667Z" fill="#1F2633"/>
<path d="M35.9146 23.4232C36.7029 23.4232 37.3419 22.8062 37.3419 22.0451C37.3419 21.284 36.7029 20.667 35.9146 20.667C35.1263 20.667 34.4873 21.284 34.4873 22.0451C34.4873 22.8062 35.1263 23.4232 35.9146 23.4232Z" fill="#1F2633"/>
<path d="M38.0581 18.8425L38.2919 18.9614L38.4683 19.1665L38.5462 19.4208C38.5175 19.6751 38.5175 19.6792 38.3944 19.9048L38.1812 20.0729C37.648 20.3477 37.123 20.6389 36.5652 20.8645C36.3847 20.9342 36.0525 21.0532 35.8802 21.1106C35.2691 21.3157 34.6621 21.5167 34.0428 21.7094L33.8459 21.7135L33.7064 21.6151L33.6982 21.451L33.809 21.2952C33.8131 21.2911 33.8172 21.2911 33.8213 21.287C34.5472 20.7456 34.6498 20.6635 35.3511 20.1591C35.4988 20.0524 35.7859 19.8514 35.9458 19.7489C36.4503 19.4249 36.9917 19.1706 37.5249 18.8917L37.7874 18.8179C37.8818 18.8261 37.9679 18.8343 38.0581 18.8425Z" fill="#1F2633"/>
<path d="M19.7848 18.8915C20.3179 19.1663 20.8634 19.4247 21.3679 19.7487C21.5279 19.8512 21.815 20.0563 21.9626 20.1589C22.4835 20.5321 22.9921 20.9094 23.5048 21.2991L23.6155 21.4549L23.6073 21.619L23.472 21.7174H23.2751C23.271 21.7174 23.2669 21.7133 23.2587 21.7133C22.3892 21.4344 22.262 21.3975 21.4335 21.1186C21.2613 21.0612 20.9291 20.9422 20.7486 20.8725C20.1908 20.651 19.6658 20.3557 19.1326 20.0809L18.9193 19.9128L18.7963 19.6831L18.7676 19.4288L18.8455 19.1745L19.0219 18.9694C19.2557 18.8505 19.2598 18.8505 19.5223 18.8218C19.6084 18.8423 19.6945 18.8669 19.7848 18.8915Z" fill="#1F2633"/>
<path fill-rule="evenodd" clip-rule="evenodd" d="M11.315 43.8861C10.3019 43.2094 8.43573 40.7362 7.86152 40.002C1.24582 31.5119 3.73953 37.213 7.74259 42.0322C9.1535 43.7302 9.79333 44.366 10.6998 45.0673C12.0122 46.0845 12.8448 44.9033 11.315 43.8861Z" fill="#1F2633"/>
<path d="M9.72748 42.1468C10.1376 42.073 10.5888 42.2083 10.8267 42.4995C10.9333 42.6308 10.88 42.8892 10.7159 42.881C10.6585 42.8687 10.4821 42.7333 10.2484 42.6308C10.0638 42.5487 9.89154 42.4462 9.71518 42.3478C9.55522 42.2616 9.63725 42.1632 9.72748 42.1468ZM8.80465 43.8202C8.65699 43.812 8.60777 43.7546 8.51754 43.652C8.46422 43.5905 8.46421 43.3937 8.52574 43.086C8.54624 42.9753 8.66519 42.6759 8.78413 42.7251C9.01792 42.8276 8.80054 43.1681 8.92769 43.2091C8.9646 43.1148 9.03432 42.8728 9.20658 42.8974C9.30912 42.9097 9.28041 43.246 9.30912 43.3403C9.36654 43.2665 9.48959 43.0204 9.62084 43.0532C9.67416 43.0655 9.65775 43.2009 9.66186 43.246C9.67006 43.3321 9.67416 43.4142 9.67005 43.4921C9.72747 43.447 9.88743 43.2706 10.0023 43.3444C10.0925 43.4019 9.88334 44.136 9.88334 44.1565C9.89975 44.1852 9.8095 44.3821 9.62904 44.3739C9.57162 44.3739 9.4978 44.3288 9.46908 44.2878C9.39526 44.3124 9.2353 44.2509 9.19839 44.2181C9.18198 44.2016 9.13276 44.1319 9.12046 44.1073C9.06304 44.1032 9.01382 44.1278 8.91949 44.0417C8.86617 43.9925 8.83336 43.8817 8.80465 43.8202Z" fill="#F1C9A7"/>
<path d="M46.7317 42.4256C46.3215 42.3518 45.8703 42.4871 45.6324 42.7783C45.5258 42.9096 45.5791 43.168 45.7432 43.1598C45.8006 43.1475 45.977 43.0121 46.2108 42.9096C46.3953 42.8276 46.5676 42.725 46.744 42.6266C46.9039 42.5405 46.8219 42.442 46.7317 42.4256ZM47.6545 44.099C47.798 44.0908 47.8514 44.0334 47.9416 43.9309C47.9949 43.8693 47.9949 43.6725 47.9334 43.3648C47.9129 43.2541 47.7939 42.9547 47.675 43.0039C47.4412 43.1065 47.6586 43.4469 47.5314 43.4879C47.4904 43.3936 47.4248 43.1516 47.2566 43.1762C47.1541 43.1885 47.1828 43.5248 47.1541 43.6191C47.0967 43.5453 46.9736 43.2992 46.8424 43.332C46.7891 43.3443 46.8055 43.4797 46.8014 43.5248C46.7932 43.6109 46.7891 43.693 46.7932 43.7709C46.7358 43.7258 46.5758 43.5494 46.461 43.6232C46.3707 43.6807 46.5799 44.4148 46.5799 44.4353C46.5635 44.464 46.6537 44.6609 46.8342 44.6527C46.8916 44.6527 46.9654 44.6076 46.9941 44.5666C47.068 44.5912 47.2279 44.5297 47.2648 44.4969C47.2853 44.4805 47.3305 44.4107 47.3428 44.3861C47.4002 44.382 47.4494 44.4066 47.5437 44.3205C47.593 44.2713 47.6258 44.1564 47.6545 44.099Z" fill="#F1C9A7"/>
<path fill-rule="evenodd" clip-rule="evenodd" d="M10.6907 41.7118L10.6005 41.3386L8.79176 41.2114L6.68359 42.8766L6.76972 43.2909L8.42262 44.1891L10.6907 41.7118Z" fill="#919191"/>
<path fill-rule="evenodd" clip-rule="evenodd" d="M10.6046 41.3104L8.70562 40.8101L6.68359 42.8895L8.33649 43.7836L10.6046 41.3104Z" fill="#BDBDBD"/>
<path fill-rule="evenodd" clip-rule="evenodd" d="M9.19057 41.2362C6.96757 38.6564 4.39593 34.7354 0.290338 29.6618C0.109873 29.4404 -0.0705988 29.5716 0.0278369 29.8546C2.36158 36.6959 6.49179 41.7694 7.70173 42.7989C8.11598 43.3075 9.86732 42.3847 9.19057 41.2362Z" fill="#DDDDDD"/>
<path fill-rule="evenodd" clip-rule="evenodd" d="M8.96614 42.5445C8.83899 42.8603 -0.442669 30.0678 0.0249011 29.8545C2.35865 36.6958 6.48884 41.7693 7.69878 42.7988C7.92846 43.0777 8.55599 42.93 8.96614 42.5445Z" fill="white"/>
<path fill-rule="evenodd" clip-rule="evenodd" d="M45.7666 41.9911L45.8568 41.6179L47.6656 41.4907L49.7738 43.1559L49.6876 43.5702L48.0347 44.4643L45.7666 41.9911Z" fill="#919191"/>
<path fill-rule="evenodd" clip-rule="evenodd" d="M45.8525 41.5851L47.7515 41.0889L49.7736 43.1683L48.1207 44.0624L45.8525 41.5851Z" fill="#BDBDBD"/>
<path fill-rule="evenodd" clip-rule="evenodd" d="M47.268 41.5111C49.4952 38.9313 52.0668 35.0103 56.1683 29.9367C56.3487 29.7153 56.5292 29.8465 56.4308 30.1295C54.097 36.9708 49.9668 42.0443 48.7569 43.0738C48.3426 43.5865 46.5913 42.6637 47.268 41.5111Z" fill="#DDDDDD"/>
<path fill-rule="evenodd" clip-rule="evenodd" d="M47.4941 42.8243C47.6213 43.1401 56.903 30.3476 56.4354 30.1343C54.1016 36.9756 49.9714 42.0491 48.7615 43.0786C48.5318 43.3575 47.9043 43.2057 47.4941 42.8243Z" fill="white"/>
</svg>
