<svg width="32" height="31" viewBox="0 0 32 31" fill="none" xmlns="http://www.w3.org/2000/svg">
<path d="M16 0.1875C7.54395 0.1875 0.6875 7.04395 0.6875 15.5C0.6875 23.9561 7.54395 30.8125 16 30.8125C24.4561 30.8125 31.3125 23.9561 31.3125 15.5C31.3125 7.04395 24.4561 0.1875 16 0.1875ZM23.3589 11.73C23.3691 11.8906 23.3691 12.0581 23.3691 12.2222C23.3691 17.2397 19.5479 23.0195 12.5649 23.0195C10.4116 23.0195 8.41553 22.394 6.73389 21.3174C7.0415 21.3516 7.33545 21.3652 7.6499 21.3652C9.42725 21.3652 11.061 20.7637 12.3633 19.7451C10.6953 19.7109 9.29394 18.6172 8.81543 17.1133C9.3999 17.1987 9.92627 17.1987 10.5278 17.0449C9.66899 16.8704 8.89703 16.404 8.34312 15.7248C7.78921 15.0457 7.4875 14.1957 7.48926 13.3193V13.2715C7.9917 13.5552 8.58301 13.7295 9.20166 13.7534C8.68159 13.4068 8.25508 12.9372 7.95995 12.3863C7.66482 11.8354 7.51019 11.2202 7.50977 10.5952C7.50977 9.8877 7.69434 9.2417 8.02588 8.68115C8.97916 9.85467 10.1687 10.8145 11.5172 11.4981C12.8657 12.1818 14.343 12.5741 15.853 12.6494C15.3164 10.0688 17.2441 7.98047 19.5615 7.98047C20.6553 7.98047 21.6396 8.43848 22.3335 9.17676C23.1914 9.01611 24.0117 8.69482 24.7432 8.26416C24.4595 9.14258 23.8647 9.88428 23.0752 10.3525C23.8408 10.2705 24.5791 10.0586 25.2627 9.76123C24.7466 10.52 24.1006 11.1934 23.3589 11.73V11.73Z" fill="#4B5563"/>
</svg>
