<svg width="40" height="40" viewBox="0 0 40 40" fill="none" xmlns="http://www.w3.org/2000/svg">
<path fill-rule="evenodd" clip-rule="evenodd" d="M20 40C31.0457 40 40 31.0457 40 20C40 8.95429 31.0457 0 20 0C8.95429 0 0 8.95429 0 20C0 31.0457 8.95429 40 20 40Z" fill="#33C88F"/>
<path d="M32.3791 31.4284V30.0637C32.3791 29.6808 32.1542 29.337 31.8145 29.2018C27.8281 27.6046 23.4028 25.6227 23.0309 24.3875V23.0913C23.8579 22.2151 24.51 20.9922 24.8961 19.5608C25.8236 18.8865 26.0541 17.4951 25.2864 16.516V13.616C25.2864 10.6208 23.6774 8.57129 19.9986 8.57129C16.4147 8.57129 14.7088 10.6208 14.7088 13.616V16.517C13.9428 17.4941 14.1729 18.8846 15.0991 19.5608C15.4851 20.9922 16.1379 22.2151 16.9653 23.0913V24.3875C16.5944 25.6208 12.168 27.6037 8.18176 29.2008C7.84204 29.338 7.61719 29.6799 7.61719 30.0627V31.4284" fill="#33C88F"/>
<path d="M32.3791 31.4284V30.0637C32.3791 29.6808 32.1542 29.337 31.8145 29.2018C27.8281 27.6046 23.4028 25.6227 23.0309 24.3875V23.0913C23.8579 22.2151 24.51 20.9922 24.8961 19.5608C25.8236 18.8865 26.0541 17.4951 25.2864 16.516V13.616C25.2864 10.6208 23.6774 8.57129 19.9986 8.57129C16.4147 8.57129 14.7088 10.6208 14.7088 13.616V16.517C13.9428 17.4941 14.1729 18.8846 15.0991 19.5608C15.4851 20.9922 16.1379 22.2151 16.9653 23.0913V24.3875C16.5944 25.6208 12.168 27.6037 8.18176 29.2008C7.84204 29.338 7.61719 29.6799 7.61719 30.0627V31.4284" stroke="white" stroke-width="2"/>
</svg>
