<svg width="34" height="35" viewBox="0 0 34 35" fill="none" xmlns="http://www.w3.org/2000/svg">
<path d="M17 33.5C25.8366 33.5 33 26.3366 33 17.5C33 8.66343 25.8366 1.5 17 1.5C8.16343 1.5 1 8.66343 1 17.5C1 26.3366 8.16343 33.5 17 33.5Z" fill="white" stroke="#5B84FE" stroke-width="2"/>
<path d="M26.2853 26.0716V25.048C26.2853 24.7609 26.1167 24.503 25.8619 24.4016C22.8721 23.2037 19.5531 21.7173 19.2742 20.7908V19.8187C19.8944 19.1616 20.3835 18.2444 20.6731 17.1709C21.3687 16.6651 21.5416 15.6216 20.9658 14.8873V12.7123C20.9658 10.4659 19.759 8.92871 16.9999 8.92871C14.312 8.92871 13.0326 10.4659 13.0326 12.7123V14.888C12.4581 15.6209 12.6307 16.6637 13.3253 17.1709C13.6148 18.2444 14.1044 19.1616 14.7249 19.8187V20.7908C14.4468 21.7158 11.127 23.203 8.1373 24.4008C7.88251 24.5037 7.71387 24.7601 7.71387 25.0473V26.0716" fill="white"/>
<path d="M26.2853 26.0716V25.048C26.2853 24.7609 26.1167 24.503 25.8619 24.4016C22.8721 23.2037 19.5531 21.7173 19.2742 20.7908V19.8187C19.8944 19.1616 20.3835 18.2444 20.6731 17.1709C21.3687 16.6651 21.5416 15.6216 20.9658 14.8873V12.7123C20.9658 10.4659 19.759 8.92871 16.9999 8.92871C14.312 8.92871 13.0326 10.4659 13.0326 12.7123V14.888C12.4581 15.6209 12.6307 16.6637 13.3253 17.1709C13.6148 18.2444 14.1044 19.1616 14.7249 19.8187V20.7908C14.4468 21.7158 11.127 23.203 8.1373 24.4008C7.88251 24.5037 7.71387 24.7601 7.71387 25.0473V26.0716" stroke="#5B84FE" stroke-width="2"/>
</svg>
