<svg width="150" height="150" viewBox="0 0 150 150" fill="none" xmlns="http://www.w3.org/2000/svg">
<path fill-rule="evenodd" clip-rule="evenodd" d="M75 150C116.421 150 150 116.421 150 75C150 33.5786 116.421 0 75 0C33.5786 0 0 33.5786 0 75C0 116.421 33.5786 150 75 150Z" fill="#9CA3AF"/>
<path d="M121.429 117.857V112.739C121.429 111.304 120.585 110.014 119.311 109.507C104.362 103.518 87.7675 96.0859 86.3728 91.4538V86.5931C89.4739 83.3074 91.9196 78.7216 93.3675 73.3538C96.8453 70.8252 97.71 65.6073 94.8311 61.9359V51.0609C94.8311 39.8288 88.7971 32.1431 75.0018 32.1431C61.5621 32.1431 55.165 39.8288 55.165 51.0609V61.9395C52.2925 65.6038 53.1553 70.8181 56.6286 73.3538C58.0761 78.7216 60.5239 83.3074 63.6268 86.5931V91.4538C62.236 96.0788 45.6371 103.514 30.6886 109.504C29.4146 110.018 28.5714 111.3 28.5714 112.736V117.857" fill="#9CA3AF"/>
<path d="M121.429 117.857V112.739C121.429 111.304 120.585 110.014 119.311 109.507C104.362 103.518 87.7675 96.0859 86.3728 91.4538V86.5931C89.4739 83.3074 91.9196 78.7216 93.3675 73.3538C96.8453 70.8252 97.71 65.6073 94.8311 61.9359V51.0609C94.8311 39.8288 88.7971 32.1431 75.0018 32.1431C61.5621 32.1431 55.165 39.8288 55.165 51.0609V61.9395C52.2925 65.6038 53.1553 70.8181 56.6286 73.3538C58.0761 78.7216 60.5239 83.3074 63.6268 86.5931V91.4538C62.2361 96.0788 45.6371 103.514 30.6886 109.504C29.4146 110.018 28.5714 111.3 28.5714 112.736V117.857" stroke="white"/>
</svg>
