<svg width="30" height="31" viewBox="0 0 30 31" fill="none" xmlns="http://www.w3.org/2000/svg">
<path fill-rule="evenodd" clip-rule="evenodd" d="M15 30.5C23.2843 30.5 30 23.7843 30 15.5C30 7.21571 23.2843 0.5 15 0.5C6.71571 0.5 0 7.21571 0 15.5C0 23.7843 6.71571 30.5 15 30.5Z" fill="#9CA3AF"/>
<path d="M24.2857 24.0716V23.048C24.2857 22.7609 24.1171 22.503 23.8623 22.4016C20.8725 21.2037 17.5535 19.7173 17.2746 18.7908V17.8187C17.8948 17.1616 18.3839 16.2444 18.6735 15.1709C19.3691 14.6651 19.542 13.6216 18.9662 12.8873V10.7123C18.9662 8.46585 17.7594 6.92871 15.0004 6.92871C12.3124 6.92871 11.033 8.46585 11.033 10.7123V12.888C10.4585 13.6209 10.6311 14.6637 11.3257 15.1709C11.6152 16.2444 12.1048 17.1616 12.7254 17.8187V18.7908C12.4472 19.7158 9.12744 21.203 6.13772 22.4008C5.88294 22.5037 5.71429 22.7601 5.71429 23.0473V24.0716" fill="#9CA3AF"/>
<path d="M24.2857 24.0716V23.048C24.2857 22.7609 24.1171 22.503 23.8623 22.4016C20.8725 21.2037 17.5535 19.7173 17.2746 18.7908V17.8187C17.8948 17.1616 18.3839 16.2444 18.6735 15.1709C19.3691 14.6651 19.542 13.6216 18.9662 12.8873V10.7123C18.9662 8.46585 17.7594 6.92871 15.0004 6.92871C12.3124 6.92871 11.033 8.46585 11.033 10.7123V12.888C10.4585 13.6209 10.6311 14.6637 11.3257 15.1709C11.6152 16.2444 12.1048 17.1616 12.7254 17.8187V18.7908C12.4472 19.7158 9.12744 21.203 6.13772 22.4008C5.88294 22.5037 5.71429 22.7601 5.71429 23.0473V24.0716" stroke="white"/>
</svg>
