<svg width="15" height="18" viewBox="0 0 15 18" fill="none" xmlns="http://www.w3.org/2000/svg">
<path d="M13.6668 8.2C13.4368 7.9 13.1568 7.64 12.8968 7.38C12.2268 6.78 11.4668 6.35 10.8268 5.72C9.33676 4.26 9.00676 1.85 9.95676 0C9.00676 0.23 8.17676 0.75 7.46676 1.32C4.87676 3.4 3.85676 7.07 5.07676 10.22C5.11676 10.32 5.15676 10.42 5.15676 10.55C5.15676 10.77 5.00676 10.97 4.80676 11.05C4.57676 11.15 4.33676 11.09 4.14676 10.93C4.08967 10.8828 4.04214 10.8251 4.00676 10.76C2.87676 9.33 2.69676 7.28 3.45676 5.64C1.78676 7 0.876764 9.3 1.00676 11.47C1.06676 11.97 1.12676 12.47 1.29676 12.97C1.43676 13.57 1.70676 14.17 2.00676 14.7C3.08676 16.43 4.95676 17.67 6.96676 17.92C9.10676 18.19 11.3968 17.8 13.0368 16.32C14.8668 14.66 15.5068 12 14.5668 9.72L14.4368 9.46C14.2268 9 13.6668 8.2 13.6668 8.2M10.5068 14.5C10.2268 14.74 9.76676 15 9.40676 15.1C8.28676 15.5 7.16676 14.94 6.50676 14.28C7.69676 14 8.40676 13.12 8.61676 12.23C8.78676 11.43 8.46676 10.77 8.33676 10C8.21676 9.26 8.23676 8.63 8.50676 7.94C8.69676 8.32 8.89676 8.7 9.13676 9C9.90676 10 11.1168 10.44 11.3768 11.8C11.4168 11.94 11.4368 12.08 11.4368 12.23C11.4668 13.05 11.1068 13.95 10.5068 14.5V14.5Z" fill="#32498C"/>
</svg>
