<svg width="160" height="152" viewBox="0 0 160 152" fill="none" xmlns="http://www.w3.org/2000/svg">
<path fill-rule="evenodd" clip-rule="evenodd" d="M19.8938 5.08751C11.6464 5.08751 4.96047 11.4026 4.96047 19.1927V132.739C4.96047 140.244 11.1648 146.379 18.9927 146.819L112.763 58.249C113.183 57.8523 113.753 57.6293 114.347 57.6293C114.941 57.6293 115.511 57.8523 115.931 58.249L155.041 95.1896V19.1927C155.041 11.4026 148.355 5.08751 140.107 5.08751H19.8938ZM159.521 100.293V19.1927C159.521 9.0656 150.829 0.855957 140.107 0.855957H19.8938C9.17211 0.855957 0.480469 9.0656 0.480469 19.1927V132.739C0.480469 142.867 9.17211 151.076 19.8938 151.076H140.107C150.829 151.076 159.521 142.867 159.521 132.739V100.302C159.521 100.299 159.521 100.296 159.521 100.293ZM155.041 101.174L114.347 62.7373L25.3016 146.845H140.107C148.355 146.845 155.041 140.53 155.041 132.739V101.174ZM49.9471 37.5295C44.0708 37.5295 39.3071 42.029 39.3071 47.5794C39.3071 53.1298 44.0708 57.6293 49.9471 57.6293C55.8235 57.6293 60.5871 53.1298 60.5871 47.5794C60.5871 42.029 55.8235 37.5295 49.9471 37.5295ZM34.8271 47.5794C34.8271 39.6919 41.5966 33.2979 49.9471 33.2979C58.2977 33.2979 65.0671 39.6919 65.0671 47.5794C65.0671 55.4669 58.2977 61.8609 49.9471 61.8609C41.5966 61.8609 34.8271 55.4669 34.8271 47.5794Z" fill="#7C9DFE"/>
</svg>
