<svg width="41" height="40" viewBox="0 0 41 40" fill="none" xmlns="http://www.w3.org/2000/svg">
<path d="M33.9499 2.5003C32.9553 2.5003 32.0015 2.89539 31.2982 3.59865C30.595 4.30191 30.1999 5.25574 30.1999 6.2503C30.1999 7.24486 30.595 8.19869 31.2982 8.90195C32.0015 9.60521 32.9553 10.0003 33.9499 10.0003C34.9444 10.0003 35.8983 9.60521 36.6015 8.90195C37.3048 8.19869 37.6999 7.24486 37.6999 6.2503C37.6999 5.25574 37.3048 4.30191 36.6015 3.59865C35.8983 2.89539 34.9444 2.5003 33.9499 2.5003ZM27.6999 6.2503C27.6997 4.78388 28.2152 3.36409 29.1561 2.23932C30.097 1.11456 31.4034 0.356456 32.8468 0.0976396C34.2902 -0.161176 35.7786 0.0957802 37.0517 0.823553C38.3248 1.55133 39.3014 2.70357 39.8108 4.07869C40.3201 5.45381 40.3297 6.96425 39.8379 8.34573C39.346 9.72721 38.3841 10.8918 37.1204 11.6357C35.8567 12.3795 34.3716 12.6554 32.925 12.4149C31.4785 12.1745 30.1625 11.433 29.2074 10.3203L12.4124 18.1203C12.7985 19.3439 12.7985 20.6567 12.4124 21.8803L29.2074 29.6803C30.217 28.5061 31.6265 27.7486 33.1629 27.5544C34.6992 27.3603 36.2529 27.7434 37.5228 28.6295C38.7928 29.5157 39.6886 30.8417 40.0365 32.3506C40.3845 33.8595 40.16 35.4439 39.4064 36.7967C38.6527 38.1495 37.4238 39.1744 35.9576 39.6727C34.4914 40.171 32.8924 40.1073 31.4706 39.4938C30.0487 38.8804 28.9052 37.761 28.2617 36.3525C27.6181 34.944 27.5204 33.3467 27.9874 31.8703L11.1924 24.0703C10.361 25.0392 9.25276 25.7303 8.01683 26.0505C6.7809 26.3707 5.47654 26.3048 4.27923 25.8615C3.08191 25.4182 2.04907 24.6189 1.31965 23.571C0.590229 22.5232 0.199219 21.277 0.199219 20.0003C0.199219 18.7236 0.590229 17.4774 1.31965 16.4296C2.04907 15.3817 3.08191 14.5824 4.27923 14.1391C5.47654 13.6958 6.7809 13.6299 8.01683 13.9501C9.25276 14.2703 10.361 14.9614 11.1924 15.9303L27.9874 8.1303C27.7962 7.52197 27.6992 6.88796 27.6999 6.2503ZM6.44988 16.2503C5.45532 16.2503 4.50149 16.6454 3.79823 17.3486C3.09497 18.0519 2.69988 19.0057 2.69988 20.0003C2.69988 20.9949 3.09497 21.9487 3.79823 22.6519C4.50149 23.3552 5.45532 23.7503 6.44988 23.7503C7.44444 23.7503 8.39827 23.3552 9.10153 22.6519C9.80479 21.9487 10.1999 20.9949 10.1999 20.0003C10.1999 19.0057 9.80479 18.0519 9.10153 17.3486C8.39827 16.6454 7.44444 16.2503 6.44988 16.2503ZM33.9499 30.0003C32.9553 30.0003 32.0015 30.3954 31.2982 31.0986C30.595 31.8019 30.1999 32.7557 30.1999 33.7503C30.1999 34.7449 30.595 35.6987 31.2982 36.4019C32.0015 37.1052 32.9553 37.5003 33.9499 37.5003C34.9444 37.5003 35.8983 37.1052 36.6015 36.4019C37.3048 35.6987 37.6999 34.7449 37.6999 33.7503C37.6999 32.7557 37.3048 31.8019 36.6015 31.0986C35.8983 30.3954 34.9444 30.0003 33.9499 30.0003Z" fill="white"/>
</svg>
