<svg width="41" height="40" viewBox="0 0 41 40" fill="none" xmlns="http://www.w3.org/2000/svg">
<g clip-path="url(#clip0_909_11498)">
<path d="M7.4948 29.735C7.7543 29.9955 7.95314 30.31 8.07716 30.6561C8.20118 31.0023 8.24732 31.3715 8.2123 31.7375C8.0366 33.4314 7.7035 35.1053 7.2173 36.7375C10.7048 35.93 12.8348 34.995 13.8023 34.505C14.3511 34.2271 14.983 34.1612 15.5773 34.32C17.2809 34.7742 19.0367 35.0028 20.7998 35C30.7898 35 38.2998 27.9825 38.2998 20C38.2998 12.02 30.7898 5 20.7998 5C10.8098 5 3.2998 12.02 3.2998 20C3.2998 23.67 4.8423 27.075 7.4948 29.735ZM6.2623 39.4975C5.66998 39.6149 5.07573 39.7224 4.4798 39.82C3.9798 39.9 3.5998 39.38 3.7973 38.915C4.01928 38.3915 4.22274 37.8603 4.4073 37.3225L4.4148 37.2975C5.0348 35.4975 5.5398 33.4275 5.7248 31.5C2.6573 28.425 0.799805 24.4 0.799805 20C0.799805 10.335 9.7548 2.5 20.7998 2.5C31.8448 2.5 40.7998 10.335 40.7998 20C40.7998 29.665 31.8448 37.5 20.7998 37.5C18.8189 37.5027 16.8463 37.2455 14.9323 36.735C13.6323 37.3925 10.8348 38.59 6.2623 39.4975Z" fill="white"/>
</g>
<defs>
<clipPath id="clip0_909_11498">
<rect width="40" height="40" fill="white" transform="translate(0.799805)"/>
</clipPath>
</defs>
</svg>
