<svg width="70" height="58" viewBox="0 0 70 58" fill="none" xmlns="http://www.w3.org/2000/svg">
<path fill-rule="evenodd" clip-rule="evenodd" d="M8.86636 1.81255C5.28051 1.81255 2.37361 4.20058 2.37361 7.14636V50.0836C2.37361 52.9213 5.07115 55.2414 8.47458 55.4079L49.2444 21.9153C49.427 21.7653 49.6747 21.681 49.933 21.681C50.1913 21.681 50.439 21.7653 50.6217 21.9153L67.6258 35.8843V7.14636C67.6258 4.20058 64.7189 1.81255 61.133 1.81255H8.86636ZM69.5736 37.8142V7.14636C69.5736 3.31684 65.7946 0.212402 61.133 0.212402H8.86636C4.20476 0.212402 0.425781 3.31684 0.425781 7.14636V50.0836C0.425781 53.9131 4.20476 57.0175 8.86636 57.0175H61.133C65.7946 57.0175 69.5736 53.9131 69.5736 50.0836V37.8174C69.5736 37.8163 69.5736 37.8153 69.5736 37.8142ZM67.6258 38.1472L49.933 23.6126L11.2176 55.4174H61.133C64.7189 55.4174 67.6258 53.0294 67.6258 50.0836V38.1472ZM21.933 14.0803C19.3781 14.0803 17.3069 15.7818 17.3069 17.8807C17.3069 19.9795 19.3781 21.681 21.933 21.681C24.4879 21.681 26.5591 19.9795 26.5591 17.8807C26.5591 15.7818 24.4879 14.0803 21.933 14.0803ZM15.3591 17.8807C15.3591 14.8981 18.3024 12.4802 21.933 12.4802C25.5637 12.4802 28.5069 14.8981 28.5069 17.8807C28.5069 20.8633 25.5637 23.2812 21.933 23.2812C18.3024 23.2812 15.3591 20.8633 15.3591 17.8807Z" fill="#7C9DFE"/>
</svg>
