<svg width="40" height="40" viewBox="0 0 40 40" fill="none" xmlns="http://www.w3.org/2000/svg">
<path fill-rule="evenodd" clip-rule="evenodd" d="M27.4025 30.9124C28.1155 30.1526 28.572 29.1881 28.7075 28.1549L36.4825 31.6099C36.8631 31.7795 37.28 31.8512 37.6953 31.8187C38.1107 31.7861 38.5113 31.6503 38.8608 31.4235C39.2103 31.1967 39.4976 30.8862 39.6966 30.5201C39.8955 30.154 39.9998 29.744 40 29.3274V10.6724C39.9996 10.2561 39.8953 9.84646 39.6965 9.48069C39.4977 9.11492 39.2107 8.80459 38.8615 8.57786C38.5124 8.35114 38.1121 8.21519 37.6971 8.18237C37.2821 8.14954 36.8655 8.22088 36.485 8.3899L28.7075 11.8449C28.5486 10.6426 27.9582 9.53906 27.0462 8.73972C26.1342 7.94038 24.9627 7.49976 23.75 7.4999H10.68L12.465 9.9999H23.75C24.413 9.9999 25.0489 10.2633 25.5178 10.7321C25.9866 11.201 26.25 11.8369 26.25 12.4999V27.4999C26.2505 27.9563 26.126 28.4042 25.89 28.7949L27.4025 30.9124ZM3.57 10.4499C3.23961 10.68 2.96976 10.9867 2.78345 11.3436C2.59714 11.7006 2.49989 12.0973 2.5 12.4999V27.4999C2.5 28.1629 2.76339 28.7988 3.23223 29.2677C3.70107 29.7365 4.33696 29.9999 5 29.9999H17.535L19.32 32.4999H5C3.67392 32.4999 2.40215 31.9731 1.46447 31.0354C0.526784 30.0978 0 28.826 0 27.4999V12.4999C0 10.8124 0.835 9.3199 2.1175 8.4149L3.5675 10.4499H3.57ZM37.5 29.3249L28.75 25.4374V14.5624L37.5 10.6724V29.3274V29.3249ZM26.4825 38.2249L1.4825 3.2249L3.5175 1.7749L28.5175 36.7749L26.4825 38.2249Z" fill="white"/>
</svg>
