<svg width="41" height="40" viewBox="0 0 41 40" fill="none" xmlns="http://www.w3.org/2000/svg">
<g clip-path="url(#clip0_909_11496)">
<path d="M32.8994 19.9998C32.8994 21.4098 32.6644 22.7673 32.2344 24.0323L30.1994 21.9973C30.3326 21.3399 30.3996 20.6707 30.3994 19.9998V17.4998C30.3994 17.1683 30.5311 16.8504 30.7655 16.616C31 16.3815 31.3179 16.2498 31.6494 16.2498C31.9809 16.2498 32.2989 16.3815 32.5333 16.616C32.7677 16.8504 32.8994 17.1683 32.8994 17.4998V19.9998ZM20.3994 29.9998C22.4444 29.9998 24.3444 29.3873 25.9294 28.3323L27.7244 30.1298C25.9398 31.424 23.8432 32.2204 21.6494 32.4373V37.4998H29.1494C29.4809 37.4998 29.7989 37.6315 30.0333 37.866C30.2677 38.1004 30.3994 38.4183 30.3994 38.7498C30.3994 39.0814 30.2677 39.3993 30.0333 39.6337C29.7989 39.8682 29.4809 39.9998 29.1494 39.9998H11.6494C11.3179 39.9998 11 39.8682 10.7655 39.6337C10.5311 39.3993 10.3994 39.0814 10.3994 38.7498C10.3994 38.4183 10.5311 38.1004 10.7655 37.866C11 37.6315 11.3179 37.4998 11.6494 37.4998H19.1494V32.4373C16.0661 32.1275 13.2079 30.6834 11.1291 28.3852C9.05037 26.087 7.89938 23.0987 7.89941 19.9998V17.4998C7.89941 17.1683 8.03111 16.8504 8.26553 16.616C8.49995 16.3815 8.81789 16.2498 9.14941 16.2498C9.48093 16.2498 9.79888 16.3815 10.0333 16.616C10.2677 16.8504 10.3994 17.1683 10.3994 17.4998V19.9998C10.3994 22.652 11.453 25.1956 13.3283 27.0709C15.2037 28.9463 17.7472 29.9998 20.3994 29.9998ZM27.8994 7.49985V19.6973L25.3994 17.1973V7.49985C25.4052 6.1955 24.901 4.94053 23.9945 4.00268C23.0879 3.06484 21.8508 2.51838 20.547 2.47989C19.2432 2.4414 17.976 2.91392 17.0157 3.79665C16.0554 4.67938 15.4781 5.90243 15.4069 7.20485L13.2944 5.09235C13.8668 3.41045 15.0174 1.98624 16.5415 1.07326C18.0656 0.160287 19.8642 -0.182208 21.6172 0.106752C23.3701 0.395711 24.9637 1.29737 26.1141 2.65122C27.2645 4.00506 27.8972 5.72323 27.8994 7.49985Z" fill="white"/>
<path d="M24.1146 26.5172L22.2446 24.6472C21.4862 24.9484 20.6656 25.0593 19.8544 24.9703C19.0432 24.8813 18.2662 24.5951 17.591 24.1367C16.9159 23.6783 16.3632 23.0617 15.9812 22.3406C15.5993 21.6194 15.3996 20.8158 15.3996 19.9997V17.8047L12.8996 15.3047V19.9997C12.8993 21.313 13.2437 22.6034 13.8986 23.7418C14.5534 24.8802 15.4957 25.8266 16.6312 26.4865C17.7667 27.1464 19.0555 27.4965 20.3688 27.5019C21.6821 27.5073 22.9738 27.1678 24.1146 26.5172ZM4.51465 3.38475L34.5146 33.3847L36.2846 31.6147L6.28465 1.61475L4.51465 3.38475Z" fill="white"/>
</g>
<defs>
<clipPath id="clip0_909_11496">
<rect width="40" height="40" fill="white" transform="translate(0.399414)"/>
</clipPath>
</defs>
</svg>
