<svg width="63" height="64" viewBox="0 0 63 64" fill="none" xmlns="http://www.w3.org/2000/svg">
<path d="M61.425 32C61.425 48.5271 48.0271 61.925 31.5 61.925C14.9728 61.925 1.575 48.5271 1.575 32C1.575 15.4728 14.9728 2.075 31.5 2.075C48.0271 2.075 61.425 15.4728 61.425 32Z" fill="#EFF3FF" stroke="#EFF3FF" stroke-width="3.15"/>
<path d="M51 50V47.8505C51 47.2475 50.6458 46.706 50.1108 46.493C43.8322 43.9775 36.8623 40.856 36.2766 38.9105V36.869C37.579 35.489 38.6062 33.563 39.2143 31.3085C40.675 30.2465 41.0382 28.055 39.829 26.513V21.9455C39.829 17.228 37.2948 14 31.5007 14C25.8561 14 23.1693 17.228 23.1693 21.9455V26.5145C21.9629 28.0535 22.3252 30.2435 23.784 31.3085C24.3919 33.563 25.42 35.489 26.7232 36.869V38.9105C26.1391 40.853 19.1676 43.976 12.8892 46.4915C12.3542 46.7075 12 47.246 12 47.849V50" fill="#EFF3FF"/>
<path d="M51 50V47.8505C51 47.2475 50.6458 46.706 50.1108 46.493C43.8322 43.9775 36.8623 40.856 36.2766 38.9105V36.869C37.579 35.489 38.6062 33.563 39.2143 31.3085C40.675 30.2465 41.0382 28.055 39.829 26.513V21.9455C39.829 17.228 37.2948 14 31.5007 14C25.8561 14 23.1693 17.228 23.1693 21.9455V26.5145C21.9629 28.0535 22.3252 30.2435 23.784 31.3085C24.3919 33.563 25.42 35.489 26.7232 36.869V38.9105C26.1391 40.853 19.1676 43.976 12.8892 46.4915C12.3542 46.7075 12 47.246 12 47.849V50" stroke="#5B84FE" stroke-width="1.575"/>
</svg>
