<svg width="40" height="40" viewBox="0 0 40 40" fill="none" xmlns="http://www.w3.org/2000/svg">
<path d="M36.6665 16.1169C36.5612 15.8121 36.3698 15.5443 36.1153 15.3461C35.8609 15.1479 35.5545 15.0277 35.2331 15.0002L25.7498 13.6169L21.4998 5.00024C21.3633 4.71846 21.1502 4.48081 20.8849 4.31453C20.6197 4.14825 20.3129 4.06006 19.9998 4.06006C19.6867 4.06006 19.3799 4.14825 19.1146 4.31453C18.8494 4.48081 18.6363 4.71846 18.4998 5.00024L14.2498 13.6002L4.76647 15.0002C4.458 15.0441 4.16801 15.1735 3.92938 15.3738C3.69076 15.5742 3.51307 15.8374 3.41647 16.1336C3.32804 16.423 3.32011 16.7311 3.39351 17.0247C3.46692 17.3184 3.6189 17.5865 3.83313 17.8002L10.7165 24.4669L9.0498 33.9336C8.98251 34.2476 9.00739 34.5744 9.12144 34.8746C9.23549 35.1749 9.43386 35.4358 9.69268 35.6259C9.9515 35.8161 10.2598 35.9274 10.5803 35.9465C10.9009 35.9656 11.2202 35.8917 11.4998 35.7336L19.9998 31.2836L28.4998 35.7336C28.7337 35.8655 28.9979 35.9345 29.2665 35.9336C29.6195 35.9348 29.9638 35.824 30.2498 35.6169C30.5084 35.4317 30.7085 35.1763 30.8267 34.881C30.9448 34.5857 30.976 34.2627 30.9165 33.9502L29.2498 24.4836L36.1331 17.8169C36.3738 17.613 36.5516 17.3451 36.646 17.0442C36.7404 16.7432 36.7475 16.4217 36.6665 16.1169ZM26.4165 22.7836C26.2236 22.9709 26.0788 23.2022 25.9947 23.4576C25.9105 23.7129 25.8894 23.9849 25.9331 24.2502L27.1331 31.2502L20.8665 27.9169C20.6229 27.7964 20.3549 27.7338 20.0831 27.7338C19.8114 27.7338 19.5433 27.7964 19.2998 27.9169L13.0331 31.2502L14.2331 24.2502C14.2769 23.9849 14.2557 23.7129 14.1716 23.4576C14.0874 23.2022 13.9427 22.9709 13.7498 22.7836L8.7498 17.7836L15.7665 16.7669C16.0365 16.7294 16.2931 16.6261 16.514 16.4663C16.7348 16.3065 16.9131 16.095 17.0331 15.8502L19.9998 9.50024L23.1331 15.8669C23.2532 16.1116 23.4315 16.3232 23.6523 16.483C23.8731 16.6428 24.1298 16.746 24.3998 16.7836L31.4165 17.8002L26.4165 22.7836Z" fill="#EFF3FF"/>
</svg>
