<svg width="26" height="26" viewBox="0 0 26 26" fill="none" xmlns="http://www.w3.org/2000/svg">
<path d="M24.5875 6.68726C23.7875 3.97476 21.525 1.71226 18.8125 0.912258C16.75 0.312258 15.325 0.362258 14.3375 1.09976C13.15 1.98726 13.0125 3.58726 13.0125 4.72476V7.83726C13.0125 10.9123 14.4125 12.4748 17.1625 12.4748H20.75C21.875 12.4748 23.4875 12.3373 24.375 11.1498C25.1375 10.1748 25.2 8.74976 24.5875 6.68726Z" fill="#D2D5DA"/>
<path d="M21.1375 14.6999C20.8125 14.3249 20.3375 14.1124 19.85 14.1124H15.375C13.175 14.1124 11.3875 12.3249 11.3875 10.1249V5.64994C11.3875 5.16244 11.175 4.68744 10.8 4.36244C10.4375 4.03744 9.93749 3.88744 9.46249 3.94994C6.52499 4.32494 3.825 5.93744 2.06249 8.36244C0.287495 10.7999 -0.362505 13.7749 0.199995 16.7499C1.0125 21.0499 4.45 24.4874 8.7625 25.2999C9.45 25.4374 10.1375 25.4999 10.825 25.4999C13.0875 25.4999 15.275 24.7999 17.1375 23.4374C19.5625 21.6749 21.175 18.9749 21.55 16.0374C21.6125 15.5499 21.4625 15.0624 21.1375 14.6999Z" fill="#D2D5DA"/>
</svg>
