<svg width="31" height="30" viewBox="0 0 31 30" fill="none" xmlns="http://www.w3.org/2000/svg">
<path fill-rule="evenodd" clip-rule="evenodd" d="M15.5888 5.89628C13.5788 3.88628 10.5688 3.47628 8.14878 4.65628L11.7788 8.28628C12.1688 8.67628 12.1688 9.30628 11.7788 9.69628L10.1888 11.2863C9.79878 11.6863 9.16878 11.6863 8.77878 11.2863L5.14878 7.65628C3.97878 10.0863 4.38878 13.0763 6.39878 15.0863C8.25878 16.9463 10.9788 17.4363 13.2888 16.5663L21.2488 24.5263C22.2788 25.5563 23.9388 25.5563 24.9588 24.5263C25.9888 23.4963 25.9888 21.8363 24.9588 20.8163L17.0388 12.8863C17.9588 10.5463 17.4788 7.78628 15.5888 5.89628Z" fill="#D2D5DA"/>
</svg>
