<svg width="30" height="30" viewBox="0 0 30 30" fill="none" xmlns="http://www.w3.org/2000/svg">
<path fill-rule="evenodd" clip-rule="evenodd" d="M15 5C9.48 5 5 9.48 5 15C5 20.52 9.48 25 15 25C20.52 25 25 20.52 25 15C25 9.48 20.52 5 15 5ZM16 22H14V20H16V22ZM18.07 14.25L17.17 15.17C16.67 15.68 16.31 16.14 16.13 16.86C16.05 17.18 16 17.54 16 18H14V17.5C14 17.04 14.08 16.6 14.22 16.19C14.42 15.61 14.75 15.09 15.17 14.67L16.41 13.41C16.87 12.97 17.09 12.31 16.96 11.61C16.83 10.89 16.27 10.28 15.57 10.08C14.46 9.77 13.43 10.4 13.1 11.35C12.98 11.72 12.67 12 12.28 12H11.98C11.4 12 11 11.44 11.16 10.88C11.59 9.41 12.84 8.29 14.39 8.05C15.91 7.81 17.36 8.6 18.26 9.85C19.44 11.48 19.09 13.23 18.07 14.25Z" fill="#D2D5DA"/>
</svg>
