<svg width="31" height="30" viewBox="0 0 31 30" fill="none" xmlns="http://www.w3.org/2000/svg">
<path fill-rule="evenodd" clip-rule="evenodd" d="M19.5 14C21.16 14 22.49 12.66 22.49 11C22.49 9.34 21.16 8 19.5 8C17.84 8 16.5 9.34 16.5 11C16.5 12.66 17.84 14 19.5 14ZM11.5 14C13.16 14 14.49 12.66 14.49 11C14.49 9.34 13.16 8 11.5 8C9.84 8 8.5 9.34 8.5 11C8.5 12.66 9.84 14 11.5 14ZM11.5 16C9.17 16 4.5 17.17 4.5 19.5V21C4.5 21.55 4.95 22 5.5 22H17.5C18.05 22 18.5 21.55 18.5 21V19.5C18.5 17.17 13.83 16 11.5 16ZM19.5 16C19.21 16 18.88 16.02 18.53 16.05C18.55 16.06 18.56 16.08 18.57 16.09C19.71 16.92 20.5 18.03 20.5 19.5V21C20.5 21.35 20.43 21.69 20.32 22H25.5C26.05 22 26.5 21.55 26.5 21V19.5C26.5 17.17 21.83 16 19.5 16Z" fill="#D2D5DA"/>
</svg>
