<svg width="30" height="30" viewBox="0 0 30 30" fill="none" xmlns="http://www.w3.org/2000/svg">
<g clip-path="url(#clip0_35_6401)">
<path d="M15 2.5C16.12 2.5 17.205 2.6475 18.2375 2.92375L15.58 5.58C15.3784 5.78242 15.2006 6.00721 15.05 6.25H15C13.2694 6.25 11.5777 6.76318 10.1388 7.72464C8.69983 8.6861 7.57832 10.0527 6.91605 11.6515C6.25379 13.2504 6.08051 15.0097 6.41813 16.707C6.75575 18.4044 7.58911 19.9635 8.81282 21.1872C10.0365 22.4109 11.5956 23.2443 13.293 23.5819C14.9903 23.9195 16.7496 23.7462 18.3485 23.0839C19.9473 22.4217 21.3139 21.3002 22.2754 19.8612C23.2368 18.4223 23.75 16.7306 23.75 15V14.95C23.99 14.8 24.215 14.6237 24.4188 14.4187L27.0762 11.7625C27.3525 12.795 27.5 13.88 27.5 15C27.5 21.9037 21.9037 27.5 15 27.5C8.09625 27.5 2.5 21.9037 2.5 15C2.5 8.09625 8.09625 2.5 15 2.5ZM14.4825 8.77125C14.4825 9.835 14.43 10.9138 14.4875 11.9763L13.8125 12.6513C13.5803 12.8834 13.3961 13.1591 13.2705 13.4625C13.1448 13.7658 13.0801 14.091 13.0801 14.4194C13.0801 14.7477 13.1448 15.0729 13.2705 15.3763C13.3961 15.6797 13.5803 15.9553 13.8125 16.1875C14.0447 16.4197 14.3203 16.6039 14.6237 16.7295C14.9271 16.8552 15.2523 16.9199 15.5806 16.9199C15.909 16.9199 16.2342 16.8552 16.5375 16.7295C16.8409 16.6039 17.1166 16.4197 17.3487 16.1875L18.0237 15.5125C19.0863 15.57 20.1637 15.5175 21.2288 15.5175C21.13 16.7054 20.6936 17.8403 19.971 18.7884C19.2485 19.7364 18.2698 20.4581 17.1506 20.8682C16.0313 21.2783 14.8181 21.3598 13.6541 21.1031C12.4901 20.8463 11.4237 20.2621 10.5808 19.4192C9.73793 18.5763 9.15366 17.5099 8.89692 16.3459C8.64018 15.1819 8.72168 13.9687 9.1318 12.8494C9.54192 11.7302 10.2636 10.7515 11.2116 10.029C12.1597 9.30639 13.2946 8.86999 14.4825 8.77125ZM23.13 2.65875C23.3582 2.75335 23.5532 2.91342 23.6904 3.11876C23.8277 3.3241 23.9011 3.56551 23.9013 3.8125V6.1H26.1875C26.4347 6.10005 26.6763 6.17339 26.8818 6.31075C27.0873 6.4481 27.2475 6.64331 27.3421 6.87168C27.4367 7.10006 27.4614 7.35135 27.4132 7.59379C27.365 7.83623 27.246 8.05894 27.0712 8.23375L22.65 12.65C22.4156 12.8844 22.0977 13.0162 21.7663 13.0163H18.75L16.4637 15.3025C16.2292 15.5369 15.9111 15.6685 15.5796 15.6684C15.248 15.6683 14.93 15.5364 14.6956 15.3019C14.4612 15.0673 14.3296 14.7493 14.3297 14.4177C14.3299 14.0861 14.4617 13.7681 14.6962 13.5337L16.9825 11.25V8.2325C16.9824 8.06815 17.0147 7.90539 17.0775 7.75353C17.1403 7.60167 17.2325 7.4637 17.3487 7.3475L21.7675 2.92875C21.9423 2.75383 22.1651 2.6347 22.4076 2.58641C22.6501 2.53813 22.9015 2.56287 23.13 2.6575V2.65875Z" fill="#D2D5DA"/>
</g>
<defs>
<clipPath id="clip0_35_6401">
<rect width="30" height="30" fill="white"/>
</clipPath>
</defs>
</svg>
