<svg width="30" height="30" viewBox="0 0 30 30" fill="none" xmlns="http://www.w3.org/2000/svg">
<path d="M22.5 13.75C24.3625 13.75 26.0875 14.3375 27.5 15.325V10C27.5 8.6125 26.3875 7.5 25 7.5H20V5C20 3.6125 18.8875 2.5 17.5 2.5H12.5C11.1125 2.5 10 3.6125 10 5V7.5H5C3.6125 7.5 2.5125 8.6125 2.5125 10L2.5 23.75C2.5 25.1375 3.6125 26.25 5 26.25H14.6C13.9658 24.9169 13.6795 23.4449 13.7677 21.9713C13.8559 20.4977 14.3158 19.0704 15.1045 17.8224C15.8932 16.5745 16.985 15.5466 18.2781 14.8345C19.5713 14.1224 21.0237 13.7493 22.5 13.75ZM12.5 5H17.5V7.5H12.5V5Z" fill="#D2D5DA"/>
<path d="M22.5 16.25C19.05 16.25 16.25 19.05 16.25 22.5C16.25 25.95 19.05 28.75 22.5 28.75C25.95 28.75 28.75 25.95 28.75 22.5C28.75 19.05 25.95 16.25 22.5 16.25ZM24.5625 25.4375L21.875 22.75V18.75H23.125V22.2375L25.4375 24.55L24.5625 25.4375Z" fill="#D2D5DA"/>
</svg>
